G04*
G04 #@! TF.GenerationSoftware,Altium Limited,Altium Designer,22.7.1 (60)*
G04*
G04 Layer_Color=32896*
%FSLAX25Y25*%
%MOIN*%
G70*
G04*
G04 #@! TF.SameCoordinates,816887E5-1F56-4921-9221-960AF3535DAC*
G04*
G04*
G04 #@! TF.FilePolarity,Positive*
G04*
G01*
G75*
%ADD12C,0.01000*%
D12*
X342791Y100820D02*
X345457D01*
Y96821D01*
X342791D01*
X345457Y98820D02*
X344124D01*
X341458Y96821D02*
X340125D01*
X340792D01*
Y100820D01*
X341458D01*
X338126Y96821D02*
X336793D01*
X337459D01*
Y99487D01*
X338126D01*
X334127D02*
X332794D01*
X332128Y98820D01*
Y96821D01*
X334127D01*
X334793Y97487D01*
X334127Y98154D01*
X332128D01*
X330795Y96821D02*
X328795D01*
X328129Y97487D01*
X328795Y98154D01*
X330128D01*
X330795Y98820D01*
X330128Y99487D01*
X328129D01*
X321464Y95488D02*
X320798D01*
X320131Y96155D01*
Y99487D01*
X322131D01*
X322797Y98820D01*
Y97487D01*
X322131Y96821D01*
X320131D01*
X316799D02*
X318132D01*
X318799Y97487D01*
Y98820D01*
X318132Y99487D01*
X316799D01*
X316133Y98820D01*
Y98154D01*
X318799D01*
X314800Y96821D02*
Y99487D01*
X312801D01*
X312134Y98820D01*
Y96821D01*
X308802D02*
X310135D01*
X310801Y97487D01*
Y98820D01*
X310135Y99487D01*
X308802D01*
X308135Y98820D01*
Y98154D01*
X310801D01*
X306803Y99487D02*
Y96821D01*
Y98154D01*
X306136Y98820D01*
X305470Y99487D01*
X304803D01*
X302804Y96821D02*
X301471D01*
X302137D01*
Y99487D01*
X302804D01*
X296806D02*
X298805D01*
X299471Y98820D01*
Y97487D01*
X298805Y96821D01*
X296806D01*
X291474Y100820D02*
Y96821D01*
X288808D01*
X284810Y100820D02*
X287475D01*
Y96821D01*
X284810D01*
X287475Y98820D02*
X286142D01*
X283477Y100820D02*
Y96821D01*
X281477D01*
X280811Y97487D01*
Y100153D01*
X281477Y100820D01*
X283477D01*
X272814Y99487D02*
X274813D01*
X275479Y98820D01*
Y97487D01*
X274813Y96821D01*
X272814D01*
X270814D02*
X269481D01*
X268815Y97487D01*
Y98820D01*
X269481Y99487D01*
X270814D01*
X271480Y98820D01*
Y97487D01*
X270814Y96821D01*
X267482D02*
Y99487D01*
X265482D01*
X264816Y98820D01*
Y96821D01*
X262817Y100153D02*
Y99487D01*
X263483D01*
X262150D01*
X262817D01*
Y97487D01*
X262150Y96821D01*
X260151Y99487D02*
Y96821D01*
Y98154D01*
X259484Y98820D01*
X258818Y99487D01*
X258152D01*
X255486Y96821D02*
X254153D01*
X253486Y97487D01*
Y98820D01*
X254153Y99487D01*
X255486D01*
X256152Y98820D01*
Y97487D01*
X255486Y96821D01*
X252153D02*
X250821D01*
X251487D01*
Y100820D01*
X252153D01*
X248821Y96821D02*
X247488D01*
X248155D01*
Y100820D01*
X248821D01*
X243490Y96821D02*
X244823D01*
X245489Y97487D01*
Y98820D01*
X244823Y99487D01*
X243490D01*
X242823Y98820D01*
Y98154D01*
X245489D01*
X241490Y99487D02*
Y96821D01*
Y98154D01*
X240824Y98820D01*
X240157Y99487D01*
X239491D01*
X233493Y100820D02*
Y98154D01*
X232160Y96821D01*
X230827Y98154D01*
Y100820D01*
X229494Y96821D02*
X228161D01*
X228828D01*
Y100820D01*
X229494Y100153D01*
X226162Y96821D02*
Y97487D01*
X225495D01*
Y96821D01*
X226162D01*
X222830Y100153D02*
X222163Y100820D01*
X220830D01*
X220164Y100153D01*
Y97487D01*
X220830Y96821D01*
X222163D01*
X222830Y97487D01*
Y100153D01*
X345457Y88947D02*
Y92946D01*
X344124Y91613D01*
X342791Y92946D01*
Y88947D01*
X340792Y91613D02*
X339459D01*
X338792Y90946D01*
Y88947D01*
X340792D01*
X341458Y89613D01*
X340792Y90280D01*
X338792D01*
X334793Y92946D02*
Y88947D01*
X336793D01*
X337459Y89613D01*
Y90946D01*
X336793Y91613D01*
X334793D01*
X331461Y88947D02*
X332794D01*
X333461Y89613D01*
Y90946D01*
X332794Y91613D01*
X331461D01*
X330795Y90946D01*
Y90280D01*
X333461D01*
X325463Y92946D02*
Y88947D01*
X323464D01*
X322797Y89613D01*
Y90280D01*
X323464Y90946D01*
X325463D01*
X323464D01*
X322797Y91613D01*
Y92279D01*
X323464Y92946D01*
X325463D01*
X321464Y91613D02*
Y89613D01*
X320798Y88947D01*
X318799D01*
Y88281D01*
X319465Y87614D01*
X320131D01*
X318799Y88947D02*
Y91613D01*
X317466D02*
X316799D01*
Y90946D01*
X317466D01*
Y91613D01*
Y89613D02*
X316799D01*
Y88947D01*
X317466D01*
Y89613D01*
X310135Y92946D02*
Y90280D01*
X308802Y88947D01*
X307469Y90280D01*
Y92946D01*
X305470Y91613D02*
X304137D01*
X303470Y90946D01*
Y88947D01*
X305470D01*
X306136Y89613D01*
X305470Y90280D01*
X303470D01*
X302137Y88947D02*
X300804D01*
X301471D01*
Y92946D01*
X302137D01*
X298139Y92279D02*
Y91613D01*
X298805D01*
X297472D01*
X298139D01*
Y89613D01*
X297472Y88947D01*
X294806Y92279D02*
Y91613D01*
X295473D01*
X294140D01*
X294806D01*
Y89613D01*
X294140Y88947D01*
X290141D02*
X291474D01*
X292141Y89613D01*
Y90946D01*
X291474Y91613D01*
X290141D01*
X289475Y90946D01*
Y90280D01*
X292141D01*
X288142Y91613D02*
Y88947D01*
Y90280D01*
X287475Y90946D01*
X286809Y91613D01*
X286142D01*
X284143Y88947D02*
X282810D01*
X283477D01*
Y91613D01*
X284143D01*
X274146Y92279D02*
X274813Y92946D01*
X276146D01*
X276812Y92279D01*
Y91613D01*
X276146Y90946D01*
X274813D01*
X274146Y90280D01*
Y89613D01*
X274813Y88947D01*
X276146D01*
X276812Y89613D01*
X272814Y88947D02*
X271480D01*
X272147D01*
Y91613D01*
X272814D01*
X269481Y88947D02*
X268148D01*
X268815D01*
Y92946D01*
X269481D01*
X263483D02*
Y88947D01*
X265482D01*
X266149Y89613D01*
Y90946D01*
X265482Y91613D01*
X263483D01*
X260151Y88947D02*
X261484D01*
X262150Y89613D01*
Y90946D01*
X261484Y91613D01*
X260151D01*
X259484Y90946D01*
Y90280D01*
X262150D01*
M02*
