G04*
G04 #@! TF.GenerationSoftware,Altium Limited,Altium Designer,22.7.1 (60)*
G04*
G04 Layer_Color=16711935*
%FSLAX25Y25*%
%MOIN*%
G70*
G04*
G04 #@! TF.SameCoordinates,816887E5-1F56-4921-9221-960AF3535DAC*
G04*
G04*
G04 #@! TF.FilePolarity,Positive*
G04*
G01*
G75*
%ADD10C,0.00787*%
G36*
X203747Y175165D02*
X201779D01*
X201784Y175160D01*
X201798Y175146D01*
X201817Y175122D01*
X201845Y175086D01*
X201877Y175045D01*
X201913Y174994D01*
X201951Y174936D01*
X201992Y174871D01*
Y174868D01*
X201997Y174863D01*
X202003Y174854D01*
X202008Y174841D01*
X202019Y174824D01*
X202027Y174805D01*
X202052Y174761D01*
X202077Y174712D01*
X202104Y174658D01*
X202128Y174600D01*
X202150Y174546D01*
X201853D01*
X201850Y174549D01*
X201847Y174557D01*
X201839Y174570D01*
X201831Y174590D01*
X201820Y174611D01*
X201803Y174639D01*
X201787Y174669D01*
X201771Y174699D01*
X201727Y174770D01*
X201675Y174846D01*
X201621Y174925D01*
X201558Y174999D01*
X201555Y175002D01*
X201550Y175007D01*
X201541Y175018D01*
X201528Y175032D01*
X201511Y175045D01*
X201495Y175065D01*
X201449Y175106D01*
X201399Y175152D01*
X201342Y175198D01*
X201282Y175239D01*
X201219Y175275D01*
Y175474D01*
X203747D01*
Y175165D01*
D02*
G37*
G36*
X203941Y173934D02*
Y173932D01*
X203936Y173923D01*
X203930Y173907D01*
X203922Y173888D01*
X203911Y173863D01*
X203900Y173833D01*
X203884Y173801D01*
X203865Y173765D01*
X203846Y173727D01*
X203824Y173683D01*
X203772Y173593D01*
X203709Y173495D01*
X203635Y173394D01*
X203638Y173391D01*
X203641Y173380D01*
X203649Y173366D01*
X203660Y173345D01*
X203671Y173317D01*
X203684Y173287D01*
X203698Y173252D01*
X203712Y173211D01*
X203725Y173167D01*
X203739Y173118D01*
X203753Y173069D01*
X203764Y173014D01*
X203783Y172897D01*
X203785Y172837D01*
X203788Y172774D01*
Y172741D01*
X203785Y172717D01*
X203783Y172687D01*
X203780Y172651D01*
X203775Y172613D01*
X203766Y172569D01*
X203758Y172523D01*
X203747Y172474D01*
X203734Y172422D01*
X203720Y172370D01*
X203701Y172315D01*
X203679Y172261D01*
X203655Y172206D01*
X203624Y172154D01*
X203622Y172152D01*
X203616Y172143D01*
X203608Y172127D01*
X203594Y172108D01*
X203578Y172086D01*
X203556Y172059D01*
X203532Y172029D01*
X203504Y171996D01*
X203474Y171963D01*
X203439Y171928D01*
X203401Y171892D01*
X203360Y171857D01*
X203316Y171821D01*
X203270Y171789D01*
X203218Y171756D01*
X203163Y171726D01*
X203160Y171723D01*
X203149Y171720D01*
X203133Y171712D01*
X203111Y171701D01*
X203081Y171690D01*
X203048Y171679D01*
X203010Y171666D01*
X202966Y171652D01*
X202917Y171636D01*
X202866Y171622D01*
X202811Y171611D01*
X202751Y171600D01*
X202691Y171589D01*
X202625Y171581D01*
X202557Y171578D01*
X202489Y171576D01*
X202483D01*
X202472D01*
X202453D01*
X202426Y171578D01*
X202393Y171581D01*
X202355Y171584D01*
X202311Y171589D01*
X202262Y171595D01*
X202213Y171603D01*
X202158Y171611D01*
X202044Y171638D01*
X201986Y171658D01*
X201926Y171677D01*
X201866Y171698D01*
X201809Y171726D01*
X201806Y171729D01*
X201795Y171734D01*
X201779Y171742D01*
X201760Y171753D01*
X201732Y171769D01*
X201702Y171789D01*
X201673Y171810D01*
X201637Y171835D01*
X201599Y171865D01*
X201560Y171898D01*
X201522Y171931D01*
X201484Y171969D01*
X201446Y172012D01*
X201410Y172056D01*
X201375Y172102D01*
X201345Y172154D01*
X201342Y172157D01*
X201337Y172168D01*
X201331Y172182D01*
X201320Y172204D01*
X201307Y172231D01*
X201293Y172261D01*
X201279Y172299D01*
X201263Y172337D01*
X201249Y172384D01*
X201236Y172430D01*
X201222Y172482D01*
X201208Y172539D01*
X201198Y172597D01*
X201192Y172657D01*
X201186Y172720D01*
X201184Y172782D01*
Y172815D01*
X201186Y172840D01*
X201189Y172872D01*
X201192Y172908D01*
X201198Y172946D01*
X201206Y172990D01*
X201214Y173039D01*
X201225Y173088D01*
X201238Y173140D01*
X201255Y173195D01*
X201274Y173249D01*
X201296Y173304D01*
X201320Y173355D01*
X201350Y173410D01*
X201353Y173413D01*
X201359Y173424D01*
X201367Y173437D01*
X201380Y173457D01*
X201397Y173481D01*
X201419Y173506D01*
X201443Y173536D01*
X201470Y173568D01*
X201503Y173604D01*
X201536Y173640D01*
X201574Y173675D01*
X201615Y173710D01*
X201662Y173743D01*
X201708Y173779D01*
X201760Y173809D01*
X201814Y173839D01*
X201817Y173842D01*
X201828Y173844D01*
X201845Y173852D01*
X201866Y173861D01*
X201894Y173874D01*
X201929Y173885D01*
X201967Y173899D01*
X202011Y173913D01*
X202057Y173926D01*
X202109Y173940D01*
X202164Y173953D01*
X202224Y173964D01*
X202284Y173972D01*
X202349Y173981D01*
X202418Y173983D01*
X202486Y173986D01*
X202489D01*
X202500D01*
X202516D01*
X202538Y173983D01*
X202565D01*
X202598Y173981D01*
X202633Y173978D01*
X202672Y173975D01*
X202715Y173970D01*
X202759Y173962D01*
X202855Y173945D01*
X202950Y173923D01*
X203046Y173891D01*
X203048D01*
X203057Y173885D01*
X203070Y173880D01*
X203087Y173872D01*
X203109Y173863D01*
X203133Y173850D01*
X203163Y173836D01*
X203193Y173820D01*
X203261Y173779D01*
X203332Y173730D01*
X203406Y173672D01*
X203477Y173604D01*
X203480Y173607D01*
X203485Y173615D01*
X203493Y173626D01*
X203504Y173645D01*
X203515Y173664D01*
X203532Y173689D01*
X203548Y173716D01*
X203567Y173746D01*
X203605Y173811D01*
X203643Y173885D01*
X203682Y173962D01*
X203712Y174035D01*
X203941Y173934D01*
D02*
G37*
G36*
X313613Y152060D02*
X313645Y152058D01*
X313684Y152055D01*
X313727Y152049D01*
X313776Y152044D01*
X313826Y152036D01*
X313880Y152027D01*
X313995Y152000D01*
X314052Y151981D01*
X314112Y151962D01*
X314172Y151940D01*
X314230Y151913D01*
X314232Y151910D01*
X314243Y151905D01*
X314260Y151897D01*
X314279Y151885D01*
X314306Y151869D01*
X314336Y151850D01*
X314366Y151828D01*
X314402Y151804D01*
X314440Y151774D01*
X314478Y151741D01*
X314516Y151708D01*
X314555Y151670D01*
X314593Y151626D01*
X314628Y151583D01*
X314664Y151536D01*
X314694Y151484D01*
X314696Y151481D01*
X314702Y151471D01*
X314707Y151457D01*
X314718Y151435D01*
X314732Y151408D01*
X314746Y151378D01*
X314759Y151340D01*
X314776Y151301D01*
X314789Y151255D01*
X314803Y151208D01*
X314816Y151157D01*
X314830Y151099D01*
X314841Y151042D01*
X314847Y150982D01*
X314852Y150919D01*
X314855Y150856D01*
Y150824D01*
X314852Y150799D01*
X314849Y150766D01*
X314847Y150731D01*
X314841Y150692D01*
X314833Y150649D01*
X314825Y150600D01*
X314814Y150551D01*
X314800Y150499D01*
X314784Y150444D01*
X314765Y150390D01*
X314743Y150335D01*
X314718Y150283D01*
X314688Y150228D01*
X314686Y150226D01*
X314680Y150215D01*
X314672Y150201D01*
X314658Y150182D01*
X314642Y150157D01*
X314620Y150133D01*
X314595Y150103D01*
X314568Y150070D01*
X314535Y150035D01*
X314503Y149999D01*
X314464Y149964D01*
X314423Y149928D01*
X314377Y149895D01*
X314331Y149860D01*
X314279Y149830D01*
X314224Y149800D01*
X314221Y149797D01*
X314211Y149794D01*
X314194Y149786D01*
X314172Y149778D01*
X314145Y149764D01*
X314109Y149753D01*
X314071Y149740D01*
X314028Y149726D01*
X313981Y149713D01*
X313929Y149699D01*
X313875Y149685D01*
X313815Y149674D01*
X313755Y149666D01*
X313689Y149658D01*
X313621Y149655D01*
X313553Y149652D01*
X313550D01*
X313539D01*
X313523D01*
X313501Y149655D01*
X313473D01*
X313441Y149658D01*
X313405Y149661D01*
X313367Y149663D01*
X313323Y149669D01*
X313280Y149677D01*
X313184Y149693D01*
X313088Y149715D01*
X312993Y149748D01*
X312990D01*
X312982Y149753D01*
X312968Y149759D01*
X312952Y149767D01*
X312930Y149775D01*
X312906Y149789D01*
X312876Y149803D01*
X312845Y149819D01*
X312777Y149860D01*
X312706Y149909D01*
X312632Y149966D01*
X312562Y150035D01*
X312559Y150032D01*
X312553Y150024D01*
X312545Y150013D01*
X312534Y149994D01*
X312523Y149975D01*
X312507Y149950D01*
X312491Y149923D01*
X312472Y149893D01*
X312433Y149827D01*
X312395Y149753D01*
X312357Y149677D01*
X312327Y149603D01*
X312098Y149704D01*
Y149707D01*
X312103Y149715D01*
X312108Y149732D01*
X312117Y149751D01*
X312127Y149775D01*
X312138Y149805D01*
X312155Y149838D01*
X312174Y149873D01*
X312193Y149912D01*
X312215Y149955D01*
X312267Y150046D01*
X312330Y150144D01*
X312403Y150245D01*
X312401Y150248D01*
X312398Y150259D01*
X312390Y150272D01*
X312379Y150294D01*
X312368Y150321D01*
X312354Y150351D01*
X312340Y150387D01*
X312327Y150428D01*
X312313Y150471D01*
X312299Y150521D01*
X312286Y150570D01*
X312275Y150624D01*
X312256Y150742D01*
X312253Y150802D01*
X312250Y150865D01*
Y150897D01*
X312253Y150922D01*
X312256Y150952D01*
X312259Y150987D01*
X312264Y151026D01*
X312272Y151069D01*
X312280Y151116D01*
X312291Y151165D01*
X312305Y151217D01*
X312319Y151269D01*
X312338Y151323D01*
X312359Y151378D01*
X312384Y151432D01*
X312414Y151484D01*
X312417Y151487D01*
X312422Y151495D01*
X312431Y151512D01*
X312444Y151531D01*
X312461Y151552D01*
X312482Y151580D01*
X312507Y151610D01*
X312534Y151643D01*
X312564Y151675D01*
X312600Y151711D01*
X312638Y151746D01*
X312679Y151782D01*
X312723Y151817D01*
X312769Y151850D01*
X312821Y151883D01*
X312876Y151913D01*
X312878Y151916D01*
X312889Y151918D01*
X312906Y151927D01*
X312927Y151937D01*
X312957Y151948D01*
X312990Y151959D01*
X313028Y151973D01*
X313072Y151987D01*
X313121Y152003D01*
X313173Y152017D01*
X313228Y152027D01*
X313288Y152038D01*
X313348Y152049D01*
X313413Y152058D01*
X313482Y152060D01*
X313550Y152063D01*
X313555D01*
X313566D01*
X313585D01*
X313613Y152060D01*
D02*
G37*
G36*
X312359Y149369D02*
X312392Y149366D01*
X312428Y149358D01*
X312466Y149349D01*
X312504Y149336D01*
X312507D01*
X312512Y149333D01*
X312521Y149330D01*
X312534Y149325D01*
X312548Y149317D01*
X312567Y149308D01*
X312611Y149287D01*
X312663Y149259D01*
X312720Y149224D01*
X312780Y149183D01*
X312840Y149134D01*
X312843Y149131D01*
X312848Y149128D01*
X312856Y149120D01*
X312870Y149106D01*
X312884Y149093D01*
X312903Y149074D01*
X312925Y149055D01*
X312949Y149030D01*
X312977Y149003D01*
X313004Y148973D01*
X313037Y148940D01*
X313069Y148902D01*
X313105Y148863D01*
X313140Y148820D01*
X313178Y148776D01*
X313219Y148727D01*
X313222Y148722D01*
X313236Y148708D01*
X313252Y148689D01*
X313277Y148661D01*
X313304Y148629D01*
X313337Y148590D01*
X313372Y148547D01*
X313413Y148503D01*
X313498Y148410D01*
X313588Y148320D01*
X313632Y148276D01*
X313675Y148235D01*
X313716Y148200D01*
X313755Y148170D01*
X313757Y148167D01*
X313763Y148165D01*
X313774Y148156D01*
X313787Y148148D01*
X313806Y148135D01*
X313826Y148124D01*
X313875Y148096D01*
X313932Y148069D01*
X313995Y148044D01*
X314060Y148028D01*
X314093Y148025D01*
X314126Y148023D01*
X314129D01*
X314134D01*
X314145D01*
X314156Y148025D01*
X314172D01*
X314191Y148031D01*
X314232Y148039D01*
X314282Y148055D01*
X314333Y148080D01*
X314361Y148094D01*
X314385Y148113D01*
X314410Y148132D01*
X314434Y148156D01*
X314437Y148159D01*
X314440Y148162D01*
X314445Y148170D01*
X314454Y148181D01*
X314464Y148195D01*
X314475Y148211D01*
X314500Y148249D01*
X314522Y148301D01*
X314544Y148358D01*
X314557Y148427D01*
X314563Y148465D01*
Y148525D01*
X314560Y148541D01*
Y148560D01*
X314555Y148582D01*
X314546Y148631D01*
X314530Y148689D01*
X314505Y148749D01*
X314489Y148779D01*
X314473Y148809D01*
X314451Y148836D01*
X314426Y148863D01*
X314423Y148866D01*
X314421Y148869D01*
X314412Y148874D01*
X314402Y148885D01*
X314388Y148893D01*
X314371Y148904D01*
X314352Y148918D01*
X314331Y148929D01*
X314306Y148943D01*
X314279Y148953D01*
X314213Y148975D01*
X314142Y148992D01*
X314101Y148995D01*
X314058Y148997D01*
X314090Y149314D01*
X314096D01*
X314107Y149311D01*
X314123Y149308D01*
X314148Y149306D01*
X314178Y149300D01*
X314213Y149292D01*
X314251Y149284D01*
X314292Y149270D01*
X314333Y149257D01*
X314380Y149240D01*
X314423Y149218D01*
X314467Y149197D01*
X314513Y149169D01*
X314555Y149139D01*
X314595Y149106D01*
X314631Y149068D01*
X314634Y149065D01*
X314639Y149057D01*
X314647Y149046D01*
X314661Y149030D01*
X314675Y149008D01*
X314691Y148981D01*
X314707Y148951D01*
X314726Y148915D01*
X314743Y148877D01*
X314759Y148833D01*
X314776Y148787D01*
X314789Y148735D01*
X314803Y148680D01*
X314811Y148623D01*
X314816Y148560D01*
X314819Y148495D01*
Y148459D01*
X314816Y148435D01*
X314814Y148405D01*
X314808Y148369D01*
X314803Y148328D01*
X314795Y148287D01*
X314784Y148241D01*
X314770Y148195D01*
X314754Y148145D01*
X314735Y148099D01*
X314710Y148050D01*
X314683Y148003D01*
X314653Y147960D01*
X314617Y147919D01*
X314615Y147916D01*
X314609Y147911D01*
X314595Y147900D01*
X314582Y147886D01*
X314563Y147870D01*
X314538Y147851D01*
X314511Y147831D01*
X314478Y147812D01*
X314445Y147793D01*
X314407Y147774D01*
X314366Y147755D01*
X314322Y147739D01*
X314273Y147725D01*
X314224Y147714D01*
X314172Y147709D01*
X314118Y147706D01*
X314115D01*
X314112D01*
X314104D01*
X314093D01*
X314063Y147709D01*
X314025Y147714D01*
X313978Y147722D01*
X313929Y147733D01*
X313875Y147747D01*
X313820Y147769D01*
X313817D01*
X313815Y147771D01*
X313806Y147774D01*
X313795Y147780D01*
X313766Y147796D01*
X313727Y147818D01*
X313681Y147848D01*
X313629Y147883D01*
X313574Y147924D01*
X313514Y147976D01*
X313512Y147979D01*
X313506Y147982D01*
X313498Y147993D01*
X313484Y148003D01*
X313468Y148020D01*
X313449Y148039D01*
X313424Y148061D01*
X313400Y148088D01*
X313370Y148121D01*
X313337Y148156D01*
X313299Y148195D01*
X313260Y148238D01*
X313217Y148285D01*
X313173Y148337D01*
X313124Y148394D01*
X313072Y148454D01*
X313069Y148457D01*
X313061Y148465D01*
X313050Y148481D01*
X313034Y148498D01*
X313015Y148522D01*
X312993Y148547D01*
X312944Y148604D01*
X312892Y148664D01*
X312837Y148722D01*
X312813Y148749D01*
X312791Y148773D01*
X312769Y148795D01*
X312753Y148812D01*
X312750Y148814D01*
X312739Y148825D01*
X312723Y148839D01*
X312701Y148858D01*
X312676Y148880D01*
X312649Y148902D01*
X312589Y148945D01*
Y147703D01*
X312291D01*
Y149371D01*
X312297D01*
X312310D01*
X312332D01*
X312359Y149369D01*
D02*
G37*
G36*
X313974Y128622D02*
X314007Y128619D01*
X314045Y128616D01*
X314089Y128611D01*
X314138Y128605D01*
X314187Y128597D01*
X314242Y128589D01*
X314356Y128562D01*
X314414Y128542D01*
X314474Y128523D01*
X314534Y128501D01*
X314591Y128474D01*
X314594Y128472D01*
X314605Y128466D01*
X314621Y128458D01*
X314640Y128447D01*
X314668Y128431D01*
X314698Y128411D01*
X314727Y128390D01*
X314763Y128365D01*
X314801Y128335D01*
X314839Y128302D01*
X314878Y128270D01*
X314916Y128231D01*
X314954Y128188D01*
X314990Y128144D01*
X315025Y128097D01*
X315055Y128046D01*
X315058Y128043D01*
X315063Y128032D01*
X315069Y128018D01*
X315080Y127997D01*
X315093Y127969D01*
X315107Y127939D01*
X315121Y127901D01*
X315137Y127863D01*
X315151Y127816D01*
X315164Y127770D01*
X315178Y127718D01*
X315192Y127661D01*
X315202Y127603D01*
X315208Y127543D01*
X315213Y127480D01*
X315216Y127418D01*
Y127385D01*
X315213Y127360D01*
X315211Y127328D01*
X315208Y127292D01*
X315202Y127254D01*
X315194Y127210D01*
X315186Y127161D01*
X315175Y127112D01*
X315162Y127060D01*
X315145Y127006D01*
X315126Y126951D01*
X315104Y126896D01*
X315080Y126844D01*
X315050Y126790D01*
X315047Y126787D01*
X315041Y126776D01*
X315033Y126762D01*
X315020Y126743D01*
X315003Y126719D01*
X314981Y126694D01*
X314957Y126664D01*
X314930Y126631D01*
X314897Y126596D01*
X314864Y126560D01*
X314826Y126525D01*
X314785Y126489D01*
X314738Y126457D01*
X314692Y126421D01*
X314640Y126391D01*
X314586Y126361D01*
X314583Y126358D01*
X314572Y126356D01*
X314556Y126348D01*
X314534Y126339D01*
X314506Y126326D01*
X314471Y126315D01*
X314433Y126301D01*
X314389Y126287D01*
X314343Y126274D01*
X314291Y126260D01*
X314236Y126247D01*
X314176Y126236D01*
X314116Y126227D01*
X314051Y126219D01*
X313982Y126216D01*
X313914Y126214D01*
X313911D01*
X313900D01*
X313884D01*
X313862Y126216D01*
X313835D01*
X313802Y126219D01*
X313767Y126222D01*
X313728Y126225D01*
X313685Y126230D01*
X313641Y126238D01*
X313545Y126255D01*
X313450Y126277D01*
X313354Y126309D01*
X313352D01*
X313343Y126315D01*
X313330Y126320D01*
X313313Y126329D01*
X313292Y126337D01*
X313267Y126350D01*
X313237Y126364D01*
X313207Y126380D01*
X313139Y126421D01*
X313068Y126470D01*
X312994Y126528D01*
X312923Y126596D01*
X312920Y126593D01*
X312915Y126585D01*
X312907Y126574D01*
X312896Y126555D01*
X312885Y126536D01*
X312868Y126511D01*
X312852Y126484D01*
X312833Y126454D01*
X312795Y126389D01*
X312756Y126315D01*
X312718Y126238D01*
X312688Y126165D01*
X312459Y126266D01*
Y126268D01*
X312464Y126277D01*
X312470Y126293D01*
X312478Y126312D01*
X312489Y126337D01*
X312500Y126367D01*
X312516Y126400D01*
X312535Y126435D01*
X312554Y126473D01*
X312576Y126517D01*
X312628Y126607D01*
X312691Y126705D01*
X312765Y126806D01*
X312762Y126809D01*
X312759Y126820D01*
X312751Y126833D01*
X312740Y126855D01*
X312729Y126883D01*
X312716Y126913D01*
X312702Y126948D01*
X312688Y126989D01*
X312675Y127033D01*
X312661Y127082D01*
X312647Y127131D01*
X312636Y127186D01*
X312617Y127303D01*
X312614Y127363D01*
X312612Y127426D01*
Y127459D01*
X312614Y127483D01*
X312617Y127513D01*
X312620Y127549D01*
X312625Y127587D01*
X312634Y127631D01*
X312642Y127677D01*
X312653Y127726D01*
X312666Y127778D01*
X312680Y127830D01*
X312699Y127885D01*
X312721Y127939D01*
X312745Y127994D01*
X312776Y128046D01*
X312778Y128048D01*
X312784Y128057D01*
X312792Y128073D01*
X312806Y128092D01*
X312822Y128114D01*
X312844Y128141D01*
X312868Y128171D01*
X312896Y128204D01*
X312926Y128237D01*
X312961Y128272D01*
X312999Y128308D01*
X313040Y128343D01*
X313084Y128379D01*
X313130Y128411D01*
X313182Y128444D01*
X313237Y128474D01*
X313240Y128477D01*
X313251Y128480D01*
X313267Y128488D01*
X313289Y128499D01*
X313319Y128510D01*
X313352Y128521D01*
X313390Y128534D01*
X313434Y128548D01*
X313483Y128564D01*
X313534Y128578D01*
X313589Y128589D01*
X313649Y128600D01*
X313709Y128611D01*
X313775Y128619D01*
X313843Y128622D01*
X313911Y128624D01*
X313917D01*
X313928D01*
X313947D01*
X313974Y128622D01*
D02*
G37*
G36*
X313360Y125580D02*
X313357D01*
X313349Y125578D01*
X313335Y125575D01*
X313316Y125569D01*
X313294Y125564D01*
X313270Y125559D01*
X313212Y125540D01*
X313150Y125515D01*
X313087Y125485D01*
X313030Y125447D01*
X313005Y125425D01*
X312980Y125403D01*
Y125400D01*
X312975Y125398D01*
X312969Y125389D01*
X312961Y125381D01*
X312945Y125354D01*
X312923Y125316D01*
X312901Y125269D01*
X312885Y125217D01*
X312871Y125155D01*
X312866Y125089D01*
Y125067D01*
X312868Y125051D01*
X312871Y125034D01*
X312874Y125010D01*
X312885Y124961D01*
X312901Y124901D01*
X312929Y124838D01*
X312948Y124808D01*
X312967Y124778D01*
X312988Y124748D01*
X313016Y124718D01*
X313018Y124715D01*
X313024Y124712D01*
X313032Y124704D01*
X313043Y124693D01*
X313057Y124682D01*
X313076Y124671D01*
X313095Y124658D01*
X313120Y124641D01*
X313174Y124614D01*
X313237Y124592D01*
X313311Y124573D01*
X313349Y124570D01*
X313390Y124568D01*
X313392D01*
X313398D01*
X313412D01*
X313425Y124570D01*
X313444Y124573D01*
X313463Y124576D01*
X313513Y124584D01*
X313570Y124603D01*
X313627Y124628D01*
X313657Y124644D01*
X313685Y124663D01*
X313712Y124685D01*
X313739Y124710D01*
X313742Y124712D01*
X313745Y124715D01*
X313753Y124723D01*
X313761Y124734D01*
X313772Y124748D01*
X313783Y124764D01*
X313810Y124805D01*
X313835Y124857D01*
X313857Y124917D01*
X313873Y124985D01*
X313876Y125023D01*
X313878Y125062D01*
Y125078D01*
X313876Y125097D01*
Y125122D01*
X313870Y125155D01*
X313865Y125190D01*
X313857Y125234D01*
X313846Y125280D01*
X314116Y125247D01*
Y125242D01*
X314113Y125228D01*
X314110Y125212D01*
Y125176D01*
X314113Y125163D01*
Y125144D01*
X314116Y125125D01*
X314124Y125078D01*
X314135Y125023D01*
X314154Y124963D01*
X314179Y124901D01*
X314214Y124841D01*
Y124838D01*
X314220Y124832D01*
X314225Y124827D01*
X314233Y124816D01*
X314258Y124789D01*
X314293Y124759D01*
X314337Y124731D01*
X314392Y124704D01*
X314422Y124693D01*
X314457Y124688D01*
X314493Y124682D01*
X314531Y124680D01*
X314534D01*
X314539D01*
X314547D01*
X314561Y124682D01*
X314591Y124685D01*
X314632Y124693D01*
X314676Y124707D01*
X314722Y124729D01*
X314771Y124759D01*
X314793Y124775D01*
X314815Y124797D01*
X314820Y124802D01*
X314831Y124819D01*
X314850Y124843D01*
X314872Y124876D01*
X314891Y124920D01*
X314910Y124972D01*
X314921Y125029D01*
X314927Y125094D01*
Y125111D01*
X314924Y125125D01*
Y125141D01*
X314921Y125157D01*
X314913Y125201D01*
X314899Y125247D01*
X314878Y125299D01*
X314850Y125348D01*
X314812Y125398D01*
X314807Y125403D01*
X314790Y125417D01*
X314766Y125438D01*
X314727Y125460D01*
X314681Y125488D01*
X314621Y125512D01*
X314553Y125534D01*
X314474Y125550D01*
X314528Y125859D01*
X314531D01*
X314542Y125856D01*
X314558Y125853D01*
X314580Y125848D01*
X314605Y125840D01*
X314635Y125832D01*
X314668Y125821D01*
X314703Y125807D01*
X314782Y125772D01*
X314820Y125752D01*
X314861Y125728D01*
X314899Y125701D01*
X314938Y125671D01*
X314976Y125638D01*
X315009Y125602D01*
X315011Y125600D01*
X315017Y125594D01*
X315025Y125580D01*
X315036Y125567D01*
X315050Y125545D01*
X315063Y125523D01*
X315080Y125496D01*
X315096Y125463D01*
X315110Y125430D01*
X315126Y125392D01*
X315140Y125351D01*
X315153Y125307D01*
X315164Y125258D01*
X315173Y125209D01*
X315178Y125157D01*
X315181Y125103D01*
Y125067D01*
X315178Y125048D01*
X315175Y125029D01*
X315170Y124977D01*
X315159Y124920D01*
X315142Y124854D01*
X315121Y124789D01*
X315091Y124723D01*
Y124721D01*
X315088Y124715D01*
X315082Y124707D01*
X315074Y124693D01*
X315055Y124663D01*
X315028Y124625D01*
X314992Y124581D01*
X314951Y124538D01*
X314905Y124494D01*
X314850Y124456D01*
X314848D01*
X314845Y124453D01*
X314834Y124448D01*
X314823Y124442D01*
X314809Y124434D01*
X314793Y124426D01*
X314752Y124409D01*
X314703Y124393D01*
X314648Y124376D01*
X314588Y124366D01*
X314526Y124363D01*
X314523D01*
X314517D01*
X314509D01*
X314498D01*
X314465Y124368D01*
X314427Y124374D01*
X314381Y124385D01*
X314332Y124401D01*
X314280Y124423D01*
X314228Y124453D01*
X314225D01*
X314223Y124456D01*
X314206Y124469D01*
X314181Y124488D01*
X314152Y124519D01*
X314116Y124554D01*
X314081Y124600D01*
X314048Y124652D01*
X314015Y124712D01*
Y124710D01*
X314012Y124701D01*
X314009Y124690D01*
X314004Y124674D01*
X313999Y124658D01*
X313990Y124636D01*
X313969Y124584D01*
X313938Y124529D01*
X313903Y124472D01*
X313857Y124415D01*
X313799Y124366D01*
X313797Y124363D01*
X313791Y124360D01*
X313783Y124355D01*
X313769Y124346D01*
X313756Y124336D01*
X313737Y124325D01*
X313715Y124314D01*
X313687Y124303D01*
X313660Y124292D01*
X313630Y124281D01*
X313562Y124259D01*
X313483Y124246D01*
X313439Y124240D01*
X313395D01*
X313392D01*
X313382D01*
X313363Y124243D01*
X313341D01*
X313311Y124248D01*
X313278Y124254D01*
X313242Y124259D01*
X313201Y124270D01*
X313158Y124284D01*
X313114Y124300D01*
X313068Y124319D01*
X313021Y124344D01*
X312972Y124371D01*
X312926Y124404D01*
X312879Y124439D01*
X312836Y124483D01*
X312833Y124486D01*
X312825Y124494D01*
X312814Y124508D01*
X312800Y124527D01*
X312784Y124548D01*
X312765Y124578D01*
X312743Y124611D01*
X312724Y124650D01*
X312702Y124690D01*
X312680Y124737D01*
X312661Y124786D01*
X312645Y124841D01*
X312631Y124898D01*
X312620Y124958D01*
X312612Y125021D01*
X312609Y125089D01*
Y125103D01*
X312612Y125122D01*
Y125144D01*
X312614Y125174D01*
X312620Y125206D01*
X312625Y125242D01*
X312634Y125283D01*
X312645Y125327D01*
X312658Y125370D01*
X312672Y125417D01*
X312691Y125463D01*
X312716Y125510D01*
X312740Y125553D01*
X312770Y125600D01*
X312806Y125640D01*
X312808Y125643D01*
X312814Y125649D01*
X312825Y125660D01*
X312841Y125676D01*
X312860Y125692D01*
X312885Y125712D01*
X312912Y125731D01*
X312945Y125752D01*
X312978Y125774D01*
X313018Y125796D01*
X313059Y125818D01*
X313106Y125837D01*
X313155Y125853D01*
X313207Y125870D01*
X313262Y125881D01*
X313319Y125889D01*
X313360Y125580D01*
D02*
G37*
G36*
X239581Y246854D02*
X239259D01*
Y248965D01*
X238522Y246854D01*
X238222D01*
X237495Y249000D01*
Y246854D01*
X237173D01*
Y249374D01*
X237673D01*
X238271Y247589D01*
Y247586D01*
X238273Y247578D01*
X238279Y247564D01*
X238284Y247548D01*
X238290Y247529D01*
X238298Y247504D01*
X238317Y247449D01*
X238336Y247389D01*
X238355Y247327D01*
X238374Y247269D01*
X238383Y247242D01*
X238391Y247217D01*
Y247220D01*
X238393Y247223D01*
X238396Y247231D01*
X238399Y247242D01*
X238404Y247258D01*
X238410Y247275D01*
X238415Y247297D01*
X238423Y247318D01*
X238432Y247346D01*
X238443Y247376D01*
X238454Y247409D01*
X238464Y247447D01*
X238478Y247485D01*
X238492Y247529D01*
X238508Y247572D01*
X238525Y247621D01*
X239131Y249374D01*
X239581D01*
Y246854D01*
D02*
G37*
G36*
X243698D02*
X243389D01*
Y248823D01*
X243384Y248817D01*
X243370Y248803D01*
X243346Y248784D01*
X243310Y248757D01*
X243269Y248724D01*
X243217Y248689D01*
X243160Y248651D01*
X243094Y248610D01*
X243092D01*
X243086Y248604D01*
X243078Y248599D01*
X243064Y248593D01*
X243048Y248582D01*
X243029Y248574D01*
X242985Y248550D01*
X242936Y248525D01*
X242882Y248498D01*
X242824Y248473D01*
X242770Y248451D01*
Y248749D01*
X242772Y248752D01*
X242781Y248754D01*
X242794Y248763D01*
X242813Y248771D01*
X242835Y248782D01*
X242863Y248798D01*
X242893Y248814D01*
X242923Y248831D01*
X242993Y248874D01*
X243070Y248926D01*
X243149Y248981D01*
X243223Y249044D01*
X243226Y249046D01*
X243231Y249052D01*
X243242Y249060D01*
X243256Y249074D01*
X243269Y249090D01*
X243288Y249107D01*
X243329Y249153D01*
X243376Y249202D01*
X243422Y249259D01*
X243463Y249320D01*
X243499Y249382D01*
X243698D01*
Y246854D01*
D02*
G37*
G36*
X241083Y249371D02*
X241115D01*
X241148Y249369D01*
X241222Y249366D01*
X241296Y249358D01*
X241369Y249349D01*
X241402Y249341D01*
X241432Y249336D01*
X241435D01*
X241443Y249333D01*
X241454Y249330D01*
X241467Y249325D01*
X241487Y249320D01*
X241508Y249314D01*
X241560Y249295D01*
X241618Y249270D01*
X241678Y249240D01*
X241740Y249202D01*
X241800Y249156D01*
X241803Y249153D01*
X241809Y249148D01*
X241820Y249139D01*
X241833Y249126D01*
X241850Y249109D01*
X241869Y249087D01*
X241891Y249066D01*
X241913Y249038D01*
X241937Y249008D01*
X241962Y248975D01*
X241986Y248940D01*
X242011Y248902D01*
X242057Y248817D01*
X242098Y248724D01*
Y248722D01*
X242104Y248713D01*
X242106Y248697D01*
X242114Y248678D01*
X242123Y248653D01*
X242131Y248623D01*
X242139Y248591D01*
X242150Y248552D01*
X242158Y248509D01*
X242166Y248462D01*
X242175Y248413D01*
X242183Y248361D01*
X242191Y248307D01*
X242194Y248249D01*
X242199Y248127D01*
Y248124D01*
Y248113D01*
Y248099D01*
Y248077D01*
X242196Y248053D01*
Y248023D01*
X242194Y247990D01*
X242191Y247955D01*
X242183Y247875D01*
X242169Y247791D01*
X242153Y247703D01*
X242131Y247616D01*
Y247613D01*
X242128Y247605D01*
X242123Y247594D01*
X242120Y247581D01*
X242112Y247561D01*
X242104Y247539D01*
X242085Y247488D01*
X242060Y247430D01*
X242030Y247368D01*
X241997Y247307D01*
X241959Y247250D01*
Y247247D01*
X241953Y247245D01*
X241948Y247236D01*
X241940Y247226D01*
X241921Y247201D01*
X241891Y247168D01*
X241858Y247130D01*
X241820Y247092D01*
X241776Y247056D01*
X241730Y247021D01*
X241727D01*
X241724Y247018D01*
X241708Y247007D01*
X241680Y246993D01*
X241645Y246974D01*
X241601Y246955D01*
X241549Y246933D01*
X241489Y246914D01*
X241426Y246895D01*
X241424D01*
X241418Y246892D01*
X241410D01*
X241396Y246890D01*
X241380Y246887D01*
X241358Y246882D01*
X241336Y246879D01*
X241312Y246876D01*
X241252Y246868D01*
X241184Y246860D01*
X241107Y246857D01*
X241025Y246854D01*
X240116D01*
Y249374D01*
X241055D01*
X241083Y249371D01*
D02*
G37*
G36*
X324982Y196836D02*
X325017Y196833D01*
X325058Y196830D01*
X325102Y196825D01*
X325151Y196819D01*
X325203Y196811D01*
X325257Y196803D01*
X325375Y196776D01*
X325432Y196757D01*
X325489Y196738D01*
X325549Y196716D01*
X325604Y196688D01*
X325607Y196686D01*
X325618Y196680D01*
X325631Y196672D01*
X325653Y196661D01*
X325678Y196645D01*
X325705Y196626D01*
X325735Y196604D01*
X325771Y196579D01*
X325803Y196549D01*
X325841Y196519D01*
X325877Y196484D01*
X325915Y196446D01*
X325951Y196405D01*
X325986Y196361D01*
X326019Y196312D01*
X326049Y196263D01*
X326052Y196260D01*
X326055Y196249D01*
X326063Y196235D01*
X326074Y196213D01*
X326084Y196189D01*
X326098Y196156D01*
X326112Y196121D01*
X326126Y196082D01*
X326139Y196039D01*
X326153Y195990D01*
X326166Y195940D01*
X326177Y195886D01*
X326196Y195774D01*
X326199Y195714D01*
X326202Y195651D01*
Y195615D01*
X326199Y195588D01*
X326196Y195555D01*
X326191Y195517D01*
X326185Y195476D01*
X326177Y195430D01*
X326166Y195381D01*
X326155Y195329D01*
X326139Y195277D01*
X326120Y195222D01*
X326098Y195168D01*
X326071Y195116D01*
X326044Y195064D01*
X326008Y195015D01*
X326005Y195012D01*
X326000Y195004D01*
X325989Y194990D01*
X325973Y194974D01*
X325954Y194952D01*
X325929Y194928D01*
X325902Y194903D01*
X325869Y194873D01*
X325833Y194843D01*
X325792Y194813D01*
X325749Y194783D01*
X325700Y194756D01*
X325648Y194726D01*
X325590Y194701D01*
X325530Y194676D01*
X325467Y194655D01*
X325391Y194982D01*
X325394D01*
X325402Y194988D01*
X325418Y194990D01*
X325437Y194999D01*
X325459Y195007D01*
X325484Y195020D01*
X325544Y195048D01*
X325609Y195083D01*
X325678Y195130D01*
X325741Y195179D01*
X325768Y195209D01*
X325792Y195239D01*
X325795Y195241D01*
X325798Y195247D01*
X325803Y195255D01*
X325812Y195269D01*
X325822Y195285D01*
X325833Y195304D01*
X325844Y195326D01*
X325855Y195353D01*
X325866Y195384D01*
X325877Y195413D01*
X325899Y195484D01*
X325912Y195566D01*
X325918Y195610D01*
Y195684D01*
X325915Y195706D01*
X325912Y195730D01*
X325910Y195760D01*
X325907Y195793D01*
X325902Y195826D01*
X325883Y195905D01*
X325858Y195987D01*
X325841Y196028D01*
X325822Y196069D01*
X325801Y196107D01*
X325776Y196145D01*
X325773Y196148D01*
X325771Y196153D01*
X325762Y196164D01*
X325751Y196178D01*
X325738Y196192D01*
X325719Y196211D01*
X325700Y196230D01*
X325678Y196252D01*
X325650Y196274D01*
X325623Y196298D01*
X325560Y196342D01*
X325487Y196383D01*
X325402Y196418D01*
X325399D01*
X325391Y196421D01*
X325377Y196426D01*
X325361Y196429D01*
X325339Y196434D01*
X325315Y196443D01*
X325285Y196448D01*
X325255Y196456D01*
X325219Y196465D01*
X325181Y196470D01*
X325099Y196484D01*
X325012Y196492D01*
X324919Y196495D01*
X324916D01*
X324905D01*
X324889D01*
X324864Y196492D01*
X324837D01*
X324804Y196489D01*
X324769Y196486D01*
X324728Y196484D01*
X324684Y196478D01*
X324640Y196473D01*
X324545Y196456D01*
X324449Y196432D01*
X324356Y196402D01*
X324354D01*
X324345Y196396D01*
X324335Y196391D01*
X324318Y196385D01*
X324296Y196374D01*
X324274Y196361D01*
X324223Y196331D01*
X324163Y196290D01*
X324105Y196241D01*
X324048Y196181D01*
X324023Y196148D01*
X323999Y196112D01*
Y196110D01*
X323993Y196104D01*
X323988Y196093D01*
X323980Y196077D01*
X323972Y196058D01*
X323961Y196036D01*
X323952Y196011D01*
X323941Y195984D01*
X323920Y195921D01*
X323901Y195848D01*
X323887Y195768D01*
X323884Y195728D01*
X323881Y195684D01*
Y195657D01*
X323884Y195637D01*
X323887Y195613D01*
X323890Y195586D01*
X323895Y195553D01*
X323901Y195520D01*
X323920Y195444D01*
X323933Y195405D01*
X323950Y195364D01*
X323969Y195323D01*
X323991Y195285D01*
X324015Y195247D01*
X324043Y195209D01*
X324045Y195206D01*
X324051Y195201D01*
X324059Y195190D01*
X324073Y195176D01*
X324089Y195162D01*
X324111Y195143D01*
X324135Y195124D01*
X324163Y195102D01*
X324195Y195080D01*
X324231Y195059D01*
X324269Y195037D01*
X324313Y195015D01*
X324359Y194996D01*
X324411Y194977D01*
X324466Y194958D01*
X324523Y194944D01*
X324438Y194611D01*
X324433D01*
X324419Y194616D01*
X324400Y194622D01*
X324370Y194633D01*
X324337Y194644D01*
X324296Y194660D01*
X324253Y194676D01*
X324206Y194698D01*
X324154Y194723D01*
X324105Y194750D01*
X324051Y194780D01*
X323999Y194816D01*
X323950Y194854D01*
X323901Y194895D01*
X323854Y194941D01*
X323810Y194990D01*
X323808Y194993D01*
X323802Y195004D01*
X323791Y195018D01*
X323778Y195039D01*
X323761Y195064D01*
X323742Y195097D01*
X323723Y195132D01*
X323704Y195176D01*
X323685Y195222D01*
X323666Y195272D01*
X323647Y195326D01*
X323630Y195386D01*
X323617Y195449D01*
X323606Y195515D01*
X323600Y195583D01*
X323598Y195657D01*
Y195695D01*
X323600Y195725D01*
X323603Y195757D01*
X323606Y195799D01*
X323611Y195842D01*
X323619Y195891D01*
X323627Y195943D01*
X323638Y195998D01*
X323652Y196052D01*
X323666Y196107D01*
X323685Y196164D01*
X323707Y196219D01*
X323731Y196271D01*
X323761Y196320D01*
X323764Y196323D01*
X323769Y196331D01*
X323778Y196344D01*
X323791Y196361D01*
X323810Y196383D01*
X323830Y196407D01*
X323854Y196434D01*
X323884Y196465D01*
X323917Y196495D01*
X323952Y196527D01*
X323991Y196557D01*
X324034Y196590D01*
X324081Y196623D01*
X324130Y196653D01*
X324184Y196680D01*
X324242Y196707D01*
X324244Y196710D01*
X324255Y196713D01*
X324274Y196719D01*
X324296Y196727D01*
X324326Y196738D01*
X324359Y196748D01*
X324400Y196759D01*
X324444Y196773D01*
X324493Y196784D01*
X324545Y196798D01*
X324599Y196809D01*
X324659Y196817D01*
X324785Y196833D01*
X324851Y196836D01*
X324916Y196839D01*
X324921D01*
X324932D01*
X324954D01*
X324982Y196836D01*
D02*
G37*
G36*
X323707Y194365D02*
X323739Y194362D01*
X323775Y194354D01*
X323813Y194346D01*
X323851Y194332D01*
X323854D01*
X323860Y194330D01*
X323868Y194327D01*
X323881Y194322D01*
X323895Y194313D01*
X323914Y194305D01*
X323958Y194283D01*
X324010Y194256D01*
X324067Y194220D01*
X324127Y194180D01*
X324187Y194130D01*
X324190Y194128D01*
X324195Y194125D01*
X324203Y194117D01*
X324217Y194103D01*
X324231Y194089D01*
X324250Y194070D01*
X324272Y194051D01*
X324296Y194027D01*
X324324Y193999D01*
X324351Y193969D01*
X324384Y193937D01*
X324416Y193898D01*
X324452Y193860D01*
X324487Y193816D01*
X324526Y193773D01*
X324567Y193724D01*
X324569Y193718D01*
X324583Y193704D01*
X324599Y193685D01*
X324624Y193658D01*
X324651Y193625D01*
X324684Y193587D01*
X324720Y193544D01*
X324760Y193500D01*
X324845Y193407D01*
X324935Y193317D01*
X324979Y193273D01*
X325023Y193232D01*
X325063Y193197D01*
X325102Y193167D01*
X325104Y193164D01*
X325110Y193161D01*
X325121Y193153D01*
X325134Y193145D01*
X325154Y193131D01*
X325173Y193120D01*
X325222Y193093D01*
X325279Y193066D01*
X325342Y193041D01*
X325408Y193025D01*
X325440Y193022D01*
X325473Y193019D01*
X325476D01*
X325481D01*
X325492D01*
X325503Y193022D01*
X325519D01*
X325538Y193027D01*
X325579Y193036D01*
X325629Y193052D01*
X325680Y193077D01*
X325708Y193090D01*
X325732Y193109D01*
X325757Y193129D01*
X325781Y193153D01*
X325784Y193156D01*
X325787Y193158D01*
X325792Y193167D01*
X325801Y193178D01*
X325812Y193191D01*
X325822Y193208D01*
X325847Y193246D01*
X325869Y193298D01*
X325891Y193355D01*
X325904Y193423D01*
X325910Y193462D01*
Y193522D01*
X325907Y193538D01*
Y193557D01*
X325902Y193579D01*
X325893Y193628D01*
X325877Y193685D01*
X325852Y193746D01*
X325836Y193775D01*
X325820Y193806D01*
X325798Y193833D01*
X325773Y193860D01*
X325771Y193863D01*
X325768Y193866D01*
X325760Y193871D01*
X325749Y193882D01*
X325735Y193890D01*
X325719Y193901D01*
X325700Y193915D01*
X325678Y193926D01*
X325653Y193939D01*
X325626Y193950D01*
X325560Y193972D01*
X325489Y193989D01*
X325448Y193991D01*
X325405Y193994D01*
X325437Y194311D01*
X325443D01*
X325454Y194308D01*
X325470Y194305D01*
X325495Y194302D01*
X325525Y194297D01*
X325560Y194289D01*
X325599Y194281D01*
X325640Y194267D01*
X325680Y194253D01*
X325727Y194237D01*
X325771Y194215D01*
X325814Y194193D01*
X325861Y194166D01*
X325902Y194136D01*
X325942Y194103D01*
X325978Y194065D01*
X325981Y194062D01*
X325986Y194054D01*
X325994Y194043D01*
X326008Y194027D01*
X326022Y194005D01*
X326038Y193977D01*
X326055Y193948D01*
X326074Y193912D01*
X326090Y193874D01*
X326106Y193830D01*
X326123Y193784D01*
X326136Y193732D01*
X326150Y193677D01*
X326158Y193620D01*
X326164Y193557D01*
X326166Y193492D01*
Y193456D01*
X326164Y193431D01*
X326161Y193402D01*
X326155Y193366D01*
X326150Y193325D01*
X326142Y193284D01*
X326131Y193238D01*
X326117Y193191D01*
X326101Y193142D01*
X326082Y193096D01*
X326057Y193047D01*
X326030Y193000D01*
X326000Y192956D01*
X325964Y192916D01*
X325962Y192913D01*
X325956Y192907D01*
X325942Y192896D01*
X325929Y192883D01*
X325910Y192866D01*
X325885Y192847D01*
X325858Y192828D01*
X325825Y192809D01*
X325792Y192790D01*
X325754Y192771D01*
X325713Y192752D01*
X325670Y192735D01*
X325620Y192722D01*
X325571Y192711D01*
X325519Y192705D01*
X325465Y192703D01*
X325462D01*
X325459D01*
X325451D01*
X325440D01*
X325410Y192705D01*
X325372Y192711D01*
X325326Y192719D01*
X325276Y192730D01*
X325222Y192744D01*
X325167Y192765D01*
X325165D01*
X325162Y192768D01*
X325154Y192771D01*
X325143Y192776D01*
X325113Y192793D01*
X325074Y192815D01*
X325028Y192845D01*
X324976Y192880D01*
X324921Y192921D01*
X324862Y192973D01*
X324859Y192976D01*
X324853Y192978D01*
X324845Y192989D01*
X324831Y193000D01*
X324815Y193017D01*
X324796Y193036D01*
X324771Y193058D01*
X324747Y193085D01*
X324717Y193118D01*
X324684Y193153D01*
X324646Y193191D01*
X324608Y193235D01*
X324564Y193281D01*
X324520Y193333D01*
X324471Y193391D01*
X324419Y193451D01*
X324416Y193453D01*
X324408Y193462D01*
X324397Y193478D01*
X324381Y193494D01*
X324362Y193519D01*
X324340Y193544D01*
X324291Y193601D01*
X324239Y193661D01*
X324184Y193718D01*
X324160Y193746D01*
X324138Y193770D01*
X324116Y193792D01*
X324100Y193808D01*
X324097Y193811D01*
X324086Y193822D01*
X324070Y193836D01*
X324048Y193855D01*
X324023Y193877D01*
X323996Y193898D01*
X323936Y193942D01*
Y192700D01*
X323638D01*
Y194368D01*
X323644D01*
X323657D01*
X323679D01*
X323707Y194365D01*
D02*
G37*
G36*
X334339Y218819D02*
X333168D01*
X333137Y218822D01*
X333107D01*
X333072Y218824D01*
X333031Y218827D01*
X332949Y218835D01*
X332864Y218849D01*
X332783Y218865D01*
X332747Y218876D01*
X332712Y218887D01*
X332709D01*
X332703Y218890D01*
X332695Y218895D01*
X332681Y218901D01*
X332649Y218917D01*
X332611Y218942D01*
X332564Y218974D01*
X332518Y219018D01*
X332471Y219067D01*
X332430Y219127D01*
Y219130D01*
X332425Y219135D01*
X332419Y219144D01*
X332414Y219157D01*
X332406Y219174D01*
X332398Y219193D01*
X332387Y219215D01*
X332376Y219239D01*
X332357Y219297D01*
X332340Y219359D01*
X332329Y219430D01*
X332324Y219507D01*
Y219510D01*
Y219518D01*
Y219534D01*
X332327Y219550D01*
X332329Y219575D01*
X332332Y219602D01*
X332337Y219632D01*
X332346Y219665D01*
X332368Y219736D01*
X332381Y219774D01*
X332398Y219813D01*
X332417Y219851D01*
X332441Y219889D01*
X332469Y219924D01*
X332499Y219960D01*
X332501Y219963D01*
X332507Y219968D01*
X332518Y219976D01*
X332531Y219990D01*
X332551Y220004D01*
X332572Y220020D01*
X332600Y220039D01*
X332632Y220058D01*
X332668Y220077D01*
X332706Y220096D01*
X332750Y220116D01*
X332799Y220135D01*
X332851Y220151D01*
X332908Y220167D01*
X332971Y220181D01*
X333036Y220192D01*
X333034D01*
X333031Y220195D01*
X333015Y220203D01*
X332990Y220217D01*
X332960Y220233D01*
X332927Y220252D01*
X332894Y220271D01*
X332862Y220296D01*
X332834Y220318D01*
X332832Y220320D01*
X332829Y220323D01*
X332821Y220331D01*
X332810Y220342D01*
X332796Y220356D01*
X332780Y220372D01*
X332744Y220410D01*
X332703Y220460D01*
X332657Y220517D01*
X332608Y220582D01*
X332559Y220653D01*
X332122Y221339D01*
X332540D01*
X332873Y220814D01*
X332875Y220812D01*
X332878Y220804D01*
X332886Y220793D01*
X332897Y220776D01*
X332908Y220757D01*
X332925Y220735D01*
X332957Y220686D01*
X332996Y220629D01*
X333034Y220571D01*
X333075Y220517D01*
X333113Y220468D01*
Y220465D01*
X333118Y220462D01*
X333129Y220449D01*
X333146Y220427D01*
X333170Y220402D01*
X333195Y220375D01*
X333225Y220348D01*
X333255Y220320D01*
X333282Y220301D01*
X333285Y220299D01*
X333296Y220293D01*
X333309Y220285D01*
X333329Y220274D01*
X333353Y220263D01*
X333378Y220252D01*
X333405Y220241D01*
X333435Y220233D01*
X333438D01*
X333446Y220230D01*
X333460Y220228D01*
X333479Y220225D01*
X333506D01*
X333539Y220222D01*
X333577Y220219D01*
X334006D01*
Y221339D01*
X334339D01*
Y218819D01*
D02*
G37*
G36*
X330934Y220735D02*
X332032D01*
Y220451D01*
X330880Y218819D01*
X330626D01*
Y220451D01*
X330285D01*
Y220735D01*
X330626D01*
Y221339D01*
X330934D01*
Y220735D01*
D02*
G37*
G36*
X186692Y269849D02*
X184724D01*
X184729Y269844D01*
X184743Y269830D01*
X184762Y269806D01*
X184790Y269770D01*
X184822Y269729D01*
X184858Y269677D01*
X184896Y269620D01*
X184937Y269554D01*
Y269552D01*
X184942Y269546D01*
X184948Y269538D01*
X184953Y269524D01*
X184964Y269508D01*
X184972Y269489D01*
X184997Y269445D01*
X185021Y269396D01*
X185049Y269341D01*
X185073Y269284D01*
X185095Y269229D01*
X184798D01*
X184795Y269232D01*
X184792Y269240D01*
X184784Y269254D01*
X184776Y269273D01*
X184765Y269295D01*
X184748Y269322D01*
X184732Y269352D01*
X184716Y269382D01*
X184672Y269453D01*
X184620Y269530D01*
X184566Y269609D01*
X184503Y269683D01*
X184500Y269685D01*
X184495Y269691D01*
X184486Y269702D01*
X184473Y269715D01*
X184456Y269729D01*
X184440Y269748D01*
X184394Y269789D01*
X184344Y269835D01*
X184287Y269882D01*
X184227Y269923D01*
X184164Y269958D01*
Y270158D01*
X186692D01*
Y269849D01*
D02*
G37*
G36*
X185912Y268703D02*
X185931Y268697D01*
X185961Y268686D01*
X185993Y268675D01*
X186034Y268659D01*
X186078Y268642D01*
X186125Y268621D01*
X186176Y268596D01*
X186225Y268569D01*
X186280Y268539D01*
X186332Y268503D01*
X186381Y268465D01*
X186430Y268424D01*
X186477Y268378D01*
X186520Y268328D01*
X186523Y268326D01*
X186529Y268315D01*
X186539Y268301D01*
X186553Y268279D01*
X186569Y268255D01*
X186589Y268222D01*
X186608Y268187D01*
X186627Y268143D01*
X186646Y268096D01*
X186665Y268047D01*
X186684Y267993D01*
X186700Y267933D01*
X186714Y267870D01*
X186725Y267804D01*
X186731Y267736D01*
X186733Y267662D01*
Y267624D01*
X186731Y267594D01*
X186728Y267561D01*
X186725Y267520D01*
X186720Y267477D01*
X186711Y267428D01*
X186703Y267376D01*
X186692Y267321D01*
X186679Y267267D01*
X186665Y267212D01*
X186646Y267155D01*
X186624Y267100D01*
X186600Y267048D01*
X186569Y266999D01*
X186567Y266996D01*
X186561Y266988D01*
X186553Y266974D01*
X186539Y266958D01*
X186520Y266936D01*
X186501Y266912D01*
X186477Y266884D01*
X186447Y266854D01*
X186414Y266824D01*
X186378Y266792D01*
X186340Y266761D01*
X186296Y266729D01*
X186250Y266696D01*
X186201Y266666D01*
X186146Y266639D01*
X186089Y266611D01*
X186086Y266609D01*
X186075Y266606D01*
X186056Y266600D01*
X186034Y266592D01*
X186004Y266581D01*
X185972Y266570D01*
X185931Y266560D01*
X185887Y266546D01*
X185838Y266535D01*
X185786Y266521D01*
X185731Y266510D01*
X185671Y266502D01*
X185546Y266486D01*
X185480Y266483D01*
X185415Y266480D01*
X185409D01*
X185398D01*
X185376D01*
X185349Y266483D01*
X185314Y266486D01*
X185273Y266489D01*
X185229Y266494D01*
X185180Y266499D01*
X185128Y266508D01*
X185073Y266516D01*
X184956Y266543D01*
X184899Y266562D01*
X184841Y266581D01*
X184781Y266603D01*
X184727Y266631D01*
X184724Y266633D01*
X184713Y266639D01*
X184699Y266647D01*
X184678Y266658D01*
X184653Y266674D01*
X184626Y266693D01*
X184596Y266715D01*
X184560Y266740D01*
X184527Y266770D01*
X184489Y266800D01*
X184454Y266835D01*
X184415Y266873D01*
X184380Y266914D01*
X184344Y266958D01*
X184312Y267007D01*
X184282Y267056D01*
X184279Y267059D01*
X184276Y267070D01*
X184268Y267084D01*
X184257Y267106D01*
X184246Y267130D01*
X184233Y267163D01*
X184219Y267198D01*
X184205Y267236D01*
X184192Y267280D01*
X184178Y267329D01*
X184164Y267378D01*
X184153Y267433D01*
X184134Y267545D01*
X184132Y267605D01*
X184129Y267668D01*
Y267703D01*
X184132Y267731D01*
X184134Y267763D01*
X184140Y267802D01*
X184145Y267843D01*
X184153Y267889D01*
X184164Y267938D01*
X184175Y267990D01*
X184192Y268042D01*
X184211Y268096D01*
X184233Y268151D01*
X184260Y268203D01*
X184287Y268255D01*
X184323Y268304D01*
X184325Y268307D01*
X184331Y268315D01*
X184342Y268328D01*
X184358Y268345D01*
X184377Y268367D01*
X184402Y268391D01*
X184429Y268416D01*
X184462Y268446D01*
X184497Y268476D01*
X184538Y268506D01*
X184582Y268536D01*
X184631Y268563D01*
X184683Y268593D01*
X184740Y268618D01*
X184800Y268642D01*
X184863Y268664D01*
X184940Y268337D01*
X184937D01*
X184929Y268331D01*
X184912Y268328D01*
X184893Y268320D01*
X184871Y268312D01*
X184847Y268299D01*
X184787Y268271D01*
X184721Y268236D01*
X184653Y268189D01*
X184590Y268140D01*
X184563Y268110D01*
X184538Y268080D01*
X184536Y268077D01*
X184533Y268072D01*
X184527Y268064D01*
X184519Y268050D01*
X184508Y268034D01*
X184497Y268015D01*
X184486Y267993D01*
X184476Y267965D01*
X184465Y267935D01*
X184454Y267905D01*
X184432Y267834D01*
X184418Y267753D01*
X184413Y267709D01*
Y267635D01*
X184415Y267613D01*
X184418Y267589D01*
X184421Y267559D01*
X184424Y267526D01*
X184429Y267493D01*
X184448Y267414D01*
X184473Y267332D01*
X184489Y267291D01*
X184508Y267250D01*
X184530Y267212D01*
X184555Y267174D01*
X184557Y267171D01*
X184560Y267165D01*
X184568Y267155D01*
X184579Y267141D01*
X184593Y267127D01*
X184612Y267108D01*
X184631Y267089D01*
X184653Y267067D01*
X184680Y267045D01*
X184708Y267021D01*
X184770Y266977D01*
X184844Y266936D01*
X184929Y266901D01*
X184931D01*
X184940Y266898D01*
X184953Y266893D01*
X184970Y266890D01*
X184992Y266884D01*
X185016Y266876D01*
X185046Y266871D01*
X185076Y266863D01*
X185112Y266854D01*
X185150Y266849D01*
X185232Y266835D01*
X185319Y266827D01*
X185412Y266824D01*
X185415D01*
X185426D01*
X185442D01*
X185467Y266827D01*
X185494D01*
X185527Y266830D01*
X185562Y266832D01*
X185603Y266835D01*
X185647Y266841D01*
X185690Y266846D01*
X185786Y266863D01*
X185881Y266887D01*
X185974Y266917D01*
X185977D01*
X185985Y266923D01*
X185996Y266928D01*
X186012Y266933D01*
X186034Y266944D01*
X186056Y266958D01*
X186108Y266988D01*
X186168Y267029D01*
X186225Y267078D01*
X186283Y267138D01*
X186307Y267171D01*
X186332Y267207D01*
Y267209D01*
X186337Y267215D01*
X186343Y267226D01*
X186351Y267242D01*
X186359Y267261D01*
X186370Y267283D01*
X186378Y267307D01*
X186389Y267335D01*
X186411Y267398D01*
X186430Y267471D01*
X186444Y267550D01*
X186447Y267591D01*
X186449Y267635D01*
Y267662D01*
X186447Y267682D01*
X186444Y267706D01*
X186441Y267733D01*
X186436Y267766D01*
X186430Y267799D01*
X186411Y267875D01*
X186398Y267914D01*
X186381Y267954D01*
X186362Y267996D01*
X186340Y268034D01*
X186316Y268072D01*
X186288Y268110D01*
X186285Y268113D01*
X186280Y268118D01*
X186272Y268129D01*
X186258Y268143D01*
X186242Y268157D01*
X186220Y268176D01*
X186195Y268195D01*
X186168Y268217D01*
X186135Y268238D01*
X186100Y268260D01*
X186062Y268282D01*
X186018Y268304D01*
X185972Y268323D01*
X185920Y268342D01*
X185865Y268361D01*
X185808Y268375D01*
X185892Y268708D01*
X185898D01*
X185912Y268703D01*
D02*
G37*
G36*
X331158Y247336D02*
X331180D01*
X331210Y247333D01*
X331243Y247328D01*
X331278Y247322D01*
X331319Y247314D01*
X331363Y247303D01*
X331407Y247289D01*
X331453Y247276D01*
X331499Y247257D01*
X331546Y247232D01*
X331590Y247208D01*
X331636Y247178D01*
X331677Y247142D01*
X331680Y247139D01*
X331685Y247134D01*
X331696Y247123D01*
X331712Y247107D01*
X331729Y247088D01*
X331748Y247063D01*
X331767Y247036D01*
X331789Y247003D01*
X331811Y246970D01*
X331833Y246929D01*
X331854Y246888D01*
X331873Y246842D01*
X331890Y246793D01*
X331906Y246741D01*
X331917Y246686D01*
X331925Y246629D01*
X331617Y246588D01*
Y246591D01*
X331614Y246599D01*
X331611Y246613D01*
X331606Y246632D01*
X331600Y246653D01*
X331595Y246678D01*
X331576Y246735D01*
X331551Y246798D01*
X331521Y246861D01*
X331483Y246918D01*
X331461Y246943D01*
X331439Y246967D01*
X331437D01*
X331434Y246973D01*
X331426Y246978D01*
X331417Y246987D01*
X331390Y247003D01*
X331352Y247025D01*
X331306Y247046D01*
X331254Y247063D01*
X331191Y247077D01*
X331125Y247082D01*
X331104D01*
X331087Y247079D01*
X331071Y247077D01*
X331046Y247074D01*
X330997Y247063D01*
X330937Y247046D01*
X330874Y247019D01*
X330844Y247000D01*
X330814Y246981D01*
X330784Y246959D01*
X330754Y246932D01*
X330751Y246929D01*
X330749Y246924D01*
X330740Y246916D01*
X330730Y246905D01*
X330719Y246891D01*
X330708Y246872D01*
X330694Y246853D01*
X330678Y246828D01*
X330650Y246774D01*
X330628Y246711D01*
X330609Y246637D01*
X330607Y246599D01*
X330604Y246558D01*
Y246555D01*
Y246550D01*
Y246536D01*
X330607Y246522D01*
X330609Y246503D01*
X330612Y246484D01*
X330620Y246435D01*
X330640Y246378D01*
X330664Y246320D01*
X330680Y246290D01*
X330699Y246263D01*
X330721Y246236D01*
X330746Y246208D01*
X330749Y246206D01*
X330751Y246203D01*
X330760Y246195D01*
X330770Y246187D01*
X330784Y246176D01*
X330801Y246165D01*
X330841Y246137D01*
X330893Y246113D01*
X330953Y246091D01*
X331022Y246075D01*
X331060Y246072D01*
X331098Y246069D01*
X331115D01*
X331134Y246072D01*
X331158D01*
X331191Y246077D01*
X331226Y246083D01*
X331270Y246091D01*
X331316Y246102D01*
X331284Y245832D01*
X331278D01*
X331265Y245834D01*
X331248Y245837D01*
X331213D01*
X331199Y245834D01*
X331180D01*
X331161Y245832D01*
X331115Y245824D01*
X331060Y245813D01*
X331000Y245794D01*
X330937Y245769D01*
X330877Y245733D01*
X330874D01*
X330869Y245728D01*
X330863Y245723D01*
X330852Y245714D01*
X330825Y245690D01*
X330795Y245654D01*
X330768Y245611D01*
X330740Y245556D01*
X330730Y245526D01*
X330724Y245490D01*
X330719Y245455D01*
X330716Y245417D01*
Y245414D01*
Y245409D01*
Y245400D01*
X330719Y245387D01*
X330721Y245357D01*
X330730Y245316D01*
X330743Y245272D01*
X330765Y245226D01*
X330795Y245177D01*
X330812Y245155D01*
X330833Y245133D01*
X330839Y245127D01*
X330855Y245116D01*
X330880Y245097D01*
X330912Y245075D01*
X330956Y245056D01*
X331008Y245037D01*
X331065Y245026D01*
X331131Y245021D01*
X331147D01*
X331161Y245024D01*
X331177D01*
X331194Y245026D01*
X331237Y245035D01*
X331284Y245048D01*
X331336Y245070D01*
X331385Y245097D01*
X331434Y245135D01*
X331439Y245141D01*
X331453Y245157D01*
X331475Y245182D01*
X331497Y245220D01*
X331524Y245267D01*
X331549Y245327D01*
X331570Y245395D01*
X331587Y245474D01*
X331895Y245420D01*
Y245417D01*
X331892Y245406D01*
X331890Y245389D01*
X331884Y245368D01*
X331876Y245343D01*
X331868Y245313D01*
X331857Y245280D01*
X331843Y245245D01*
X331808Y245166D01*
X331789Y245127D01*
X331764Y245086D01*
X331737Y245048D01*
X331707Y245010D01*
X331674Y244972D01*
X331639Y244939D01*
X331636Y244936D01*
X331630Y244931D01*
X331617Y244923D01*
X331603Y244912D01*
X331581Y244898D01*
X331559Y244884D01*
X331532Y244868D01*
X331499Y244852D01*
X331467Y244838D01*
X331428Y244822D01*
X331387Y244808D01*
X331344Y244794D01*
X331295Y244783D01*
X331245Y244775D01*
X331194Y244770D01*
X331139Y244767D01*
X331104D01*
X331084Y244770D01*
X331065Y244772D01*
X331013Y244778D01*
X330956Y244789D01*
X330891Y244805D01*
X330825Y244827D01*
X330760Y244857D01*
X330757D01*
X330751Y244860D01*
X330743Y244865D01*
X330730Y244873D01*
X330699Y244893D01*
X330661Y244920D01*
X330618Y244955D01*
X330574Y244996D01*
X330530Y245043D01*
X330492Y245097D01*
Y245100D01*
X330489Y245103D01*
X330484Y245114D01*
X330478Y245125D01*
X330470Y245138D01*
X330462Y245155D01*
X330446Y245196D01*
X330429Y245245D01*
X330413Y245299D01*
X330402Y245359D01*
X330399Y245422D01*
Y245425D01*
Y245430D01*
Y245439D01*
Y245449D01*
X330405Y245482D01*
X330410Y245520D01*
X330421Y245567D01*
X330437Y245616D01*
X330459Y245668D01*
X330489Y245720D01*
Y245723D01*
X330492Y245725D01*
X330506Y245742D01*
X330525Y245766D01*
X330555Y245796D01*
X330590Y245832D01*
X330637Y245867D01*
X330689Y245900D01*
X330749Y245933D01*
X330746D01*
X330738Y245935D01*
X330727Y245938D01*
X330710Y245944D01*
X330694Y245949D01*
X330672Y245957D01*
X330620Y245979D01*
X330566Y246009D01*
X330508Y246045D01*
X330451Y246091D01*
X330402Y246148D01*
X330399Y246151D01*
X330397Y246157D01*
X330391Y246165D01*
X330383Y246178D01*
X330372Y246192D01*
X330361Y246211D01*
X330350Y246233D01*
X330339Y246260D01*
X330328Y246288D01*
X330317Y246318D01*
X330295Y246386D01*
X330282Y246465D01*
X330276Y246509D01*
Y246552D01*
Y246555D01*
Y246566D01*
X330279Y246585D01*
Y246607D01*
X330285Y246637D01*
X330290Y246670D01*
X330295Y246705D01*
X330306Y246746D01*
X330320Y246790D01*
X330336Y246834D01*
X330356Y246880D01*
X330380Y246926D01*
X330407Y246976D01*
X330440Y247022D01*
X330476Y247068D01*
X330519Y247112D01*
X330522Y247115D01*
X330530Y247123D01*
X330544Y247134D01*
X330563Y247147D01*
X330585Y247164D01*
X330615Y247183D01*
X330648Y247205D01*
X330686Y247224D01*
X330727Y247246D01*
X330773Y247268D01*
X330822Y247287D01*
X330877Y247303D01*
X330934Y247317D01*
X330994Y247328D01*
X331057Y247336D01*
X331125Y247339D01*
X331139D01*
X331158Y247336D01*
D02*
G37*
G36*
X334339Y244775D02*
X333167D01*
X333137Y244778D01*
X333107D01*
X333072Y244781D01*
X333031Y244783D01*
X332949Y244792D01*
X332864Y244805D01*
X332783Y244822D01*
X332747Y244832D01*
X332712Y244843D01*
X332709D01*
X332703Y244846D01*
X332695Y244852D01*
X332681Y244857D01*
X332649Y244873D01*
X332611Y244898D01*
X332564Y244931D01*
X332518Y244974D01*
X332471Y245024D01*
X332430Y245084D01*
Y245086D01*
X332425Y245092D01*
X332419Y245100D01*
X332414Y245114D01*
X332406Y245130D01*
X332398Y245149D01*
X332387Y245171D01*
X332376Y245196D01*
X332357Y245253D01*
X332340Y245316D01*
X332329Y245387D01*
X332324Y245463D01*
Y245466D01*
Y245474D01*
Y245490D01*
X332327Y245507D01*
X332329Y245531D01*
X332332Y245559D01*
X332337Y245589D01*
X332346Y245621D01*
X332367Y245692D01*
X332381Y245731D01*
X332398Y245769D01*
X332417Y245807D01*
X332441Y245845D01*
X332469Y245881D01*
X332499Y245916D01*
X332501Y245919D01*
X332507Y245924D01*
X332518Y245933D01*
X332531Y245946D01*
X332551Y245960D01*
X332572Y245976D01*
X332600Y245995D01*
X332632Y246015D01*
X332668Y246034D01*
X332706Y246053D01*
X332750Y246072D01*
X332799Y246091D01*
X332851Y246107D01*
X332908Y246124D01*
X332971Y246137D01*
X333036Y246148D01*
X333034D01*
X333031Y246151D01*
X333015Y246159D01*
X332990Y246173D01*
X332960Y246189D01*
X332927Y246208D01*
X332894Y246228D01*
X332862Y246252D01*
X332834Y246274D01*
X332832Y246277D01*
X332829Y246279D01*
X332821Y246288D01*
X332810Y246299D01*
X332796Y246312D01*
X332780Y246328D01*
X332744Y246367D01*
X332703Y246416D01*
X332657Y246473D01*
X332608Y246539D01*
X332559Y246610D01*
X332122Y247295D01*
X332540D01*
X332873Y246771D01*
X332875Y246768D01*
X332878Y246760D01*
X332886Y246749D01*
X332897Y246733D01*
X332908Y246713D01*
X332925Y246692D01*
X332957Y246642D01*
X332995Y246585D01*
X333034Y246528D01*
X333075Y246473D01*
X333113Y246424D01*
Y246421D01*
X333118Y246419D01*
X333129Y246405D01*
X333146Y246383D01*
X333170Y246359D01*
X333195Y246331D01*
X333225Y246304D01*
X333255Y246277D01*
X333282Y246258D01*
X333285Y246255D01*
X333296Y246249D01*
X333309Y246241D01*
X333329Y246230D01*
X333353Y246219D01*
X333378Y246208D01*
X333405Y246198D01*
X333435Y246189D01*
X333438D01*
X333446Y246187D01*
X333459Y246184D01*
X333479Y246181D01*
X333506D01*
X333539Y246178D01*
X333577Y246176D01*
X334005D01*
Y247295D01*
X334339D01*
Y244775D01*
D02*
G37*
G36*
X324326Y186999D02*
X324348D01*
X324378Y186994D01*
X324411Y186988D01*
X324446Y186983D01*
X324487Y186972D01*
X324531Y186958D01*
X324575Y186942D01*
X324621Y186923D01*
X324668Y186898D01*
X324717Y186871D01*
X324763Y186838D01*
X324809Y186802D01*
X324853Y186759D01*
X324856Y186756D01*
X324864Y186748D01*
X324875Y186734D01*
X324889Y186715D01*
X324905Y186693D01*
X324924Y186663D01*
X324946Y186631D01*
X324965Y186592D01*
X324987Y186551D01*
X325009Y186505D01*
X325028Y186456D01*
X325044Y186401D01*
X325058Y186344D01*
X325069Y186284D01*
X325077Y186221D01*
X325080Y186153D01*
Y186139D01*
X325077Y186120D01*
Y186098D01*
X325074Y186068D01*
X325069Y186035D01*
X325063Y186000D01*
X325055Y185959D01*
X325044Y185915D01*
X325031Y185872D01*
X325017Y185825D01*
X324998Y185779D01*
X324973Y185732D01*
X324949Y185689D01*
X324919Y185642D01*
X324883Y185601D01*
X324880Y185599D01*
X324875Y185593D01*
X324864Y185582D01*
X324848Y185566D01*
X324829Y185549D01*
X324804Y185530D01*
X324777Y185511D01*
X324744Y185489D01*
X324711Y185468D01*
X324670Y185446D01*
X324629Y185424D01*
X324583Y185405D01*
X324534Y185388D01*
X324482Y185372D01*
X324427Y185361D01*
X324370Y185353D01*
X324329Y185661D01*
X324332D01*
X324340Y185664D01*
X324354Y185667D01*
X324373Y185672D01*
X324394Y185678D01*
X324419Y185683D01*
X324476Y185702D01*
X324539Y185727D01*
X324602Y185757D01*
X324659Y185795D01*
X324684Y185817D01*
X324708Y185839D01*
Y185842D01*
X324714Y185844D01*
X324719Y185853D01*
X324728Y185861D01*
X324744Y185888D01*
X324766Y185926D01*
X324788Y185973D01*
X324804Y186024D01*
X324818Y186087D01*
X324823Y186153D01*
Y186175D01*
X324820Y186191D01*
X324818Y186207D01*
X324815Y186232D01*
X324804Y186281D01*
X324788Y186341D01*
X324760Y186404D01*
X324741Y186434D01*
X324722Y186464D01*
X324700Y186494D01*
X324673Y186524D01*
X324670Y186527D01*
X324665Y186530D01*
X324657Y186538D01*
X324646Y186549D01*
X324632Y186560D01*
X324613Y186571D01*
X324594Y186584D01*
X324569Y186600D01*
X324515Y186628D01*
X324452Y186650D01*
X324378Y186669D01*
X324340Y186671D01*
X324299Y186674D01*
X324296D01*
X324291D01*
X324277D01*
X324263Y186671D01*
X324244Y186669D01*
X324225Y186666D01*
X324176Y186658D01*
X324119Y186639D01*
X324061Y186614D01*
X324031Y186598D01*
X324004Y186579D01*
X323977Y186557D01*
X323950Y186532D01*
X323947Y186530D01*
X323944Y186527D01*
X323936Y186519D01*
X323928Y186508D01*
X323917Y186494D01*
X323906Y186478D01*
X323879Y186437D01*
X323854Y186385D01*
X323832Y186325D01*
X323816Y186257D01*
X323813Y186218D01*
X323810Y186180D01*
Y186164D01*
X323813Y186145D01*
Y186120D01*
X323818Y186087D01*
X323824Y186052D01*
X323832Y186008D01*
X323843Y185962D01*
X323573Y185995D01*
Y186000D01*
X323575Y186014D01*
X323578Y186030D01*
Y186065D01*
X323575Y186079D01*
Y186098D01*
X323573Y186117D01*
X323565Y186164D01*
X323554Y186218D01*
X323534Y186278D01*
X323510Y186341D01*
X323475Y186401D01*
Y186404D01*
X323469Y186409D01*
X323464Y186415D01*
X323455Y186426D01*
X323431Y186453D01*
X323395Y186483D01*
X323352Y186510D01*
X323297Y186538D01*
X323267Y186549D01*
X323232Y186554D01*
X323196Y186560D01*
X323158Y186562D01*
X323155D01*
X323150D01*
X323141D01*
X323128Y186560D01*
X323098Y186557D01*
X323057Y186549D01*
X323013Y186535D01*
X322967Y186513D01*
X322918Y186483D01*
X322896Y186467D01*
X322874Y186445D01*
X322868Y186440D01*
X322857Y186423D01*
X322838Y186398D01*
X322816Y186366D01*
X322797Y186322D01*
X322778Y186270D01*
X322767Y186213D01*
X322762Y186147D01*
Y186131D01*
X322765Y186117D01*
Y186101D01*
X322767Y186085D01*
X322776Y186041D01*
X322789Y185995D01*
X322811Y185943D01*
X322838Y185893D01*
X322877Y185844D01*
X322882Y185839D01*
X322898Y185825D01*
X322923Y185803D01*
X322961Y185782D01*
X323008Y185754D01*
X323068Y185730D01*
X323136Y185708D01*
X323215Y185691D01*
X323161Y185383D01*
X323158D01*
X323147Y185386D01*
X323130Y185388D01*
X323109Y185394D01*
X323084Y185402D01*
X323054Y185410D01*
X323021Y185421D01*
X322986Y185435D01*
X322907Y185470D01*
X322868Y185489D01*
X322827Y185514D01*
X322789Y185541D01*
X322751Y185571D01*
X322713Y185604D01*
X322680Y185640D01*
X322677Y185642D01*
X322672Y185648D01*
X322664Y185661D01*
X322653Y185675D01*
X322639Y185697D01*
X322625Y185719D01*
X322609Y185746D01*
X322593Y185779D01*
X322579Y185812D01*
X322563Y185850D01*
X322549Y185891D01*
X322535Y185934D01*
X322524Y185984D01*
X322516Y186033D01*
X322511Y186085D01*
X322508Y186139D01*
Y186175D01*
X322511Y186194D01*
X322514Y186213D01*
X322519Y186265D01*
X322530Y186322D01*
X322546Y186388D01*
X322568Y186453D01*
X322598Y186519D01*
Y186521D01*
X322601Y186527D01*
X322606Y186535D01*
X322615Y186549D01*
X322634Y186579D01*
X322661Y186617D01*
X322696Y186661D01*
X322737Y186704D01*
X322784Y186748D01*
X322838Y186786D01*
X322841D01*
X322844Y186789D01*
X322855Y186794D01*
X322866Y186800D01*
X322879Y186808D01*
X322896Y186816D01*
X322937Y186833D01*
X322986Y186849D01*
X323040Y186865D01*
X323100Y186876D01*
X323163Y186879D01*
X323166D01*
X323171D01*
X323180D01*
X323190D01*
X323223Y186873D01*
X323261Y186868D01*
X323308Y186857D01*
X323357Y186841D01*
X323409Y186819D01*
X323461Y186789D01*
X323464D01*
X323466Y186786D01*
X323483Y186773D01*
X323507Y186753D01*
X323537Y186723D01*
X323573Y186688D01*
X323608Y186642D01*
X323641Y186590D01*
X323674Y186530D01*
Y186532D01*
X323676Y186540D01*
X323679Y186551D01*
X323685Y186568D01*
X323690Y186584D01*
X323698Y186606D01*
X323720Y186658D01*
X323750Y186713D01*
X323786Y186770D01*
X323832Y186827D01*
X323889Y186876D01*
X323892Y186879D01*
X323898Y186882D01*
X323906Y186887D01*
X323920Y186895D01*
X323933Y186906D01*
X323952Y186917D01*
X323974Y186928D01*
X324001Y186939D01*
X324029Y186950D01*
X324059Y186961D01*
X324127Y186983D01*
X324206Y186996D01*
X324250Y187002D01*
X324293D01*
X324296D01*
X324307D01*
X324326Y186999D01*
D02*
G37*
G36*
X324255Y185061D02*
X324274Y185055D01*
X324304Y185044D01*
X324337Y185034D01*
X324378Y185017D01*
X324422Y185001D01*
X324468Y184979D01*
X324520Y184954D01*
X324569Y184927D01*
X324624Y184897D01*
X324676Y184862D01*
X324725Y184823D01*
X324774Y184782D01*
X324820Y184736D01*
X324864Y184687D01*
X324867Y184684D01*
X324872Y184673D01*
X324883Y184660D01*
X324897Y184638D01*
X324913Y184613D01*
X324932Y184580D01*
X324951Y184545D01*
X324971Y184501D01*
X324990Y184455D01*
X325009Y184406D01*
X325028Y184351D01*
X325044Y184291D01*
X325058Y184228D01*
X325069Y184163D01*
X325074Y184094D01*
X325077Y184021D01*
Y183983D01*
X325074Y183952D01*
X325072Y183920D01*
X325069Y183879D01*
X325063Y183835D01*
X325055Y183786D01*
X325047Y183734D01*
X325036Y183679D01*
X325022Y183625D01*
X325009Y183570D01*
X324990Y183513D01*
X324968Y183458D01*
X324943Y183406D01*
X324913Y183357D01*
X324910Y183355D01*
X324905Y183346D01*
X324897Y183333D01*
X324883Y183316D01*
X324864Y183294D01*
X324845Y183270D01*
X324820Y183243D01*
X324790Y183213D01*
X324758Y183183D01*
X324722Y183150D01*
X324684Y183120D01*
X324640Y183087D01*
X324594Y183054D01*
X324545Y183024D01*
X324490Y182997D01*
X324433Y182970D01*
X324430Y182967D01*
X324419Y182964D01*
X324400Y182959D01*
X324378Y182950D01*
X324348Y182940D01*
X324315Y182929D01*
X324274Y182918D01*
X324231Y182904D01*
X324182Y182893D01*
X324130Y182879D01*
X324075Y182869D01*
X324015Y182860D01*
X323889Y182844D01*
X323824Y182841D01*
X323758Y182839D01*
X323753D01*
X323742D01*
X323720D01*
X323693Y182841D01*
X323657Y182844D01*
X323616Y182847D01*
X323573Y182852D01*
X323524Y182858D01*
X323472Y182866D01*
X323417Y182874D01*
X323300Y182901D01*
X323242Y182921D01*
X323185Y182940D01*
X323125Y182961D01*
X323070Y182989D01*
X323068Y182992D01*
X323057Y182997D01*
X323043Y183005D01*
X323021Y183016D01*
X322997Y183032D01*
X322969Y183052D01*
X322939Y183073D01*
X322904Y183098D01*
X322871Y183128D01*
X322833Y183158D01*
X322797Y183194D01*
X322759Y183232D01*
X322724Y183273D01*
X322688Y183316D01*
X322656Y183365D01*
X322625Y183415D01*
X322623Y183417D01*
X322620Y183428D01*
X322612Y183442D01*
X322601Y183464D01*
X322590Y183488D01*
X322576Y183521D01*
X322563Y183557D01*
X322549Y183595D01*
X322535Y183639D01*
X322522Y183688D01*
X322508Y183737D01*
X322497Y183791D01*
X322478Y183903D01*
X322475Y183963D01*
X322473Y184026D01*
Y184062D01*
X322475Y184089D01*
X322478Y184122D01*
X322483Y184160D01*
X322489Y184201D01*
X322497Y184247D01*
X322508Y184296D01*
X322519Y184348D01*
X322535Y184400D01*
X322554Y184455D01*
X322576Y184509D01*
X322604Y184561D01*
X322631Y184613D01*
X322666Y184662D01*
X322669Y184665D01*
X322675Y184673D01*
X322686Y184687D01*
X322702Y184703D01*
X322721Y184725D01*
X322746Y184750D01*
X322773Y184774D01*
X322806Y184804D01*
X322841Y184834D01*
X322882Y184864D01*
X322926Y184894D01*
X322975Y184922D01*
X323027Y184952D01*
X323084Y184976D01*
X323144Y185001D01*
X323207Y185023D01*
X323283Y184695D01*
X323281D01*
X323272Y184689D01*
X323256Y184687D01*
X323237Y184679D01*
X323215Y184670D01*
X323190Y184657D01*
X323130Y184629D01*
X323065Y184594D01*
X322997Y184548D01*
X322934Y184498D01*
X322907Y184468D01*
X322882Y184438D01*
X322879Y184436D01*
X322877Y184430D01*
X322871Y184422D01*
X322863Y184408D01*
X322852Y184392D01*
X322841Y184373D01*
X322830Y184351D01*
X322819Y184324D01*
X322808Y184294D01*
X322797Y184264D01*
X322776Y184193D01*
X322762Y184111D01*
X322757Y184067D01*
Y183993D01*
X322759Y183972D01*
X322762Y183947D01*
X322765Y183917D01*
X322767Y183884D01*
X322773Y183851D01*
X322792Y183772D01*
X322816Y183690D01*
X322833Y183649D01*
X322852Y183608D01*
X322874Y183570D01*
X322898Y183532D01*
X322901Y183529D01*
X322904Y183524D01*
X322912Y183513D01*
X322923Y183499D01*
X322937Y183486D01*
X322956Y183466D01*
X322975Y183447D01*
X322997Y183425D01*
X323024Y183404D01*
X323051Y183379D01*
X323114Y183335D01*
X323188Y183294D01*
X323272Y183259D01*
X323275D01*
X323283Y183256D01*
X323297Y183251D01*
X323313Y183248D01*
X323335Y183243D01*
X323360Y183234D01*
X323390Y183229D01*
X323420Y183221D01*
X323455Y183213D01*
X323494Y183207D01*
X323575Y183194D01*
X323663Y183185D01*
X323756Y183183D01*
X323758D01*
X323769D01*
X323786D01*
X323810Y183185D01*
X323838D01*
X323870Y183188D01*
X323906Y183191D01*
X323947Y183194D01*
X323990Y183199D01*
X324034Y183204D01*
X324130Y183221D01*
X324225Y183245D01*
X324318Y183275D01*
X324321D01*
X324329Y183281D01*
X324340Y183286D01*
X324356Y183292D01*
X324378Y183303D01*
X324400Y183316D01*
X324452Y183346D01*
X324512Y183387D01*
X324569Y183437D01*
X324626Y183496D01*
X324651Y183529D01*
X324676Y183565D01*
Y183568D01*
X324681Y183573D01*
X324687Y183584D01*
X324695Y183600D01*
X324703Y183619D01*
X324714Y183641D01*
X324722Y183666D01*
X324733Y183693D01*
X324755Y183756D01*
X324774Y183830D01*
X324788Y183909D01*
X324790Y183950D01*
X324793Y183993D01*
Y184021D01*
X324790Y184040D01*
X324788Y184064D01*
X324785Y184092D01*
X324779Y184124D01*
X324774Y184157D01*
X324755Y184234D01*
X324741Y184272D01*
X324725Y184313D01*
X324706Y184354D01*
X324684Y184392D01*
X324659Y184430D01*
X324632Y184468D01*
X324629Y184471D01*
X324624Y184477D01*
X324616Y184487D01*
X324602Y184501D01*
X324586Y184515D01*
X324564Y184534D01*
X324539Y184553D01*
X324512Y184575D01*
X324479Y184597D01*
X324444Y184619D01*
X324405Y184640D01*
X324362Y184662D01*
X324315Y184681D01*
X324263Y184701D01*
X324209Y184720D01*
X324151Y184733D01*
X324236Y185066D01*
X324242D01*
X324255Y185061D01*
D02*
G37*
%LPC*%
G36*
X202486Y173642D02*
X202483D01*
X202472D01*
X202456D01*
X202434Y173640D01*
X202407D01*
X202377Y173637D01*
X202341Y173634D01*
X202306Y173628D01*
X202221Y173618D01*
X202131Y173599D01*
X202041Y173571D01*
X201954Y173536D01*
X201951D01*
X201943Y173530D01*
X201932Y173525D01*
X201916Y173517D01*
X201896Y173506D01*
X201874Y173492D01*
X201823Y173459D01*
X201765Y173416D01*
X201708Y173364D01*
X201651Y173304D01*
X201599Y173233D01*
X201596Y173230D01*
X201593Y173224D01*
X201588Y173214D01*
X201580Y173197D01*
X201569Y173178D01*
X201558Y173156D01*
X201547Y173132D01*
X201533Y173102D01*
X201522Y173069D01*
X201511Y173036D01*
X201490Y172960D01*
X201476Y172875D01*
X201470Y172829D01*
Y172766D01*
X201473Y172747D01*
Y172720D01*
X201479Y172689D01*
X201484Y172651D01*
X201492Y172610D01*
X201503Y172567D01*
X201517Y172517D01*
X201533Y172468D01*
X201555Y172416D01*
X201580Y172365D01*
X201607Y172313D01*
X201642Y172264D01*
X201681Y172212D01*
X201727Y172165D01*
X201730Y172162D01*
X201738Y172154D01*
X201754Y172143D01*
X201774Y172127D01*
X201801Y172108D01*
X201834Y172089D01*
X201872Y172064D01*
X201918Y172042D01*
X201967Y172021D01*
X202025Y171999D01*
X202087Y171977D01*
X202156Y171958D01*
X202229Y171941D01*
X202311Y171931D01*
X202396Y171922D01*
X202489Y171920D01*
X202494D01*
X202511D01*
X202535Y171922D01*
X202571D01*
X202612Y171928D01*
X202658Y171933D01*
X202710Y171939D01*
X202767Y171950D01*
X202827Y171963D01*
X202887Y171980D01*
X202950Y171999D01*
X203013Y172023D01*
X203076Y172051D01*
X203136Y172083D01*
X203190Y172119D01*
X203242Y172162D01*
X203245Y172165D01*
X203253Y172174D01*
X203267Y172187D01*
X203283Y172206D01*
X203302Y172231D01*
X203324Y172258D01*
X203349Y172294D01*
X203373Y172332D01*
X203398Y172373D01*
X203422Y172422D01*
X203444Y172471D01*
X203463Y172526D01*
X203480Y172586D01*
X203493Y172649D01*
X203502Y172714D01*
X203504Y172782D01*
Y172812D01*
X203502Y172829D01*
Y172848D01*
X203496Y172891D01*
X203488Y172943D01*
X203477Y173001D01*
X203461Y173061D01*
X203439Y173121D01*
Y173118D01*
X203433Y173113D01*
X203428Y173104D01*
X203422Y173093D01*
X203414Y173080D01*
X203403Y173061D01*
X203381Y173020D01*
X203360Y172971D01*
X203335Y172916D01*
X203313Y172853D01*
X203294Y172790D01*
X203051Y172870D01*
Y172872D01*
X203054Y172883D01*
X203059Y172897D01*
X203067Y172919D01*
X203076Y172943D01*
X203087Y172971D01*
X203098Y173003D01*
X203111Y173039D01*
X203147Y173113D01*
X203188Y173195D01*
X203237Y173274D01*
X203291Y173347D01*
X203289Y173350D01*
X203278Y173361D01*
X203264Y173375D01*
X203242Y173394D01*
X203212Y173416D01*
X203179Y173440D01*
X203138Y173468D01*
X203089Y173495D01*
X203038Y173522D01*
X202977Y173549D01*
X202912Y173574D01*
X202838Y173596D01*
X202759Y173615D01*
X202674Y173628D01*
X202584Y173640D01*
X202486Y173642D01*
D02*
G37*
G36*
X313550Y151719D02*
X313544D01*
X313528D01*
X313503Y151716D01*
X313468D01*
X313427Y151711D01*
X313381Y151705D01*
X313329Y151700D01*
X313271Y151689D01*
X313211Y151675D01*
X313151Y151659D01*
X313088Y151640D01*
X313026Y151615D01*
X312963Y151588D01*
X312903Y151555D01*
X312848Y151520D01*
X312796Y151476D01*
X312794Y151473D01*
X312785Y151465D01*
X312772Y151452D01*
X312755Y151432D01*
X312736Y151408D01*
X312714Y151381D01*
X312690Y151345D01*
X312665Y151307D01*
X312641Y151266D01*
X312616Y151217D01*
X312594Y151168D01*
X312575Y151113D01*
X312559Y151053D01*
X312545Y150990D01*
X312537Y150925D01*
X312534Y150856D01*
Y150826D01*
X312537Y150810D01*
Y150791D01*
X312543Y150747D01*
X312551Y150695D01*
X312562Y150638D01*
X312578Y150578D01*
X312600Y150518D01*
Y150521D01*
X312605Y150526D01*
X312611Y150534D01*
X312616Y150545D01*
X312624Y150559D01*
X312635Y150578D01*
X312657Y150619D01*
X312679Y150668D01*
X312703Y150723D01*
X312725Y150785D01*
X312744Y150848D01*
X312987Y150769D01*
Y150766D01*
X312985Y150755D01*
X312979Y150742D01*
X312971Y150720D01*
X312963Y150695D01*
X312952Y150668D01*
X312941Y150635D01*
X312927Y150600D01*
X312892Y150526D01*
X312851Y150444D01*
X312802Y150365D01*
X312747Y150291D01*
X312750Y150288D01*
X312761Y150278D01*
X312774Y150264D01*
X312796Y150245D01*
X312826Y150223D01*
X312859Y150198D01*
X312900Y150171D01*
X312949Y150144D01*
X313001Y150117D01*
X313061Y150089D01*
X313127Y150065D01*
X313200Y150043D01*
X313280Y150024D01*
X313364Y150010D01*
X313454Y149999D01*
X313553Y149996D01*
X313555D01*
X313566D01*
X313583D01*
X313604Y149999D01*
X313632D01*
X313662Y150002D01*
X313697Y150005D01*
X313733Y150010D01*
X313817Y150021D01*
X313908Y150040D01*
X313998Y150067D01*
X314085Y150103D01*
X314088D01*
X314096Y150108D01*
X314107Y150114D01*
X314123Y150122D01*
X314142Y150133D01*
X314164Y150146D01*
X314216Y150179D01*
X314273Y150223D01*
X314331Y150275D01*
X314388Y150335D01*
X314440Y150406D01*
X314442Y150409D01*
X314445Y150414D01*
X314451Y150425D01*
X314459Y150441D01*
X314470Y150461D01*
X314481Y150482D01*
X314492Y150507D01*
X314505Y150537D01*
X314516Y150570D01*
X314527Y150602D01*
X314549Y150679D01*
X314563Y150763D01*
X314568Y150810D01*
Y150873D01*
X314565Y150892D01*
Y150919D01*
X314560Y150949D01*
X314555Y150987D01*
X314546Y151028D01*
X314535Y151072D01*
X314522Y151121D01*
X314505Y151170D01*
X314483Y151222D01*
X314459Y151274D01*
X314432Y151326D01*
X314396Y151375D01*
X314358Y151427D01*
X314312Y151473D01*
X314309Y151476D01*
X314301Y151484D01*
X314284Y151495D01*
X314265Y151512D01*
X314238Y151531D01*
X314205Y151550D01*
X314167Y151574D01*
X314120Y151596D01*
X314071Y151618D01*
X314014Y151640D01*
X313951Y151662D01*
X313883Y151681D01*
X313809Y151697D01*
X313727Y151708D01*
X313643Y151716D01*
X313550Y151719D01*
D02*
G37*
G36*
X313911Y128280D02*
X313906D01*
X313889D01*
X313865Y128278D01*
X313829D01*
X313788Y128272D01*
X313742Y128267D01*
X313690Y128261D01*
X313633Y128250D01*
X313573Y128237D01*
X313513Y128220D01*
X313450Y128201D01*
X313387Y128177D01*
X313324Y128149D01*
X313264Y128117D01*
X313210Y128081D01*
X313158Y128037D01*
X313155Y128035D01*
X313147Y128026D01*
X313133Y128013D01*
X313117Y127994D01*
X313098Y127969D01*
X313076Y127942D01*
X313051Y127906D01*
X313027Y127868D01*
X313002Y127827D01*
X312978Y127778D01*
X312956Y127729D01*
X312937Y127674D01*
X312920Y127614D01*
X312907Y127551D01*
X312898Y127486D01*
X312896Y127418D01*
Y127388D01*
X312898Y127371D01*
Y127352D01*
X312904Y127308D01*
X312912Y127257D01*
X312923Y127199D01*
X312939Y127139D01*
X312961Y127079D01*
Y127082D01*
X312967Y127087D01*
X312972Y127096D01*
X312978Y127106D01*
X312986Y127120D01*
X312997Y127139D01*
X313018Y127180D01*
X313040Y127229D01*
X313065Y127284D01*
X313087Y127347D01*
X313106Y127410D01*
X313349Y127330D01*
Y127328D01*
X313346Y127317D01*
X313341Y127303D01*
X313333Y127281D01*
X313324Y127257D01*
X313313Y127229D01*
X313302Y127197D01*
X313289Y127161D01*
X313253Y127087D01*
X313212Y127006D01*
X313163Y126926D01*
X313109Y126853D01*
X313111Y126850D01*
X313122Y126839D01*
X313136Y126825D01*
X313158Y126806D01*
X313188Y126784D01*
X313221Y126760D01*
X313262Y126733D01*
X313311Y126705D01*
X313363Y126678D01*
X313423Y126651D01*
X313488Y126626D01*
X313562Y126604D01*
X313641Y126585D01*
X313726Y126571D01*
X313816Y126560D01*
X313914Y126558D01*
X313917D01*
X313928D01*
X313944D01*
X313966Y126560D01*
X313993D01*
X314023Y126563D01*
X314059Y126566D01*
X314094Y126571D01*
X314179Y126582D01*
X314269Y126602D01*
X314359Y126629D01*
X314446Y126664D01*
X314449D01*
X314457Y126670D01*
X314468Y126675D01*
X314485Y126683D01*
X314504Y126694D01*
X314526Y126708D01*
X314577Y126741D01*
X314635Y126784D01*
X314692Y126836D01*
X314749Y126896D01*
X314801Y126967D01*
X314804Y126970D01*
X314807Y126976D01*
X314812Y126986D01*
X314820Y127003D01*
X314831Y127022D01*
X314842Y127044D01*
X314853Y127068D01*
X314867Y127098D01*
X314878Y127131D01*
X314889Y127164D01*
X314910Y127240D01*
X314924Y127325D01*
X314930Y127371D01*
Y127434D01*
X314927Y127453D01*
Y127480D01*
X314921Y127511D01*
X314916Y127549D01*
X314908Y127590D01*
X314897Y127633D01*
X314883Y127682D01*
X314867Y127732D01*
X314845Y127784D01*
X314820Y127835D01*
X314793Y127887D01*
X314757Y127936D01*
X314719Y127988D01*
X314673Y128035D01*
X314670Y128037D01*
X314662Y128046D01*
X314646Y128057D01*
X314627Y128073D01*
X314599Y128092D01*
X314566Y128111D01*
X314528Y128136D01*
X314482Y128158D01*
X314433Y128179D01*
X314375Y128201D01*
X314313Y128223D01*
X314244Y128242D01*
X314171Y128259D01*
X314089Y128270D01*
X314004Y128278D01*
X313911Y128280D01*
D02*
G37*
G36*
X241031Y249077D02*
X240449D01*
Y247152D01*
X241028D01*
X241050Y247155D01*
X241074D01*
X241129Y247157D01*
X241192Y247163D01*
X241257Y247171D01*
X241320Y247182D01*
X241377Y247196D01*
X241380D01*
X241383Y247198D01*
X241391Y247201D01*
X241402Y247204D01*
X241426Y247215D01*
X241459Y247228D01*
X241495Y247247D01*
X241533Y247269D01*
X241571Y247297D01*
X241604Y247327D01*
X241607Y247329D01*
X241609Y247332D01*
X241623Y247348D01*
X241645Y247376D01*
X241672Y247411D01*
X241700Y247458D01*
X241730Y247512D01*
X241760Y247575D01*
X241787Y247646D01*
Y247649D01*
X241790Y247654D01*
X241792Y247665D01*
X241798Y247681D01*
X241803Y247701D01*
X241809Y247725D01*
X241814Y247752D01*
X241822Y247782D01*
X241828Y247815D01*
X241833Y247853D01*
X241839Y247892D01*
X241844Y247935D01*
X241852Y248028D01*
X241855Y248132D01*
Y248137D01*
Y248148D01*
Y248170D01*
X241852Y248197D01*
Y248230D01*
X241850Y248268D01*
X241844Y248309D01*
X241839Y248356D01*
X241822Y248454D01*
X241800Y248555D01*
X241768Y248651D01*
X241746Y248697D01*
X241724Y248738D01*
X241721Y248741D01*
X241719Y248746D01*
X241710Y248757D01*
X241700Y248774D01*
X241689Y248790D01*
X241672Y248809D01*
X241637Y248853D01*
X241590Y248902D01*
X241536Y248948D01*
X241476Y248992D01*
X241443Y249008D01*
X241407Y249025D01*
X241405D01*
X241402Y249027D01*
X241394Y249030D01*
X241383Y249033D01*
X241367Y249036D01*
X241350Y249041D01*
X241328Y249046D01*
X241304Y249052D01*
X241276Y249055D01*
X241244Y249060D01*
X241208Y249066D01*
X241170Y249068D01*
X241126Y249071D01*
X241080Y249074D01*
X241031Y249077D01*
D02*
G37*
G36*
X334006Y219930D02*
X333252D01*
X333233Y219927D01*
X333211D01*
X333159Y219924D01*
X333102Y219919D01*
X333042Y219911D01*
X332984Y219900D01*
X332933Y219884D01*
X332930D01*
X332927Y219881D01*
X332911Y219875D01*
X332889Y219864D01*
X332859Y219848D01*
X332829Y219826D01*
X332796Y219802D01*
X332763Y219769D01*
X332736Y219733D01*
X332733Y219728D01*
X332725Y219714D01*
X332714Y219695D01*
X332701Y219665D01*
X332690Y219632D01*
X332679Y219594D01*
X332671Y219550D01*
X332668Y219507D01*
Y219504D01*
Y219499D01*
Y219490D01*
X332671Y219477D01*
Y219463D01*
X332673Y219444D01*
X332684Y219403D01*
X332701Y219357D01*
X332722Y219307D01*
X332755Y219261D01*
X332777Y219236D01*
X332799Y219215D01*
X332802Y219212D01*
X332804Y219209D01*
X332813Y219204D01*
X332823Y219196D01*
X332837Y219187D01*
X332856Y219177D01*
X332875Y219166D01*
X332900Y219155D01*
X332927Y219144D01*
X332957Y219135D01*
X332990Y219125D01*
X333026Y219116D01*
X333066Y219108D01*
X333110Y219103D01*
X333156Y219097D01*
X334006D01*
Y219930D01*
D02*
G37*
G36*
X331729Y220451D02*
X330934D01*
Y219316D01*
X331729Y220451D01*
D02*
G37*
G36*
X334005Y245886D02*
X333252D01*
X333233Y245884D01*
X333211D01*
X333159Y245881D01*
X333102Y245875D01*
X333042Y245867D01*
X332984Y245856D01*
X332933Y245840D01*
X332930D01*
X332927Y245837D01*
X332911Y245832D01*
X332889Y245821D01*
X332859Y245804D01*
X332829Y245782D01*
X332796Y245758D01*
X332763Y245725D01*
X332736Y245690D01*
X332733Y245684D01*
X332725Y245671D01*
X332714Y245652D01*
X332701Y245621D01*
X332690Y245589D01*
X332679Y245550D01*
X332671Y245507D01*
X332668Y245463D01*
Y245460D01*
Y245455D01*
Y245447D01*
X332671Y245433D01*
Y245420D01*
X332673Y245400D01*
X332684Y245359D01*
X332701Y245313D01*
X332722Y245264D01*
X332755Y245217D01*
X332777Y245193D01*
X332799Y245171D01*
X332802Y245168D01*
X332804Y245166D01*
X332812Y245160D01*
X332823Y245152D01*
X332837Y245144D01*
X332856Y245133D01*
X332875Y245122D01*
X332900Y245111D01*
X332927Y245100D01*
X332957Y245092D01*
X332990Y245081D01*
X333026Y245073D01*
X333066Y245065D01*
X333110Y245059D01*
X333156Y245054D01*
X334005D01*
Y245886D01*
D02*
G37*
%LPD*%
D10*
X181350Y162225D02*
Y180926D01*
X225050D01*
Y162225D02*
Y180926D01*
X181350Y162225D02*
X225050D01*
X290988Y161413D02*
X334689D01*
X290988Y142713D02*
Y161413D01*
Y142713D02*
X334689D01*
Y161413D01*
X291350Y137975D02*
X335050D01*
X291350Y119274D02*
Y137975D01*
Y119274D02*
X335050D01*
Y137975D01*
X199378Y195181D02*
Y298528D01*
Y195181D02*
X274969D01*
Y298528D01*
X199378D02*
X274969D01*
X321189Y202006D02*
X327488D01*
X321189Y191671D02*
Y202006D01*
Y191671D02*
X327488D01*
Y202006D01*
X342630Y216492D02*
Y226185D01*
X326047D02*
X342630D01*
X326047Y216492D02*
Y226185D01*
Y216492D02*
X342630D01*
X182843Y261313D02*
Y271648D01*
X189142D01*
Y261313D02*
Y271648D01*
X182843Y261313D02*
X189142D01*
X342630Y242492D02*
Y252185D01*
X326047D02*
X342630D01*
X326047Y242492D02*
Y252185D01*
Y242492D02*
X342630D01*
X321189Y177671D02*
X327488D01*
Y188006D01*
X321189D02*
X327488D01*
X321189Y177671D02*
Y188006D01*
M02*
