G04*
G04 #@! TF.GenerationSoftware,Altium Limited,Altium Designer,22.7.1 (60)*
G04*
G04 Layer_Physical_Order=2*
G04 Layer_Color=16711680*
%FSLAX25Y25*%
%MOIN*%
G70*
G04*
G04 #@! TF.SameCoordinates,816887E5-1F56-4921-9221-960AF3535DAC*
G04*
G04*
G04 #@! TF.FilePolarity,Positive*
G04*
G01*
G75*
%ADD12C,0.01000*%
%ADD13C,0.00500*%
%ADD33R,0.07284X0.07284*%
%ADD34C,0.07284*%
%ADD44C,0.01500*%
%ADD46C,0.10000*%
%ADD47C,0.05000*%
%ADD48C,0.05591*%
%ADD49C,0.13583*%
%ADD50C,0.09449*%
%ADD51R,0.09449X0.09449*%
%ADD52C,0.25000*%
%ADD53C,0.10000*%
%ADD54C,0.05512*%
%ADD55C,0.11000*%
%ADD56C,0.02000*%
%ADD57C,0.03500*%
%ADD58C,0.03000*%
%ADD59C,0.03400*%
G36*
X396835Y314628D02*
Y90884D01*
X389431Y83480D01*
X134191D01*
X126787Y90884D01*
X126787Y302000D01*
X137957D01*
X138881Y300186D01*
X140084Y298531D01*
X141531Y297084D01*
X143186Y295881D01*
X145010Y294952D01*
X146956Y294320D01*
X148977Y294000D01*
X149750D01*
Y307000D01*
X150250D01*
Y294000D01*
X151023D01*
X153044Y294320D01*
X154990Y294952D01*
X156814Y295881D01*
X158469Y297084D01*
X159916Y298531D01*
X161119Y300186D01*
X162043Y302000D01*
X184000D01*
Y291000D01*
X201199Y273801D01*
Y273134D01*
X201358Y272751D01*
X201740Y272593D01*
X272606D01*
X272989Y272751D01*
X273148Y273134D01*
Y273148D01*
X282439Y282439D01*
X282937Y282390D01*
X283431Y281651D01*
X284447Y280636D01*
X285641Y279838D01*
X286968Y279288D01*
X288376Y279008D01*
X288844D01*
Y286299D01*
Y293591D01*
X288376D01*
X288000Y293899D01*
Y322032D01*
X389431D01*
X396835Y314628D01*
D02*
G37*
%LPC*%
G36*
X371023Y320000D02*
X370250D01*
Y307250D01*
X383000D01*
Y308023D01*
X382680Y310044D01*
X382048Y311990D01*
X381119Y313813D01*
X379916Y315469D01*
X378469Y316916D01*
X376814Y318119D01*
X374990Y319048D01*
X373044Y319680D01*
X371023Y320000D01*
D02*
G37*
G36*
X369750D02*
X368977D01*
X366956Y319680D01*
X365010Y319048D01*
X363187Y318119D01*
X361531Y316916D01*
X360084Y315469D01*
X358881Y313813D01*
X357952Y311990D01*
X357320Y310044D01*
X357000Y308023D01*
Y307250D01*
X369750D01*
Y320000D01*
D02*
G37*
G36*
X383000Y306750D02*
X370250D01*
Y294000D01*
X371023D01*
X373044Y294320D01*
X374990Y294952D01*
X376814Y295881D01*
X378469Y297084D01*
X379916Y298531D01*
X381119Y300186D01*
X382048Y302010D01*
X382680Y303956D01*
X383000Y305977D01*
Y306750D01*
D02*
G37*
G36*
X369750D02*
X357000D01*
Y305977D01*
X357320Y303956D01*
X357952Y302010D01*
X358881Y300186D01*
X360084Y298531D01*
X361531Y297084D01*
X363187Y295881D01*
X365010Y294952D01*
X366956Y294320D01*
X368977Y294000D01*
X369750D01*
Y306750D01*
D02*
G37*
G36*
X341545Y293591D02*
X341077D01*
Y286549D01*
X348118D01*
Y287017D01*
X347838Y288426D01*
X347288Y289753D01*
X346490Y290947D01*
X345475Y291963D01*
X344281Y292761D01*
X342954Y293310D01*
X341545Y293591D01*
D02*
G37*
G36*
X289813D02*
X289345D01*
Y286549D01*
X296386D01*
Y287017D01*
X296106Y288426D01*
X295556Y289753D01*
X294758Y290947D01*
X293742Y291963D01*
X292548Y292761D01*
X291221Y293310D01*
X289813Y293591D01*
D02*
G37*
G36*
X340577D02*
X340109D01*
X338700Y293310D01*
X337373Y292761D01*
X336179Y291963D01*
X335163Y290947D01*
X334365Y289753D01*
X333816Y288426D01*
X333535Y287017D01*
Y286549D01*
X340577D01*
Y293591D01*
D02*
G37*
G36*
X348118Y286049D02*
X341077D01*
Y279008D01*
X341545D01*
X342954Y279288D01*
X344281Y279838D01*
X345475Y280636D01*
X346490Y281651D01*
X347288Y282845D01*
X347838Y284172D01*
X348118Y285581D01*
Y286049D01*
D02*
G37*
G36*
X340577D02*
X333535D01*
Y285581D01*
X333816Y284172D01*
X334365Y282845D01*
X335163Y281651D01*
X336179Y280636D01*
X337373Y279838D01*
X338700Y279288D01*
X340109Y279008D01*
X340577D01*
Y286049D01*
D02*
G37*
G36*
X296386D02*
X289345D01*
Y279008D01*
X289813D01*
X291221Y279288D01*
X292548Y279838D01*
X293742Y280636D01*
X294758Y281651D01*
X295556Y282845D01*
X296106Y284172D01*
X296386Y285581D01*
Y286049D01*
D02*
G37*
G36*
X301615Y278925D02*
X301431D01*
Y275880D01*
X304476D01*
Y276064D01*
X304252Y276902D01*
X303818Y277653D01*
X303204Y278267D01*
X302453Y278701D01*
X301615Y278925D01*
D02*
G37*
G36*
X300931D02*
X300747D01*
X299909Y278701D01*
X299158Y278267D01*
X298544Y277653D01*
X298110Y276902D01*
X297886Y276064D01*
Y275880D01*
X300931D01*
Y278925D01*
D02*
G37*
G36*
X371953Y283752D02*
X361504D01*
Y273303D01*
X371953D01*
Y283752D01*
D02*
G37*
G36*
X155459D02*
X154084D01*
X152755Y283396D01*
X151564Y282708D01*
X150591Y281735D01*
X149903Y280544D01*
X149547Y279215D01*
Y277840D01*
X149903Y276511D01*
X150591Y275320D01*
X151564Y274347D01*
X152755Y273659D01*
X154084Y273303D01*
X155459D01*
X156788Y273659D01*
X157980Y274347D01*
X158952Y275320D01*
X159640Y276511D01*
X159996Y277840D01*
Y279215D01*
X159640Y280544D01*
X158952Y281735D01*
X157980Y282708D01*
X156788Y283396D01*
X155459Y283752D01*
D02*
G37*
G36*
X329174Y278925D02*
X328306D01*
X327468Y278701D01*
X326717Y278267D01*
X326103Y277653D01*
X325670Y276902D01*
X325445Y276064D01*
Y275196D01*
X325670Y274358D01*
X326103Y273607D01*
X326717Y272993D01*
X327468Y272559D01*
X328306Y272335D01*
X329174D01*
X330012Y272559D01*
X330764Y272993D01*
X331377Y273607D01*
X331811Y274358D01*
X332035Y275196D01*
Y276064D01*
X331811Y276902D01*
X331377Y277653D01*
X330764Y278267D01*
X330012Y278701D01*
X329174Y278925D01*
D02*
G37*
G36*
X319332D02*
X318464D01*
X317626Y278701D01*
X316874Y278267D01*
X316261Y277653D01*
X315827Y276902D01*
X315602Y276064D01*
Y275196D01*
X315827Y274358D01*
X316261Y273607D01*
X316874Y272993D01*
X317626Y272559D01*
X318464Y272335D01*
X319332D01*
X320170Y272559D01*
X320921Y272993D01*
X321534Y273607D01*
X321968Y274358D01*
X322193Y275196D01*
Y276064D01*
X321968Y276902D01*
X321534Y277653D01*
X320921Y278267D01*
X320170Y278701D01*
X319332Y278925D01*
D02*
G37*
G36*
X311457D02*
X310590D01*
X309752Y278701D01*
X309000Y278267D01*
X308387Y277653D01*
X307953Y276902D01*
X307728Y276064D01*
Y275196D01*
X307953Y274358D01*
X308387Y273607D01*
X309000Y272993D01*
X309752Y272559D01*
X310590Y272335D01*
X311457D01*
X312296Y272559D01*
X313047Y272993D01*
X313661Y273607D01*
X314094Y274358D01*
X314319Y275196D01*
Y276064D01*
X314094Y276902D01*
X313661Y277653D01*
X313047Y278267D01*
X312296Y278701D01*
X311457Y278925D01*
D02*
G37*
G36*
X304476Y275380D02*
X301431D01*
Y272335D01*
X301615D01*
X302453Y272559D01*
X303204Y272993D01*
X303818Y273607D01*
X304252Y274358D01*
X304476Y275196D01*
Y275380D01*
D02*
G37*
G36*
X300931D02*
X297886D01*
Y275196D01*
X298110Y274358D01*
X298544Y273607D01*
X299158Y272993D01*
X299909Y272559D01*
X300747Y272335D01*
X300931D01*
Y275380D01*
D02*
G37*
G36*
X367416Y264067D02*
X366978D01*
Y259092D01*
X371953D01*
Y259530D01*
X371597Y260859D01*
X370909Y262050D01*
X369936Y263023D01*
X368745Y263711D01*
X367416Y264067D01*
D02*
G37*
G36*
X366478D02*
X366040D01*
X364712Y263711D01*
X363521Y263023D01*
X362548Y262050D01*
X361860Y260859D01*
X361504Y259530D01*
Y259092D01*
X366478D01*
Y264067D01*
D02*
G37*
G36*
X155459D02*
X155022D01*
Y259092D01*
X159996D01*
Y259530D01*
X159640Y260859D01*
X158952Y262050D01*
X157980Y263023D01*
X156788Y263711D01*
X155459Y264067D01*
D02*
G37*
G36*
X154522D02*
X154084D01*
X152755Y263711D01*
X151564Y263023D01*
X150591Y262050D01*
X149903Y260859D01*
X149547Y259530D01*
Y259092D01*
X154522D01*
Y264067D01*
D02*
G37*
G36*
X371953Y258593D02*
X366978D01*
Y253618D01*
X367416D01*
X368745Y253974D01*
X369936Y254662D01*
X370909Y255635D01*
X371597Y256826D01*
X371953Y258155D01*
Y258593D01*
D02*
G37*
G36*
X366478D02*
X361504D01*
Y258155D01*
X361860Y256826D01*
X362548Y255635D01*
X363521Y254662D01*
X364712Y253974D01*
X366040Y253618D01*
X366478D01*
Y258593D01*
D02*
G37*
G36*
X159996Y258593D02*
X155022D01*
Y253618D01*
X155459D01*
X156788Y253974D01*
X157980Y254662D01*
X158952Y255635D01*
X159640Y256826D01*
X159996Y258155D01*
Y258593D01*
D02*
G37*
G36*
X154522D02*
X149547D01*
Y258155D01*
X149903Y256826D01*
X150591Y255635D01*
X151564Y254662D01*
X152755Y253974D01*
X154084Y253618D01*
X154522D01*
Y258593D01*
D02*
G37*
G36*
X192954Y260684D02*
X192046D01*
X191206Y260336D01*
X190563Y259694D01*
X190216Y258854D01*
Y257946D01*
X190563Y257106D01*
X191206Y256464D01*
X192046Y256116D01*
X192954D01*
X193794Y256464D01*
X194437Y257106D01*
X194656Y257635D01*
X262083D01*
X273943Y245775D01*
X274192Y245609D01*
X274484Y245551D01*
X282280D01*
X282573Y245609D01*
X282821Y245775D01*
X283482Y246435D01*
X302431D01*
X302624Y246397D01*
X308357D01*
X309880Y244874D01*
X309634Y244413D01*
X309600Y244420D01*
X286800D01*
X286410Y244342D01*
X286079Y244121D01*
X282740Y240782D01*
X282560Y240764D01*
X279012Y244312D01*
X278598Y244588D01*
X278111Y244685D01*
X269017D01*
X261201Y252501D01*
X260788Y252778D01*
X260300Y252874D01*
X189028D01*
X187500Y254402D01*
Y254998D01*
X187196Y255733D01*
X186633Y256295D01*
X185898Y256600D01*
X185102D01*
X184367Y256295D01*
X183805Y255733D01*
X183500Y254998D01*
Y254202D01*
X183805Y253467D01*
X184367Y252905D01*
X185102Y252600D01*
X185698D01*
X187599Y250699D01*
X188012Y250423D01*
X188500Y250325D01*
X259772D01*
X267588Y242510D01*
X268002Y242233D01*
X268489Y242136D01*
X277583D01*
X282559Y237159D01*
X285026Y234693D01*
Y227500D01*
X285122Y227012D01*
X285399Y226599D01*
X297938Y214059D01*
Y209075D01*
X297623Y208945D01*
X296924Y208246D01*
X296546Y207333D01*
Y206345D01*
X296924Y205432D01*
X297623Y204733D01*
X298536Y204355D01*
X299524D01*
X300437Y204733D01*
X301136Y205432D01*
X301515Y206345D01*
Y207333D01*
X301136Y208246D01*
X300487Y208895D01*
Y214587D01*
X300390Y215075D01*
X300114Y215489D01*
X287575Y228028D01*
Y235221D01*
X287477Y235709D01*
X287201Y236122D01*
X284480Y238843D01*
Y239638D01*
X287222Y242380D01*
X309178D01*
X309375Y242183D01*
Y241876D01*
X309453Y241486D01*
X309674Y241155D01*
X310406Y240423D01*
X310366Y240325D01*
Y239675D01*
X310615Y239074D01*
X311074Y238615D01*
X311675Y238366D01*
X312325D01*
X312926Y238615D01*
X313385Y239074D01*
X313634Y239675D01*
Y240325D01*
X313572Y240474D01*
X313996Y240757D01*
X323294Y231459D01*
X323543Y231294D01*
X323835Y231235D01*
X323835Y231235D01*
X324448D01*
X324515Y231074D01*
X324974Y230615D01*
X325575Y230366D01*
X326225D01*
X326826Y230615D01*
X327285Y231074D01*
X327534Y231675D01*
Y232325D01*
X327285Y232926D01*
X326826Y233385D01*
X326225Y233634D01*
X325653D01*
X325486Y233862D01*
X325395Y234096D01*
X325634Y234675D01*
Y235325D01*
X325385Y235926D01*
X324926Y236385D01*
X324325Y236634D01*
X323675D01*
X323637Y236618D01*
X323354Y237042D01*
X323385Y237074D01*
X323634Y237675D01*
Y238325D01*
X323385Y238926D01*
X322926Y239385D01*
X322325Y239634D01*
X321675D01*
X321241Y239455D01*
X310955Y249741D01*
X311071Y250265D01*
X311155Y250366D01*
X311325D01*
X311926Y250615D01*
X312385Y251074D01*
X312634Y251675D01*
Y252167D01*
X316000D01*
X316293Y252225D01*
X316541Y252390D01*
X320386Y256235D01*
X324936D01*
X325135Y255754D01*
X325754Y255135D01*
X326562Y254800D01*
X327438D01*
X328246Y255135D01*
X328865Y255754D01*
X328959Y255980D01*
X332980D01*
Y208309D01*
X332929Y208051D01*
X333007Y207661D01*
X333228Y207330D01*
X346380Y194178D01*
Y190113D01*
X346126Y190007D01*
X345493Y189374D01*
X345150Y188548D01*
Y187652D01*
X345493Y186826D01*
X346126Y186193D01*
X346952Y185850D01*
X347848D01*
X348675Y186193D01*
X349307Y186826D01*
X349650Y187652D01*
Y188548D01*
X349307Y189374D01*
X348675Y190007D01*
X348420Y190113D01*
Y194600D01*
X348342Y194990D01*
X348121Y195321D01*
X335020Y208422D01*
Y257000D01*
X334942Y257390D01*
X334721Y257721D01*
X334390Y257942D01*
X334000Y258020D01*
X328959D01*
X328865Y258246D01*
X328246Y258865D01*
X327438Y259200D01*
X326562D01*
X325754Y258865D01*
X325135Y258246D01*
X324936Y257765D01*
X320069D01*
X319776Y257706D01*
X319528Y257541D01*
X315683Y253696D01*
X312043D01*
X311750Y253638D01*
X311584Y253527D01*
X311325Y253634D01*
X310675D01*
X310074Y253385D01*
X309615Y252926D01*
X309366Y252325D01*
Y251675D01*
X309615Y251074D01*
X310074Y250615D01*
X310442Y250462D01*
X310447Y250457D01*
X310348Y249974D01*
X310315Y249965D01*
X286617D01*
X283568Y253014D01*
X283634Y253175D01*
Y253825D01*
X283385Y254426D01*
X282926Y254885D01*
X282325Y255134D01*
X281675D01*
X281074Y254885D01*
X280615Y254426D01*
X280366Y253825D01*
Y253175D01*
X280615Y252574D01*
X281074Y252115D01*
X281675Y251866D01*
X282325D01*
X282486Y251933D01*
X284992Y249427D01*
X284801Y248965D01*
X282952D01*
X282885Y249126D01*
X282426Y249585D01*
X281825Y249834D01*
X281175D01*
X280574Y249585D01*
X280115Y249126D01*
X279866Y248525D01*
Y247875D01*
X279988Y247581D01*
X279655Y247080D01*
X274801D01*
X262941Y258941D01*
X262693Y259106D01*
X262400Y259165D01*
X194656D01*
X194437Y259694D01*
X193794Y260336D01*
X192954Y260684D01*
D02*
G37*
G36*
X367416Y244382D02*
X366040D01*
X364712Y244026D01*
X363521Y243338D01*
X362548Y242365D01*
X361860Y241174D01*
X361504Y239845D01*
Y238470D01*
X361860Y237141D01*
X362548Y235950D01*
X363521Y234977D01*
X364712Y234289D01*
X366040Y233933D01*
X367416D01*
X368745Y234289D01*
X369936Y234977D01*
X370909Y235950D01*
X371597Y237141D01*
X371953Y238470D01*
Y239845D01*
X371597Y241174D01*
X370909Y242365D01*
X369936Y243338D01*
X368745Y244026D01*
X367416Y244382D01*
D02*
G37*
G36*
X155459D02*
X154084D01*
X152755Y244026D01*
X151564Y243338D01*
X150591Y242365D01*
X149903Y241174D01*
X149547Y239845D01*
Y238470D01*
X149903Y237141D01*
X150591Y235950D01*
X151564Y234977D01*
X152755Y234289D01*
X154084Y233933D01*
X155459D01*
X156788Y234289D01*
X157980Y234977D01*
X158952Y235950D01*
X159640Y237141D01*
X159976Y238393D01*
X174026D01*
X177432Y234986D01*
X177366Y234825D01*
Y234175D01*
X177615Y233574D01*
X178074Y233115D01*
X178675Y232866D01*
X179325D01*
X179926Y233115D01*
X180385Y233574D01*
X180634Y234175D01*
Y234825D01*
X180385Y235426D01*
X179926Y235885D01*
X179325Y236134D01*
X178675D01*
X178514Y236068D01*
X174883Y239698D01*
X174635Y239864D01*
X174343Y239922D01*
X159976D01*
X159640Y241174D01*
X158952Y242365D01*
X157980Y243338D01*
X156788Y244026D01*
X155459Y244382D01*
D02*
G37*
G36*
X278725Y239634D02*
X278075D01*
X277474Y239385D01*
X277015Y238926D01*
X276766Y238325D01*
Y237675D01*
X277015Y237074D01*
X277474Y236615D01*
X277585Y236569D01*
Y231673D01*
X277374Y231585D01*
X276915Y231126D01*
X276666Y230525D01*
Y229875D01*
X276915Y229274D01*
X277374Y228815D01*
X277975Y228566D01*
X278625D01*
X279226Y228815D01*
X279685Y229274D01*
X279934Y229875D01*
Y230525D01*
X279685Y231126D01*
X279226Y231585D01*
X279115Y231631D01*
Y236527D01*
X279326Y236615D01*
X279785Y237074D01*
X280034Y237675D01*
Y238325D01*
X279785Y238926D01*
X279326Y239385D01*
X278725Y239634D01*
D02*
G37*
G36*
X330725Y241934D02*
X330075D01*
X329474Y241685D01*
X329015Y241226D01*
X328766Y240625D01*
Y239975D01*
X329015Y239374D01*
X329474Y238915D01*
X329735Y238806D01*
Y228852D01*
X329574Y228785D01*
X329115Y228326D01*
X328866Y227725D01*
Y227075D01*
X329115Y226474D01*
X329574Y226015D01*
X330175Y225766D01*
X330825D01*
X331426Y226015D01*
X331885Y226474D01*
X332134Y227075D01*
Y227725D01*
X331885Y228326D01*
X331426Y228785D01*
X331265Y228852D01*
Y238889D01*
X331326Y238915D01*
X331785Y239374D01*
X332034Y239975D01*
Y240625D01*
X331785Y241226D01*
X331326Y241685D01*
X330725Y241934D01*
D02*
G37*
G36*
X367416Y224697D02*
X366978D01*
Y219722D01*
X371953D01*
Y220160D01*
X371597Y221489D01*
X370909Y222680D01*
X369936Y223653D01*
X368745Y224341D01*
X367416Y224697D01*
D02*
G37*
G36*
X366478D02*
X366040D01*
X364712Y224341D01*
X363521Y223653D01*
X362548Y222680D01*
X361860Y221489D01*
X361504Y220160D01*
Y219722D01*
X366478D01*
Y224697D01*
D02*
G37*
G36*
X371953Y219222D02*
X366978D01*
Y214248D01*
X367416D01*
X368745Y214604D01*
X369936Y215292D01*
X370909Y216265D01*
X371597Y217456D01*
X371953Y218785D01*
Y219222D01*
D02*
G37*
G36*
X366478D02*
X361504D01*
Y218785D01*
X361860Y217456D01*
X362548Y216265D01*
X363521Y215292D01*
X364712Y214604D01*
X366040Y214248D01*
X366478D01*
Y219222D01*
D02*
G37*
G36*
X159996Y224697D02*
X149547D01*
Y214248D01*
X159996D01*
Y224697D01*
D02*
G37*
G36*
X293025Y216134D02*
X292375D01*
X291774Y215885D01*
X291315Y215426D01*
X291066Y214825D01*
Y214175D01*
X291191Y213873D01*
X282742Y205424D01*
X282354Y205584D01*
X281446D01*
X280606Y205237D01*
X279963Y204594D01*
X279616Y203754D01*
Y202846D01*
X279963Y202006D01*
X280606Y201363D01*
X281446Y201016D01*
X282354D01*
X283194Y201363D01*
X283837Y202006D01*
X284184Y202846D01*
Y203754D01*
X283906Y204425D01*
X292355Y212874D01*
X292375Y212866D01*
X293025D01*
X293626Y213115D01*
X294085Y213574D01*
X294334Y214175D01*
Y214825D01*
X294085Y215426D01*
X293626Y215885D01*
X293025Y216134D01*
D02*
G37*
G36*
X220031Y193634D02*
X219381D01*
X218780Y193385D01*
X218321Y192926D01*
X218072Y192325D01*
Y191675D01*
X218321Y191074D01*
X218780Y190615D01*
X219381Y190366D01*
X220031D01*
X220632Y190615D01*
X220998Y190980D01*
X228478D01*
X231280Y188178D01*
Y183300D01*
X231338Y183011D01*
X231021Y182759D01*
X230925Y182716D01*
X225821Y187821D01*
X225490Y188042D01*
X225100Y188120D01*
X214622D01*
X212234Y190508D01*
Y191025D01*
X211985Y191626D01*
X211526Y192085D01*
X210925Y192334D01*
X210275D01*
X209674Y192085D01*
X209215Y191626D01*
X208966Y191025D01*
Y190375D01*
X209215Y189774D01*
X209674Y189315D01*
X210275Y189066D01*
X210792D01*
X213479Y186379D01*
X213810Y186158D01*
X214200Y186080D01*
X224678D01*
X235266Y175492D01*
Y174975D01*
X235515Y174374D01*
X235974Y173915D01*
X236575Y173666D01*
X237225D01*
X237826Y173915D01*
X238285Y174374D01*
X238534Y174975D01*
Y175625D01*
X238285Y176226D01*
X237826Y176685D01*
X237378Y176871D01*
X237340Y177396D01*
X237626Y177515D01*
X238085Y177974D01*
X238334Y178575D01*
Y179225D01*
X238085Y179826D01*
X237626Y180285D01*
X237025Y180534D01*
X236508D01*
X233320Y183722D01*
Y188600D01*
X233242Y188990D01*
X233021Y189321D01*
X229621Y192721D01*
X229290Y192942D01*
X228900Y193020D01*
X220998D01*
X220632Y193385D01*
X220031Y193634D01*
D02*
G37*
G36*
X155459Y191752D02*
X154084D01*
X152755Y191396D01*
X151564Y190708D01*
X150591Y189735D01*
X149903Y188544D01*
X149547Y187215D01*
Y185840D01*
X149903Y184511D01*
X150591Y183320D01*
X151564Y182347D01*
X152755Y181659D01*
X154084Y181303D01*
X155459D01*
X156788Y181659D01*
X157980Y182347D01*
X158952Y183320D01*
X159640Y184511D01*
X159996Y185840D01*
Y187215D01*
X159640Y188544D01*
X158952Y189735D01*
X157980Y190708D01*
X156788Y191396D01*
X155459Y191752D01*
D02*
G37*
G36*
X260125Y192534D02*
X259475D01*
X258874Y192285D01*
X258415Y191826D01*
X258166Y191225D01*
Y190575D01*
X258415Y189974D01*
X258874Y189515D01*
X259135Y189406D01*
Y182811D01*
X259074Y182785D01*
X258615Y182326D01*
X258366Y181725D01*
Y181075D01*
X258615Y180474D01*
X259074Y180015D01*
X259675Y179766D01*
X260325D01*
X260926Y180015D01*
X261385Y180474D01*
X261634Y181075D01*
Y181725D01*
X261385Y182326D01*
X260926Y182785D01*
X260665Y182894D01*
Y189489D01*
X260726Y189515D01*
X261185Y189974D01*
X261434Y190575D01*
Y191225D01*
X261185Y191826D01*
X260726Y192285D01*
X260125Y192534D01*
D02*
G37*
G36*
X213745Y172942D02*
X213450D01*
Y169050D01*
X217342D01*
Y169345D01*
X217059Y170399D01*
X216514Y171343D01*
X215743Y172114D01*
X214799Y172660D01*
X213745Y172942D01*
D02*
G37*
G36*
X212950D02*
X212655D01*
X211601Y172660D01*
X210657Y172114D01*
X209886Y171343D01*
X209341Y170399D01*
X209058Y169345D01*
Y169050D01*
X212950D01*
Y172942D01*
D02*
G37*
G36*
X203745D02*
X202655D01*
X201601Y172660D01*
X200657Y172114D01*
X199886Y171343D01*
X199340Y170399D01*
X199058Y169345D01*
Y168255D01*
X199340Y167201D01*
X199886Y166257D01*
X200657Y165486D01*
X201601Y164941D01*
X202655Y164658D01*
X203745D01*
X204799Y164941D01*
X205743Y165486D01*
X206514Y166257D01*
X207060Y167201D01*
X207342Y168255D01*
Y169345D01*
X207060Y170399D01*
X206514Y171343D01*
X205743Y172114D01*
X204799Y172660D01*
X203745Y172942D01*
D02*
G37*
G36*
X194825Y205034D02*
X194175D01*
X193574Y204785D01*
X193115Y204326D01*
X192866Y203725D01*
Y203075D01*
X193115Y202474D01*
X193574Y202015D01*
X193735Y201948D01*
Y172942D01*
X189058D01*
Y164658D01*
X197342D01*
Y172942D01*
X195265D01*
Y201948D01*
X195426Y202015D01*
X195885Y202474D01*
X196134Y203075D01*
Y203725D01*
X195885Y204326D01*
X195426Y204785D01*
X194825Y205034D01*
D02*
G37*
G36*
X350398Y200000D02*
X349602D01*
X348867Y199696D01*
X348305Y199133D01*
X348000Y198398D01*
Y197602D01*
X348305Y196867D01*
X348867Y196305D01*
X349602Y196000D01*
X350198D01*
X352726Y193472D01*
Y188528D01*
X328472Y164275D01*
X214245D01*
X214179Y164775D01*
X214799Y164941D01*
X215743Y165486D01*
X216514Y166257D01*
X217059Y167201D01*
X217342Y168255D01*
Y168550D01*
X213200D01*
X209058D01*
Y168255D01*
X209341Y167201D01*
X209886Y166257D01*
X210657Y165486D01*
X211601Y164941D01*
X212221Y164775D01*
X212155Y164275D01*
X206500D01*
X206012Y164178D01*
X205599Y163901D01*
X192545Y150848D01*
X192142Y151117D01*
X191050Y151569D01*
X189891Y151800D01*
X188709D01*
X187550Y151569D01*
X186458Y151117D01*
X185475Y150461D01*
X184640Y149625D01*
X183983Y148642D01*
X183531Y147550D01*
X183300Y146391D01*
Y145209D01*
X183531Y144050D01*
X183652Y143755D01*
Y133020D01*
X154772D01*
X153336Y132831D01*
X153012Y132697D01*
X149547D01*
Y129232D01*
X149413Y128908D01*
X149224Y127472D01*
X149413Y126037D01*
X149547Y125713D01*
Y122248D01*
X153012D01*
X153336Y122114D01*
X154772Y121925D01*
X187563D01*
X187764Y121842D01*
X188125Y121794D01*
X188476Y121700D01*
X188839D01*
X189200Y121652D01*
X189561Y121700D01*
X189924D01*
X190275Y121794D01*
X190636Y121842D01*
X190972Y121981D01*
X191323Y122075D01*
X191638Y122257D01*
X191974Y122396D01*
X192262Y122617D01*
X192577Y122799D01*
X192834Y123056D01*
X193123Y123277D01*
X193344Y123566D01*
X193601Y123823D01*
X193783Y124138D01*
X194004Y124426D01*
X194143Y124762D01*
X194325Y125077D01*
X194419Y125428D01*
X194558Y125764D01*
X194606Y126125D01*
X194700Y126476D01*
Y126839D01*
X194747Y127200D01*
X194747Y127200D01*
Y143273D01*
X195069Y144050D01*
X195300Y145209D01*
Y146391D01*
X195069Y147550D01*
X194617Y148642D01*
X194348Y149045D01*
X207028Y161725D01*
X329000D01*
X329488Y161822D01*
X329901Y162099D01*
X354901Y187099D01*
X355177Y187512D01*
X355275Y188000D01*
Y194000D01*
X355177Y194488D01*
X354901Y194901D01*
X352000Y197802D01*
Y198398D01*
X351695Y199133D01*
X351133Y199696D01*
X350398Y200000D01*
D02*
G37*
G36*
X367416Y172067D02*
X366040D01*
X364712Y171711D01*
X363521Y171023D01*
X362548Y170050D01*
X361860Y168859D01*
X361504Y167530D01*
Y166155D01*
X361860Y164826D01*
X362548Y163635D01*
X363521Y162662D01*
X364712Y161974D01*
X366040Y161618D01*
X367416D01*
X368745Y161974D01*
X369936Y162662D01*
X370909Y163635D01*
X371597Y164826D01*
X371953Y166155D01*
Y167530D01*
X371597Y168859D01*
X370909Y170050D01*
X369936Y171023D01*
X368745Y171711D01*
X367416Y172067D01*
D02*
G37*
G36*
X155459D02*
X154084D01*
X152755Y171711D01*
X151564Y171023D01*
X150591Y170050D01*
X149903Y168859D01*
X149547Y167530D01*
Y166155D01*
X149903Y164826D01*
X150591Y163635D01*
X151564Y162662D01*
X152755Y161974D01*
X154084Y161618D01*
X155459D01*
X156788Y161974D01*
X157980Y162662D01*
X158952Y163635D01*
X159640Y164826D01*
X159996Y166155D01*
Y167530D01*
X159640Y168859D01*
X158952Y170050D01*
X157980Y171023D01*
X156788Y171711D01*
X155459Y172067D01*
D02*
G37*
G36*
X303384Y158980D02*
X303089D01*
Y155089D01*
X306980D01*
Y155384D01*
X306698Y156437D01*
X306153Y157382D01*
X305382Y158153D01*
X304437Y158698D01*
X303384Y158980D01*
D02*
G37*
G36*
X302589D02*
X302293D01*
X301240Y158698D01*
X300295Y158153D01*
X299524Y157382D01*
X298979Y156437D01*
X298697Y155384D01*
Y155089D01*
X302589D01*
Y158980D01*
D02*
G37*
G36*
X326980D02*
X318697D01*
Y150697D01*
X326980D01*
Y158980D01*
D02*
G37*
G36*
X313384D02*
X312293D01*
X311240Y158698D01*
X310296Y158153D01*
X309524Y157382D01*
X308979Y156437D01*
X308697Y155384D01*
Y154293D01*
X308979Y153240D01*
X309524Y152295D01*
X310296Y151524D01*
X311240Y150979D01*
X312293Y150697D01*
X313384D01*
X314437Y150979D01*
X315382Y151524D01*
X316153Y152295D01*
X316698Y153240D01*
X316980Y154293D01*
Y155384D01*
X316698Y156437D01*
X316153Y157382D01*
X315382Y158153D01*
X314437Y158698D01*
X313384Y158980D01*
D02*
G37*
G36*
X306980Y154589D02*
X303089D01*
Y150697D01*
X303384D01*
X304437Y150979D01*
X305382Y151524D01*
X306153Y152295D01*
X306698Y153240D01*
X306980Y154293D01*
Y154589D01*
D02*
G37*
G36*
X302589D02*
X298697D01*
Y154293D01*
X298979Y153240D01*
X299524Y152295D01*
X300295Y151524D01*
X301240Y150979D01*
X302293Y150697D01*
X302589D01*
Y154589D01*
D02*
G37*
G36*
X155459Y152382D02*
X155022D01*
Y147407D01*
X159996D01*
Y147845D01*
X159640Y149174D01*
X158952Y150365D01*
X157980Y151338D01*
X156788Y152026D01*
X155459Y152382D01*
D02*
G37*
G36*
X154522D02*
X154084D01*
X152755Y152026D01*
X151564Y151338D01*
X150591Y150365D01*
X149903Y149174D01*
X149547Y147845D01*
Y147407D01*
X154522D01*
Y152382D01*
D02*
G37*
G36*
X254329Y150198D02*
X254150D01*
Y147193D01*
X257156D01*
Y147371D01*
X256934Y148199D01*
X256505Y148942D01*
X255899Y149548D01*
X255157Y149977D01*
X254329Y150198D01*
D02*
G37*
G36*
X253650D02*
X253471D01*
X252643Y149977D01*
X251901Y149548D01*
X251295Y148942D01*
X250866Y148199D01*
X250644Y147371D01*
Y147193D01*
X253650D01*
Y150198D01*
D02*
G37*
G36*
X257156Y146693D02*
X254150D01*
Y143687D01*
X254329D01*
X255157Y143909D01*
X255899Y144337D01*
X256505Y144943D01*
X256934Y145686D01*
X257156Y146514D01*
Y146693D01*
D02*
G37*
G36*
X253650D02*
X250644D01*
Y146514D01*
X250866Y145686D01*
X251295Y144943D01*
X251901Y144337D01*
X252643Y143909D01*
X253471Y143687D01*
X253650D01*
Y146693D01*
D02*
G37*
G36*
X371953Y191752D02*
X361504D01*
Y181303D01*
X367673D01*
X375474Y173503D01*
Y143344D01*
X375012Y143153D01*
X371898Y146267D01*
X371953Y146470D01*
Y147845D01*
X371597Y149174D01*
X370909Y150365D01*
X369936Y151338D01*
X368745Y152026D01*
X367416Y152382D01*
X366040D01*
X364712Y152026D01*
X363521Y151338D01*
X362548Y150365D01*
X361860Y149174D01*
X361504Y147845D01*
Y146470D01*
X361860Y145141D01*
X362548Y143950D01*
X363521Y142977D01*
X364712Y142289D01*
X366040Y141933D01*
X367416D01*
X367619Y141987D01*
X375474Y134133D01*
Y122153D01*
X373747Y120426D01*
X287553D01*
X278582Y129397D01*
X277956Y129878D01*
X277226Y130180D01*
X276443Y130283D01*
X258511D01*
X257823Y131180D01*
X256674Y132062D01*
X255336Y132616D01*
X253900Y132805D01*
X253463Y132747D01*
X224747D01*
Y143273D01*
X225069Y144050D01*
X225300Y145209D01*
Y146391D01*
X225069Y147550D01*
X224617Y148642D01*
X223960Y149625D01*
X223125Y150461D01*
X222142Y151117D01*
X221050Y151569D01*
X219891Y151800D01*
X218709D01*
X217550Y151569D01*
X216458Y151117D01*
X215475Y150461D01*
X214639Y149625D01*
X213983Y148642D01*
X213531Y147550D01*
X213300Y146391D01*
Y145209D01*
X213531Y144050D01*
X213652Y143755D01*
Y127200D01*
X213700Y126839D01*
Y126476D01*
X213794Y126125D01*
X213842Y125764D01*
X213981Y125428D01*
X214075Y125077D01*
X214257Y124762D01*
X214396Y124426D01*
X214617Y124138D01*
X214799Y123823D01*
X215056Y123566D01*
X215277Y123277D01*
X215566Y123056D01*
X215823Y122799D01*
X216138Y122617D01*
X216426Y122396D01*
X216762Y122257D01*
X217077Y122075D01*
X217428Y121981D01*
X217764Y121842D01*
X218125Y121794D01*
X218476Y121700D01*
X218840D01*
X219200Y121652D01*
X253842D01*
X255278Y121842D01*
X256616Y122396D01*
X257765Y123277D01*
X257823Y123335D01*
X258511Y124232D01*
X275189D01*
X284160Y115260D01*
X284787Y114779D01*
X285517Y114477D01*
X286300Y114374D01*
X375000D01*
X375783Y114477D01*
X376513Y114779D01*
X377140Y115260D01*
X380640Y118760D01*
X381120Y119387D01*
X381423Y120117D01*
X381526Y120900D01*
X381526Y120900D01*
Y135386D01*
X381526Y135386D01*
X381526Y135386D01*
Y174756D01*
X381526Y174756D01*
X381423Y175539D01*
X381120Y176269D01*
X380640Y176895D01*
X371953Y185582D01*
Y191752D01*
D02*
G37*
G36*
X159996Y146907D02*
X155022D01*
Y141933D01*
X155459D01*
X156788Y142289D01*
X157980Y142977D01*
X158952Y143950D01*
X159640Y145141D01*
X159996Y146470D01*
Y146907D01*
D02*
G37*
G36*
X154522D02*
X149547D01*
Y146470D01*
X149903Y145141D01*
X150591Y143950D01*
X151564Y142977D01*
X152755Y142289D01*
X154084Y141933D01*
X154522D01*
Y146907D01*
D02*
G37*
G36*
X303745Y135542D02*
X303450D01*
Y131650D01*
X307342D01*
Y131945D01*
X307060Y132999D01*
X306514Y133943D01*
X305743Y134714D01*
X304799Y135259D01*
X303745Y135542D01*
D02*
G37*
G36*
X302950D02*
X302655D01*
X301601Y135259D01*
X300657Y134714D01*
X299886Y133943D01*
X299341Y132999D01*
X299058Y131945D01*
Y131650D01*
X302950D01*
Y135542D01*
D02*
G37*
G36*
X327342D02*
X319058D01*
Y127258D01*
X327342D01*
Y135542D01*
D02*
G37*
G36*
X313745D02*
X312655D01*
X311601Y135259D01*
X310657Y134714D01*
X309886Y133943D01*
X309341Y132999D01*
X309058Y131945D01*
Y130855D01*
X309341Y129801D01*
X309886Y128857D01*
X310657Y128086D01*
X311601Y127541D01*
X312655Y127258D01*
X313745D01*
X314799Y127541D01*
X315743Y128086D01*
X316514Y128857D01*
X317059Y129801D01*
X317342Y130855D01*
Y131945D01*
X317059Y132999D01*
X316514Y133943D01*
X315743Y134714D01*
X314799Y135259D01*
X313745Y135542D01*
D02*
G37*
G36*
X307342Y131150D02*
X303450D01*
Y127258D01*
X303745D01*
X304799Y127541D01*
X305743Y128086D01*
X306514Y128857D01*
X307060Y129801D01*
X307342Y130855D01*
Y131150D01*
D02*
G37*
G36*
X302950D02*
X299058D01*
Y130855D01*
X299341Y129801D01*
X299886Y128857D01*
X300657Y128086D01*
X301601Y127541D01*
X302655Y127258D01*
X302950D01*
Y131150D01*
D02*
G37*
G36*
X367416Y132697D02*
X366040D01*
X364712Y132341D01*
X363521Y131653D01*
X362548Y130680D01*
X361860Y129489D01*
X361504Y128160D01*
Y126785D01*
X361860Y125456D01*
X362548Y124265D01*
X363521Y123292D01*
X364712Y122604D01*
X366040Y122248D01*
X367416D01*
X368745Y122604D01*
X369936Y123292D01*
X370909Y124265D01*
X371597Y125456D01*
X371953Y126785D01*
Y128160D01*
X371597Y129489D01*
X370909Y130680D01*
X369936Y131653D01*
X368745Y132341D01*
X367416Y132697D01*
D02*
G37*
G36*
X371023Y111000D02*
X370250D01*
Y98250D01*
X383000D01*
Y99023D01*
X382680Y101044D01*
X382048Y102990D01*
X381119Y104814D01*
X379916Y106469D01*
X378469Y107916D01*
X376814Y109119D01*
X374990Y110048D01*
X373044Y110680D01*
X371023Y111000D01*
D02*
G37*
G36*
X369750D02*
X368977D01*
X366956Y110680D01*
X365010Y110048D01*
X363187Y109119D01*
X361531Y107916D01*
X360084Y106469D01*
X358881Y104814D01*
X357952Y102990D01*
X357320Y101044D01*
X357000Y99023D01*
Y98250D01*
X369750D01*
Y111000D01*
D02*
G37*
G36*
X151023D02*
X150250D01*
Y98250D01*
X163000D01*
Y99023D01*
X162680Y101044D01*
X162048Y102990D01*
X161119Y104814D01*
X159916Y106469D01*
X158469Y107916D01*
X156814Y109119D01*
X154990Y110048D01*
X153044Y110680D01*
X151023Y111000D01*
D02*
G37*
G36*
X149750D02*
X148977D01*
X146956Y110680D01*
X145010Y110048D01*
X143186Y109119D01*
X141531Y107916D01*
X140084Y106469D01*
X138881Y104814D01*
X137952Y102990D01*
X137320Y101044D01*
X137000Y99023D01*
Y98250D01*
X149750D01*
Y111000D01*
D02*
G37*
G36*
X383000Y97750D02*
X370250D01*
Y85000D01*
X371023D01*
X373044Y85320D01*
X374990Y85952D01*
X376814Y86881D01*
X378469Y88084D01*
X379916Y89531D01*
X381119Y91186D01*
X382048Y93010D01*
X382680Y94956D01*
X383000Y96977D01*
Y97750D01*
D02*
G37*
G36*
X369750D02*
X357000D01*
Y96977D01*
X357320Y94956D01*
X357952Y93010D01*
X358881Y91186D01*
X360084Y89531D01*
X361531Y88084D01*
X363187Y86881D01*
X365010Y85952D01*
X366956Y85320D01*
X368977Y85000D01*
X369750D01*
Y97750D01*
D02*
G37*
G36*
X163000D02*
X150250D01*
Y85000D01*
X151023D01*
X153044Y85320D01*
X154990Y85952D01*
X156814Y86881D01*
X158469Y88084D01*
X159916Y89531D01*
X161119Y91186D01*
X162048Y93010D01*
X162680Y94956D01*
X163000Y96977D01*
Y97750D01*
D02*
G37*
G36*
X149750D02*
X137000D01*
Y96977D01*
X137320Y94956D01*
X137952Y93010D01*
X138881Y91186D01*
X140084Y89531D01*
X141531Y88084D01*
X143186Y86881D01*
X145010Y85952D01*
X146956Y85320D01*
X148977Y85000D01*
X149750D01*
Y97750D01*
D02*
G37*
%LPD*%
D12*
X232300Y183300D02*
X236700Y178900D01*
X225100Y187100D02*
X236900Y175300D01*
X232300Y183300D02*
Y188600D01*
X214200Y187100D02*
X225100D01*
X210600Y190700D02*
X214200Y187100D01*
X228900Y192000D02*
X232300Y188600D01*
X219706Y192000D02*
X228900D01*
X333949Y208051D02*
X347400Y194600D01*
Y188100D02*
Y194600D01*
X334000Y208300D02*
Y257000D01*
X283461Y240061D02*
X286800Y243400D01*
X309600D01*
X310395Y242605D01*
Y241876D02*
Y242605D01*
Y241876D02*
X312000Y240271D01*
X327000Y257000D02*
X334000D01*
X312000Y240000D02*
Y240271D01*
X283461Y238061D02*
Y240061D01*
D13*
X311000Y252000D02*
X311112D01*
X312043Y252931D01*
X193200Y168800D02*
X194500Y170100D01*
Y203400D01*
X259800Y190900D02*
X259900Y190800D01*
Y181500D02*
Y190800D01*
Y181500D02*
X260000Y181400D01*
X292700Y214300D02*
Y214500D01*
X281900Y203300D02*
Y203500D01*
X292700Y214300D01*
X274484Y246316D02*
X282280D01*
X283165Y247200D01*
X282000Y253500D02*
X286300Y249200D01*
X262400Y258400D02*
X274484Y246316D01*
X192500Y258400D02*
X262400D01*
X330500Y227400D02*
Y240700D01*
X283165Y247200D02*
X302586D01*
X281500Y248200D02*
X309135D01*
X286300Y249200D02*
X310414D01*
X302586Y247200D02*
X302624Y247162D01*
X308674D01*
X312043Y252931D02*
X316000D01*
X309135Y248200D02*
X322250Y235085D01*
X310414Y249200D02*
X321614Y238000D01*
X316000Y252931D02*
X320069Y257000D01*
X327000D01*
X323835Y232000D02*
X325900D01*
X323915Y235085D02*
X324000Y235000D01*
X322250Y235085D02*
X323915D01*
X321614Y238000D02*
X322000D01*
X308674Y247162D02*
X323835Y232000D01*
X278300Y230200D02*
X278350Y230250D01*
Y237950D01*
X174343Y239158D02*
X179000Y234500D01*
X278350Y237950D02*
X278400Y238000D01*
X154772Y239158D02*
X174343D01*
D33*
X193200Y168800D02*
D03*
X322839Y154839D02*
D03*
X323200Y131400D02*
D03*
D34*
X203200Y168800D02*
D03*
X213200D02*
D03*
X302839Y154839D02*
D03*
X312839D02*
D03*
X303200Y131400D02*
D03*
X313200D02*
D03*
D44*
X299213Y207021D02*
Y214587D01*
X299030Y206839D02*
X299213Y207021D01*
X286300Y227500D02*
X299213Y214587D01*
X189300Y145800D02*
X206500Y163000D01*
X329000D01*
X354000Y188000D01*
X350000Y198000D02*
X354000Y194000D01*
Y188000D02*
Y194000D01*
X260300Y251600D02*
X268489Y243411D01*
X188500Y251600D02*
X260300D01*
X185500Y254600D02*
X188500Y251600D01*
X286300Y227500D02*
Y235221D01*
X283461Y238061D02*
X286300Y235221D01*
X278111Y243411D02*
X283461Y238061D01*
X268489Y243411D02*
X278111D01*
D46*
X219200Y127200D02*
X253842D01*
X188928Y127472D02*
X189200Y127200D01*
X154772Y127472D02*
X188928D01*
X219200Y127200D02*
Y145700D01*
X189200Y127200D02*
Y145700D01*
X219200D02*
X219300Y145800D01*
X189200Y145700D02*
X189300Y145800D01*
X253842Y127200D02*
X253900Y127258D01*
D47*
X378500Y120900D02*
Y135386D01*
X366728Y147158D02*
X378500Y135386D01*
X366728Y186528D02*
X378500Y174756D01*
Y135386D02*
Y174756D01*
X286300Y117400D02*
X375000D01*
X378500Y120900D01*
X276443Y127258D02*
X286300Y117400D01*
X253900Y127258D02*
X276443D01*
D48*
X311024Y275630D02*
D03*
X318898D02*
D03*
X301181D02*
D03*
X328740D02*
D03*
D49*
X340827Y286299D02*
D03*
X289094D02*
D03*
D50*
X154772Y239158D02*
D03*
Y258842D02*
D03*
Y278528D02*
D03*
X366728Y258842D02*
D03*
Y239158D02*
D03*
Y219472D02*
D03*
X154772Y147158D02*
D03*
Y166842D02*
D03*
Y186528D02*
D03*
X366728Y166842D02*
D03*
Y147158D02*
D03*
Y127472D02*
D03*
D51*
X154772Y219472D02*
D03*
X366728Y278528D02*
D03*
X154772Y127472D02*
D03*
X366728Y186528D02*
D03*
D52*
X150000Y98000D02*
D03*
Y307000D02*
D03*
X370000D02*
D03*
Y98000D02*
D03*
D53*
X219200Y127200D02*
D03*
X189200D02*
D03*
D54*
X253900Y127258D02*
D03*
Y146942D02*
D03*
D55*
X219300Y145800D02*
D03*
X189300D02*
D03*
D56*
X311000Y252000D02*
D03*
X236900Y175300D02*
D03*
X236700Y178900D02*
D03*
X260000Y181400D02*
D03*
X278400Y238000D02*
D03*
X259800Y190900D02*
D03*
X278300Y230200D02*
D03*
X292700Y214500D02*
D03*
X281500Y248200D02*
D03*
X282000Y253500D02*
D03*
X312000Y240000D02*
D03*
X322000Y238000D02*
D03*
X324000Y235000D02*
D03*
X325900Y232000D02*
D03*
X330400Y240300D02*
D03*
X330500Y227400D02*
D03*
X210600Y190700D02*
D03*
X219706Y192000D02*
D03*
X194500Y203400D02*
D03*
X179000Y234500D02*
D03*
D57*
X283465Y177165D02*
D03*
X299030Y206839D02*
D03*
X183627Y244370D02*
D03*
X347400Y188100D02*
D03*
X281900Y203300D02*
D03*
X192500Y258400D02*
D03*
D58*
X350000Y198000D02*
D03*
X185500Y254600D02*
D03*
D59*
X327000Y257000D02*
D03*
M02*
