G04*
G04 #@! TF.GenerationSoftware,Altium Limited,Altium Designer,22.7.1 (60)*
G04*
G04 Layer_Color=65535*
%FSLAX25Y25*%
%MOIN*%
G70*
G04*
G04 #@! TF.SameCoordinates,816887E5-1F56-4921-9221-960AF3535DAC*
G04*
G04*
G04 #@! TF.FilePolarity,Positive*
G04*
G01*
G75*
%ADD10C,0.00787*%
%ADD11C,0.00984*%
%ADD12C,0.01000*%
%ADD13C,0.00500*%
%ADD14C,0.00591*%
D10*
X340787Y326771D02*
X339927Y326439D01*
X339567Y325591D01*
X290354D02*
X289994Y326439D01*
X289134Y326771D01*
X274569Y137100D02*
X274545Y138099D01*
X274473Y139095D01*
X274352Y140086D01*
X274184Y141071D01*
X273969Y142046D01*
X273706Y143010D01*
X273398Y143960D01*
X273043Y144894D01*
X272644Y145810D01*
X272202Y146705D01*
X271716Y147579D01*
X271189Y148427D01*
X270622Y149249D01*
X270015Y150043D01*
X269371Y150806D01*
X268691Y151538D01*
X267976Y152235D01*
X267228Y152898D01*
X266450Y153523D01*
X265641Y154111D01*
X264806Y154658D01*
X263945Y155164D01*
X263060Y155629D01*
X262155Y156049D01*
X261229Y156426D01*
X260287Y156758D01*
X259330Y157043D01*
X258360Y157282D01*
X257380Y157474D01*
X256391Y157619D01*
X255397Y157715D01*
X254399Y157763D01*
X253401D01*
X252403Y157715D01*
X251409Y157619D01*
X250420Y157474D01*
X249440Y157282D01*
X248470Y157043D01*
X247513Y156758D01*
X246571Y156426D01*
X245645Y156049D01*
X244740Y155629D01*
X243855Y155164D01*
X242994Y154658D01*
X242159Y154111D01*
X241350Y153523D01*
X240571Y152898D01*
X239824Y152235D01*
X239109Y151538D01*
X238429Y150806D01*
X237785Y150043D01*
X237178Y149249D01*
X236611Y148427D01*
X236084Y147579D01*
X235598Y146705D01*
X235156Y145810D01*
X234757Y144894D01*
X234402Y143960D01*
X234094Y143010D01*
X233831Y142046D01*
X233616Y141071D01*
X233448Y140086D01*
X233327Y139095D01*
X233255Y138099D01*
X233231Y137100D01*
X233255Y136101D01*
X233327Y135105D01*
X233448Y134114D01*
X233616Y133129D01*
X233831Y132153D01*
X234094Y131190D01*
X234402Y130240D01*
X234757Y129306D01*
X235156Y128390D01*
X235598Y127495D01*
X236084Y126621D01*
X236611Y125773D01*
X237178Y124951D01*
X237785Y124157D01*
X238429Y123394D01*
X239109Y122662D01*
X239824Y121965D01*
X240571Y121302D01*
X241350Y120677D01*
X242159Y120089D01*
X242994Y119542D01*
X243855Y119036D01*
X244740Y118571D01*
X245645Y118151D01*
X246570Y117774D01*
X247513Y117442D01*
X248470Y117157D01*
X249440Y116918D01*
X250420Y116726D01*
X251409Y116581D01*
X252403Y116485D01*
X253400Y116437D01*
X254399Y116437D01*
X255397Y116485D01*
X256391Y116581D01*
X257380Y116726D01*
X258360Y116918D01*
X259330Y117157D01*
X260287Y117442D01*
X261229Y117774D01*
X262155Y118150D01*
X263060Y118571D01*
X263945Y119036D01*
X264806Y119542D01*
X265641Y120089D01*
X266449Y120677D01*
X267228Y121302D01*
X267976Y121965D01*
X268691Y122662D01*
X269371Y123394D01*
X270015Y124157D01*
X270622Y124951D01*
X271189Y125773D01*
X271716Y126621D01*
X272202Y127494D01*
X272644Y128390D01*
X273043Y129306D01*
X273398Y130240D01*
X273706Y131190D01*
X273969Y132153D01*
X274184Y133129D01*
X274352Y134113D01*
X274473Y135105D01*
X274545Y136101D01*
X274569Y137100D01*
X337205Y326772D02*
X337205Y325590D01*
X343504Y325591D02*
Y326772D01*
X340748Y325591D02*
X343504D01*
X340787Y326771D02*
X343504Y326772D01*
X337205Y325590D02*
X339567Y325591D01*
X290354D02*
X292716Y325590D01*
Y326772D01*
X286417Y326772D02*
X289134Y326771D01*
X286417Y325591D02*
X289173D01*
X286417D02*
Y326772D01*
X289173Y271654D02*
X340748D01*
X292716Y326772D02*
X337205D01*
X340748Y271654D02*
Y278346D01*
Y294252D02*
Y325591D01*
X289173Y294252D02*
Y325591D01*
Y271654D02*
Y278346D01*
X169732Y209630D02*
Y288370D01*
X136268Y209630D02*
X169732D01*
X136268D02*
Y288370D01*
X169732D01*
X351768Y209630D02*
Y288370D01*
X385232D01*
Y209630D02*
Y288370D01*
X351768Y209630D02*
X385232D01*
X169732Y117630D02*
Y196370D01*
X136268Y117630D02*
X169732D01*
X136268D02*
Y196370D01*
X169732D01*
X182728Y180532D02*
X223672D01*
X182728D02*
X185484Y162619D01*
X220917D02*
X223672Y180532D01*
X185484Y162619D02*
X220917D01*
X351768Y117630D02*
Y196370D01*
X385232D01*
Y117630D02*
Y196370D01*
X351768Y117630D02*
X385232D01*
X295122Y161020D02*
X330555D01*
X292366Y143106D02*
X295122Y161020D01*
X330555D02*
X333311Y143106D01*
X292366D02*
X333311D01*
X295483Y137581D02*
X330917D01*
X292728Y119668D02*
X295483Y137581D01*
X330917D02*
X333672Y119668D01*
X292728D02*
X333672D01*
X201543Y271697D02*
Y298134D01*
Y197346D02*
Y200201D01*
X262921Y197346D02*
X272803D01*
X201543D02*
X211425D01*
X272803Y271697D02*
Y298134D01*
Y197346D02*
Y200201D01*
X201543Y298134D02*
X272803D01*
X321583Y196839D02*
X327095D01*
X328015Y216886D02*
X340662D01*
X328015Y225792D02*
X340662D01*
X183236Y266480D02*
X188748D01*
X332658Y239169D02*
X335020D01*
X332658Y230508D02*
X335020D01*
X332658D02*
Y239169D01*
X335020Y230508D02*
Y239169D01*
X328015Y242886D02*
X340662D01*
X328015Y251792D02*
X340662D01*
X308410Y176650D02*
Y203028D01*
X292268Y176650D02*
Y203028D01*
Y176650D02*
X308410D01*
X292268Y203028D02*
X308410D01*
X321583Y182839D02*
X327095D01*
D11*
X182039Y171576D02*
X181300Y172002D01*
Y171149D01*
X182039Y171576D01*
X334984Y152063D02*
X334246Y152489D01*
Y151637D01*
X334984Y152063D01*
X335346Y128624D02*
X334608Y129051D01*
Y128198D01*
X335346Y128624D01*
X197213Y268154D02*
X196474Y268580D01*
Y267727D01*
X197213Y268154D01*
X330591Y240350D02*
X329852Y240777D01*
Y239924D01*
X330591Y240350D01*
X312937Y176847D02*
X312199Y177273D01*
Y176420D01*
X312937Y176847D01*
D12*
X211200Y127200D02*
X219200D01*
X189200D02*
X197200D01*
Y132200D02*
X211200D01*
Y122200D02*
Y132200D01*
X197200Y122200D02*
X211200D01*
X197200D02*
Y132200D01*
X211300Y140800D02*
Y150800D01*
X197300D02*
X211300D01*
X197300Y140800D02*
Y150800D01*
Y140800D02*
X211300D01*
Y145800D02*
X219300D01*
X189300D02*
X197300D01*
X294500Y242500D02*
X309500D01*
Y217500D02*
Y242500D01*
X294500Y217500D02*
X309500D01*
X294500D02*
Y242500D01*
X286999Y341998D02*
X284999D01*
X285999D01*
Y337000D01*
X284999Y336000D01*
X284000D01*
X283000Y337000D01*
X292997Y336000D02*
X288998D01*
X292997Y339999D01*
Y340998D01*
X291997Y341998D01*
X289998D01*
X288998Y340998D01*
X288835Y249499D02*
Y245334D01*
X289668Y244501D01*
X291334D01*
X292167Y245334D01*
Y249499D01*
X293833Y248666D02*
X294666Y249499D01*
X296332D01*
X297165Y248666D01*
Y247833D01*
X296332Y247000D01*
X295499D01*
X296332D01*
X297165Y246167D01*
Y245334D01*
X296332Y244501D01*
X294666D01*
X293833Y245334D01*
X285900Y212498D02*
Y207500D01*
X286900Y206500D01*
X288899D01*
X289899Y207500D01*
Y212498D01*
X291898Y206500D02*
X293897D01*
X292898D01*
Y212498D01*
X291898Y211498D01*
X345340Y243840D02*
Y249838D01*
X348339D01*
X349339Y248838D01*
Y246839D01*
X348339Y245839D01*
X345340D01*
X347340D02*
X349339Y243840D01*
X351338Y248838D02*
X352338Y249838D01*
X354337D01*
X355337Y248838D01*
Y247838D01*
X354337Y246839D01*
X353338D01*
X354337D01*
X355337Y245839D01*
Y244839D01*
X354337Y243840D01*
X352338D01*
X351338Y244839D01*
X345840Y217840D02*
Y223838D01*
X348839D01*
X349839Y222838D01*
Y220839D01*
X348839Y219839D01*
X345840D01*
X347840D02*
X349839Y217840D01*
X354837D02*
Y223838D01*
X351838Y220839D01*
X355837D01*
X185599Y185300D02*
Y189298D01*
X184599Y190298D01*
X182600D01*
X181600Y189298D01*
Y185300D01*
X182600Y184300D01*
X184599D01*
X183599Y186299D02*
X185599Y184300D01*
X184599D02*
X185599Y185300D01*
X187598Y184300D02*
X189597D01*
X188598D01*
Y190298D01*
X187598Y189298D01*
X288233Y133334D02*
X285567D01*
X284901Y132667D01*
Y131334D01*
X285567Y130668D01*
X288233D01*
X288899Y131334D01*
Y132667D01*
X287566Y132001D02*
X288899Y133334D01*
Y132667D02*
X288233Y133334D01*
X285567Y134667D02*
X284901Y135333D01*
Y136666D01*
X285567Y137332D01*
X286234D01*
X286900Y136666D01*
Y135999D01*
Y136666D01*
X287566Y137332D01*
X288233D01*
X288899Y136666D01*
Y135333D01*
X288233Y134667D01*
X287333Y155433D02*
X284667D01*
X284001Y154767D01*
Y153434D01*
X284667Y152768D01*
X287333D01*
X287999Y153434D01*
Y154767D01*
X286666Y154101D02*
X287999Y155433D01*
Y154767D02*
X287333Y155433D01*
X287999Y159432D02*
Y156766D01*
X285334Y159432D01*
X284667D01*
X284001Y158766D01*
Y157433D01*
X284667Y156766D01*
X348339Y232839D02*
Y236838D01*
X347339Y237838D01*
X345340D01*
X344340Y236838D01*
Y232839D01*
X345340Y231840D01*
X347339D01*
X346340Y233839D02*
X348339Y231840D01*
X347339D02*
X348339Y232839D01*
X353337Y231840D02*
Y237838D01*
X350338Y234839D01*
X354337D01*
X136400Y200300D02*
Y206298D01*
X139399D01*
X140399Y205298D01*
Y203299D01*
X139399Y202299D01*
X136400D01*
X145397Y200300D02*
Y206298D01*
X142398Y203299D01*
X146397D01*
X346002Y291001D02*
Y296999D01*
X349001D01*
X350000Y295999D01*
Y294000D01*
X349001Y293000D01*
X346002D01*
X355998Y291001D02*
X352000D01*
X355998Y295000D01*
Y295999D01*
X354999Y296999D01*
X352999D01*
X352000Y295999D01*
X164001Y291001D02*
Y296999D01*
X167000D01*
X168000Y295999D01*
Y294000D01*
X167000Y293000D01*
X164001D01*
X169999Y291001D02*
X171999D01*
X170999D01*
Y296999D01*
X169999Y295999D01*
X351900Y200300D02*
Y206298D01*
X354899D01*
X355899Y205298D01*
Y203299D01*
X354899Y202299D01*
X351900D01*
X357898Y205298D02*
X358898Y206298D01*
X360897D01*
X361897Y205298D01*
Y204299D01*
X360897Y203299D01*
X359897D01*
X360897D01*
X361897Y202299D01*
Y201300D01*
X360897Y200300D01*
X358898D01*
X357898Y201300D01*
X196263Y284538D02*
X190265D01*
X192264Y286537D01*
X190265Y288536D01*
X196263D01*
X190265Y290536D02*
X196263D01*
Y293535D01*
X195263Y294534D01*
X191264D01*
X190265Y293535D01*
Y290536D01*
X196263Y296534D02*
Y298533D01*
Y297533D01*
X190265D01*
X191264Y296534D01*
X199701Y119699D02*
Y113701D01*
X203700D01*
X205699D02*
X207699D01*
X206699D01*
Y119699D01*
X205699Y118699D01*
X200301Y160799D02*
Y154801D01*
X203300D01*
X204300Y155801D01*
Y159799D01*
X203300Y160799D01*
X200301D01*
X206299Y154801D02*
X208299D01*
X207299D01*
Y160799D01*
X206299Y159799D01*
X237699Y166298D02*
X236699Y167298D01*
X234700D01*
X233700Y166298D01*
Y162300D01*
X234700Y161300D01*
X236699D01*
X237699Y162300D01*
X242697Y161300D02*
Y167298D01*
X239698Y164299D01*
X243697D01*
X323339Y173838D02*
X322339Y174838D01*
X320340D01*
X319340Y173838D01*
Y169839D01*
X320340Y168840D01*
X322339D01*
X323339Y169839D01*
X325338Y173838D02*
X326338Y174838D01*
X328337D01*
X329337Y173838D01*
Y172838D01*
X328337Y171839D01*
X327338D01*
X328337D01*
X329337Y170839D01*
Y169839D01*
X328337Y168840D01*
X326338D01*
X325338Y169839D01*
X324339Y210838D02*
X323339Y211838D01*
X321340D01*
X320340Y210838D01*
Y206839D01*
X321340Y205840D01*
X323339D01*
X324339Y206839D01*
X330337Y205840D02*
X326338D01*
X330337Y209838D01*
Y210838D01*
X329337Y211838D01*
X327338D01*
X326338Y210838D01*
X185492Y279480D02*
X184493Y280479D01*
X182493D01*
X181493Y279480D01*
Y275481D01*
X182493Y274481D01*
X184493D01*
X185492Y275481D01*
X187492Y274481D02*
X189491D01*
X188491D01*
Y280479D01*
X187492Y279480D01*
D13*
X205800Y143800D02*
Y147800D01*
X202800Y145800D02*
X205800Y147800D01*
X202800Y145800D02*
X205800Y143800D01*
X202800D02*
Y145800D01*
X201800Y143800D02*
X202800D01*
Y145800D02*
Y147800D01*
X203800D01*
X201800Y143800D02*
Y144300D01*
X203800Y147300D02*
Y147800D01*
X133000Y131500D02*
Y129501D01*
X133999Y130500D02*
X132000D01*
X131500Y128501D02*
Y127501D01*
Y128001D01*
X134499D01*
X133999Y128501D01*
X131500Y124002D02*
Y126002D01*
X133499Y124002D01*
X133999D01*
X134499Y124502D01*
Y125502D01*
X133999Y126002D01*
X134499Y123003D02*
X132500D01*
X131500Y122003D01*
X132500Y121003D01*
X134499D01*
X133000Y151500D02*
Y149501D01*
X133999Y150500D02*
X132000D01*
X131500Y148501D02*
Y147501D01*
Y148001D01*
X134499D01*
X133999Y148501D01*
X131500Y144002D02*
Y146002D01*
X133499Y144002D01*
X133999D01*
X134499Y144502D01*
Y145502D01*
X133999Y146002D01*
X134499Y143003D02*
X132500D01*
X131500Y142003D01*
X132500Y141003D01*
X134499D01*
Y171500D02*
X131500D01*
Y169501D01*
X134499Y166502D02*
Y168501D01*
X131500D01*
Y166502D01*
X133000Y168501D02*
Y167501D01*
X134499Y165502D02*
X131500D01*
Y164002D01*
X132000Y163503D01*
X133999D01*
X134499Y164002D01*
Y165502D01*
X133000Y162503D02*
Y160504D01*
X133999Y161503D02*
X132000D01*
X134499Y282501D02*
Y284500D01*
X131500D01*
Y282501D01*
X133000Y284500D02*
Y283500D01*
X133999Y279502D02*
X134499Y280001D01*
Y281001D01*
X133999Y281501D01*
X133499D01*
X133000Y281001D01*
Y280001D01*
X132500Y279502D01*
X132000D01*
X131500Y280001D01*
Y281001D01*
X132000Y281501D01*
X134499Y278502D02*
X131500D01*
X132500Y277502D01*
X131500Y276503D01*
X134499D01*
X133999Y262501D02*
X134499Y263000D01*
Y264000D01*
X133999Y264500D01*
X132000D01*
X131500Y264000D01*
Y263000D01*
X132000Y262501D01*
X133000D01*
Y263500D01*
X131500Y261501D02*
X134499D01*
X131500Y259502D01*
X134499D01*
Y258502D02*
X131500D01*
Y257002D01*
X132000Y256503D01*
X133999D01*
X134499Y257002D01*
Y258502D01*
Y192500D02*
X131500D01*
Y190501D01*
X134499Y187502D02*
Y189501D01*
X131500D01*
Y187502D01*
X133000Y189501D02*
Y188501D01*
X134499Y186502D02*
X131500D01*
Y185002D01*
X132000Y184503D01*
X133999D01*
X134499Y185002D01*
Y186502D01*
X131500Y183503D02*
Y182503D01*
Y183003D01*
X134499D01*
X133999Y183503D01*
X133000Y181004D02*
Y179004D01*
X134999Y242501D02*
Y244500D01*
X132000D01*
Y242501D01*
X133499Y244500D02*
Y243500D01*
X132000Y241501D02*
X134999D01*
X132000Y239502D01*
X134999D01*
X134499Y236503D02*
X134999Y237002D01*
Y238002D01*
X134499Y238502D01*
X132500D01*
X132000Y238002D01*
Y237002D01*
X132500Y236503D01*
X131500Y235503D02*
Y233504D01*
X134999Y232504D02*
X132000D01*
Y231004D01*
X132500Y230504D01*
X133000D01*
X133499Y231004D01*
Y232504D01*
Y231004D01*
X133999Y230504D01*
X134499D01*
X134999Y231004D01*
Y232504D01*
Y222501D02*
Y224500D01*
X132000D01*
Y222501D01*
X133499Y224500D02*
Y223500D01*
X132000Y221501D02*
X134999D01*
X132000Y219502D01*
X134999D01*
X134499Y216503D02*
X134999Y217002D01*
Y218002D01*
X134499Y218502D01*
X132500D01*
X132000Y218002D01*
Y217002D01*
X132500Y216503D01*
X131500Y215503D02*
Y213504D01*
X132000Y212504D02*
X133999D01*
X134999Y211504D01*
X133999Y210505D01*
X132000D01*
X133499D01*
Y212504D01*
X387501Y140500D02*
X390500D01*
Y142499D01*
X387501Y145498D02*
Y143499D01*
X390500D01*
Y145498D01*
X389001Y143499D02*
Y144499D01*
X387501Y146498D02*
X390500D01*
Y147998D01*
X390000Y148497D01*
X388001D01*
X387501Y147998D01*
Y146498D01*
X389001Y149497D02*
Y151496D01*
X388001Y150497D02*
X390000D01*
X387501Y160500D02*
X390500D01*
Y162499D01*
X387501Y165498D02*
Y163499D01*
X390500D01*
Y165498D01*
X389001Y163499D02*
Y164499D01*
X387501Y166498D02*
X390500D01*
Y167998D01*
X390000Y168497D01*
X388001D01*
X387501Y167998D01*
Y166498D01*
X390500Y171496D02*
Y169497D01*
X388501Y171496D01*
X388001D01*
X387501Y170997D01*
Y169997D01*
X388001Y169497D01*
X389001Y172496D02*
Y174495D01*
X387501Y180500D02*
X390500D01*
Y182499D01*
X387501Y185498D02*
Y183499D01*
X390500D01*
Y185498D01*
X389001Y183499D02*
Y184499D01*
X387501Y186498D02*
X390500D01*
Y187998D01*
X390000Y188497D01*
X388001D01*
X387501Y187998D01*
Y186498D01*
X389001Y189497D02*
Y191496D01*
X388001Y190497D02*
X390000D01*
X388001Y215499D02*
X387501Y215000D01*
Y214000D01*
X388001Y213500D01*
X390000D01*
X390500Y214000D01*
Y215000D01*
X390000Y215499D01*
X389001D01*
Y214500D01*
X390500Y216499D02*
X387501D01*
X390500Y218498D01*
X387501D01*
Y219498D02*
X390500D01*
Y220998D01*
X390000Y221497D01*
X388001D01*
X387501Y220998D01*
Y219498D01*
X388001Y235499D02*
X387501Y234999D01*
Y234000D01*
X388001Y233500D01*
X388501D01*
X389001Y234000D01*
Y234999D01*
X389500Y235499D01*
X390000D01*
X390500Y234999D01*
Y234000D01*
X390000Y233500D01*
X387501Y236499D02*
X390500D01*
X389500Y237499D01*
X390500Y238498D01*
X387501D01*
X390500Y241497D02*
Y239498D01*
X388501Y241497D01*
X388001D01*
X387501Y240998D01*
Y239998D01*
X388001Y239498D01*
Y253499D02*
X387501Y252999D01*
Y252000D01*
X388001Y251500D01*
X390000D01*
X390500Y252000D01*
Y252999D01*
X390000Y253499D01*
X389001D01*
Y252500D01*
X390500Y254499D02*
X387501D01*
X390500Y256498D01*
X387501D01*
Y257498D02*
X390500D01*
Y258998D01*
X390000Y259497D01*
X388001D01*
X387501Y258998D01*
Y257498D01*
X388001Y275499D02*
X387501Y274999D01*
Y274000D01*
X388001Y273500D01*
X388501D01*
X389001Y274000D01*
Y274999D01*
X389500Y275499D01*
X390000D01*
X390500Y274999D01*
Y274000D01*
X390000Y273500D01*
X387501Y276499D02*
X390500D01*
X389500Y277499D01*
X390500Y278498D01*
X387501D01*
X390500Y279498D02*
Y280498D01*
Y279998D01*
X387501D01*
X388001Y279498D01*
X388501Y119500D02*
X391500D01*
Y121499D01*
X388501Y124498D02*
Y122499D01*
X391500D01*
Y124498D01*
X390001Y122499D02*
Y123499D01*
X388501Y125498D02*
X391500D01*
Y126998D01*
X391000Y127497D01*
X389001D01*
X388501Y126998D01*
Y125498D01*
X389001Y128497D02*
X388501Y128997D01*
Y129997D01*
X389001Y130496D01*
X389501D01*
X390001Y129997D01*
Y129497D01*
Y129997D01*
X390500Y130496D01*
X391000D01*
X391500Y129997D01*
Y128997D01*
X391000Y128497D01*
X390001Y131496D02*
Y133495D01*
D14*
X253948Y111100D02*
Y115036D01*
X251980Y113068D02*
X255916D01*
M02*
