G04*
G04 #@! TF.GenerationSoftware,Altium Limited,Altium Designer,22.7.1 (60)*
G04*
G04 Layer_Color=16711935*
%FSLAX25Y25*%
%MOIN*%
G70*
G04*
G04 #@! TF.SameCoordinates,816887E5-1F56-4921-9221-960AF3535DAC*
G04*
G04*
G04 #@! TF.FilePolarity,Positive*
G04*
G01*
G75*
%ADD10C,0.00787*%
%ADD60C,0.00394*%
D10*
X181743Y162619D02*
Y180532D01*
X224657D01*
Y162619D02*
Y180532D01*
X181743Y162619D02*
X224657D01*
X291382Y161020D02*
X334295D01*
X291382Y143106D02*
Y161020D01*
Y143106D02*
X334295D01*
Y161020D01*
X291743Y137581D02*
X334657D01*
X291743Y119668D02*
Y137581D01*
Y119668D02*
X334657D01*
Y137581D01*
X201543Y197346D02*
Y298134D01*
Y197346D02*
X272803D01*
Y298134D01*
X201543D02*
X272803D01*
X321583Y201071D02*
X327095D01*
X321583Y192606D02*
Y201071D01*
Y192606D02*
X327095D01*
Y201071D01*
X338276Y218878D02*
Y223799D01*
X330402D02*
X338276D01*
X330402Y218878D02*
Y223799D01*
Y218878D02*
X338276D01*
X183236Y262248D02*
Y270713D01*
X188748D01*
Y262248D02*
Y270713D01*
X183236Y262248D02*
X188748D01*
X338276Y244878D02*
Y249799D01*
X330402D02*
X338276D01*
X330402Y244878D02*
Y249799D01*
Y244878D02*
X338276D01*
X321583Y178606D02*
X327095D01*
Y187071D01*
X321583D02*
X327095D01*
X321583Y178606D02*
Y187071D01*
D60*
X290354Y325591D02*
X289994Y326439D01*
X289134Y326771D01*
X340787D02*
X339927Y326439D01*
X339567Y325591D01*
X274569Y137100D02*
X274545Y138099D01*
X274473Y139095D01*
X274352Y140086D01*
X274184Y141071D01*
X273969Y142046D01*
X273706Y143010D01*
X273398Y143960D01*
X273043Y144894D01*
X272644Y145810D01*
X272202Y146705D01*
X271716Y147579D01*
X271189Y148427D01*
X270622Y149249D01*
X270015Y150043D01*
X269371Y150806D01*
X268691Y151538D01*
X267976Y152235D01*
X267228Y152898D01*
X266450Y153523D01*
X265641Y154111D01*
X264806Y154658D01*
X263945Y155164D01*
X263060Y155629D01*
X262155Y156049D01*
X261229Y156426D01*
X260287Y156758D01*
X259330Y157043D01*
X258360Y157282D01*
X257380Y157474D01*
X256391Y157619D01*
X255397Y157715D01*
X254399Y157763D01*
X253401D01*
X252403Y157715D01*
X251409Y157619D01*
X250420Y157474D01*
X249440Y157282D01*
X248470Y157043D01*
X247513Y156758D01*
X246571Y156426D01*
X245645Y156049D01*
X244740Y155629D01*
X243855Y155164D01*
X242994Y154658D01*
X242159Y154111D01*
X241350Y153523D01*
X240571Y152898D01*
X239824Y152235D01*
X239109Y151538D01*
X238429Y150806D01*
X237785Y150043D01*
X237178Y149249D01*
X236611Y148427D01*
X236084Y147579D01*
X235598Y146705D01*
X235156Y145810D01*
X234757Y144894D01*
X234402Y143960D01*
X234094Y143010D01*
X233831Y142046D01*
X233616Y141071D01*
X233448Y140086D01*
X233327Y139095D01*
X233255Y138099D01*
X233231Y137100D01*
X233255Y136101D01*
X233327Y135105D01*
X233448Y134114D01*
X233616Y133129D01*
X233831Y132153D01*
X234094Y131190D01*
X234402Y130240D01*
X234757Y129306D01*
X235156Y128390D01*
X235598Y127495D01*
X236084Y126621D01*
X236611Y125773D01*
X237178Y124951D01*
X237785Y124157D01*
X238429Y123394D01*
X239109Y122662D01*
X239824Y121965D01*
X240571Y121302D01*
X241350Y120677D01*
X242159Y120089D01*
X242994Y119542D01*
X243855Y119036D01*
X244740Y118571D01*
X245645Y118151D01*
X246570Y117774D01*
X247513Y117442D01*
X248470Y117157D01*
X249440Y116918D01*
X250420Y116726D01*
X251409Y116581D01*
X252403Y116485D01*
X253400Y116437D01*
X254399Y116437D01*
X255397Y116485D01*
X256391Y116581D01*
X257380Y116726D01*
X258360Y116918D01*
X259330Y117157D01*
X260287Y117442D01*
X261229Y117774D01*
X262155Y118150D01*
X263060Y118571D01*
X263945Y119036D01*
X264806Y119542D01*
X265641Y120089D01*
X266449Y120677D01*
X267228Y121302D01*
X267976Y121965D01*
X268691Y122662D01*
X269371Y123394D01*
X270015Y124157D01*
X270622Y124951D01*
X271189Y125773D01*
X271716Y126621D01*
X272202Y127494D01*
X272644Y128390D01*
X273043Y129306D01*
X273398Y130240D01*
X273706Y131190D01*
X273969Y132153D01*
X274184Y133129D01*
X274352Y134113D01*
X274473Y135105D01*
X274545Y136101D01*
X274569Y137100D01*
X289173Y271654D02*
Y325591D01*
X340748Y271654D02*
Y325591D01*
X289173Y271654D02*
X340748D01*
X286417Y325591D02*
Y326772D01*
Y325591D02*
X289173D01*
X286417Y326772D02*
X289134Y326771D01*
X292716Y326772D02*
X337205D01*
X292716Y325590D02*
Y326772D01*
X290354Y325591D02*
X292716Y325590D01*
X337205D02*
X339567Y325591D01*
X340787Y326771D02*
X343504Y326772D01*
X340748Y325591D02*
X343504D01*
Y326772D01*
X337205Y326772D02*
X337205Y325590D01*
X136268Y288370D02*
X169732D01*
X136268Y209630D02*
Y288370D01*
Y209630D02*
X169732D01*
Y288370D01*
X351768Y209630D02*
X385232D01*
Y288370D01*
X351768D02*
X385232D01*
X351768Y209630D02*
Y288370D01*
X136268Y196370D02*
X169732D01*
X136268Y117630D02*
Y196370D01*
Y117630D02*
X169732D01*
Y196370D01*
X351768Y117630D02*
X385232D01*
Y196370D01*
X351768D02*
X385232D01*
X351768Y117630D02*
Y196370D01*
X334992Y196610D02*
X341685D01*
X334992Y193067D02*
X341685D01*
X334992D02*
Y196610D01*
X341685Y193067D02*
Y196610D01*
X331378Y230902D02*
Y238776D01*
X336299Y230902D02*
Y238776D01*
X331378D02*
X336299D01*
X331378Y230902D02*
X336299D01*
X307622Y176650D02*
Y203028D01*
X293055Y176650D02*
Y203028D01*
Y176650D02*
X307622D01*
X293055Y203028D02*
X307622D01*
X334992Y186610D02*
X341685D01*
X334992Y183067D02*
X341685D01*
X334992D02*
Y186610D01*
X341685Y183067D02*
Y186610D01*
M02*
