G04*
G04 #@! TF.GenerationSoftware,Altium Limited,Altium Designer,22.7.1 (60)*
G04*
G04 Layer_Color=8388736*
%FSLAX25Y25*%
%MOIN*%
G70*
G04*
G04 #@! TF.SameCoordinates,816887E5-1F56-4921-9221-960AF3535DAC*
G04*
G04*
G04 #@! TF.FilePolarity,Negative*
G04*
G01*
G75*
%ADD15R,0.05236X0.05236*%
%ADD16R,0.03543X0.07874*%
%ADD17R,0.07874X0.03543*%
%ADD18R,0.03740X0.04528*%
%ADD19R,0.05217X0.03248*%
%ADD20R,0.08465X0.02559*%
%ADD21R,0.04953X0.05756*%
%ADD22R,0.02559X0.02165*%
G04:AMPARAMS|DCode=23|XSize=41.34mil|YSize=62.99mil|CornerRadius=4.9mil|HoleSize=0mil|Usage=FLASHONLY|Rotation=270.000|XOffset=0mil|YOffset=0mil|HoleType=Round|Shape=RoundedRectangle|*
%AMROUNDEDRECTD23*
21,1,0.04134,0.05319,0,0,270.0*
21,1,0.03154,0.06299,0,0,270.0*
1,1,0.00980,-0.02659,-0.01577*
1,1,0.00980,-0.02659,0.01577*
1,1,0.00980,0.02659,0.01577*
1,1,0.00980,0.02659,-0.01577*
%
%ADD23ROUNDEDRECTD23*%
G04:AMPARAMS|DCode=24|XSize=129.92mil|YSize=62.99mil|CornerRadius=4.95mil|HoleSize=0mil|Usage=FLASHONLY|Rotation=270.000|XOffset=0mil|YOffset=0mil|HoleType=Round|Shape=RoundedRectangle|*
%AMROUNDEDRECTD24*
21,1,0.12992,0.05309,0,0,270.0*
21,1,0.12002,0.06299,0,0,270.0*
1,1,0.00990,-0.02655,-0.06001*
1,1,0.00990,-0.02655,0.06001*
1,1,0.00990,0.02655,0.06001*
1,1,0.00990,0.02655,-0.06001*
%
%ADD24ROUNDEDRECTD24*%
%ADD25C,0.06181*%
%ADD26C,0.14173*%
%ADD27C,0.10039*%
%ADD28R,0.10039X0.10039*%
%ADD29C,0.25591*%
%ADD30C,0.10591*%
%ADD31C,0.06102*%
%ADD32C,0.11591*%
%ADD33R,0.07284X0.07284*%
%ADD34C,0.07284*%
%ADD35C,0.02591*%
%ADD36C,0.04091*%
%ADD37C,0.03591*%
%ADD38C,0.03991*%
D15*
X240461Y231697D02*
D03*
X233236D02*
D03*
X226012D02*
D03*
X240461Y238921D02*
D03*
X233236D02*
D03*
X226012D02*
D03*
X240461Y246146D02*
D03*
X233236D02*
D03*
X226012D02*
D03*
D16*
X259673Y199512D02*
D03*
X254673D02*
D03*
X249673D02*
D03*
X244673D02*
D03*
X239673D02*
D03*
X234673D02*
D03*
X229673D02*
D03*
X224673D02*
D03*
X219673D02*
D03*
X214673D02*
D03*
D17*
X270638Y268449D02*
D03*
Y263449D02*
D03*
Y258449D02*
D03*
Y253449D02*
D03*
Y248449D02*
D03*
Y243449D02*
D03*
Y238449D02*
D03*
Y233449D02*
D03*
Y228449D02*
D03*
Y223449D02*
D03*
Y218449D02*
D03*
Y213449D02*
D03*
Y208449D02*
D03*
Y203449D02*
D03*
X203709D02*
D03*
Y208449D02*
D03*
Y213449D02*
D03*
Y218449D02*
D03*
Y223449D02*
D03*
Y228449D02*
D03*
Y233449D02*
D03*
Y238449D02*
D03*
Y243449D02*
D03*
Y248449D02*
D03*
Y253449D02*
D03*
Y258449D02*
D03*
Y263449D02*
D03*
Y268449D02*
D03*
D18*
X335386Y194839D02*
D03*
X341291D02*
D03*
X335386Y184839D02*
D03*
X341291D02*
D03*
D19*
X324339Y193689D02*
D03*
Y199988D02*
D03*
X185992Y263331D02*
D03*
Y269630D02*
D03*
X324339Y185988D02*
D03*
Y179689D02*
D03*
D20*
X313811Y235874D02*
D03*
Y231937D02*
D03*
Y228000D02*
D03*
Y224063D02*
D03*
Y220126D02*
D03*
X290189D02*
D03*
Y224063D02*
D03*
Y228000D02*
D03*
Y231937D02*
D03*
Y235874D02*
D03*
Y239811D02*
D03*
D21*
X338185Y221339D02*
D03*
X330492D02*
D03*
Y247339D02*
D03*
X338185D02*
D03*
D22*
X330098Y234839D02*
D03*
Y232279D02*
D03*
X337579D02*
D03*
Y234839D02*
D03*
Y237398D02*
D03*
X330098D02*
D03*
D23*
X312445Y180783D02*
D03*
Y189839D02*
D03*
Y198894D02*
D03*
D24*
X288232Y189839D02*
D03*
D25*
X311024Y275630D02*
D03*
X318898D02*
D03*
X301181D02*
D03*
X328740D02*
D03*
D26*
X340827Y286299D02*
D03*
X289094D02*
D03*
D27*
X154772Y239158D02*
D03*
Y258842D02*
D03*
Y278528D02*
D03*
X366728Y258842D02*
D03*
Y239158D02*
D03*
Y219472D02*
D03*
X154772Y147158D02*
D03*
Y166842D02*
D03*
Y186528D02*
D03*
X366728Y166842D02*
D03*
Y147158D02*
D03*
Y127472D02*
D03*
D28*
X154772Y219472D02*
D03*
X366728Y278528D02*
D03*
X154772Y127472D02*
D03*
X366728Y186528D02*
D03*
D29*
X150000Y98000D02*
D03*
Y307000D02*
D03*
X370000D02*
D03*
Y98000D02*
D03*
D30*
X219200Y127200D02*
D03*
X189200D02*
D03*
D31*
X253900Y127258D02*
D03*
Y146942D02*
D03*
D32*
X219300Y145800D02*
D03*
X189300D02*
D03*
D33*
X193200Y168800D02*
D03*
X322839Y154839D02*
D03*
X323200Y131400D02*
D03*
D34*
X203200Y168800D02*
D03*
X213200D02*
D03*
X302839Y154839D02*
D03*
X312839D02*
D03*
X303200Y131400D02*
D03*
X313200D02*
D03*
D35*
X311000Y252000D02*
D03*
X236900Y175300D02*
D03*
X236700Y178900D02*
D03*
X260000Y181400D02*
D03*
X278400Y238000D02*
D03*
X259800Y190900D02*
D03*
X278300Y230200D02*
D03*
X292700Y214500D02*
D03*
X281500Y248200D02*
D03*
X282000Y253500D02*
D03*
X312000Y240000D02*
D03*
X322000Y238000D02*
D03*
X324000Y235000D02*
D03*
X325900Y232000D02*
D03*
X330400Y240300D02*
D03*
X330500Y227400D02*
D03*
X210600Y190700D02*
D03*
X219706Y192000D02*
D03*
X194500Y203400D02*
D03*
X179000Y234500D02*
D03*
D36*
X283465Y177165D02*
D03*
X299030Y206839D02*
D03*
X183627Y244370D02*
D03*
X347400Y188100D02*
D03*
X281900Y203300D02*
D03*
X192500Y258400D02*
D03*
D37*
X350000Y198000D02*
D03*
X185500Y254600D02*
D03*
D38*
X327000Y257000D02*
D03*
M02*
