G04*
G04 #@! TF.GenerationSoftware,Altium Limited,Altium Designer,22.7.1 (60)*
G04*
G04 Layer_Physical_Order=1*
G04 Layer_Color=255*
%FSLAX25Y25*%
%MOIN*%
G70*
G04*
G04 #@! TF.SameCoordinates,816887E5-1F56-4921-9221-960AF3535DAC*
G04*
G04*
G04 #@! TF.FilePolarity,Positive*
G04*
G01*
G75*
%ADD12C,0.01000*%
%ADD13C,0.00500*%
%ADD15R,0.05236X0.05236*%
%ADD16R,0.03543X0.07874*%
%ADD17R,0.07874X0.03543*%
%ADD19R,0.05217X0.03248*%
%ADD21R,0.04953X0.05756*%
%ADD33R,0.07284X0.07284*%
%ADD34C,0.07284*%
%ADD39R,0.03150X0.03937*%
%ADD40R,0.07874X0.01968*%
%ADD41R,0.01968X0.01575*%
G04:AMPARAMS|DCode=42|XSize=35.43mil|YSize=57.09mil|CornerRadius=1.95mil|HoleSize=0mil|Usage=FLASHONLY|Rotation=270.000|XOffset=0mil|YOffset=0mil|HoleType=Round|Shape=RoundedRectangle|*
%AMROUNDEDRECTD42*
21,1,0.03543,0.05319,0,0,270.0*
21,1,0.03154,0.05709,0,0,270.0*
1,1,0.00390,-0.02659,-0.01577*
1,1,0.00390,-0.02659,0.01577*
1,1,0.00390,0.02659,0.01577*
1,1,0.00390,0.02659,-0.01577*
%
%ADD42ROUNDEDRECTD42*%
G04:AMPARAMS|DCode=43|XSize=124.02mil|YSize=57.09mil|CornerRadius=2mil|HoleSize=0mil|Usage=FLASHONLY|Rotation=270.000|XOffset=0mil|YOffset=0mil|HoleType=Round|Shape=RoundedRectangle|*
%AMROUNDEDRECTD43*
21,1,0.12402,0.05309,0,0,270.0*
21,1,0.12002,0.05709,0,0,270.0*
1,1,0.00400,-0.02655,-0.06001*
1,1,0.00400,-0.02655,0.06001*
1,1,0.00400,0.02655,0.06001*
1,1,0.00400,0.02655,-0.06001*
%
%ADD43ROUNDEDRECTD43*%
%ADD44C,0.01500*%
%ADD45C,0.03500*%
%ADD46C,0.10000*%
%ADD47C,0.05000*%
%ADD48C,0.05591*%
%ADD49C,0.13583*%
%ADD50C,0.09449*%
%ADD51R,0.09449X0.09449*%
%ADD52C,0.25000*%
%ADD53C,0.10000*%
%ADD54C,0.05512*%
%ADD55C,0.11000*%
%ADD56C,0.02000*%
%ADD57C,0.03500*%
%ADD58C,0.03000*%
%ADD59C,0.03400*%
G36*
X184000Y291000D02*
X201199Y273801D01*
Y273134D01*
X201358Y272751D01*
X201740Y272593D01*
X272606D01*
X272989Y272751D01*
X273148Y273134D01*
Y273148D01*
X282439Y282439D01*
X282937Y282390D01*
X283431Y281651D01*
X284447Y280636D01*
X285641Y279838D01*
X286968Y279288D01*
X288376Y279008D01*
X288844D01*
Y286299D01*
Y293591D01*
X288376D01*
X288000Y293899D01*
Y322000D01*
X389463D01*
X396835Y314628D01*
Y90884D01*
X389431Y83480D01*
X134191D01*
X126787Y90884D01*
X126787Y314628D01*
X134191Y322032D01*
X184000D01*
Y291000D01*
D02*
G37*
%LPC*%
G36*
X371023Y320000D02*
X370250D01*
Y307250D01*
X383000D01*
Y308023D01*
X382680Y310044D01*
X382048Y311990D01*
X381119Y313813D01*
X379916Y315469D01*
X378469Y316916D01*
X376814Y318119D01*
X374990Y319048D01*
X373044Y319680D01*
X371023Y320000D01*
D02*
G37*
G36*
X369750D02*
X368977D01*
X366956Y319680D01*
X365010Y319048D01*
X363187Y318119D01*
X361531Y316916D01*
X360084Y315469D01*
X358881Y313813D01*
X357952Y311990D01*
X357320Y310044D01*
X357000Y308023D01*
Y307250D01*
X369750D01*
Y320000D01*
D02*
G37*
G36*
X151023D02*
X150250D01*
Y307250D01*
X163000D01*
Y308023D01*
X162680Y310044D01*
X162048Y311990D01*
X161119Y313813D01*
X159916Y315469D01*
X158469Y316916D01*
X156814Y318119D01*
X154990Y319048D01*
X153044Y319680D01*
X151023Y320000D01*
D02*
G37*
G36*
X149750D02*
X148977D01*
X146956Y319680D01*
X145010Y319048D01*
X143186Y318119D01*
X141531Y316916D01*
X140084Y315469D01*
X138881Y313813D01*
X137952Y311990D01*
X137320Y310044D01*
X137000Y308023D01*
Y307250D01*
X149750D01*
Y320000D01*
D02*
G37*
G36*
X383000Y306750D02*
X370250D01*
Y294000D01*
X371023D01*
X373044Y294320D01*
X374990Y294952D01*
X376814Y295881D01*
X378469Y297084D01*
X379916Y298531D01*
X381119Y300186D01*
X382048Y302010D01*
X382680Y303956D01*
X383000Y305977D01*
Y306750D01*
D02*
G37*
G36*
X369750D02*
X357000D01*
Y305977D01*
X357320Y303956D01*
X357952Y302010D01*
X358881Y300186D01*
X360084Y298531D01*
X361531Y297084D01*
X363187Y295881D01*
X365010Y294952D01*
X366956Y294320D01*
X368977Y294000D01*
X369750D01*
Y306750D01*
D02*
G37*
G36*
X163000D02*
X150250D01*
Y294000D01*
X151023D01*
X153044Y294320D01*
X154990Y294952D01*
X156814Y295881D01*
X158469Y297084D01*
X159916Y298531D01*
X161119Y300186D01*
X162048Y302010D01*
X162680Y303956D01*
X163000Y305977D01*
Y306750D01*
D02*
G37*
G36*
X149750D02*
X137000D01*
Y305977D01*
X137320Y303956D01*
X137952Y302010D01*
X138881Y300186D01*
X140084Y298531D01*
X141531Y297084D01*
X143186Y295881D01*
X145010Y294952D01*
X146956Y294320D01*
X148977Y294000D01*
X149750D01*
Y306750D01*
D02*
G37*
G36*
X341545Y293591D02*
X341077D01*
Y286549D01*
X348118D01*
Y287017D01*
X347838Y288426D01*
X347288Y289753D01*
X346490Y290947D01*
X345475Y291963D01*
X344281Y292761D01*
X342954Y293310D01*
X341545Y293591D01*
D02*
G37*
G36*
X289813D02*
X289345D01*
Y286549D01*
X296386D01*
Y287017D01*
X296106Y288426D01*
X295556Y289753D01*
X294758Y290947D01*
X293742Y291963D01*
X292548Y292761D01*
X291221Y293310D01*
X289813Y293591D01*
D02*
G37*
G36*
X340577D02*
X340109D01*
X338700Y293310D01*
X337373Y292761D01*
X336179Y291963D01*
X335163Y290947D01*
X334365Y289753D01*
X333816Y288426D01*
X333535Y287017D01*
Y286549D01*
X340577D01*
Y293591D01*
D02*
G37*
G36*
X348118Y286049D02*
X341077D01*
Y279008D01*
X341545D01*
X342954Y279288D01*
X344281Y279838D01*
X345475Y280636D01*
X346490Y281651D01*
X347288Y282845D01*
X347838Y284172D01*
X348118Y285581D01*
Y286049D01*
D02*
G37*
G36*
X340577D02*
X333535D01*
Y285581D01*
X333816Y284172D01*
X334365Y282845D01*
X335163Y281651D01*
X336179Y280636D01*
X337373Y279838D01*
X338700Y279288D01*
X340109Y279008D01*
X340577D01*
Y286049D01*
D02*
G37*
G36*
X296386D02*
X289345D01*
Y279008D01*
X289813D01*
X291221Y279288D01*
X292548Y279838D01*
X293742Y280636D01*
X294758Y281651D01*
X295556Y282845D01*
X296106Y284172D01*
X296386Y285581D01*
Y286049D01*
D02*
G37*
G36*
X301615Y278925D02*
X301431D01*
Y275880D01*
X304476D01*
Y276064D01*
X304252Y276902D01*
X303818Y277653D01*
X303204Y278267D01*
X302453Y278701D01*
X301615Y278925D01*
D02*
G37*
G36*
X300931D02*
X300747D01*
X299909Y278701D01*
X299158Y278267D01*
X298544Y277653D01*
X298110Y276902D01*
X297886Y276064D01*
Y275880D01*
X300931D01*
Y278925D01*
D02*
G37*
G36*
X329174D02*
X328306D01*
X327468Y278701D01*
X326717Y278267D01*
X326103Y277653D01*
X325670Y276902D01*
X325445Y276064D01*
Y275196D01*
X325670Y274358D01*
X325800Y274132D01*
X321098Y269430D01*
X320877Y269099D01*
X320799Y268709D01*
Y262181D01*
X320877Y261791D01*
X321098Y261460D01*
X324894Y257664D01*
X324800Y257438D01*
Y256562D01*
X325135Y255754D01*
X325754Y255135D01*
X326562Y254800D01*
X327438D01*
X328246Y255135D01*
X328865Y255754D01*
X329200Y256562D01*
Y257438D01*
X328865Y258246D01*
X328246Y258865D01*
X327438Y259200D01*
X326562D01*
X326336Y259106D01*
X322838Y262603D01*
Y268286D01*
X327242Y272690D01*
X327468Y272559D01*
X328306Y272335D01*
X329174D01*
X330012Y272559D01*
X330764Y272993D01*
X331377Y273607D01*
X331811Y274358D01*
X332035Y275196D01*
Y276064D01*
X331811Y276902D01*
X331377Y277653D01*
X330764Y278267D01*
X330012Y278701D01*
X329174Y278925D01*
D02*
G37*
G36*
X304476Y275380D02*
X301431D01*
Y272335D01*
X301615D01*
X302453Y272559D01*
X303204Y272993D01*
X303818Y273607D01*
X304252Y274358D01*
X304476Y275196D01*
Y275380D01*
D02*
G37*
G36*
X300931D02*
X297886D01*
Y275196D01*
X298110Y274358D01*
X298544Y273607D01*
X299158Y272993D01*
X299909Y272559D01*
X300747Y272335D01*
X300931D01*
Y275380D01*
D02*
G37*
G36*
X189100Y271754D02*
X186242D01*
Y269880D01*
X189100D01*
Y271754D01*
D02*
G37*
G36*
X185742D02*
X182884D01*
Y269880D01*
X185742D01*
Y271754D01*
D02*
G37*
G36*
X275075Y270721D02*
X270888D01*
Y268699D01*
X275075D01*
Y270721D01*
D02*
G37*
G36*
X270388D02*
X266201D01*
Y268699D01*
X270388D01*
Y270721D01*
D02*
G37*
G36*
X208146D02*
X203959D01*
Y268699D01*
X208146D01*
Y270721D01*
D02*
G37*
G36*
X203459D02*
X199272D01*
Y268699D01*
X203459D01*
Y270721D01*
D02*
G37*
G36*
X189100Y269380D02*
X186242D01*
Y267506D01*
X189100D01*
Y269380D01*
D02*
G37*
G36*
X185742D02*
X182884D01*
Y267506D01*
X185742D01*
Y269380D01*
D02*
G37*
G36*
X208146Y268199D02*
X199272D01*
Y266220D01*
X199272Y266177D01*
Y265721D01*
X199272Y265677D01*
Y264605D01*
X189100D01*
Y265455D01*
X182884D01*
Y261207D01*
X184225D01*
Y256154D01*
X183805Y255733D01*
X183500Y254998D01*
Y254202D01*
X183805Y253467D01*
X184367Y252905D01*
X185102Y252600D01*
X185898D01*
X186633Y252905D01*
X187196Y253467D01*
X187500Y254202D01*
Y254998D01*
X187196Y255733D01*
X186775Y256154D01*
Y261207D01*
X189100D01*
Y262056D01*
X199272D01*
Y261221D01*
X199272Y261177D01*
Y260720D01*
X199272Y260677D01*
Y259165D01*
X194656D01*
X194437Y259694D01*
X193794Y260336D01*
X192954Y260684D01*
X192046D01*
X191206Y260336D01*
X190563Y259694D01*
X190216Y258854D01*
Y257946D01*
X190563Y257106D01*
X191206Y256464D01*
X192046Y256116D01*
X192954D01*
X193794Y256464D01*
X194437Y257106D01*
X194656Y257635D01*
X199272D01*
Y256221D01*
X199272Y256177D01*
Y255720D01*
X199272Y255677D01*
Y251220D01*
X199272Y251177D01*
Y250721D01*
X199272Y250677D01*
Y246220D01*
X199272Y246177D01*
Y245721D01*
X199272Y245677D01*
Y241220D01*
X199272Y241177D01*
Y240721D01*
X199272Y240677D01*
Y236221D01*
X199272Y236177D01*
Y235720D01*
X199272Y235677D01*
Y231221D01*
X199272Y231177D01*
Y230720D01*
X199272Y230677D01*
Y226220D01*
X199272Y226177D01*
Y225721D01*
X199272Y225677D01*
Y221220D01*
X199272Y221177D01*
Y220721D01*
X199272Y220677D01*
Y216220D01*
X199272Y216177D01*
Y215721D01*
X199272Y215677D01*
Y211221D01*
X199272Y211177D01*
Y210720D01*
X199272Y210677D01*
Y209468D01*
X193849D01*
X193459Y209391D01*
X193128Y209170D01*
X191379Y207421D01*
X191158Y207090D01*
X191080Y206700D01*
Y200500D01*
X191158Y200110D01*
X191379Y199779D01*
X201179Y189979D01*
X201510Y189758D01*
X201900Y189680D01*
X209308D01*
X209674Y189315D01*
X210275Y189066D01*
X210925D01*
X211526Y189315D01*
X211985Y189774D01*
X212234Y190375D01*
Y191025D01*
X211985Y191626D01*
X211526Y192085D01*
X210925Y192334D01*
X210275D01*
X209674Y192085D01*
X209308Y191720D01*
X202322D01*
X193120Y200922D01*
Y201816D01*
X193620Y201996D01*
X194175Y201766D01*
X194825D01*
X195426Y202015D01*
X195885Y202474D01*
X195972Y202684D01*
X199272D01*
Y201177D01*
X208146D01*
Y205720D01*
X208146D01*
Y206177D01*
X208146D01*
Y210677D01*
X208146Y210720D01*
Y211177D01*
X208146Y211221D01*
Y215677D01*
X208146Y215721D01*
Y216177D01*
X208146Y216220D01*
Y220677D01*
X208146Y220721D01*
Y221177D01*
X208146Y221220D01*
Y225677D01*
X208146Y225721D01*
Y226177D01*
X208146Y226220D01*
Y230677D01*
X208146Y230720D01*
Y231177D01*
X208146Y231221D01*
Y235677D01*
X208146Y235720D01*
Y236177D01*
X208146Y236221D01*
Y240677D01*
X208146Y240721D01*
Y241177D01*
X208146Y241220D01*
Y245677D01*
X208146Y245721D01*
Y246177D01*
X208146Y246220D01*
Y250677D01*
X208146Y250721D01*
Y251177D01*
X208146Y251220D01*
Y255677D01*
X208146Y255720D01*
Y256177D01*
X208146Y256221D01*
Y260677D01*
X208146Y260720D01*
Y261177D01*
X208146Y261221D01*
Y265677D01*
X208146Y265721D01*
Y266177D01*
X208146Y266220D01*
Y268199D01*
D02*
G37*
G36*
X367416Y264067D02*
X366978D01*
Y259092D01*
X371953D01*
Y259530D01*
X371597Y260859D01*
X370909Y262050D01*
X369936Y263023D01*
X368745Y263711D01*
X367416Y264067D01*
D02*
G37*
G36*
X366478D02*
X366040D01*
X364712Y263711D01*
X363521Y263023D01*
X362548Y262050D01*
X361860Y260859D01*
X361504Y259530D01*
Y259092D01*
X366478D01*
Y264067D01*
D02*
G37*
G36*
X155459D02*
X155022D01*
Y259092D01*
X159996D01*
Y259530D01*
X159640Y260859D01*
X158952Y262050D01*
X157980Y263023D01*
X156788Y263711D01*
X155459Y264067D01*
D02*
G37*
G36*
X154522D02*
X154084D01*
X152755Y263711D01*
X151564Y263023D01*
X150591Y262050D01*
X149903Y260859D01*
X149547Y259530D01*
Y259092D01*
X154522D01*
Y264067D01*
D02*
G37*
G36*
X319332Y278925D02*
X318464D01*
X317626Y278701D01*
X316874Y278267D01*
X316261Y277653D01*
X315827Y276902D01*
X315602Y276064D01*
Y275196D01*
X315827Y274358D01*
X316261Y273607D01*
X316874Y272993D01*
X317626Y272559D01*
X318133Y272423D01*
Y268033D01*
X307313Y257214D01*
X306851Y257405D01*
Y262463D01*
X311564Y267176D01*
X311730Y267424D01*
X311788Y267717D01*
X311788Y267717D01*
Y272423D01*
X312296Y272559D01*
X313047Y272993D01*
X313661Y273607D01*
X314094Y274358D01*
X314319Y275196D01*
Y276064D01*
X314094Y276902D01*
X313661Y277653D01*
X313047Y278267D01*
X312296Y278701D01*
X311457Y278925D01*
X310590D01*
X309752Y278701D01*
X309000Y278267D01*
X308387Y277653D01*
X307953Y276902D01*
X307728Y276064D01*
Y275196D01*
X307953Y274358D01*
X308387Y273607D01*
X309000Y272993D01*
X309752Y272559D01*
X310259Y272423D01*
Y268033D01*
X305546Y263320D01*
X305380Y263072D01*
X305322Y262779D01*
Y244825D01*
X297135Y236639D01*
X294626D01*
Y237358D01*
X285752D01*
Y234390D01*
X294626D01*
Y235109D01*
X296367D01*
X296558Y234647D01*
X295088Y233177D01*
X294626Y233369D01*
Y233421D01*
X285752D01*
Y230453D01*
X294626D01*
Y231172D01*
X294929D01*
X295222Y231230D01*
X295470Y231396D01*
X307627Y243554D01*
X307793Y243802D01*
X307851Y244094D01*
Y255589D01*
X319438Y267176D01*
X319604Y267424D01*
X319662Y267717D01*
Y272423D01*
X320170Y272559D01*
X320921Y272993D01*
X321534Y273607D01*
X321968Y274358D01*
X322193Y275196D01*
Y276064D01*
X321968Y276902D01*
X321534Y277653D01*
X320921Y278267D01*
X320170Y278701D01*
X319332Y278925D01*
D02*
G37*
G36*
X371953Y258593D02*
X366978D01*
Y253618D01*
X367416D01*
X368745Y253974D01*
X369936Y254662D01*
X370909Y255635D01*
X371597Y256826D01*
X371953Y258155D01*
Y258593D01*
D02*
G37*
G36*
X366478D02*
X361504D01*
Y258155D01*
X361860Y256826D01*
X362548Y255635D01*
X363521Y254662D01*
X364712Y253974D01*
X366040Y253618D01*
X366478D01*
Y258593D01*
D02*
G37*
G36*
X159996Y258593D02*
X155022D01*
Y253618D01*
X155459D01*
X156788Y253974D01*
X157980Y254662D01*
X158952Y255635D01*
X159640Y256826D01*
X159996Y258155D01*
Y258593D01*
D02*
G37*
G36*
X154522D02*
X149547D01*
Y258155D01*
X149903Y256826D01*
X150591Y255635D01*
X151564Y254662D01*
X152755Y253974D01*
X154084Y253618D01*
X154522D01*
Y258593D01*
D02*
G37*
G36*
X371953Y283752D02*
X361504D01*
Y279292D01*
X348293D01*
X348000Y279234D01*
X347752Y279068D01*
X347459Y278775D01*
X347293Y278527D01*
X347235Y278235D01*
Y214317D01*
X346083Y213165D01*
X294854D01*
X294587Y213665D01*
X294635Y213735D01*
X342200D01*
X342493Y213793D01*
X342741Y213959D01*
X344541Y215759D01*
X344541Y215759D01*
X344707Y216007D01*
X344765Y216300D01*
Y234400D01*
X344765Y234400D01*
X344707Y234693D01*
X344541Y234941D01*
X341543Y237938D01*
X341295Y238104D01*
X341002Y238162D01*
X339063D01*
Y238685D01*
X336574D01*
X336367Y239185D01*
X338726Y241544D01*
X338892Y241792D01*
X338950Y242085D01*
Y243960D01*
X341162D01*
Y250717D01*
X335208D01*
Y243960D01*
X337420D01*
Y242402D01*
X334859Y239841D01*
X334694Y239593D01*
X334635Y239300D01*
Y234185D01*
X334694Y233892D01*
X334859Y233644D01*
X335743Y232761D01*
X335973Y232607D01*
X336094Y232486D01*
Y230992D01*
X336094D01*
X335942Y230556D01*
X335881Y230465D01*
X328700D01*
X328407Y230406D01*
X328159Y230241D01*
X318748Y220830D01*
X318248Y220921D01*
Y221610D01*
X309374D01*
Y218642D01*
X318248D01*
Y219235D01*
X319000D01*
X319293Y219293D01*
X319541Y219459D01*
X328634Y228553D01*
X328679Y228544D01*
X328970Y227976D01*
X328866Y227725D01*
Y227075D01*
X329115Y226474D01*
X329574Y226015D01*
X329728Y225951D01*
Y224717D01*
X327516D01*
Y222103D01*
X325339D01*
X325046Y222045D01*
X324798Y221879D01*
X320683Y217765D01*
X306317D01*
X299541Y224541D01*
X299293Y224707D01*
X299000Y224765D01*
X294626D01*
Y225547D01*
X285752D01*
Y222579D01*
X294626D01*
Y223235D01*
X298683D01*
X305459Y216459D01*
X305459Y216459D01*
X305707Y216294D01*
X306000Y216235D01*
X321000D01*
X321293Y216294D01*
X321541Y216459D01*
X325655Y220574D01*
X327516D01*
Y217960D01*
X333469D01*
Y224717D01*
X331257D01*
Y225945D01*
X331426Y226015D01*
X331885Y226474D01*
X332134Y227075D01*
Y227725D01*
X331885Y228326D01*
X331776Y228435D01*
X331983Y228935D01*
X336700D01*
X336993Y228994D01*
X337241Y229159D01*
X338120Y230038D01*
X338285Y230286D01*
X338343Y230579D01*
Y230992D01*
X339063D01*
X339135Y230522D01*
Y230317D01*
X337559Y228741D01*
X337393Y228493D01*
X337335Y228200D01*
Y224717D01*
X335208D01*
Y217960D01*
X341162D01*
Y224717D01*
X338865D01*
Y227883D01*
X340441Y229459D01*
X340441Y229459D01*
X340606Y229707D01*
X340665Y230000D01*
Y234300D01*
X340606Y234593D01*
X340441Y234841D01*
X339902Y235379D01*
X339654Y235545D01*
X339361Y235603D01*
X339063D01*
Y236633D01*
X340686D01*
X343235Y234083D01*
Y216617D01*
X341883Y215265D01*
X294152D01*
X294085Y215426D01*
X293626Y215885D01*
X293025Y216134D01*
X292375D01*
X291774Y215885D01*
X291315Y215426D01*
X291066Y214825D01*
Y214523D01*
X290566Y214316D01*
X286702Y218180D01*
X286893Y218642D01*
X294626D01*
Y221610D01*
X285752D01*
Y219783D01*
X285290Y219591D01*
X281217Y223665D01*
Y231048D01*
X281217Y231048D01*
X281158Y231341D01*
X280993Y231589D01*
X278592Y233990D01*
X278344Y234155D01*
X278051Y234213D01*
X275075D01*
Y235677D01*
X275075Y235720D01*
Y236177D01*
X275075Y236221D01*
Y240677D01*
X275075Y240721D01*
Y241177D01*
X275075Y241220D01*
Y242684D01*
X275834D01*
X277635Y240883D01*
Y239452D01*
X277474Y239385D01*
X277015Y238926D01*
X276766Y238325D01*
Y237675D01*
X277015Y237074D01*
X277474Y236615D01*
X278075Y236366D01*
X278725D01*
X279326Y236615D01*
X279785Y237074D01*
X280034Y237675D01*
Y238325D01*
X279785Y238926D01*
X279326Y239385D01*
X279165Y239452D01*
Y241200D01*
X279106Y241493D01*
X278941Y241741D01*
X276692Y243989D01*
X276444Y244155D01*
X276151Y244214D01*
X275075D01*
Y245677D01*
X275075Y245721D01*
Y246177D01*
X275075Y246220D01*
Y247435D01*
X280048D01*
X280115Y247274D01*
X280574Y246815D01*
X281175Y246566D01*
X281825D01*
X282426Y246815D01*
X282885Y247274D01*
X283134Y247875D01*
Y248525D01*
X282885Y249126D01*
X282426Y249585D01*
X281825Y249834D01*
X281175D01*
X280574Y249585D01*
X280115Y249126D01*
X280048Y248965D01*
X275504D01*
X275075Y249364D01*
Y250677D01*
X275075Y250721D01*
Y251177D01*
X275075Y251220D01*
Y252735D01*
X280548D01*
X280615Y252574D01*
X281074Y252115D01*
X281675Y251866D01*
X282325D01*
X282926Y252115D01*
X283385Y252574D01*
X283634Y253175D01*
Y253825D01*
X283385Y254426D01*
X282926Y254885D01*
X282325Y255134D01*
X281675D01*
X281074Y254885D01*
X280615Y254426D01*
X280548Y254265D01*
X275075D01*
Y255677D01*
X275075Y255720D01*
Y256177D01*
X275075Y256221D01*
Y260677D01*
X275075Y260720D01*
Y261177D01*
X275075Y261221D01*
Y265677D01*
X275075Y265721D01*
Y266177D01*
X275075Y266220D01*
Y268199D01*
X266201D01*
Y266220D01*
X266201Y266177D01*
Y265721D01*
X266201Y265677D01*
Y261221D01*
X266201Y261177D01*
Y260720D01*
X266201Y260677D01*
Y256221D01*
X266201Y256177D01*
Y255720D01*
X266201Y255677D01*
Y251220D01*
X266201Y251177D01*
Y250721D01*
X266201Y250677D01*
Y246220D01*
X266201Y246177D01*
Y245721D01*
X266201Y245677D01*
Y241220D01*
X266201Y241177D01*
Y240721D01*
X266201Y240677D01*
Y236221D01*
X266201Y236177D01*
Y235720D01*
X266201Y235677D01*
Y231221D01*
X266201Y231177D01*
Y230720D01*
X266201Y230677D01*
Y226220D01*
X266201Y226177D01*
Y225721D01*
X266201Y225677D01*
Y221220D01*
X266201Y221177D01*
Y220721D01*
X266201Y220677D01*
Y216220D01*
X266201Y216177D01*
Y215721D01*
X266201Y215677D01*
Y211221D01*
X266201Y211177D01*
Y210720D01*
X266201Y210677D01*
Y206221D01*
X266201Y206177D01*
Y205720D01*
X266201Y205677D01*
Y201177D01*
X275075D01*
Y202684D01*
X279683D01*
X279963Y202006D01*
X280606Y201363D01*
X281446Y201016D01*
X282354D01*
X283194Y201363D01*
X283837Y202006D01*
X284184Y202846D01*
Y203754D01*
X283837Y204594D01*
X283194Y205237D01*
X282354Y205584D01*
X281446D01*
X280606Y205237D01*
X279963Y204594D01*
X279806Y204214D01*
X275075D01*
Y205677D01*
X275075Y205720D01*
Y206177D01*
X275075Y206221D01*
Y207684D01*
X284234D01*
X286435Y205483D01*
Y202831D01*
X279759Y196155D01*
X279593Y195907D01*
X279535Y195614D01*
Y188817D01*
X277683Y186965D01*
X199117D01*
X176765Y209317D01*
Y231183D01*
X178514Y232932D01*
X178675Y232866D01*
X179325D01*
X179926Y233115D01*
X180385Y233574D01*
X180634Y234175D01*
Y234825D01*
X180385Y235426D01*
X179926Y235885D01*
X179325Y236134D01*
X178675D01*
X178074Y235885D01*
X177615Y235426D01*
X177366Y234825D01*
Y234175D01*
X177432Y234014D01*
X176227Y232808D01*
X175765Y232999D01*
Y266900D01*
X175707Y267193D01*
X175541Y267441D01*
X163913Y279068D01*
X163665Y279234D01*
X163372Y279292D01*
X159976D01*
X159640Y280544D01*
X158952Y281735D01*
X157980Y282708D01*
X156788Y283396D01*
X155459Y283752D01*
X154084D01*
X152755Y283396D01*
X151564Y282708D01*
X150591Y281735D01*
X149903Y280544D01*
X149547Y279215D01*
Y277840D01*
X149903Y276511D01*
X150591Y275320D01*
X151564Y274347D01*
X152755Y273659D01*
X154084Y273303D01*
X155459D01*
X156788Y273659D01*
X157980Y274347D01*
X158952Y275320D01*
X159640Y276511D01*
X159976Y277763D01*
X163056D01*
X174235Y266583D01*
Y216699D01*
X173773Y216508D01*
X170268Y220013D01*
X170020Y220179D01*
X169728Y220237D01*
X159996D01*
Y224697D01*
X149547D01*
Y214248D01*
X159996D01*
Y218708D01*
X169411D01*
X173235Y214883D01*
Y208172D01*
X173293Y207879D01*
X173459Y207631D01*
X197431Y183659D01*
X197431Y183659D01*
X197679Y183493D01*
X197972Y183435D01*
X197972Y183435D01*
X256883D01*
X258433Y181886D01*
X258366Y181725D01*
Y181075D01*
X258615Y180474D01*
X259074Y180015D01*
X259675Y179766D01*
X260325D01*
X260926Y180015D01*
X261385Y180474D01*
X261634Y181075D01*
Y181725D01*
X261385Y182326D01*
X260926Y182785D01*
X260325Y183034D01*
X259675D01*
X259514Y182968D01*
X258508Y183973D01*
X258699Y184435D01*
X278414D01*
X278707Y184494D01*
X278955Y184659D01*
X281841Y187545D01*
X282007Y187793D01*
X282065Y188086D01*
Y194883D01*
X288741Y201559D01*
X288741Y201559D01*
X288907Y201807D01*
X288965Y202100D01*
Y211686D01*
X289427Y211878D01*
X291098Y210206D01*
X291347Y210040D01*
X291639Y209982D01*
X346747D01*
X347039Y210040D01*
X347287Y210206D01*
X349541Y212459D01*
X349707Y212707D01*
X349765Y213000D01*
Y236683D01*
X351474Y238393D01*
X361525D01*
X361860Y237141D01*
X362548Y235950D01*
X363521Y234977D01*
X364712Y234289D01*
X366040Y233933D01*
X367416D01*
X368745Y234289D01*
X369936Y234977D01*
X370909Y235950D01*
X371597Y237141D01*
X371953Y238470D01*
Y239845D01*
X371597Y241174D01*
X370909Y242365D01*
X369936Y243338D01*
X368745Y244026D01*
X367416Y244382D01*
X366040D01*
X364712Y244026D01*
X363521Y243338D01*
X362548Y242365D01*
X361860Y241174D01*
X361525Y239922D01*
X351157D01*
X351157Y239922D01*
X350865Y239864D01*
X350617Y239698D01*
X349227Y238308D01*
X348765Y238499D01*
Y277763D01*
X361504D01*
Y273303D01*
X371953D01*
Y283752D01*
D02*
G37*
G36*
X243579Y249264D02*
X240711D01*
Y246396D01*
X243579D01*
Y249264D01*
D02*
G37*
G36*
X240211D02*
X237343D01*
Y246396D01*
X240211D01*
Y249264D01*
D02*
G37*
G36*
X236354D02*
X233486D01*
Y246396D01*
X236354D01*
Y249264D01*
D02*
G37*
G36*
X232986D02*
X230118D01*
Y246396D01*
X232986D01*
Y249264D01*
D02*
G37*
G36*
X229130D02*
X226262D01*
Y246396D01*
X229130D01*
Y249264D01*
D02*
G37*
G36*
X225762D02*
X222894D01*
Y246396D01*
X225762D01*
Y249264D01*
D02*
G37*
G36*
X243579Y245896D02*
X240711D01*
Y243028D01*
X243579D01*
Y245896D01*
D02*
G37*
G36*
X240211D02*
X237343D01*
Y243028D01*
X240211D01*
Y245896D01*
D02*
G37*
G36*
X236354D02*
X233486D01*
Y243028D01*
X236354D01*
Y245896D01*
D02*
G37*
G36*
X232986D02*
X230118D01*
Y243028D01*
X232986D01*
Y245896D01*
D02*
G37*
G36*
X229130D02*
X226262D01*
Y243028D01*
X229130D01*
Y245896D01*
D02*
G37*
G36*
X225762D02*
X222894D01*
Y243028D01*
X225762D01*
Y245896D01*
D02*
G37*
G36*
X294626Y241295D02*
X290439D01*
Y240061D01*
X294626D01*
Y241295D01*
D02*
G37*
G36*
X289939D02*
X285752D01*
Y240061D01*
X289939D01*
Y241295D01*
D02*
G37*
G36*
X243579Y242039D02*
X240711D01*
Y239171D01*
X243579D01*
Y242039D01*
D02*
G37*
G36*
X240211D02*
X237343D01*
Y239171D01*
X240211D01*
Y242039D01*
D02*
G37*
G36*
X236354D02*
X233486D01*
Y239171D01*
X236354D01*
Y242039D01*
D02*
G37*
G36*
X232986D02*
X230118D01*
Y239171D01*
X232986D01*
Y242039D01*
D02*
G37*
G36*
X229130D02*
X226262D01*
Y239171D01*
X229130D01*
Y242039D01*
D02*
G37*
G36*
X225762D02*
X222894D01*
Y239171D01*
X225762D01*
Y242039D01*
D02*
G37*
G36*
X294626Y239561D02*
X290439D01*
Y238327D01*
X294626D01*
Y239561D01*
D02*
G37*
G36*
X289939D02*
X285752D01*
Y238327D01*
X289939D01*
Y239561D01*
D02*
G37*
G36*
X243579Y238671D02*
X240711D01*
Y235803D01*
X243579D01*
Y238671D01*
D02*
G37*
G36*
X240211D02*
X237343D01*
Y235803D01*
X240211D01*
Y238671D01*
D02*
G37*
G36*
X236354D02*
X233486D01*
Y235803D01*
X236354D01*
Y238671D01*
D02*
G37*
G36*
X232986D02*
X230118D01*
Y235803D01*
X232986D01*
Y238671D01*
D02*
G37*
G36*
X229130D02*
X226262D01*
Y235803D01*
X229130D01*
Y238671D01*
D02*
G37*
G36*
X225762D02*
X222894D01*
Y235803D01*
X225762D01*
Y238671D01*
D02*
G37*
G36*
X311325Y253634D02*
X310675D01*
X310074Y253385D01*
X309615Y252926D01*
X309366Y252325D01*
Y251675D01*
X309615Y251074D01*
X310074Y250615D01*
X310235Y250548D01*
Y242317D01*
X306459Y238541D01*
X306294Y238293D01*
X306235Y238000D01*
Y225000D01*
X306294Y224707D01*
X306459Y224459D01*
X307396Y223522D01*
X307644Y223357D01*
X307937Y223298D01*
X309374D01*
Y222579D01*
X318248D01*
Y225547D01*
X309374D01*
Y224828D01*
X308254D01*
X307765Y225317D01*
Y237683D01*
X309904Y239822D01*
X310394Y239606D01*
X310615Y239074D01*
X310980Y238708D01*
Y237358D01*
X309374D01*
Y234390D01*
X318248D01*
Y237358D01*
X313020D01*
Y238708D01*
X313385Y239074D01*
X313634Y239675D01*
Y240325D01*
X313385Y240926D01*
X312926Y241385D01*
X312325Y241634D01*
X312202D01*
X311765Y242000D01*
X311765Y242096D01*
Y250548D01*
X311926Y250615D01*
X312385Y251074D01*
X312634Y251675D01*
Y252325D01*
X312385Y252926D01*
X311926Y253385D01*
X311325Y253634D01*
D02*
G37*
G36*
X155459Y244382D02*
X154084D01*
X152755Y244026D01*
X151564Y243338D01*
X150591Y242365D01*
X149903Y241174D01*
X149547Y239845D01*
Y238470D01*
X149903Y237141D01*
X150591Y235950D01*
X151564Y234977D01*
X152755Y234289D01*
X154084Y233933D01*
X155459D01*
X156788Y234289D01*
X157980Y234977D01*
X158952Y235950D01*
X159640Y237141D01*
X159996Y238470D01*
Y239845D01*
X159640Y241174D01*
X158952Y242365D01*
X157980Y243338D01*
X156788Y244026D01*
X155459Y244382D01*
D02*
G37*
G36*
X333469Y250717D02*
X327516D01*
Y243960D01*
X329935D01*
Y242800D01*
X329994Y242507D01*
X330049Y242424D01*
X330053Y242347D01*
X329938Y241950D01*
X329864Y241847D01*
X329474Y241685D01*
X329015Y241226D01*
X328766Y240625D01*
Y239975D01*
X329015Y239374D01*
X329204Y239185D01*
X328997Y238685D01*
X328614D01*
Y236110D01*
Y232765D01*
X327352D01*
X327285Y232926D01*
X326826Y233385D01*
X326225Y233634D01*
X325653D01*
X325486Y233862D01*
X325395Y234096D01*
X325634Y234675D01*
Y235325D01*
X325385Y235926D01*
X324926Y236385D01*
X324325Y236634D01*
X323675D01*
X323637Y236618D01*
X323354Y237042D01*
X323385Y237074D01*
X323634Y237675D01*
Y238325D01*
X323385Y238926D01*
X322926Y239385D01*
X322325Y239634D01*
X321675D01*
X321074Y239385D01*
X320615Y238926D01*
X320366Y238325D01*
Y237675D01*
X320615Y237074D01*
X321074Y236615D01*
X321235Y236548D01*
Y234317D01*
X319620Y232702D01*
X318248D01*
Y233421D01*
X309374D01*
Y230453D01*
X318248D01*
Y231172D01*
X319937D01*
X320230Y231230D01*
X320478Y231396D01*
X322541Y233459D01*
X322735Y233516D01*
X323235Y233163D01*
Y232317D01*
X319683Y228765D01*
X318248D01*
Y229484D01*
X309374D01*
Y226516D01*
X318248D01*
Y227235D01*
X320000D01*
X320293Y227293D01*
X320541Y227459D01*
X324056Y230975D01*
X324689Y230900D01*
X324974Y230615D01*
X325575Y230366D01*
X326225D01*
X326826Y230615D01*
X327285Y231074D01*
X327352Y231235D01*
X328614D01*
Y230992D01*
X331583D01*
Y234074D01*
X331739D01*
X332031Y234132D01*
X332279Y234298D01*
X332841Y234859D01*
X332841Y234859D01*
X333007Y235107D01*
X333065Y235400D01*
Y241200D01*
X333007Y241493D01*
X332841Y241741D01*
X331465Y243117D01*
Y243960D01*
X333469D01*
Y250717D01*
D02*
G37*
G36*
X243579Y234815D02*
X240711D01*
Y231947D01*
X243579D01*
Y234815D01*
D02*
G37*
G36*
X240211D02*
X237343D01*
Y231947D01*
X240211D01*
Y234815D01*
D02*
G37*
G36*
X236354D02*
X233486D01*
Y231947D01*
X236354D01*
Y234815D01*
D02*
G37*
G36*
X232986D02*
X230118D01*
Y231947D01*
X232986D01*
Y234815D01*
D02*
G37*
G36*
X229130D02*
X226262D01*
Y231947D01*
X229130D01*
Y234815D01*
D02*
G37*
G36*
X225762D02*
X222894D01*
Y231947D01*
X225762D01*
Y234815D01*
D02*
G37*
G36*
X243579Y231447D02*
X240711D01*
Y228579D01*
X243579D01*
Y231447D01*
D02*
G37*
G36*
X240211D02*
X237343D01*
Y228579D01*
X240211D01*
Y231447D01*
D02*
G37*
G36*
X236354D02*
X233486D01*
Y228579D01*
X236354D01*
Y231447D01*
D02*
G37*
G36*
X232986D02*
X230118D01*
Y228579D01*
X232986D01*
Y231447D01*
D02*
G37*
G36*
X229130D02*
X226262D01*
Y228579D01*
X229130D01*
Y231447D01*
D02*
G37*
G36*
X225762D02*
X222894D01*
Y228579D01*
X225762D01*
Y231447D01*
D02*
G37*
G36*
X294626Y229484D02*
X290439D01*
Y228250D01*
X294626D01*
Y229484D01*
D02*
G37*
G36*
X289939D02*
X285752D01*
Y228250D01*
X289939D01*
Y229484D01*
D02*
G37*
G36*
X294626Y227750D02*
X290439D01*
Y226516D01*
X294626D01*
Y227750D01*
D02*
G37*
G36*
X289939D02*
X285752D01*
Y226516D01*
X289939D01*
Y227750D01*
D02*
G37*
G36*
X367416Y224697D02*
X366978D01*
Y219722D01*
X371953D01*
Y220160D01*
X371597Y221489D01*
X370909Y222680D01*
X369936Y223653D01*
X368745Y224341D01*
X367416Y224697D01*
D02*
G37*
G36*
X366478D02*
X366040D01*
X364712Y224341D01*
X363521Y223653D01*
X362548Y222680D01*
X361860Y221489D01*
X361504Y220160D01*
Y219722D01*
X366478D01*
Y224697D01*
D02*
G37*
G36*
X371953Y219222D02*
X366978D01*
Y214248D01*
X367416D01*
X368745Y214604D01*
X369936Y215292D01*
X370909Y216265D01*
X371597Y217456D01*
X371953Y218785D01*
Y219222D01*
D02*
G37*
G36*
X366478D02*
X361504D01*
Y218785D01*
X361860Y217456D01*
X362548Y216265D01*
X363521Y215292D01*
X364712Y214604D01*
X366040Y214248D01*
X366478D01*
Y219222D01*
D02*
G37*
G36*
X257402Y203949D02*
X256945D01*
X256902Y203949D01*
X252445D01*
X252402Y203949D01*
X251945D01*
X251902Y203949D01*
X247445D01*
X247402Y203949D01*
X246945D01*
X246902Y203949D01*
X242445D01*
X242402Y203949D01*
X241945D01*
X241902Y203949D01*
X237445D01*
X237402Y203949D01*
X236945D01*
X236902Y203949D01*
X232445D01*
X232402Y203949D01*
X231945D01*
X231902Y203949D01*
X227445D01*
X227402Y203949D01*
X226945D01*
X226902Y203949D01*
X222445D01*
X222402Y203949D01*
X221945D01*
X221902Y203949D01*
X217445D01*
X217402Y203949D01*
X216945D01*
X216902Y203949D01*
X214923D01*
Y199512D01*
Y195075D01*
X216902D01*
X216945Y195075D01*
X217402D01*
X217445Y195075D01*
X218687D01*
Y193292D01*
X218321Y192926D01*
X218072Y192325D01*
Y191675D01*
X218321Y191074D01*
X218780Y190615D01*
X219381Y190366D01*
X220031D01*
X220632Y190615D01*
X221092Y191074D01*
X221340Y191675D01*
Y192325D01*
X221092Y192926D01*
X220726Y193292D01*
Y195075D01*
X221902D01*
X221945Y195075D01*
X222402D01*
X222445Y195075D01*
X226902D01*
X226945Y195075D01*
X227402D01*
X227445Y195075D01*
X231902D01*
X231945Y195075D01*
X232402D01*
X232445Y195075D01*
X236902D01*
X236945Y195075D01*
X237402D01*
X237445Y195075D01*
X241902D01*
X241945Y195075D01*
X242402D01*
X242445Y195075D01*
X246902D01*
X246945Y195075D01*
X247402D01*
X247445Y195075D01*
X251902D01*
X251945Y195075D01*
X252402D01*
X252445Y195075D01*
X256902D01*
X256945Y195075D01*
X257402D01*
X257445Y195075D01*
X259035D01*
Y192352D01*
X258874Y192285D01*
X258415Y191826D01*
X258166Y191225D01*
Y190575D01*
X258415Y189974D01*
X258874Y189515D01*
X259475Y189266D01*
X260125D01*
X260726Y189515D01*
X261185Y189974D01*
X261434Y190575D01*
Y191225D01*
X261185Y191826D01*
X260726Y192285D01*
X260565Y192352D01*
Y195075D01*
X261945D01*
Y203949D01*
X257445D01*
X257402Y203949D01*
D02*
G37*
G36*
X214423Y203949D02*
X212402D01*
Y199762D01*
X214423D01*
Y203949D01*
D02*
G37*
G36*
X327447Y202112D02*
X321230D01*
Y201008D01*
X319088D01*
X318698Y200930D01*
X318367Y200709D01*
X317178Y199520D01*
X315813D01*
Y200470D01*
X315759Y200742D01*
X315605Y200972D01*
X315375Y201125D01*
X315104Y201179D01*
X309785D01*
X309514Y201125D01*
X309284Y200972D01*
X309131Y200742D01*
X309077Y200470D01*
Y197317D01*
X309131Y197046D01*
X309284Y196816D01*
X309514Y196662D01*
X309785Y196608D01*
X315104D01*
X315375Y196662D01*
X315605Y196816D01*
X315759Y197046D01*
X315813Y197317D01*
Y197480D01*
X317600D01*
X317990Y197558D01*
X318321Y197779D01*
X319511Y198969D01*
X321230D01*
Y197864D01*
X327447D01*
Y198204D01*
X327947Y198411D01*
X330779Y195579D01*
X331110Y195358D01*
X331500Y195280D01*
X333311D01*
Y192370D01*
X334366D01*
Y187307D01*
X333311D01*
Y182370D01*
X337461D01*
Y187307D01*
X336405D01*
Y192370D01*
X337461D01*
Y197307D01*
X334374D01*
X334311Y197320D01*
X331922D01*
X328721Y200521D01*
X328390Y200742D01*
X328000Y200820D01*
X327447D01*
Y202112D01*
D02*
G37*
G36*
X350398Y200000D02*
X349602D01*
X348867Y199696D01*
X348446Y199275D01*
X344453D01*
X343965Y199178D01*
X343551Y198901D01*
X341957Y197307D01*
X339216D01*
Y192370D01*
X343366D01*
Y195126D01*
X343411Y195156D01*
X344981Y196725D01*
X348446D01*
X348867Y196305D01*
X349602Y196000D01*
X350398D01*
X351133Y196305D01*
X351695Y196867D01*
X352000Y197602D01*
Y198398D01*
X351695Y199133D01*
X351133Y199696D01*
X350398Y200000D01*
D02*
G37*
G36*
X214423Y199262D02*
X212402D01*
Y195075D01*
X214423D01*
Y199262D01*
D02*
G37*
G36*
X327447Y195813D02*
X324589D01*
Y193939D01*
X327447D01*
Y195813D01*
D02*
G37*
G36*
X324089D02*
X321230D01*
Y193939D01*
X324089D01*
Y195813D01*
D02*
G37*
G36*
X327447Y193439D02*
X324589D01*
Y191565D01*
X327447D01*
Y193439D01*
D02*
G37*
G36*
X324089D02*
X321230D01*
Y191565D01*
X324089D01*
Y193439D01*
D02*
G37*
G36*
X327447Y188112D02*
X324589D01*
Y186238D01*
X327447D01*
Y188112D01*
D02*
G37*
G36*
X324089D02*
X321230D01*
Y186238D01*
X324089D01*
Y188112D01*
D02*
G37*
G36*
X347848Y190350D02*
X346952D01*
X346126Y190007D01*
X345493Y189374D01*
X345150Y188548D01*
Y187652D01*
X345256Y187398D01*
X343866Y186008D01*
X343366Y186215D01*
Y187307D01*
X339216D01*
Y182370D01*
X343366D01*
Y183780D01*
X344100D01*
X344490Y183858D01*
X344821Y184079D01*
X346697Y185956D01*
X346952Y185850D01*
X347848D01*
X348675Y186193D01*
X349307Y186826D01*
X349650Y187652D01*
Y188548D01*
X349307Y189374D01*
X348675Y190007D01*
X347848Y190350D01*
D02*
G37*
G36*
X327447Y185738D02*
X324589D01*
Y183864D01*
X327447D01*
Y185738D01*
D02*
G37*
G36*
X324089D02*
X321230D01*
Y183864D01*
X324089D01*
Y185738D01*
D02*
G37*
G36*
X315104Y183069D02*
X312695D01*
Y181034D01*
X315813D01*
Y182360D01*
X315759Y182631D01*
X315605Y182861D01*
X315375Y183015D01*
X315104Y183069D01*
D02*
G37*
G36*
X312195D02*
X309785D01*
X309514Y183015D01*
X309284Y182861D01*
X309131Y182631D01*
X309077Y182360D01*
Y181034D01*
X312195D01*
Y183069D01*
D02*
G37*
G36*
X315813Y180534D02*
X312695D01*
Y178498D01*
X315104D01*
X315375Y178552D01*
X315605Y178706D01*
X315759Y178936D01*
X315813Y179207D01*
Y180534D01*
D02*
G37*
G36*
X312195D02*
X309077D01*
Y179207D01*
X309131Y178936D01*
X309284Y178706D01*
X309514Y178552D01*
X309785Y178498D01*
X312195D01*
Y180534D01*
D02*
G37*
G36*
X299524Y209323D02*
X298536D01*
X297623Y208945D01*
X296924Y208246D01*
X296546Y207333D01*
Y206345D01*
X296924Y205432D01*
X297373Y204983D01*
Y204128D01*
X289798Y196553D01*
X285578D01*
X285305Y196499D01*
X285073Y196344D01*
X284919Y196113D01*
X284864Y195840D01*
Y183838D01*
X284919Y183565D01*
X285073Y183333D01*
X285305Y183178D01*
X285578Y183124D01*
X290887D01*
X291160Y183178D01*
X291391Y183333D01*
X291546Y183565D01*
X291600Y183838D01*
Y188564D01*
X309077D01*
Y188262D01*
X309131Y187991D01*
X309284Y187761D01*
X309514Y187607D01*
X309785Y187553D01*
X315104D01*
X315375Y187607D01*
X315605Y187761D01*
X315759Y187991D01*
X315797Y188180D01*
X316778D01*
X317780Y187178D01*
Y180800D01*
X317858Y180410D01*
X318079Y180079D01*
X319190Y178968D01*
X319521Y178747D01*
X319911Y178669D01*
X321230D01*
Y177565D01*
X327447D01*
Y181813D01*
X321230D01*
Y180709D01*
X320333D01*
X319820Y181222D01*
Y187600D01*
X319742Y187990D01*
X319521Y188321D01*
X317921Y189921D01*
X317590Y190142D01*
X317200Y190220D01*
X315813D01*
Y191415D01*
X315759Y191686D01*
X315605Y191916D01*
X315375Y192070D01*
X315104Y192124D01*
X309785D01*
X309514Y192070D01*
X309284Y191916D01*
X309131Y191686D01*
X309077Y191415D01*
Y191113D01*
X291600D01*
Y194751D01*
X299549Y202699D01*
X299825Y203113D01*
X299922Y203600D01*
Y204519D01*
X300437Y204733D01*
X301136Y205432D01*
X301515Y206345D01*
Y207333D01*
X301136Y208246D01*
X300437Y208945D01*
X299524Y209323D01*
D02*
G37*
G36*
X213745Y172942D02*
X213450D01*
Y169050D01*
X217342D01*
Y169345D01*
X217059Y170399D01*
X216514Y171343D01*
X215743Y172114D01*
X214799Y172660D01*
X213745Y172942D01*
D02*
G37*
G36*
X212950D02*
X212655D01*
X211601Y172660D01*
X210657Y172114D01*
X209886Y171343D01*
X209341Y170399D01*
X209058Y169345D01*
Y169050D01*
X212950D01*
Y172942D01*
D02*
G37*
G36*
X217342Y168550D02*
X213450D01*
Y164658D01*
X213745D01*
X214799Y164941D01*
X215743Y165486D01*
X216514Y166257D01*
X217059Y167201D01*
X217342Y168255D01*
Y168550D01*
D02*
G37*
G36*
X212950D02*
X209058D01*
Y168255D01*
X209341Y167201D01*
X209886Y166257D01*
X210657Y165486D01*
X211601Y164941D01*
X212655Y164658D01*
X212950D01*
Y168550D01*
D02*
G37*
G36*
X155459Y191752D02*
X154084D01*
X152755Y191396D01*
X151564Y190708D01*
X150591Y189735D01*
X149903Y188544D01*
X149547Y187215D01*
Y185840D01*
X149903Y184511D01*
X150591Y183320D01*
X151564Y182347D01*
X152755Y181659D01*
X154084Y181303D01*
X155459D01*
X156788Y181659D01*
X157980Y182347D01*
X158952Y183320D01*
X159480Y184233D01*
X189422D01*
X200114Y173541D01*
Y172267D01*
X200182Y171926D01*
Y171639D01*
X199886Y171343D01*
X199340Y170399D01*
X199058Y169345D01*
Y168255D01*
X199340Y167201D01*
X199886Y166257D01*
X200657Y165486D01*
X201601Y164941D01*
X202655Y164658D01*
X203745D01*
X204799Y164941D01*
X205743Y165486D01*
X206514Y166257D01*
X207060Y167201D01*
X207342Y168255D01*
Y169345D01*
X207060Y170399D01*
X206514Y171343D01*
X205743Y172114D01*
X204799Y172660D01*
X204702Y172685D01*
Y174492D01*
X204528Y175370D01*
X204030Y176114D01*
X191995Y188150D01*
X191250Y188647D01*
X190373Y188822D01*
X159480D01*
X158952Y189735D01*
X157980Y190708D01*
X156788Y191396D01*
X155459Y191752D01*
D02*
G37*
G36*
X197342Y172942D02*
X189058D01*
Y164658D01*
X197342D01*
Y172942D01*
D02*
G37*
G36*
X367416Y172067D02*
X366040D01*
X364712Y171711D01*
X363521Y171023D01*
X362548Y170050D01*
X362020Y169137D01*
X318843D01*
X317965Y168962D01*
X317220Y168465D01*
X311216Y162461D01*
X310719Y161716D01*
X310544Y160839D01*
Y158297D01*
X310296Y158153D01*
X309524Y157382D01*
X308979Y156437D01*
X308697Y155384D01*
Y154293D01*
X308979Y153240D01*
X309524Y152295D01*
X310296Y151524D01*
X311240Y150979D01*
X312293Y150697D01*
X313384D01*
X314437Y150979D01*
X315382Y151524D01*
X316153Y152295D01*
X316698Y153240D01*
X316980Y154293D01*
Y155384D01*
X316698Y156437D01*
X316153Y157382D01*
X315382Y158153D01*
X315133Y158297D01*
Y159888D01*
X319793Y164548D01*
X362020D01*
X362548Y163635D01*
X363521Y162662D01*
X364712Y161974D01*
X366040Y161618D01*
X367416D01*
X368745Y161974D01*
X369936Y162662D01*
X370909Y163635D01*
X371597Y164826D01*
X371953Y166155D01*
Y167530D01*
X371597Y168859D01*
X370909Y170050D01*
X369936Y171023D01*
X368745Y171711D01*
X367416Y172067D01*
D02*
G37*
G36*
X303384Y158980D02*
X303089D01*
Y155089D01*
X306980D01*
Y155384D01*
X306698Y156437D01*
X306153Y157382D01*
X305382Y158153D01*
X304437Y158698D01*
X303384Y158980D01*
D02*
G37*
G36*
X302589D02*
X302293D01*
X301240Y158698D01*
X300295Y158153D01*
X299524Y157382D01*
X298979Y156437D01*
X298697Y155384D01*
Y155089D01*
X302589D01*
Y158980D01*
D02*
G37*
G36*
X306980Y154589D02*
X303089D01*
Y150697D01*
X303384D01*
X304437Y150979D01*
X305382Y151524D01*
X306153Y152295D01*
X306698Y153240D01*
X306980Y154293D01*
Y154589D01*
D02*
G37*
G36*
X302589D02*
X298697D01*
Y154293D01*
X298979Y153240D01*
X299524Y152295D01*
X300295Y151524D01*
X301240Y150979D01*
X302293Y150697D01*
X302589D01*
Y154589D01*
D02*
G37*
G36*
X155459Y152382D02*
X155022D01*
Y147407D01*
X159996D01*
Y147845D01*
X159640Y149174D01*
X158952Y150365D01*
X157980Y151338D01*
X156788Y152026D01*
X155459Y152382D01*
D02*
G37*
G36*
X154522D02*
X154084D01*
X152755Y152026D01*
X151564Y151338D01*
X150591Y150365D01*
X149903Y149174D01*
X149547Y147845D01*
Y147407D01*
X154522D01*
Y152382D01*
D02*
G37*
G36*
X254329Y150198D02*
X254150D01*
Y147193D01*
X257156D01*
Y147371D01*
X256934Y148199D01*
X256505Y148942D01*
X255899Y149548D01*
X255157Y149977D01*
X254329Y150198D01*
D02*
G37*
G36*
X253650D02*
X253471D01*
X252643Y149977D01*
X251901Y149548D01*
X251295Y148942D01*
X250866Y148199D01*
X250644Y147371D01*
Y147193D01*
X253650D01*
Y150198D01*
D02*
G37*
G36*
X257156Y146693D02*
X254150D01*
Y143687D01*
X254329D01*
X255157Y143909D01*
X255899Y144337D01*
X256505Y144943D01*
X256934Y145686D01*
X257156Y146514D01*
Y146693D01*
D02*
G37*
G36*
X253650D02*
X250644D01*
Y146514D01*
X250866Y145686D01*
X251295Y144943D01*
X251901Y144337D01*
X252643Y143909D01*
X253471Y143687D01*
X253650D01*
Y146693D01*
D02*
G37*
G36*
X371953Y191752D02*
X361504D01*
Y181303D01*
X367673D01*
X375474Y173503D01*
Y143344D01*
X375012Y143153D01*
X371898Y146267D01*
X371953Y146470D01*
Y147845D01*
X371597Y149174D01*
X370909Y150365D01*
X369936Y151338D01*
X368745Y152026D01*
X367416Y152382D01*
X366040D01*
X364712Y152026D01*
X363521Y151338D01*
X362548Y150365D01*
X361860Y149174D01*
X361504Y147845D01*
Y146470D01*
X361860Y145141D01*
X362548Y143950D01*
X363521Y142977D01*
X364712Y142289D01*
X366040Y141933D01*
X367416D01*
X367619Y141987D01*
X375474Y134133D01*
Y125100D01*
X375503Y124880D01*
Y122182D01*
X373747Y120426D01*
X345103D01*
X345054Y120926D01*
X345129Y120941D01*
X345874Y121438D01*
X348774Y124339D01*
X362505D01*
X362548Y124265D01*
X363521Y123292D01*
X364712Y122604D01*
X366040Y122248D01*
X367416D01*
X368745Y122604D01*
X369936Y123292D01*
X370909Y124265D01*
X371597Y125456D01*
X371953Y126785D01*
Y128160D01*
X371597Y129489D01*
X370909Y130680D01*
X369936Y131653D01*
X368745Y132341D01*
X367416Y132697D01*
X366040D01*
X364712Y132341D01*
X363521Y131653D01*
X362548Y130680D01*
X361860Y129489D01*
X361709Y128927D01*
X347824D01*
X346946Y128752D01*
X346202Y128255D01*
X343301Y125354D01*
X318590D01*
X316218Y127726D01*
Y128561D01*
X316514Y128857D01*
X317059Y129801D01*
X317342Y130855D01*
Y131945D01*
X317059Y132999D01*
X316514Y133943D01*
X315743Y134714D01*
X314799Y135259D01*
X313745Y135542D01*
X312655D01*
X311601Y135259D01*
X310657Y134714D01*
X309886Y133943D01*
X309341Y132999D01*
X309058Y131945D01*
Y130855D01*
X309341Y129801D01*
X309886Y128857D01*
X310657Y128086D01*
X311601Y127541D01*
X311630Y127533D01*
Y126776D01*
X311805Y125898D01*
X312302Y125154D01*
X316018Y121438D01*
X316762Y120941D01*
X316837Y120926D01*
X316788Y120426D01*
X287553D01*
X278582Y129397D01*
X277956Y129878D01*
X277226Y130180D01*
X276443Y130283D01*
X258511D01*
X257823Y131180D01*
X256674Y132062D01*
X255336Y132616D01*
X253900Y132805D01*
X253463Y132747D01*
X224747D01*
Y143273D01*
X225069Y144050D01*
X225300Y145209D01*
Y146391D01*
X225069Y147550D01*
X224617Y148642D01*
X223960Y149625D01*
X223125Y150461D01*
X222142Y151117D01*
X221050Y151569D01*
X219891Y151800D01*
X218709D01*
X217550Y151569D01*
X217002Y151342D01*
X210122Y158222D01*
X209378Y158720D01*
X208500Y158894D01*
X165964D01*
X159723Y165136D01*
X159996Y166155D01*
Y167530D01*
X159640Y168859D01*
X158952Y170050D01*
X157980Y171023D01*
X156788Y171711D01*
X155459Y172067D01*
X154084D01*
X152755Y171711D01*
X151564Y171023D01*
X150591Y170050D01*
X149903Y168859D01*
X149547Y167530D01*
Y166155D01*
X149903Y164826D01*
X150591Y163635D01*
X151564Y162662D01*
X152755Y161974D01*
X154084Y161618D01*
X155459D01*
X156479Y161891D01*
X163392Y154978D01*
X164136Y154481D01*
X165014Y154306D01*
X207550D01*
X213758Y148098D01*
X213531Y147550D01*
X213300Y146391D01*
Y145209D01*
X213531Y144050D01*
X213652Y143755D01*
Y127200D01*
X213700Y126839D01*
Y126476D01*
X213794Y126125D01*
X213842Y125764D01*
X213981Y125428D01*
X214075Y125077D01*
X214257Y124762D01*
X214396Y124426D01*
X214617Y124138D01*
X214799Y123823D01*
X215056Y123566D01*
X215277Y123277D01*
X215566Y123056D01*
X215823Y122799D01*
X216138Y122617D01*
X216426Y122396D01*
X216762Y122257D01*
X217077Y122075D01*
X217428Y121981D01*
X217764Y121842D01*
X218125Y121794D01*
X218476Y121700D01*
X218840D01*
X219200Y121652D01*
X253842D01*
X255278Y121842D01*
X256616Y122396D01*
X257765Y123277D01*
X257823Y123335D01*
X258511Y124232D01*
X275189D01*
X284160Y115260D01*
X284787Y114779D01*
X285517Y114477D01*
X286300Y114374D01*
X375000D01*
X375783Y114477D01*
X376513Y114779D01*
X377140Y115260D01*
X380668Y118789D01*
X380669Y118789D01*
X381149Y119416D01*
X381452Y120146D01*
X381555Y120929D01*
Y125071D01*
X381555Y125071D01*
X381526Y125291D01*
Y135386D01*
X381526Y135386D01*
X381526Y135386D01*
Y174756D01*
X381526Y174756D01*
X381423Y175539D01*
X381120Y176269D01*
X380640Y176895D01*
X371953Y185582D01*
Y191752D01*
D02*
G37*
G36*
X159996Y146907D02*
X155022D01*
Y141933D01*
X155459D01*
X156788Y142289D01*
X157980Y142977D01*
X158952Y143950D01*
X159640Y145141D01*
X159996Y146470D01*
Y146907D01*
D02*
G37*
G36*
X154522D02*
X149547D01*
Y146470D01*
X149903Y145141D01*
X150591Y143950D01*
X151564Y142977D01*
X152755Y142289D01*
X154084Y141933D01*
X154522D01*
Y146907D01*
D02*
G37*
G36*
X303745Y135542D02*
X303450D01*
Y131650D01*
X307342D01*
Y131945D01*
X307060Y132999D01*
X306514Y133943D01*
X305743Y134714D01*
X304799Y135259D01*
X303745Y135542D01*
D02*
G37*
G36*
X302950D02*
X302655D01*
X301601Y135259D01*
X300657Y134714D01*
X299886Y133943D01*
X299341Y132999D01*
X299058Y131945D01*
Y131650D01*
X302950D01*
Y135542D01*
D02*
G37*
G36*
X237025Y180534D02*
X236375D01*
X235774Y180285D01*
X235315Y179826D01*
X235066Y179225D01*
Y178575D01*
X235315Y177974D01*
X235774Y177515D01*
X236222Y177329D01*
X236260Y176804D01*
X235974Y176685D01*
X235515Y176226D01*
X235266Y175625D01*
Y174975D01*
X235515Y174374D01*
X235974Y173915D01*
X236575Y173666D01*
X237225D01*
X237826Y173915D01*
X238192Y174280D01*
X240800D01*
X241190Y174358D01*
X241521Y174579D01*
X241522Y174580D01*
X258256D01*
X290158Y142679D01*
X290489Y142458D01*
X290879Y142380D01*
X314678D01*
X319039Y138019D01*
Y134542D01*
X319058Y134443D01*
Y127258D01*
X327342D01*
Y135542D01*
X321078D01*
Y138442D01*
X321000Y138832D01*
X320779Y139163D01*
X316524Y143419D01*
X316715Y143880D01*
X319100D01*
X319490Y143958D01*
X319821Y144179D01*
X323559Y147918D01*
X323781Y148248D01*
X323858Y148639D01*
Y150697D01*
X326980D01*
Y158980D01*
X318697D01*
Y150697D01*
X321819D01*
Y149061D01*
X318678Y145920D01*
X291922D01*
X260021Y177821D01*
X259690Y178042D01*
X259300Y178120D01*
X238922D01*
X238334Y178708D01*
Y179225D01*
X238085Y179826D01*
X237626Y180285D01*
X237025Y180534D01*
D02*
G37*
G36*
X307342Y131150D02*
X303450D01*
Y127258D01*
X303745D01*
X304799Y127541D01*
X305743Y128086D01*
X306514Y128857D01*
X307060Y129801D01*
X307342Y130855D01*
Y131150D01*
D02*
G37*
G36*
X302950D02*
X299058D01*
Y130855D01*
X299341Y129801D01*
X299886Y128857D01*
X300657Y128086D01*
X301601Y127541D01*
X302655Y127258D01*
X302950D01*
Y131150D01*
D02*
G37*
G36*
X189891Y151800D02*
X188709D01*
X187550Y151569D01*
X186458Y151117D01*
X185475Y150461D01*
X184640Y149625D01*
X183983Y148642D01*
X183531Y147550D01*
X183300Y146391D01*
Y145209D01*
X183531Y144050D01*
X183652Y143755D01*
Y133020D01*
X154772D01*
X153336Y132831D01*
X153012Y132697D01*
X149547D01*
Y129232D01*
X149413Y128908D01*
X149224Y127472D01*
X149413Y126037D01*
X149547Y125713D01*
Y122248D01*
X153012D01*
X153336Y122114D01*
X154772Y121925D01*
X187563D01*
X187764Y121842D01*
X188125Y121794D01*
X188476Y121700D01*
X188839D01*
X189200Y121652D01*
X189561Y121700D01*
X189924D01*
X190275Y121794D01*
X190636Y121842D01*
X190972Y121981D01*
X191323Y122075D01*
X191638Y122257D01*
X191974Y122396D01*
X192262Y122617D01*
X192577Y122799D01*
X192834Y123056D01*
X193123Y123277D01*
X193344Y123566D01*
X193601Y123823D01*
X193783Y124138D01*
X194004Y124426D01*
X194143Y124762D01*
X194325Y125077D01*
X194419Y125428D01*
X194558Y125764D01*
X194606Y126125D01*
X194700Y126476D01*
Y126839D01*
X194747Y127200D01*
X194747Y127200D01*
Y143273D01*
X195069Y144050D01*
X195300Y145209D01*
Y146391D01*
X195069Y147550D01*
X194617Y148642D01*
X193960Y149625D01*
X193125Y150461D01*
X192142Y151117D01*
X191050Y151569D01*
X189891Y151800D01*
D02*
G37*
G36*
X371023Y111000D02*
X370250D01*
Y98250D01*
X383000D01*
Y99023D01*
X382680Y101044D01*
X382048Y102990D01*
X381119Y104814D01*
X379916Y106469D01*
X378469Y107916D01*
X376814Y109119D01*
X374990Y110048D01*
X373044Y110680D01*
X371023Y111000D01*
D02*
G37*
G36*
X369750D02*
X368977D01*
X366956Y110680D01*
X365010Y110048D01*
X363187Y109119D01*
X361531Y107916D01*
X360084Y106469D01*
X358881Y104814D01*
X357952Y102990D01*
X357320Y101044D01*
X357000Y99023D01*
Y98250D01*
X369750D01*
Y111000D01*
D02*
G37*
G36*
X151023D02*
X150250D01*
Y98250D01*
X163000D01*
Y99023D01*
X162680Y101044D01*
X162048Y102990D01*
X161119Y104814D01*
X159916Y106469D01*
X158469Y107916D01*
X156814Y109119D01*
X154990Y110048D01*
X153044Y110680D01*
X151023Y111000D01*
D02*
G37*
G36*
X149750D02*
X148977D01*
X146956Y110680D01*
X145010Y110048D01*
X143186Y109119D01*
X141531Y107916D01*
X140084Y106469D01*
X138881Y104814D01*
X137952Y102990D01*
X137320Y101044D01*
X137000Y99023D01*
Y98250D01*
X149750D01*
Y111000D01*
D02*
G37*
G36*
X383000Y97750D02*
X370250D01*
Y85000D01*
X371023D01*
X373044Y85320D01*
X374990Y85952D01*
X376814Y86881D01*
X378469Y88084D01*
X379916Y89531D01*
X381119Y91186D01*
X382048Y93010D01*
X382680Y94956D01*
X383000Y96977D01*
Y97750D01*
D02*
G37*
G36*
X369750D02*
X357000D01*
Y96977D01*
X357320Y94956D01*
X357952Y93010D01*
X358881Y91186D01*
X360084Y89531D01*
X361531Y88084D01*
X363187Y86881D01*
X365010Y85952D01*
X366956Y85320D01*
X368977Y85000D01*
X369750D01*
Y97750D01*
D02*
G37*
G36*
X163000D02*
X150250D01*
Y85000D01*
X151023D01*
X153044Y85320D01*
X154990Y85952D01*
X156814Y86881D01*
X158469Y88084D01*
X159916Y89531D01*
X161119Y91186D01*
X162048Y93010D01*
X162680Y94956D01*
X163000Y96977D01*
Y97750D01*
D02*
G37*
G36*
X149750D02*
X137000D01*
Y96977D01*
X137320Y94956D01*
X137952Y93010D01*
X138881Y91186D01*
X140084Y89531D01*
X141531Y88084D01*
X143186Y86881D01*
X145010Y85952D01*
X146956Y85320D01*
X148977Y85000D01*
X149750D01*
Y97750D01*
D02*
G37*
%LPD*%
G36*
X287435Y212455D02*
Y207299D01*
X286973Y207108D01*
X285092Y208990D01*
X284844Y209155D01*
X284551Y209213D01*
X275075D01*
Y210677D01*
X275075Y210720D01*
Y211177D01*
X275075Y211221D01*
Y215677D01*
X275075Y215721D01*
Y216177D01*
X275075Y216220D01*
Y220677D01*
X275075Y220721D01*
Y221177D01*
X275075Y221220D01*
Y222684D01*
X277206D01*
X287435Y212455D01*
D02*
G37*
D12*
X321819Y268709D02*
X328740Y275630D01*
X321819Y262181D02*
Y268709D01*
X335386Y194839D02*
Y195225D01*
X334311Y196300D02*
X335386Y195225D01*
X331500Y196300D02*
X334311D01*
X328000Y199800D02*
X331500Y196300D01*
X324339Y199800D02*
X328000D01*
X319088Y199988D02*
X324339D01*
X203590Y263331D02*
X203709Y263449D01*
X312000Y236358D02*
Y240000D01*
Y236358D02*
X312484Y235874D01*
X313811D01*
X321819Y262181D02*
X327000Y257000D01*
X258679Y175600D02*
X290879Y143400D01*
X259300Y177100D02*
X291500Y144900D01*
X236900Y175300D02*
X240800D01*
X201900Y190700D02*
X210600D01*
X192100Y200500D02*
X201900Y190700D01*
X219706Y192000D02*
Y199479D01*
X219673Y199512D02*
X219706Y199479D01*
X192100Y200500D02*
Y206700D01*
X193849Y208449D01*
X203709D01*
X240800Y175300D02*
X241100Y175600D01*
X258679D01*
X238500Y177100D02*
X259300D01*
X236700Y178900D02*
X238500Y177100D01*
X320058Y134542D02*
X323200Y131400D01*
X320058Y134542D02*
Y138442D01*
X315100Y143400D02*
X320058Y138442D01*
X290879Y143400D02*
X315100D01*
X291500Y144900D02*
X319100D01*
X322839Y148639D01*
X319911Y179689D02*
X324339D01*
X318800Y180800D02*
X319911Y179689D01*
X318800Y180800D02*
Y187600D01*
X317200Y189200D02*
X318800Y187600D01*
X313084Y189200D02*
X317200D01*
X312445Y189839D02*
X313084Y189200D01*
X322839Y148639D02*
Y154839D01*
X341291Y184800D02*
X344100D01*
X347400Y188100D01*
X335386Y184839D02*
Y194839D01*
X312839Y198500D02*
X317600D01*
X312445Y198894D02*
X312839Y198500D01*
X317600D02*
X319088Y199988D01*
D13*
X311024Y267717D02*
Y275630D01*
X306087Y244509D02*
Y262779D01*
X311024Y267717D01*
X318898D02*
Y275630D01*
X307087Y244094D02*
Y255906D01*
X294929Y231937D02*
X307087Y244094D01*
Y255906D02*
X318898Y267717D01*
X311000Y242000D02*
Y252000D01*
X290189Y235874D02*
X297452D01*
X306087Y244509D01*
X290189Y231937D02*
X294929D01*
X278300Y224086D02*
X291639Y210747D01*
X346747D02*
X349000Y213000D01*
X291639Y210747D02*
X346747D01*
X307000Y225000D02*
X307937Y224063D01*
X306000Y217000D02*
X321000D01*
X280452Y223348D02*
X291400Y212400D01*
X277523Y223449D02*
X288200Y212772D01*
X313937Y220000D02*
X319000D01*
X313811Y220126D02*
X313937Y220000D01*
X299000Y224000D02*
X306000Y217000D01*
X290252Y224000D02*
X299000D01*
X290189Y224063D02*
X290252Y224000D01*
X307937Y224063D02*
X313811D01*
X291400Y212400D02*
X346400D01*
X348000Y214000D01*
X342200Y214500D02*
X344000Y216300D01*
X321000Y217000D02*
X325339Y221339D01*
X330492D01*
X338100Y221424D02*
X338185Y221339D01*
X330492D02*
Y227292D01*
X338100Y221424D02*
Y228200D01*
X319000Y220000D02*
X328700Y229700D01*
X270638Y203449D02*
X281849D01*
X270638Y208449D02*
X284551D01*
X175000Y208586D02*
Y266900D01*
X176000Y231500D02*
X179000Y234500D01*
X278300Y224086D02*
Y230200D01*
X280452Y223348D02*
Y231048D01*
X307000Y225000D02*
Y238000D01*
X278051Y233449D02*
X280452Y231048D01*
X270638Y233449D02*
X278051D01*
X275000Y248200D02*
X281500D01*
X154772Y278528D02*
X163372D01*
X175000Y266900D01*
X192500Y258400D02*
X203660D01*
X274751Y248449D02*
X275000Y248200D01*
X270638Y248449D02*
X274751D01*
X273500Y253500D02*
X282000D01*
X203660Y258400D02*
X203709Y258449D01*
X313811Y231937D02*
X319937D01*
X313811Y228000D02*
X320000D01*
X319937Y231937D02*
X322000Y234000D01*
X320000Y228000D02*
X324000Y232000D01*
X322000Y234000D02*
Y238000D01*
X324000Y232000D02*
Y235000D01*
X325900Y232000D02*
X329819D01*
X349000Y213000D02*
Y237000D01*
X344000Y216300D02*
Y234400D01*
X330492Y227292D02*
X330500Y227300D01*
X338100Y228200D02*
X339900Y230000D01*
X328700Y229700D02*
X336700D01*
X337579Y230579D01*
Y232279D01*
X329819Y232000D02*
X330098Y232279D01*
X339900Y230000D02*
Y234300D01*
X337382Y232279D02*
X337579D01*
X336360Y233301D02*
X337382Y232279D01*
X336284Y233301D02*
X336360D01*
X335400Y234185D02*
X336284Y233301D01*
X339361Y234839D02*
X339900Y234300D01*
X330098Y234839D02*
X331739D01*
X337579D02*
X339361D01*
X331739D02*
X332300Y235400D01*
X341002Y237398D02*
X344000Y234400D01*
X335400Y234185D02*
Y239300D01*
X337579Y237398D02*
X341002D01*
X349000Y237000D02*
X351157Y239158D01*
X332300Y235400D02*
Y241200D01*
X330400Y237398D02*
Y240300D01*
X351157Y239158D02*
X366728D01*
X335400Y239300D02*
X338185Y242085D01*
X330700Y242800D02*
X332300Y241200D01*
X338185Y242085D02*
Y247339D01*
X330700Y242800D02*
Y247339D01*
X348000Y214000D02*
Y278235D01*
X348293Y278528D01*
X366728D01*
X278400Y238200D02*
Y241200D01*
X307000Y238000D02*
X311000Y242000D01*
X276151Y243449D02*
X278400Y241200D01*
X270638Y243449D02*
X276151D01*
X174000Y208172D02*
X197972Y184200D01*
X175000Y208586D02*
X198386Y185200D01*
X176000Y209000D02*
X198800Y186200D01*
X194500Y203400D02*
X194549Y203449D01*
X203709D01*
X174000Y208172D02*
Y215200D01*
X169728Y219472D02*
X174000Y215200D01*
X154772Y219472D02*
X169728D01*
X176000Y209000D02*
Y231500D01*
X257200Y184200D02*
X260000Y181400D01*
X197972Y184200D02*
X257200D01*
X198386Y185200D02*
X278414D01*
X198800Y186200D02*
X278000D01*
X280300Y188500D01*
X259800Y190900D02*
Y199385D01*
X259673Y199512D02*
X259800Y199385D01*
X270638Y223449D02*
X277523D01*
X278414Y185200D02*
X281300Y188086D01*
Y195200D01*
X280300Y188500D02*
Y195614D01*
X281300Y195200D02*
X288200Y202100D01*
X280300Y195614D02*
X287200Y202514D01*
Y205800D01*
X284551Y208449D02*
X287200Y205800D01*
X288200Y202100D02*
Y212772D01*
X292900Y214500D02*
X342200D01*
D15*
X240461Y231697D02*
D03*
X233236D02*
D03*
X226012D02*
D03*
X240461Y238921D02*
D03*
X233236D02*
D03*
X226012D02*
D03*
X240461Y246146D02*
D03*
X233236D02*
D03*
X226012D02*
D03*
D16*
X259673Y199512D02*
D03*
X254673D02*
D03*
X249673D02*
D03*
X244673D02*
D03*
X239673D02*
D03*
X234673D02*
D03*
X229673D02*
D03*
X224673D02*
D03*
X219673D02*
D03*
X214673D02*
D03*
D17*
X270638Y268449D02*
D03*
Y263449D02*
D03*
Y258449D02*
D03*
Y253449D02*
D03*
Y248449D02*
D03*
Y243449D02*
D03*
Y238449D02*
D03*
Y233449D02*
D03*
Y228449D02*
D03*
Y223449D02*
D03*
Y218449D02*
D03*
Y213449D02*
D03*
Y208449D02*
D03*
Y203449D02*
D03*
X203709D02*
D03*
Y208449D02*
D03*
Y213449D02*
D03*
Y218449D02*
D03*
Y223449D02*
D03*
Y228449D02*
D03*
Y233449D02*
D03*
Y238449D02*
D03*
Y243449D02*
D03*
Y248449D02*
D03*
Y253449D02*
D03*
Y258449D02*
D03*
Y263449D02*
D03*
Y268449D02*
D03*
D19*
X324339Y193689D02*
D03*
Y199988D02*
D03*
X185992Y263331D02*
D03*
Y269630D02*
D03*
X324339Y185988D02*
D03*
Y179689D02*
D03*
D21*
X338185Y221339D02*
D03*
X330492D02*
D03*
Y247339D02*
D03*
X338185D02*
D03*
D33*
X193200Y168800D02*
D03*
X322839Y154839D02*
D03*
X323200Y131400D02*
D03*
D34*
X203200Y168800D02*
D03*
X213200D02*
D03*
X302839Y154839D02*
D03*
X312839D02*
D03*
X303200Y131400D02*
D03*
X313200D02*
D03*
D39*
X335386Y194839D02*
D03*
X341291D02*
D03*
X335386Y184839D02*
D03*
X341291D02*
D03*
D40*
X313811Y235874D02*
D03*
Y231937D02*
D03*
Y228000D02*
D03*
Y224063D02*
D03*
Y220126D02*
D03*
X290189D02*
D03*
Y224063D02*
D03*
Y228000D02*
D03*
Y231937D02*
D03*
Y235874D02*
D03*
Y239811D02*
D03*
D41*
X330098Y234839D02*
D03*
Y232279D02*
D03*
X337579D02*
D03*
Y234839D02*
D03*
Y237398D02*
D03*
X330098D02*
D03*
D42*
X312445Y180783D02*
D03*
Y189839D02*
D03*
Y198894D02*
D03*
D43*
X288232Y189839D02*
D03*
D44*
X298648Y203600D02*
Y206456D01*
X288232Y193185D02*
X298648Y203600D01*
Y206456D02*
X299030Y206839D01*
X288232Y189839D02*
Y193185D01*
X341291Y194839D02*
Y195232D01*
X342116Y196057D01*
X342510D01*
X344453Y198000D01*
X350000D01*
X185500Y254600D02*
Y262839D01*
X185992Y263331D01*
X203590D01*
X202408Y169592D02*
X203200Y168800D01*
X288232Y189839D02*
X312445D01*
D45*
X154772Y166842D02*
X165014Y156600D01*
X208500D02*
X219300Y145800D01*
X165014Y156600D02*
X208500D01*
X202408Y169592D02*
X202476Y169659D01*
Y172199D01*
X202408Y172267D02*
X202476Y172199D01*
X202408Y172267D02*
Y174492D01*
X190373Y186528D02*
X202408Y174492D01*
X154772Y186528D02*
X190373D01*
X313924Y126776D02*
X317640Y123060D01*
X313924Y126776D02*
Y130676D01*
X313200Y131400D02*
X313924Y130676D01*
X312839Y154839D02*
Y160839D01*
X318843Y166842D01*
X317640Y123060D02*
X344251D01*
X347824Y126633D01*
X365889D01*
X366728Y127472D01*
X318843Y166842D02*
X366728D01*
D46*
X219200Y127200D02*
X253842D01*
X253900Y127258D01*
X188928Y127472D02*
X189200Y127200D01*
X154772Y127472D02*
X188928D01*
X189200Y127200D02*
Y145700D01*
X219200Y127200D02*
Y145700D01*
X189200D02*
X189300Y145800D01*
X219200Y145700D02*
X219300Y145800D01*
D47*
X253900Y127258D02*
X276443D01*
X286300Y117400D01*
X375000D01*
X378529Y120929D01*
Y125071D01*
X378500Y125100D02*
X378529Y125071D01*
X378500Y125100D02*
Y135386D01*
X366728Y147158D02*
X378500Y135386D01*
Y174756D01*
X366728Y186528D02*
X378500Y174756D01*
D48*
X311024Y275630D02*
D03*
X318898D02*
D03*
X301181D02*
D03*
X328740D02*
D03*
D49*
X340827Y286299D02*
D03*
X289094D02*
D03*
D50*
X154772Y239158D02*
D03*
Y258842D02*
D03*
Y278528D02*
D03*
X366728Y258842D02*
D03*
Y239158D02*
D03*
Y219472D02*
D03*
X154772Y147158D02*
D03*
Y166842D02*
D03*
Y186528D02*
D03*
X366728Y166842D02*
D03*
Y147158D02*
D03*
Y127472D02*
D03*
D51*
X154772Y219472D02*
D03*
X366728Y278528D02*
D03*
X154772Y127472D02*
D03*
X366728Y186528D02*
D03*
D52*
X150000Y98000D02*
D03*
Y307000D02*
D03*
X370000D02*
D03*
Y98000D02*
D03*
D53*
X219200Y127200D02*
D03*
X189200D02*
D03*
D54*
X253900Y127258D02*
D03*
Y146942D02*
D03*
D55*
X219300Y145800D02*
D03*
X189300D02*
D03*
D56*
X311000Y252000D02*
D03*
X236900Y175300D02*
D03*
X236700Y178900D02*
D03*
X260000Y181400D02*
D03*
X278400Y238000D02*
D03*
X259800Y190900D02*
D03*
X278300Y230200D02*
D03*
X292700Y214500D02*
D03*
X281500Y248200D02*
D03*
X282000Y253500D02*
D03*
X312000Y240000D02*
D03*
X322000Y238000D02*
D03*
X324000Y235000D02*
D03*
X325900Y232000D02*
D03*
X330400Y240300D02*
D03*
X330500Y227400D02*
D03*
X210600Y190700D02*
D03*
X219706Y192000D02*
D03*
X194500Y203400D02*
D03*
X179000Y234500D02*
D03*
D57*
X283465Y177165D02*
D03*
X299030Y206839D02*
D03*
X183627Y244370D02*
D03*
X347400Y188100D02*
D03*
X281900Y203300D02*
D03*
X192500Y258400D02*
D03*
D58*
X350000Y198000D02*
D03*
X185500Y254600D02*
D03*
D59*
X327000Y257000D02*
D03*
M02*
