G04*
G04 #@! TF.GenerationSoftware,Altium Limited,Altium Designer,22.7.1 (60)*
G04*
G04 Layer_Color=0*
%FSLAX25Y25*%
%MOIN*%
G70*
G04*
G04 #@! TF.SameCoordinates,2BF9A078-D696-49FA-A729-B53DB30398E2*
G04*
G04*
G04 #@! TF.FilePolarity,Positive*
G04*
G01*
G75*
%ADD16C,0.00394*%
D16*
X195500Y263531D02*
Y267469D01*
X193532Y265500D02*
X197468D01*
X196000Y289701D02*
Y293638D01*
X194032Y291669D02*
X197968D01*
X285000Y141032D02*
Y144968D01*
X283032Y143000D02*
X286968D01*
X267000Y229532D02*
Y233469D01*
X265032Y231500D02*
X268969D01*
X182032Y235500D02*
X185968D01*
X184000Y233531D02*
Y237469D01*
X146031Y255500D02*
X149969D01*
X148000Y253532D02*
Y257469D01*
X255276Y292032D02*
Y295969D01*
X253307Y294000D02*
X257244D01*
X232531Y254000D02*
X236469D01*
X234500Y252031D02*
Y255968D01*
X282776Y298031D02*
Y301969D01*
X280807Y300000D02*
X284744D01*
X281500Y350532D02*
Y354468D01*
X279532Y352500D02*
X283469D01*
X281500Y404531D02*
Y408468D01*
X279532Y406500D02*
X283469D01*
X247500Y202532D02*
Y206469D01*
X245532Y204500D02*
X249468D01*
X218000Y223532D02*
Y227468D01*
X216032Y225500D02*
X219969D01*
X270532Y173500D02*
X274468D01*
X272500Y171531D02*
Y175469D01*
X156532Y402000D02*
X160468D01*
X158500Y400032D02*
Y403968D01*
X181102Y81500D02*
Y91728D01*
X175988Y86614D02*
X186216D01*
X208000Y381532D02*
Y385469D01*
X206031Y383500D02*
X209968D01*
X156851Y226000D02*
X159475D01*
X160000Y226525D01*
Y227574D01*
X159475Y228099D01*
X156851D01*
X160000Y229149D02*
Y230198D01*
Y229673D01*
X156851D01*
X157376Y229149D01*
M02*
