M48
;Layer_Color=9474304
;FILE_FORMAT=2:4
INCH,TZ
;TYPE=PLATED
T1F00S00C0.0130
T2F00S00C0.0200
T3F00S00C0.0260
T4F00S00C0.0300
T5F00S00C0.0354
T6F00S00C0.0362
T7F00S00C0.0472
T8F00S00C0.0500
T9F00S00C0.0600
T10F00S00C0.0630
T11F00S00C0.0906
T12F00S00C0.1575
%
T01
X32590Y23200
X32400Y23500
X32200Y23800
X33040Y24030
X33050Y22740
X31200Y24000
X31100Y25200
X28200Y25350
X28150Y24820
X27840Y23800
X27830Y23020
X29270Y21450
X25980Y19090
X26000Y18140
X23670Y17890
X23690Y17530
X21971Y19200
X21060Y19070
X19450Y20340
X17900Y23450
T02
X34740Y18810
X35000Y19800
X32700Y25700
X18550Y25460
T03
X18363Y24437
X19250Y25840
X28190Y20330
X28346Y17717
T04
X29903Y20684
T05
X25390Y12726
Y14694
T06
X31890Y27563
X32874
X31102
X30118
T07
X30320Y13140
X30284Y15484
X31284
X32284
X32320Y13140
X31320
X21320Y16880
X20320
X19320
T08
X18920Y12720
X21920
T09
X18930Y14580
X21930
T10
X15477Y12747
Y14716
X36673
Y12747
Y16684
Y18653
Y21947
Y23916
Y25884
Y27853
X15477
Y25884
Y23916
Y21947
Y18653
Y16684
T11
X34083Y28630
X28909
T12
X15000Y9800
X37000
Y30700
X15000
M30
