G04*
G04 #@! TF.GenerationSoftware,Altium Limited,Altium Designer,22.7.1 (60)*
G04*
G04 Layer_Color=255*
%FSLAX25Y25*%
%MOIN*%
G70*
G04*
G04 #@! TF.SameCoordinates,B0270450-B435-420B-BE19-FF0628D395ED*
G04*
G04*
G04 #@! TF.FilePolarity,Positive*
G04*
G01*
G75*
%ADD16C,0.00004*%
%ADD17C,0.00394*%
%ADD18R,0.01181X0.02756*%
%ADD19R,0.03937X0.02756*%
%ADD20R,0.01968X0.07874*%
%ADD21R,0.04953X0.05756*%
%ADD22R,0.01968X0.01575*%
%ADD23R,0.03937X0.03150*%
%ADD24R,0.02410X0.07597*%
G04:AMPARAMS|DCode=25|XSize=75.97mil|YSize=24.1mil|CornerRadius=12.05mil|HoleSize=0mil|Usage=FLASHONLY|Rotation=270.000|XOffset=0mil|YOffset=0mil|HoleType=Round|Shape=RoundedRectangle|*
%AMROUNDEDRECTD25*
21,1,0.07597,0.00000,0,0,270.0*
21,1,0.05187,0.02410,0,0,270.0*
1,1,0.02410,0.00000,-0.02594*
1,1,0.02410,0.00000,0.02594*
1,1,0.02410,0.00000,0.02594*
1,1,0.02410,0.00000,-0.02594*
%
%ADD25ROUNDEDRECTD25*%
G04:AMPARAMS|DCode=26|XSize=35.43mil|YSize=57.09mil|CornerRadius=1.95mil|HoleSize=0mil|Usage=FLASHONLY|Rotation=180.000|XOffset=0mil|YOffset=0mil|HoleType=Round|Shape=RoundedRectangle|*
%AMROUNDEDRECTD26*
21,1,0.03543,0.05319,0,0,180.0*
21,1,0.03154,0.05709,0,0,180.0*
1,1,0.00390,-0.01577,0.02659*
1,1,0.00390,0.01577,0.02659*
1,1,0.00390,0.01577,-0.02659*
1,1,0.00390,-0.01577,-0.02659*
%
%ADD26ROUNDEDRECTD26*%
G04:AMPARAMS|DCode=27|XSize=124.02mil|YSize=57.09mil|CornerRadius=2mil|HoleSize=0mil|Usage=FLASHONLY|Rotation=180.000|XOffset=0mil|YOffset=0mil|HoleType=Round|Shape=RoundedRectangle|*
%AMROUNDEDRECTD27*
21,1,0.12402,0.05309,0,0,180.0*
21,1,0.12002,0.05709,0,0,180.0*
1,1,0.00400,-0.06001,0.02655*
1,1,0.00400,0.06001,0.02655*
1,1,0.00400,0.06001,-0.02655*
1,1,0.00400,-0.06001,-0.02655*
%
%ADD27ROUNDEDRECTD27*%
%ADD28R,0.03248X0.05217*%
G04:AMPARAMS|DCode=29|XSize=75.97mil|YSize=24.1mil|CornerRadius=12.05mil|HoleSize=0mil|Usage=FLASHONLY|Rotation=0.000|XOffset=0mil|YOffset=0mil|HoleType=Round|Shape=RoundedRectangle|*
%AMROUNDEDRECTD29*
21,1,0.07597,0.00000,0,0,0.0*
21,1,0.05187,0.02410,0,0,0.0*
1,1,0.02410,0.02594,0.00000*
1,1,0.02410,-0.02594,0.00000*
1,1,0.02410,-0.02594,0.00000*
1,1,0.02410,0.02594,0.00000*
%
%ADD29ROUNDEDRECTD29*%
%ADD30R,0.07597X0.02410*%
%ADD31R,0.05756X0.04953*%
%ADD32R,0.05217X0.03248*%
%ADD33R,0.05236X0.05236*%
%ADD34R,0.03543X0.07874*%
%ADD35R,0.07874X0.03543*%
G04:AMPARAMS|DCode=41|XSize=43.31mil|YSize=82.68mil|CornerRadius=21.65mil|HoleSize=0mil|Usage=FLASHONLY|Rotation=0.000|XOffset=0mil|YOffset=0mil|HoleType=Round|Shape=RoundedRectangle|*
%AMROUNDEDRECTD41*
21,1,0.04331,0.03937,0,0,0.0*
21,1,0.00000,0.08268,0,0,0.0*
1,1,0.04331,0.00000,-0.01968*
1,1,0.04331,0.00000,-0.01968*
1,1,0.04331,0.00000,0.01968*
1,1,0.04331,0.00000,0.01968*
%
%ADD41ROUNDEDRECTD41*%
G04:AMPARAMS|DCode=42|XSize=43.31mil|YSize=102.36mil|CornerRadius=21.65mil|HoleSize=0mil|Usage=FLASHONLY|Rotation=0.000|XOffset=0mil|YOffset=0mil|HoleType=Round|Shape=RoundedRectangle|*
%AMROUNDEDRECTD42*
21,1,0.04331,0.05906,0,0,0.0*
21,1,0.00000,0.10236,0,0,0.0*
1,1,0.04331,0.00000,-0.02953*
1,1,0.04331,0.00000,-0.02953*
1,1,0.04331,0.00000,0.02953*
1,1,0.04331,0.00000,0.02953*
%
%ADD42ROUNDEDRECTD42*%
%ADD46R,0.07284X0.07284*%
%ADD47C,0.07284*%
%ADD49R,0.07284X0.07284*%
%ADD64C,0.09449*%
%ADD65R,0.09449X0.09449*%
%ADD66C,0.25000*%
%ADD67C,0.11000*%
%ADD68R,0.04134X0.04134*%
%ADD69C,0.04134*%
%ADD70R,0.04134X0.04134*%
%ADD71C,0.10000*%
%ADD72C,0.05512*%
D16*
X99410Y466535D02*
X341535D01*
X346457Y461614D01*
Y77756D02*
Y461614D01*
X341535Y72835D02*
X346457Y77756D01*
X98425Y72835D02*
X341535D01*
X94488Y76772D02*
X98425Y72835D01*
X94488Y76772D02*
Y461614D01*
X99410Y466535D01*
D17*
X156851Y226000D02*
X159475D01*
X160000Y226525D01*
Y227574D01*
X159475Y228099D01*
X156851D01*
X160000Y229149D02*
Y230198D01*
Y229673D01*
X156851D01*
X157376Y229149D01*
D18*
X169291Y106496D02*
D03*
X171260D02*
D03*
X173228D02*
D03*
X175197D02*
D03*
X177165D02*
D03*
X179134D02*
D03*
X183071D02*
D03*
X185039D02*
D03*
X187008D02*
D03*
X188976D02*
D03*
X190945D02*
D03*
X192913D02*
D03*
X189961Y101378D02*
D03*
X187992D02*
D03*
X186024D02*
D03*
X184055D02*
D03*
X182087D02*
D03*
X180118D02*
D03*
X178150D02*
D03*
X176181D02*
D03*
X174213D02*
D03*
X172244D02*
D03*
D19*
X168898D02*
D03*
X193307D02*
D03*
D20*
X171374Y275189D02*
D03*
X167437D02*
D03*
X163500D02*
D03*
X159563D02*
D03*
X155626D02*
D03*
Y298811D02*
D03*
X159563D02*
D03*
X163500D02*
D03*
X167437D02*
D03*
X171374D02*
D03*
X175311D02*
D03*
D21*
X191654Y265500D02*
D03*
X199346D02*
D03*
X192154Y291669D02*
D03*
X199846D02*
D03*
X221846Y225500D02*
D03*
X214154D02*
D03*
D22*
X192260Y281228D02*
D03*
Y278669D02*
D03*
Y276110D02*
D03*
X199740D02*
D03*
Y278669D02*
D03*
Y281228D02*
D03*
D23*
X188500Y220331D02*
D03*
Y226236D02*
D03*
X181000Y226283D02*
D03*
Y220378D02*
D03*
D24*
X292500Y153399D02*
D03*
D25*
X287500D02*
D03*
X282500D02*
D03*
X277500D02*
D03*
Y132601D02*
D03*
X282500D02*
D03*
X287500D02*
D03*
X292500D02*
D03*
D26*
X149445Y220394D02*
D03*
X158500D02*
D03*
X167555D02*
D03*
D27*
X158500Y244606D02*
D03*
D28*
X180850Y235500D02*
D03*
X187150D02*
D03*
X151150Y255500D02*
D03*
X144850D02*
D03*
D29*
X257899Y212000D02*
D03*
Y207000D02*
D03*
Y202000D02*
D03*
Y197000D02*
D03*
X237101D02*
D03*
Y202000D02*
D03*
Y207000D02*
D03*
D30*
Y212000D02*
D03*
D31*
X272500Y169654D02*
D03*
Y177346D02*
D03*
D32*
X158500Y405150D02*
D03*
Y398850D02*
D03*
D33*
X211287Y367457D02*
D03*
X204063D02*
D03*
X196839D02*
D03*
X211287Y374681D02*
D03*
X204063D02*
D03*
X196839D02*
D03*
X211287Y381906D02*
D03*
X204063D02*
D03*
X196839D02*
D03*
D34*
X230500Y335272D02*
D03*
X225500D02*
D03*
X220500D02*
D03*
X215500D02*
D03*
X210500D02*
D03*
X205500D02*
D03*
X200500D02*
D03*
X195500D02*
D03*
X190500D02*
D03*
X185500D02*
D03*
D35*
X241465Y404209D02*
D03*
Y399209D02*
D03*
Y394209D02*
D03*
Y389209D02*
D03*
Y384209D02*
D03*
Y379209D02*
D03*
Y374209D02*
D03*
Y369209D02*
D03*
Y364209D02*
D03*
Y359209D02*
D03*
Y354209D02*
D03*
Y349209D02*
D03*
Y344209D02*
D03*
Y339209D02*
D03*
X174535D02*
D03*
Y344209D02*
D03*
Y349209D02*
D03*
Y354209D02*
D03*
Y359209D02*
D03*
Y364209D02*
D03*
Y369209D02*
D03*
Y374209D02*
D03*
Y379209D02*
D03*
Y384209D02*
D03*
Y389209D02*
D03*
Y394209D02*
D03*
Y399209D02*
D03*
Y404209D02*
D03*
D41*
X164094Y104882D02*
D03*
X198110D02*
D03*
D42*
X164094Y83780D02*
D03*
X198110D02*
D03*
D46*
X257000Y228724D02*
D03*
X224500Y251224D02*
D03*
D47*
X267000Y228724D02*
D03*
X277000D02*
D03*
X252500Y284000D02*
D03*
Y294000D02*
D03*
X244500Y251224D02*
D03*
X234500D02*
D03*
X280000Y290000D02*
D03*
Y300000D02*
D03*
X278724Y342500D02*
D03*
Y352500D02*
D03*
Y396500D02*
D03*
Y406500D02*
D03*
D49*
X252500Y304000D02*
D03*
X280000Y310000D02*
D03*
X278724Y362500D02*
D03*
Y416500D02*
D03*
D64*
X321728Y406343D02*
D03*
Y386658D02*
D03*
Y366972D02*
D03*
Y120472D02*
D03*
Y140157D02*
D03*
Y159843D02*
D03*
Y284972D02*
D03*
Y304658D02*
D03*
Y324342D02*
D03*
Y202972D02*
D03*
Y222657D02*
D03*
Y242342D02*
D03*
X120772Y426528D02*
D03*
Y406843D02*
D03*
Y387158D02*
D03*
Y344028D02*
D03*
Y324342D02*
D03*
Y304658D02*
D03*
Y262028D02*
D03*
Y242342D02*
D03*
Y222657D02*
D03*
Y178528D02*
D03*
Y158843D02*
D03*
Y139157D02*
D03*
D65*
X321728Y426028D02*
D03*
Y179528D02*
D03*
Y344028D02*
D03*
Y262028D02*
D03*
X120772Y367472D02*
D03*
Y284972D02*
D03*
Y202972D02*
D03*
Y119472D02*
D03*
D66*
X326772Y88583D02*
D03*
X118110D02*
D03*
X327000Y451000D02*
D03*
X118000D02*
D03*
D67*
X196500Y185000D02*
D03*
X166500D02*
D03*
D68*
X225500Y286500D02*
D03*
Y311000D02*
D03*
X216000Y209500D02*
D03*
D69*
X225500Y281500D02*
D03*
Y276500D02*
D03*
Y306000D02*
D03*
Y301000D02*
D03*
X252000Y176500D02*
D03*
X247000D02*
D03*
X216000Y204500D02*
D03*
Y199500D02*
D03*
D70*
X257000Y176500D02*
D03*
D71*
X167000Y160500D02*
D03*
X197000D02*
D03*
D72*
X239000Y147343D02*
D03*
Y127657D02*
D03*
M02*
