M48
;Layer_Color=9474304
;FILE_FORMAT=2:4
INCH,TZ
;TYPE=PLATED
T1F00S00C0.0079
T2F00S00C0.0130
T4F00S00C0.0280
T5F00S00C0.0315
T6F00S00C0.0354
T7F00S00C0.0472
T8F00S00C0.0500
T9F00S00C0.0600
T10F00S00C0.0630
T11F00S00C0.1575
%
T01
X17000Y21150
X18350Y20800
X18700Y21300
X19500Y20950
X19350Y27250
X18650Y27850
Y28150
X20000Y28400
X20650Y29000
X20895Y29295
X21255Y29555
X19750Y30750
X19450Y31000
X24200Y31200
X24750Y19650
X28300Y17200
X15150Y30700
Y33100
X19050Y32650
X19100Y31250
X21299Y31300
X23050Y32700
X22750Y34450
X21850
X19700Y34400
X19200Y35250
X19250Y35750
X18800Y35550
Y34900
Y37400
X18850Y37900
X18350Y39400
X22900Y36400
X24900Y35950
Y35400
Y34900
Y34400
X26350
X26750Y35250
X27050Y35900
X26000Y35950
T02
X16550Y25850
X15700Y26700
X17700Y26550
X17750Y27000
T04
X17650Y31100
T05
X21600Y19950
Y20450
Y20950
X24700Y17650
X25200
X25700
X22550Y27650
Y28150
Y28650
Y30100
Y30600
Y31100
T06
X23900Y12766
Y14734
T07
X22450Y25122
X23450
X24450
X25700Y22872
X26700
X27700
X28000Y29000
Y30000
Y31000
X25250Y30400
Y29400
Y28400
X27872Y34250
Y35250
Y36250
Y39650
Y40650
Y41650
T08
X16700Y16050
X19700
T09
X16650Y18500
X19650
T10
X12077Y11947
Y13916
X32173Y14016
Y12047
Y15984
Y17953
Y20297
Y22266
Y24234
Y26203
Y28497
Y30466
X12077
Y28497
Y26203
Y24234
Y22266
Y20297
Y17853
Y15884
Y32434
Y34403
Y36747
Y38716
Y40684
Y42653
X32173Y42603
Y40634
Y38666
Y36697
Y34403
Y32434
T11
X11811Y8858
X32677
X11800Y45100
X32700
M30
