G04*
G04 #@! TF.GenerationSoftware,Altium Limited,Altium Designer,22.7.1 (60)*
G04*
G04 Layer_Color=32896*
%FSLAX25Y25*%
%MOIN*%
G70*
G04*
G04 #@! TF.SameCoordinates,B0270450-B435-420B-BE19-FF0628D395ED*
G04*
G04*
G04 #@! TF.FilePolarity,Positive*
G04*
G01*
G75*
%ADD13C,0.01000*%
%ADD16C,0.00004*%
%ADD17C,0.00394*%
D13*
X305102Y449183D02*
Y453182D01*
X303769Y451849D01*
X302437Y453182D01*
Y449183D01*
X300437Y451849D02*
X299104D01*
X298438Y451183D01*
Y449183D01*
X300437D01*
X301104Y449850D01*
X300437Y450516D01*
X298438D01*
X294439Y453182D02*
Y449183D01*
X296439D01*
X297105Y449850D01*
Y451183D01*
X296439Y451849D01*
X294439D01*
X291107Y449183D02*
X292440D01*
X293106Y449850D01*
Y451183D01*
X292440Y451849D01*
X291107D01*
X290440Y451183D01*
Y450516D01*
X293106D01*
X285109Y453182D02*
Y449183D01*
X283109D01*
X282443Y449850D01*
Y450516D01*
X283109Y451183D01*
X285109D01*
X283109D01*
X282443Y451849D01*
Y452516D01*
X283109Y453182D01*
X285109D01*
X281110Y451849D02*
Y449850D01*
X280444Y449183D01*
X278444D01*
Y448517D01*
X279111Y447850D01*
X279777D01*
X278444Y449183D02*
Y451849D01*
X277111D02*
X276445D01*
Y451183D01*
X277111D01*
Y451849D01*
Y449850D02*
X276445D01*
Y449183D01*
X277111D01*
Y449850D01*
X269780Y453182D02*
Y450516D01*
X268447Y449183D01*
X267115Y450516D01*
Y453182D01*
X265115Y451849D02*
X263782D01*
X263116Y451183D01*
Y449183D01*
X265115D01*
X265782Y449850D01*
X265115Y450516D01*
X263116D01*
X261783Y449183D02*
X260450D01*
X261117D01*
Y453182D01*
X261783D01*
X257784Y452516D02*
Y451849D01*
X258451D01*
X257118D01*
X257784D01*
Y449850D01*
X257118Y449183D01*
X254452Y452516D02*
Y451849D01*
X255118D01*
X253786D01*
X254452D01*
Y449850D01*
X253786Y449183D01*
X249787D02*
X251120D01*
X251786Y449850D01*
Y451183D01*
X251120Y451849D01*
X249787D01*
X249120Y451183D01*
Y450516D01*
X251786D01*
X247787Y451849D02*
Y449183D01*
Y450516D01*
X247121Y451183D01*
X246455Y451849D01*
X245788D01*
X243789Y449183D02*
X242456D01*
X243122D01*
Y451849D01*
X243789D01*
X233792Y452516D02*
X234458Y453182D01*
X235791D01*
X236458Y452516D01*
Y451849D01*
X235791Y451183D01*
X234458D01*
X233792Y450516D01*
Y449850D01*
X234458Y449183D01*
X235791D01*
X236458Y449850D01*
X232459Y449183D02*
X231126D01*
X231793D01*
Y451849D01*
X232459D01*
X229127Y449183D02*
X227794D01*
X228460D01*
Y453182D01*
X229127D01*
X223129D02*
Y449183D01*
X225128D01*
X225795Y449850D01*
Y451183D01*
X225128Y451849D01*
X223129D01*
X219796Y449183D02*
X221129D01*
X221796Y449850D01*
Y451183D01*
X221129Y451849D01*
X219796D01*
X219130Y451183D01*
Y450516D01*
X221796D01*
X302437Y459723D02*
X305102D01*
Y455724D01*
X302437D01*
X305102Y457724D02*
X303769D01*
X301104Y455724D02*
X299771D01*
X300437D01*
Y459723D01*
X301104D01*
X297771Y455724D02*
X296439D01*
X297105D01*
Y458390D01*
X297771D01*
X293773D02*
X292440D01*
X291773Y457724D01*
Y455724D01*
X293773D01*
X294439Y456391D01*
X293773Y457057D01*
X291773D01*
X290440Y455724D02*
X288441D01*
X287775Y456391D01*
X288441Y457057D01*
X289774D01*
X290440Y457724D01*
X289774Y458390D01*
X287775D01*
X279777Y459723D02*
Y455724D01*
X281776D01*
X282443Y456391D01*
Y457724D01*
X281776Y458390D01*
X279777D01*
X276445Y455724D02*
X277778D01*
X278444Y456391D01*
Y457724D01*
X277778Y458390D01*
X276445D01*
X275779Y457724D01*
Y457057D01*
X278444D01*
X274446Y455724D02*
X272446D01*
X271780Y456391D01*
X272446Y457057D01*
X273779D01*
X274446Y457724D01*
X273779Y458390D01*
X271780D01*
X270447Y455724D02*
Y459723D01*
Y457057D02*
X268447Y458390D01*
X270447Y457057D02*
X268447Y455724D01*
X262449Y459723D02*
Y455724D01*
X259784D01*
X255785Y459723D02*
X258451D01*
Y455724D01*
X255785D01*
X258451Y457724D02*
X257118D01*
X254452Y459723D02*
Y455724D01*
X252453D01*
X251786Y456391D01*
Y459057D01*
X252453Y459723D01*
X254452D01*
X243789Y458390D02*
X245788D01*
X246455Y457724D01*
Y456391D01*
X245788Y455724D01*
X243789D01*
X241789D02*
X240457D01*
X239790Y456391D01*
Y457724D01*
X240457Y458390D01*
X241789D01*
X242456Y457724D01*
Y456391D01*
X241789Y455724D01*
X238457D02*
Y458390D01*
X236458D01*
X235791Y457724D01*
Y455724D01*
X233792Y459057D02*
Y458390D01*
X234458D01*
X233126D01*
X233792D01*
Y456391D01*
X233126Y455724D01*
X231126Y458390D02*
Y455724D01*
Y457057D01*
X230460Y457724D01*
X229793Y458390D01*
X229127D01*
X226461Y455724D02*
X225128D01*
X224462Y456391D01*
Y457724D01*
X225128Y458390D01*
X226461D01*
X227128Y457724D01*
Y456391D01*
X226461Y455724D01*
X223129D02*
X221796D01*
X222462D01*
Y459723D01*
X223129D01*
X219796Y455724D02*
X218464D01*
X219130D01*
Y459723D01*
X219796D01*
X214465Y455724D02*
X215798D01*
X216464Y456391D01*
Y457724D01*
X215798Y458390D01*
X214465D01*
X213798Y457724D01*
Y457057D01*
X216464D01*
X212466Y458390D02*
Y455724D01*
Y457057D01*
X211799Y457724D01*
X211133Y458390D01*
X210466D01*
X204468Y459723D02*
Y457057D01*
X203135Y455724D01*
X201802Y457057D01*
Y459723D01*
X200469Y455724D02*
X199136D01*
X199803D01*
Y459723D01*
X200469Y459057D01*
X197137Y455724D02*
Y456391D01*
X196471D01*
Y455724D01*
X197137D01*
X193805Y459057D02*
X193139Y459723D01*
X191806D01*
X191139Y459057D01*
Y456391D01*
X191806Y455724D01*
X193139D01*
X193805Y456391D01*
Y459057D01*
D16*
X99410Y466535D02*
X341535D01*
X346457Y461614D01*
Y77756D02*
Y461614D01*
X341535Y72835D02*
X346457Y77756D01*
X98425Y72835D02*
X341535D01*
X94488Y76772D02*
X98425Y72835D01*
X94488Y76772D02*
Y461614D01*
X99410Y466535D01*
D17*
X156851Y226000D02*
X159475D01*
X160000Y226525D01*
Y227574D01*
X159475Y228099D01*
X156851D01*
X160000Y229149D02*
Y230198D01*
Y229673D01*
X156851D01*
X157376Y229149D01*
M02*
