G04*
G04 #@! TF.GenerationSoftware,Altium Limited,Altium Designer,22.7.1 (60)*
G04*
G04 Layer_Color=16711935*
%FSLAX25Y25*%
%MOIN*%
G70*
G04*
G04 #@! TF.SameCoordinates,B0270450-B435-420B-BE19-FF0628D395ED*
G04*
G04*
G04 #@! TF.FilePolarity,Positive*
G04*
G01*
G75*
%ADD12C,0.00787*%
%ADD16C,0.00004*%
%ADD17C,0.00394*%
D12*
X163110Y107598D02*
X199094D01*
Y75709D02*
Y107598D01*
X163110Y75709D02*
X199094D01*
X163110D02*
Y107598D01*
X161535Y76811D02*
X200669D01*
X199437Y263039D02*
Y267961D01*
X191563D02*
X199437D01*
X191563Y263039D02*
Y267961D01*
Y263039D02*
X199437D01*
X199937Y289209D02*
Y294130D01*
X192063D02*
X199937D01*
X192063Y289209D02*
Y294130D01*
Y289209D02*
X199937D01*
X294646Y135323D02*
Y150677D01*
X275354Y135323D02*
X294646D01*
X275354D02*
Y150677D01*
X294646D01*
X245543Y222543D02*
Y240457D01*
X288457D01*
Y222543D02*
Y240457D01*
X245543Y222543D02*
X288457D01*
X179768Y238256D02*
X188232D01*
Y232744D02*
Y238256D01*
X179768Y232744D02*
X188232D01*
X179768D02*
Y238256D01*
X143768Y252744D02*
X152232D01*
X143768D02*
Y258256D01*
X152232D01*
Y252744D02*
Y258256D01*
X246319Y272543D02*
Y315457D01*
Y272543D02*
X264232D01*
Y315457D01*
X246319D02*
X264232D01*
X213043Y245043D02*
X255957D01*
Y262957D01*
X213043D02*
X255957D01*
X213043Y245043D02*
Y262957D01*
X273819Y278543D02*
Y321457D01*
Y278543D02*
X291732D01*
Y321457D01*
X273819D02*
X291732D01*
X272543Y331043D02*
Y373957D01*
Y331043D02*
X290457D01*
Y373957D01*
X272543D02*
X290457D01*
X272543Y385043D02*
Y427957D01*
Y385043D02*
X290457D01*
Y427957D01*
X272543D02*
X290457D01*
X239823Y194854D02*
Y214146D01*
Y194854D02*
X255177D01*
Y214146D01*
X239823D02*
X255177D01*
X214063Y223039D02*
Y227961D01*
Y223039D02*
X221937D01*
Y227961D01*
X214063D02*
X221937D01*
X270039Y177437D02*
X274961D01*
X270039Y169563D02*
Y177437D01*
Y169563D02*
X274961D01*
Y177437D01*
X155744Y397768D02*
X161256D01*
Y406232D01*
X155744D02*
X161256D01*
X155744Y397768D02*
Y406232D01*
X172370Y333106D02*
Y433894D01*
Y333106D02*
X243630D01*
Y433894D01*
X172370D02*
X243630D01*
D16*
X99410Y466535D02*
X341535D01*
X346457Y461614D01*
Y77756D02*
Y461614D01*
X341535Y72835D02*
X346457Y77756D01*
X98425Y72835D02*
X341535D01*
X94488Y76772D02*
X98425Y72835D01*
X94488Y76772D02*
Y461614D01*
X99410Y466535D01*
D17*
X220244Y273886D02*
X221101Y273361D01*
X222010Y272931D01*
X222961Y272603D01*
X223942Y272380D01*
X224941Y272265D01*
X225946Y272259D01*
X226947Y272362D01*
X227930Y272573D01*
X228885Y272889D01*
X229800Y273308D01*
X230663Y273823D01*
X231466Y274429D01*
X232198Y275118D01*
X232852Y275883D01*
X233418Y276714D01*
X233891Y277602D01*
X234264Y278535D01*
X234534Y279504D01*
X234697Y280497D01*
X234752Y281501D01*
X234697Y282505D01*
X234534Y283497D01*
X234264Y284466D01*
X233890Y285400D01*
X233417Y286287D01*
X232851Y287118D01*
X232197Y287883D01*
X231465Y288572D01*
X230662Y289178D01*
X229798Y289693D01*
X228884Y290111D01*
X227929Y290427D01*
X226945Y290638D01*
X225945Y290741D01*
X224939Y290735D01*
X223940Y290620D01*
X222960Y290396D01*
X222009Y290068D01*
X221100Y289638D01*
X220242Y289113D01*
X220244Y298386D02*
X221101Y297861D01*
X222010Y297431D01*
X222961Y297103D01*
X223942Y296880D01*
X224941Y296765D01*
X225946Y296759D01*
X226947Y296862D01*
X227930Y297073D01*
X228885Y297390D01*
X229800Y297808D01*
X230663Y298323D01*
X231466Y298929D01*
X232198Y299618D01*
X232852Y300383D01*
X233418Y301214D01*
X233891Y302102D01*
X234264Y303035D01*
X234534Y304004D01*
X234697Y304996D01*
X234752Y306001D01*
X234697Y307005D01*
X234534Y307997D01*
X234264Y308966D01*
X233890Y309900D01*
X233417Y310787D01*
X232851Y311618D01*
X232197Y312383D01*
X231465Y313072D01*
X230662Y313678D01*
X229798Y314193D01*
X228884Y314611D01*
X227929Y314928D01*
X226945Y315138D01*
X225945Y315241D01*
X224939Y315235D01*
X223940Y315120D01*
X222960Y314896D01*
X222009Y314568D01*
X221100Y314139D01*
X220242Y313613D01*
X244386Y181756D02*
X243861Y180899D01*
X243431Y179990D01*
X243103Y179039D01*
X242880Y178058D01*
X242765Y177059D01*
X242759Y176053D01*
X242862Y175053D01*
X243073Y174070D01*
X243390Y173115D01*
X243808Y172201D01*
X244323Y171337D01*
X244929Y170534D01*
X245618Y169802D01*
X246383Y169149D01*
X247214Y168582D01*
X248102Y168110D01*
X249035Y167736D01*
X250004Y167466D01*
X250996Y167303D01*
X252001Y167248D01*
X253005Y167303D01*
X253997Y167466D01*
X254966Y167736D01*
X255900Y168110D01*
X256787Y168583D01*
X257618Y169149D01*
X258383Y169803D01*
X259072Y170535D01*
X259678Y171338D01*
X260193Y172202D01*
X260611Y173117D01*
X260928Y174071D01*
X261138Y175055D01*
X261241Y176055D01*
X261235Y177061D01*
X261120Y178060D01*
X260896Y179040D01*
X260568Y179991D01*
X260139Y180900D01*
X259613Y181758D01*
X210743Y196886D02*
X211601Y196361D01*
X212510Y195931D01*
X213461Y195603D01*
X214442Y195380D01*
X215441Y195265D01*
X216446Y195259D01*
X217447Y195362D01*
X218430Y195573D01*
X219385Y195889D01*
X220300Y196308D01*
X221163Y196823D01*
X221966Y197429D01*
X222698Y198118D01*
X223352Y198883D01*
X223918Y199714D01*
X224391Y200602D01*
X224764Y201535D01*
X225034Y202504D01*
X225197Y203497D01*
X225252Y204501D01*
X225197Y205505D01*
X225034Y206497D01*
X224764Y207466D01*
X224390Y208400D01*
X223917Y209287D01*
X223351Y210118D01*
X222697Y210883D01*
X221965Y211572D01*
X221162Y212178D01*
X220298Y212693D01*
X219384Y213111D01*
X218429Y213427D01*
X217445Y213638D01*
X216445Y213741D01*
X215439Y213735D01*
X214440Y213620D01*
X213460Y213396D01*
X212509Y213068D01*
X211600Y212638D01*
X210742Y212113D01*
X259669Y137500D02*
X259645Y138499D01*
X259573Y139495D01*
X259452Y140487D01*
X259284Y141471D01*
X259069Y142446D01*
X258806Y143410D01*
X258498Y144360D01*
X258143Y145294D01*
X257745Y146210D01*
X257302Y147106D01*
X256816Y147978D01*
X256289Y148827D01*
X255722Y149649D01*
X255115Y150443D01*
X254471Y151206D01*
X253791Y151938D01*
X253076Y152636D01*
X252328Y153298D01*
X251550Y153923D01*
X250742Y154510D01*
X249906Y155058D01*
X249045Y155564D01*
X248161Y156028D01*
X247255Y156449D01*
X246329Y156826D01*
X245387Y157158D01*
X244430Y157443D01*
X243460Y157682D01*
X242480Y157874D01*
X241491Y158019D01*
X240497Y158115D01*
X239499Y158163D01*
X238501D01*
X237503Y158115D01*
X236509Y158019D01*
X235520Y157874D01*
X234540Y157682D01*
X233570Y157443D01*
X232613Y157158D01*
X231671Y156826D01*
X230745Y156449D01*
X229839Y156028D01*
X228955Y155564D01*
X228094Y155058D01*
X227258Y154510D01*
X226450Y153923D01*
X225672Y153298D01*
X224924Y152636D01*
X224209Y151938D01*
X223529Y151206D01*
X222885Y150443D01*
X222278Y149649D01*
X221711Y148827D01*
X221184Y147978D01*
X220698Y147106D01*
X220255Y146210D01*
X219857Y145294D01*
X219502Y144360D01*
X219194Y143410D01*
X218931Y142446D01*
X218716Y141471D01*
X218548Y140487D01*
X218427Y139495D01*
X218355Y138499D01*
X218331Y137500D01*
X218355Y136501D01*
X218427Y135505D01*
X218548Y134513D01*
X218716Y133529D01*
X218931Y132554D01*
X219194Y131590D01*
X219502Y130640D01*
X219857Y129706D01*
X220255Y128790D01*
X220698Y127894D01*
X221184Y127022D01*
X221711Y126173D01*
X222278Y125351D01*
X222885Y124557D01*
X223529Y123794D01*
X224209Y123062D01*
X224924Y122365D01*
X225672Y121702D01*
X226450Y121077D01*
X227258Y120490D01*
X228094Y119942D01*
X228955Y119436D01*
X229839Y118972D01*
X230745Y118551D01*
X231670Y118174D01*
X232613Y117842D01*
X233570Y117557D01*
X234540Y117318D01*
X235520Y117126D01*
X236508Y116981D01*
X237503Y116885D01*
X238500Y116837D01*
X239499Y116837D01*
X240497Y116885D01*
X241491Y116981D01*
X242480Y117126D01*
X243460Y117318D01*
X244430Y117557D01*
X245387Y117842D01*
X246329Y118174D01*
X247254Y118551D01*
X248160Y118972D01*
X249045Y119436D01*
X249906Y119942D01*
X250741Y120490D01*
X251550Y121077D01*
X252328Y121702D01*
X253076Y122364D01*
X253791Y123062D01*
X254471Y123794D01*
X255115Y124557D01*
X255722Y125351D01*
X256289Y126173D01*
X256816Y127021D01*
X257302Y127894D01*
X257744Y128790D01*
X258143Y129706D01*
X258498Y130640D01*
X258806Y131590D01*
X259069Y132553D01*
X259284Y133529D01*
X259452Y134513D01*
X259573Y135505D01*
X259645Y136501D01*
X259669Y137500D01*
X306768Y357130D02*
X340232D01*
Y435870D01*
X306768D02*
X340232D01*
X306768Y357130D02*
Y435870D01*
X193539Y274732D02*
Y282606D01*
X198461Y274732D02*
Y282606D01*
X193539D02*
X198461D01*
X193539Y274732D02*
X198461D01*
X306768Y110630D02*
Y189370D01*
X340232D01*
Y110630D02*
Y189370D01*
X306768Y110630D02*
X340232D01*
X186728Y219937D02*
X190272D01*
X186728Y226630D02*
X190272D01*
X186728Y219937D02*
Y226630D01*
X190272Y219937D02*
Y226630D01*
X145311Y225217D02*
X171689D01*
X145311Y239784D02*
X171689D01*
X145311Y225217D02*
Y239784D01*
X171689Y225217D02*
Y239784D01*
X182772Y219984D02*
Y226677D01*
X179228Y219984D02*
Y226677D01*
X182772D01*
X179228Y219984D02*
X182772D01*
X306768Y275130D02*
Y353870D01*
X340232D01*
Y275130D02*
Y353870D01*
X306768Y275130D02*
X340232D01*
X306768Y193130D02*
Y271870D01*
X340232D01*
Y193130D02*
Y271870D01*
X306768Y193130D02*
X340232D01*
X135732Y357630D02*
Y436370D01*
X102268Y357630D02*
X135732D01*
X102268D02*
Y436370D01*
X135732D01*
Y275130D02*
Y353870D01*
X102268Y275130D02*
X135732D01*
X102268D02*
Y353870D01*
X135732D01*
Y193130D02*
Y271870D01*
X102268Y193130D02*
X135732D01*
X102268D02*
Y271870D01*
X135732D01*
Y109630D02*
Y188370D01*
X102268Y109630D02*
X135732D01*
X102268D02*
Y188370D01*
X135732D01*
X220244Y273887D02*
Y289113D01*
Y298387D02*
Y313613D01*
X244387Y181756D02*
X259613D01*
X210744Y196887D02*
Y212113D01*
X156851Y226000D02*
X159475D01*
X160000Y226525D01*
Y227574D01*
X159475Y228099D01*
X156851D01*
X160000Y229149D02*
Y230198D01*
Y229673D01*
X156851D01*
X157376Y229149D01*
M02*
