M48
;Layer_Color=9474304
;FILE_FORMAT=2:4
INCH,TZ
;TYPE=PLATED
T1F00S00C0.0130
T2F00S00C0.0200
T4F00S00C0.0354
T5F00S00C0.0472
T6F00S00C0.0500
T7F00S00C0.0600
T8F00S00C0.0630
%
T01
X7150Y9440
X8760Y8170
X9671Y8300
X11370Y6990
X11390Y6630
X13700Y7240
X13680Y8190
X15530Y12120
X15540Y12900
X5600Y12550
X6950Y14940
X15900Y14450
X15850Y13920
X18800Y14300
X18900Y13100
X19900Y12900
X20100Y12600
X20290Y12300
X20750Y11840
X20740Y13130
X16970Y10550
X15890Y9430
T02
X6250Y14560
X20400Y14800
X17480Y9600
X22700Y8900
X22440Y7910
T04
X13090Y1826
Y3794
T05
X7020Y5980
X8020
X9020
X17984Y4584
X18984
X19984
X20020Y2240
X19020
X18020
T06
X6620Y1820
X9620
T07
X6630Y3680
X9630
T08
X3177Y1847
Y3816
Y5784
Y7753
Y11047
Y13016
Y14984
X24373
Y13016
Y11047
Y7753
Y5784
Y3816
Y1847
Y16953
X3177
M30
