G04*
G04 #@! TF.GenerationSoftware,Altium Limited,Altium Designer,22.7.1 (60)*
G04*
G04 Layer_Color=8388736*
%FSLAX25Y25*%
%MOIN*%
G70*
G04*
G04 #@! TF.SameCoordinates,2BF9A078-D696-49FA-A729-B53DB30398E2*
G04*
G04*
G04 #@! TF.FilePolarity,Negative*
G04*
G01*
G75*
%ADD16C,0.00394*%
%ADD18R,0.04953X0.05756*%
%ADD21R,0.02410X0.07597*%
G04:AMPARAMS|DCode=22|XSize=75.97mil|YSize=24.1mil|CornerRadius=12.05mil|HoleSize=0mil|Usage=FLASHONLY|Rotation=270.000|XOffset=0mil|YOffset=0mil|HoleType=Round|Shape=RoundedRectangle|*
%AMROUNDEDRECTD22*
21,1,0.07597,0.00000,0,0,270.0*
21,1,0.05187,0.02410,0,0,270.0*
1,1,0.02410,0.00000,-0.02594*
1,1,0.02410,0.00000,0.02594*
1,1,0.02410,0.00000,0.02594*
1,1,0.02410,0.00000,-0.02594*
%
%ADD22ROUNDEDRECTD22*%
%ADD25R,0.03248X0.05217*%
G04:AMPARAMS|DCode=26|XSize=75.97mil|YSize=24.1mil|CornerRadius=12.05mil|HoleSize=0mil|Usage=FLASHONLY|Rotation=0.000|XOffset=0mil|YOffset=0mil|HoleType=Round|Shape=RoundedRectangle|*
%AMROUNDEDRECTD26*
21,1,0.07597,0.00000,0,0,0.0*
21,1,0.05187,0.02410,0,0,0.0*
1,1,0.02410,0.02594,0.00000*
1,1,0.02410,-0.02594,0.00000*
1,1,0.02410,-0.02594,0.00000*
1,1,0.02410,0.02594,0.00000*
%
%ADD26ROUNDEDRECTD26*%
%ADD27R,0.07597X0.02410*%
%ADD28R,0.05756X0.04953*%
%ADD29R,0.05217X0.03248*%
%ADD30R,0.03937X0.02756*%
%ADD31R,0.01181X0.02756*%
%ADD32R,0.05236X0.05236*%
%ADD33R,0.03543X0.07874*%
%ADD34R,0.07874X0.03543*%
%ADD35R,0.02769X0.08674*%
%ADD36R,0.02769X0.02375*%
%ADD37R,0.04737X0.03950*%
G04:AMPARAMS|DCode=38|XSize=43.43mil|YSize=65.09mil|CornerRadius=5.95mil|HoleSize=0mil|Usage=FLASHONLY|Rotation=180.000|XOffset=0mil|YOffset=0mil|HoleType=Round|Shape=RoundedRectangle|*
%AMROUNDEDRECTD38*
21,1,0.04343,0.05319,0,0,180.0*
21,1,0.03154,0.06509,0,0,180.0*
1,1,0.01190,-0.01577,0.02659*
1,1,0.01190,0.01577,0.02659*
1,1,0.01190,0.01577,-0.02659*
1,1,0.01190,-0.01577,-0.02659*
%
%ADD38ROUNDEDRECTD38*%
G04:AMPARAMS|DCode=39|XSize=132.02mil|YSize=65.09mil|CornerRadius=6mil|HoleSize=0mil|Usage=FLASHONLY|Rotation=180.000|XOffset=0mil|YOffset=0mil|HoleType=Round|Shape=RoundedRectangle|*
%AMROUNDEDRECTD39*
21,1,0.13202,0.05309,0,0,180.0*
21,1,0.12002,0.06509,0,0,180.0*
1,1,0.01200,-0.06001,0.02655*
1,1,0.01200,0.06001,0.02655*
1,1,0.01200,0.06001,-0.02655*
1,1,0.01200,-0.06001,-0.02655*
%
%ADD39ROUNDEDRECTD39*%
%ADD40C,0.10249*%
%ADD41R,0.10249X0.10249*%
%ADD42C,0.25800*%
%ADD43R,0.07284X0.07284*%
%ADD44C,0.07284*%
%ADD45C,0.11800*%
%ADD46R,0.07284X0.07284*%
%ADD47R,0.04934X0.04934*%
%ADD48C,0.04934*%
%ADD49R,0.04934X0.04934*%
%ADD50C,0.10800*%
%ADD51C,0.06312*%
G04:AMPARAMS|DCode=52|XSize=43.31mil|YSize=102.36mil|CornerRadius=21.65mil|HoleSize=0mil|Usage=FLASHONLY|Rotation=0.000|XOffset=0mil|YOffset=0mil|HoleType=Round|Shape=RoundedRectangle|*
%AMROUNDEDRECTD52*
21,1,0.04331,0.05906,0,0,0.0*
21,1,0.00000,0.10236,0,0,0.0*
1,1,0.04331,0.00000,-0.02953*
1,1,0.04331,0.00000,-0.02953*
1,1,0.04331,0.00000,0.02953*
1,1,0.04331,0.00000,0.02953*
%
%ADD52ROUNDEDRECTD52*%
G04:AMPARAMS|DCode=53|XSize=43.31mil|YSize=82.68mil|CornerRadius=21.65mil|HoleSize=0mil|Usage=FLASHONLY|Rotation=0.000|XOffset=0mil|YOffset=0mil|HoleType=Round|Shape=RoundedRectangle|*
%AMROUNDEDRECTD53*
21,1,0.04331,0.03937,0,0,0.0*
21,1,0.00000,0.08268,0,0,0.0*
1,1,0.04331,0.00000,-0.01968*
1,1,0.04331,0.00000,-0.01968*
1,1,0.04331,0.00000,0.01968*
1,1,0.04331,0.00000,0.01968*
%
%ADD53ROUNDEDRECTD53*%
%ADD54C,0.02572*%
%ADD55C,0.02800*%
%ADD56C,0.05800*%
D16*
X156851Y226000D02*
X159475D01*
X160000Y226525D01*
Y227574D01*
X159475Y228099D01*
X156851D01*
X160000Y229149D02*
Y230198D01*
Y229673D01*
X156851D01*
X157376Y229149D01*
D18*
X191654Y265500D02*
D03*
X199346D02*
D03*
X192154Y291669D02*
D03*
X199846D02*
D03*
X221846Y225500D02*
D03*
X214154D02*
D03*
D21*
X292500Y153399D02*
D03*
D22*
X287500D02*
D03*
X282500D02*
D03*
X277500D02*
D03*
Y132601D02*
D03*
X282500D02*
D03*
X287500D02*
D03*
X292500D02*
D03*
D25*
X180850Y235500D02*
D03*
X187150D02*
D03*
X151150Y255500D02*
D03*
X144850D02*
D03*
D26*
X257899Y212000D02*
D03*
Y207000D02*
D03*
Y202000D02*
D03*
Y197000D02*
D03*
X237101D02*
D03*
Y202000D02*
D03*
Y207000D02*
D03*
D27*
Y212000D02*
D03*
D28*
X272500Y169654D02*
D03*
Y177346D02*
D03*
D29*
X158500Y405150D02*
D03*
Y398850D02*
D03*
D30*
X193307Y96339D02*
D03*
X168898D02*
D03*
D31*
X172244D02*
D03*
X174213D02*
D03*
X176181D02*
D03*
X178150D02*
D03*
X180118D02*
D03*
X182087D02*
D03*
X184055D02*
D03*
X186024D02*
D03*
X187992D02*
D03*
X189961D02*
D03*
X192913Y101457D02*
D03*
X190945D02*
D03*
X188976D02*
D03*
X187008D02*
D03*
X185039D02*
D03*
X183071D02*
D03*
X179134D02*
D03*
X177165D02*
D03*
X175197D02*
D03*
X173228D02*
D03*
X171260D02*
D03*
X169291D02*
D03*
D32*
X211287Y367457D02*
D03*
X204063D02*
D03*
X196839D02*
D03*
X211287Y374681D02*
D03*
X204063D02*
D03*
X196839D02*
D03*
X211287Y381906D02*
D03*
X204063D02*
D03*
X196839D02*
D03*
D33*
X230500Y335272D02*
D03*
X225500D02*
D03*
X220500D02*
D03*
X215500D02*
D03*
X210500D02*
D03*
X205500D02*
D03*
X200500D02*
D03*
X195500D02*
D03*
X190500D02*
D03*
X185500D02*
D03*
D34*
X241465Y404209D02*
D03*
Y399209D02*
D03*
Y394209D02*
D03*
Y389209D02*
D03*
Y384209D02*
D03*
Y379209D02*
D03*
Y374209D02*
D03*
Y369209D02*
D03*
Y364209D02*
D03*
Y359209D02*
D03*
Y354209D02*
D03*
Y349209D02*
D03*
Y344209D02*
D03*
Y339209D02*
D03*
X174535D02*
D03*
Y344209D02*
D03*
Y349209D02*
D03*
Y354209D02*
D03*
Y359209D02*
D03*
Y364209D02*
D03*
Y369209D02*
D03*
Y374209D02*
D03*
Y379209D02*
D03*
Y384209D02*
D03*
Y389209D02*
D03*
Y394209D02*
D03*
Y399209D02*
D03*
Y404209D02*
D03*
D35*
X171374Y275189D02*
D03*
X167437D02*
D03*
X163500D02*
D03*
X159563D02*
D03*
X155626D02*
D03*
Y298811D02*
D03*
X159563D02*
D03*
X163500D02*
D03*
X167437D02*
D03*
X171374D02*
D03*
X175311D02*
D03*
D36*
X192260Y281228D02*
D03*
Y278669D02*
D03*
Y276110D02*
D03*
X199740D02*
D03*
Y278669D02*
D03*
Y281228D02*
D03*
D37*
X188500Y220331D02*
D03*
Y226236D02*
D03*
X181000Y226283D02*
D03*
Y220378D02*
D03*
D38*
X149445Y220394D02*
D03*
X158500D02*
D03*
X167555D02*
D03*
D39*
X158500Y244606D02*
D03*
D40*
X321728Y120472D02*
D03*
Y140157D02*
D03*
Y159843D02*
D03*
Y366972D02*
D03*
Y386658D02*
D03*
Y406343D02*
D03*
Y284972D02*
D03*
Y304658D02*
D03*
Y324342D02*
D03*
Y202972D02*
D03*
Y222657D02*
D03*
Y242342D02*
D03*
X120772Y426528D02*
D03*
Y406843D02*
D03*
Y387158D02*
D03*
Y344028D02*
D03*
Y324342D02*
D03*
Y304658D02*
D03*
Y262028D02*
D03*
Y242342D02*
D03*
Y222657D02*
D03*
Y178528D02*
D03*
Y158843D02*
D03*
Y139157D02*
D03*
D41*
X321728Y179528D02*
D03*
Y426028D02*
D03*
Y344028D02*
D03*
Y262028D02*
D03*
X120772Y367472D02*
D03*
Y284972D02*
D03*
Y202972D02*
D03*
Y119472D02*
D03*
D42*
X326772Y86614D02*
D03*
X118110D02*
D03*
X326772Y452756D02*
D03*
X118110D02*
D03*
D43*
X257000Y228724D02*
D03*
X224500Y251224D02*
D03*
D44*
X267000Y228724D02*
D03*
X277000D02*
D03*
X252500Y284000D02*
D03*
Y294000D02*
D03*
X244500Y251224D02*
D03*
X234500D02*
D03*
X280000Y290000D02*
D03*
Y300000D02*
D03*
X278724Y342500D02*
D03*
Y352500D02*
D03*
Y396500D02*
D03*
Y406500D02*
D03*
D45*
X196500Y185000D02*
D03*
X166500D02*
D03*
D46*
X252500Y304000D02*
D03*
X280000Y310000D02*
D03*
X278724Y362500D02*
D03*
Y416500D02*
D03*
D47*
X225500Y286500D02*
D03*
Y311000D02*
D03*
X216000Y209500D02*
D03*
D48*
X225500Y281500D02*
D03*
Y276500D02*
D03*
Y306000D02*
D03*
Y301000D02*
D03*
X252000Y176500D02*
D03*
X247000D02*
D03*
X216000Y204500D02*
D03*
Y199500D02*
D03*
D49*
X257000Y176500D02*
D03*
D50*
X167000Y160500D02*
D03*
X197000D02*
D03*
D51*
X239000Y147343D02*
D03*
Y127657D02*
D03*
D52*
X198110Y78740D02*
D03*
X164094D02*
D03*
D53*
X198110Y99843D02*
D03*
X164094D02*
D03*
D54*
X188000Y349000D02*
D03*
X186500Y278500D02*
D03*
Y281500D02*
D03*
X193500Y272500D02*
D03*
X200000Y284000D02*
D03*
X206500Y290000D02*
D03*
X208954Y292954D02*
D03*
X212986Y313000D02*
D03*
X212546Y295546D02*
D03*
X197500Y307500D02*
D03*
X194500Y310000D02*
D03*
X191000Y312500D02*
D03*
X247500Y196500D02*
D03*
X283000Y172000D02*
D03*
X227500Y344500D02*
D03*
X260000Y359500D02*
D03*
X187000Y213000D02*
D03*
X170000Y211500D02*
D03*
X151500Y331000D02*
D03*
Y307000D02*
D03*
X192500Y357500D02*
D03*
X188000Y355500D02*
D03*
X192000Y352500D02*
D03*
X183500Y394000D02*
D03*
X229000Y364000D02*
D03*
X218500Y344500D02*
D03*
X242000Y312000D02*
D03*
X190500Y326500D02*
D03*
X197000Y344000D02*
D03*
X188500Y379000D02*
D03*
X188000Y374000D02*
D03*
X195000Y209500D02*
D03*
X183500Y208000D02*
D03*
X230500Y327000D02*
D03*
X263500Y344000D02*
D03*
X249000D02*
D03*
Y359500D02*
D03*
X270500Y359000D02*
D03*
X249000Y349000D02*
D03*
X267500Y352500D02*
D03*
X249000Y354000D02*
D03*
D55*
X177500Y270000D02*
D03*
X177000Y265500D02*
D03*
X165500Y258500D02*
D03*
X157000Y267000D02*
D03*
D56*
X176500Y311000D02*
D03*
M02*
