G04*
G04 #@! TF.GenerationSoftware,Altium Limited,Altium Designer,22.7.1 (60)*
G04*
G04 Layer_Color=16711935*
%FSLAX25Y25*%
%MOIN*%
G70*
G04*
G04 #@! TF.SameCoordinates,2BF9A078-D696-49FA-A729-B53DB30398E2*
G04*
G04*
G04 #@! TF.FilePolarity,Negative*
G04*
G01*
G75*
%ADD16C,0.00394*%
%ADD40C,0.10249*%
%ADD41R,0.10249X0.10249*%
%ADD42C,0.25800*%
%ADD43R,0.07284X0.07284*%
%ADD44C,0.07284*%
%ADD45C,0.11800*%
%ADD46R,0.07284X0.07284*%
%ADD47R,0.04934X0.04934*%
%ADD48C,0.04934*%
%ADD49R,0.04934X0.04934*%
%ADD50C,0.10800*%
%ADD51C,0.06312*%
G04:AMPARAMS|DCode=52|XSize=43.31mil|YSize=102.36mil|CornerRadius=21.65mil|HoleSize=0mil|Usage=FLASHONLY|Rotation=0.000|XOffset=0mil|YOffset=0mil|HoleType=Round|Shape=RoundedRectangle|*
%AMROUNDEDRECTD52*
21,1,0.04331,0.05906,0,0,0.0*
21,1,0.00000,0.10236,0,0,0.0*
1,1,0.04331,0.00000,-0.02953*
1,1,0.04331,0.00000,-0.02953*
1,1,0.04331,0.00000,0.02953*
1,1,0.04331,0.00000,0.02953*
%
%ADD52ROUNDEDRECTD52*%
G04:AMPARAMS|DCode=53|XSize=43.31mil|YSize=82.68mil|CornerRadius=21.65mil|HoleSize=0mil|Usage=FLASHONLY|Rotation=0.000|XOffset=0mil|YOffset=0mil|HoleType=Round|Shape=RoundedRectangle|*
%AMROUNDEDRECTD53*
21,1,0.04331,0.03937,0,0,0.0*
21,1,0.00000,0.08268,0,0,0.0*
1,1,0.04331,0.00000,-0.01968*
1,1,0.04331,0.00000,-0.01968*
1,1,0.04331,0.00000,0.01968*
1,1,0.04331,0.00000,0.01968*
%
%ADD53ROUNDEDRECTD53*%
%ADD54C,0.02572*%
%ADD55C,0.02800*%
%ADD56C,0.05800*%
D16*
X156851Y226000D02*
X159475D01*
X160000Y226525D01*
Y227574D01*
X159475Y228099D01*
X156851D01*
X160000Y229149D02*
Y230198D01*
Y229673D01*
X156851D01*
X157376Y229149D01*
D40*
X321728Y120472D02*
D03*
Y140157D02*
D03*
Y159843D02*
D03*
Y366972D02*
D03*
Y386658D02*
D03*
Y406343D02*
D03*
Y284972D02*
D03*
Y304658D02*
D03*
Y324342D02*
D03*
Y202972D02*
D03*
Y222657D02*
D03*
Y242342D02*
D03*
X120772Y426528D02*
D03*
Y406843D02*
D03*
Y387158D02*
D03*
Y344028D02*
D03*
Y324342D02*
D03*
Y304658D02*
D03*
Y262028D02*
D03*
Y242342D02*
D03*
Y222657D02*
D03*
Y178528D02*
D03*
Y158843D02*
D03*
Y139157D02*
D03*
D41*
X321728Y179528D02*
D03*
Y426028D02*
D03*
Y344028D02*
D03*
Y262028D02*
D03*
X120772Y367472D02*
D03*
Y284972D02*
D03*
Y202972D02*
D03*
Y119472D02*
D03*
D42*
X326772Y86614D02*
D03*
X118110D02*
D03*
X326772Y452756D02*
D03*
X118110D02*
D03*
D43*
X257000Y228724D02*
D03*
X224500Y251224D02*
D03*
D44*
X267000Y228724D02*
D03*
X277000D02*
D03*
X252500Y284000D02*
D03*
Y294000D02*
D03*
X244500Y251224D02*
D03*
X234500D02*
D03*
X280000Y290000D02*
D03*
Y300000D02*
D03*
X278724Y342500D02*
D03*
Y352500D02*
D03*
Y396500D02*
D03*
Y406500D02*
D03*
D45*
X196500Y185000D02*
D03*
X166500D02*
D03*
D46*
X252500Y304000D02*
D03*
X280000Y310000D02*
D03*
X278724Y362500D02*
D03*
Y416500D02*
D03*
D47*
X225500Y286500D02*
D03*
Y311000D02*
D03*
X216000Y209500D02*
D03*
D48*
X225500Y281500D02*
D03*
Y276500D02*
D03*
Y306000D02*
D03*
Y301000D02*
D03*
X252000Y176500D02*
D03*
X247000D02*
D03*
X216000Y204500D02*
D03*
Y199500D02*
D03*
D49*
X257000Y176500D02*
D03*
D50*
X167000Y160500D02*
D03*
X197000D02*
D03*
D51*
X239000Y147343D02*
D03*
Y127657D02*
D03*
D52*
X198110Y78740D02*
D03*
X164094D02*
D03*
D53*
X198110Y99843D02*
D03*
X164094D02*
D03*
D54*
X188000Y349000D02*
D03*
X186500Y278500D02*
D03*
Y281500D02*
D03*
X193500Y272500D02*
D03*
X200000Y284000D02*
D03*
X206500Y290000D02*
D03*
X208954Y292954D02*
D03*
X212986Y313000D02*
D03*
X212546Y295546D02*
D03*
X197500Y307500D02*
D03*
X194500Y310000D02*
D03*
X191000Y312500D02*
D03*
X247500Y196500D02*
D03*
X283000Y172000D02*
D03*
X227500Y344500D02*
D03*
X260000Y359500D02*
D03*
X187000Y213000D02*
D03*
X170000Y211500D02*
D03*
X151500Y331000D02*
D03*
Y307000D02*
D03*
X192500Y357500D02*
D03*
X188000Y355500D02*
D03*
X192000Y352500D02*
D03*
X183500Y394000D02*
D03*
X229000Y364000D02*
D03*
X218500Y344500D02*
D03*
X242000Y312000D02*
D03*
X190500Y326500D02*
D03*
X197000Y344000D02*
D03*
X188500Y379000D02*
D03*
X188000Y374000D02*
D03*
X195000Y209500D02*
D03*
X183500Y208000D02*
D03*
X230500Y327000D02*
D03*
X263500Y344000D02*
D03*
X249000D02*
D03*
Y359500D02*
D03*
X270500Y359000D02*
D03*
X249000Y349000D02*
D03*
X267500Y352500D02*
D03*
X249000Y354000D02*
D03*
D55*
X177500Y270000D02*
D03*
X177000Y265500D02*
D03*
X165500Y258500D02*
D03*
X157000Y267000D02*
D03*
D56*
X176500Y311000D02*
D03*
M02*
