G04*
G04 #@! TF.GenerationSoftware,Altium Limited,Altium Designer,22.7.1 (60)*
G04*
G04 Layer_Color=255*
%FSLAX25Y25*%
%MOIN*%
G70*
G04*
G04 #@! TF.SameCoordinates,B0270450-B435-420B-BE19-FF0628D395ED*
G04*
G04*
G04 #@! TF.FilePolarity,Positive*
G04*
G01*
G75*
%ADD16C,0.00004*%
%ADD17C,0.00394*%
G04:AMPARAMS|DCode=41|XSize=43.31mil|YSize=82.68mil|CornerRadius=21.65mil|HoleSize=0mil|Usage=FLASHONLY|Rotation=0.000|XOffset=0mil|YOffset=0mil|HoleType=Round|Shape=RoundedRectangle|*
%AMROUNDEDRECTD41*
21,1,0.04331,0.03937,0,0,0.0*
21,1,0.00000,0.08268,0,0,0.0*
1,1,0.04331,0.00000,-0.01968*
1,1,0.04331,0.00000,-0.01968*
1,1,0.04331,0.00000,0.01968*
1,1,0.04331,0.00000,0.01968*
%
%ADD41ROUNDEDRECTD41*%
G04:AMPARAMS|DCode=42|XSize=43.31mil|YSize=102.36mil|CornerRadius=21.65mil|HoleSize=0mil|Usage=FLASHONLY|Rotation=0.000|XOffset=0mil|YOffset=0mil|HoleType=Round|Shape=RoundedRectangle|*
%AMROUNDEDRECTD42*
21,1,0.04331,0.05906,0,0,0.0*
21,1,0.00000,0.10236,0,0,0.0*
1,1,0.04331,0.00000,-0.02953*
1,1,0.04331,0.00000,-0.02953*
1,1,0.04331,0.00000,0.02953*
1,1,0.04331,0.00000,0.02953*
%
%ADD42ROUNDEDRECTD42*%
%ADD46R,0.07284X0.07284*%
%ADD47C,0.07284*%
%ADD49R,0.07284X0.07284*%
%ADD64C,0.09449*%
%ADD65R,0.09449X0.09449*%
%ADD66C,0.25000*%
%ADD67C,0.11000*%
%ADD68R,0.04134X0.04134*%
%ADD69C,0.04134*%
%ADD70R,0.04134X0.04134*%
%ADD71C,0.10000*%
%ADD72C,0.05512*%
D16*
X99410Y466535D02*
X341535D01*
X346457Y461614D01*
Y77756D02*
Y461614D01*
X341535Y72835D02*
X346457Y77756D01*
X98425Y72835D02*
X341535D01*
X94488Y76772D02*
X98425Y72835D01*
X94488Y76772D02*
Y461614D01*
X99410Y466535D01*
D17*
X156851Y226000D02*
X159475D01*
X160000Y226525D01*
Y227574D01*
X159475Y228099D01*
X156851D01*
X160000Y229149D02*
Y230198D01*
Y229673D01*
X156851D01*
X157376Y229149D01*
D41*
X164094Y104882D02*
D03*
X198110D02*
D03*
D42*
X164094Y83780D02*
D03*
X198110D02*
D03*
D46*
X257000Y228724D02*
D03*
X224500Y251224D02*
D03*
D47*
X267000Y228724D02*
D03*
X277000D02*
D03*
X252500Y284000D02*
D03*
Y294000D02*
D03*
X244500Y251224D02*
D03*
X234500D02*
D03*
X280000Y290000D02*
D03*
Y300000D02*
D03*
X278724Y342500D02*
D03*
Y352500D02*
D03*
Y396500D02*
D03*
Y406500D02*
D03*
D49*
X252500Y304000D02*
D03*
X280000Y310000D02*
D03*
X278724Y362500D02*
D03*
Y416500D02*
D03*
D64*
X321728Y406343D02*
D03*
Y386658D02*
D03*
Y366972D02*
D03*
Y120472D02*
D03*
Y140157D02*
D03*
Y159843D02*
D03*
Y284972D02*
D03*
Y304658D02*
D03*
Y324342D02*
D03*
Y202972D02*
D03*
Y222657D02*
D03*
Y242342D02*
D03*
X120772Y426528D02*
D03*
Y406843D02*
D03*
Y387158D02*
D03*
Y344028D02*
D03*
Y324342D02*
D03*
Y304658D02*
D03*
Y262028D02*
D03*
Y242342D02*
D03*
Y222657D02*
D03*
Y178528D02*
D03*
Y158843D02*
D03*
Y139157D02*
D03*
D65*
X321728Y426028D02*
D03*
Y179528D02*
D03*
Y344028D02*
D03*
Y262028D02*
D03*
X120772Y367472D02*
D03*
Y284972D02*
D03*
Y202972D02*
D03*
Y119472D02*
D03*
D66*
X326772Y88583D02*
D03*
X118110D02*
D03*
X327000Y451000D02*
D03*
X118000D02*
D03*
D67*
X196500Y185000D02*
D03*
X166500D02*
D03*
D68*
X225500Y286500D02*
D03*
Y311000D02*
D03*
X216000Y209500D02*
D03*
D69*
X225500Y281500D02*
D03*
Y276500D02*
D03*
Y306000D02*
D03*
Y301000D02*
D03*
X252000Y176500D02*
D03*
X247000D02*
D03*
X216000Y204500D02*
D03*
Y199500D02*
D03*
D70*
X257000Y176500D02*
D03*
D71*
X167000Y160500D02*
D03*
X197000D02*
D03*
D72*
X239000Y147343D02*
D03*
Y127657D02*
D03*
M02*
