G04*
G04 #@! TF.GenerationSoftware,Altium Limited,Altium Designer,22.7.1 (60)*
G04*
G04 Layer_Color=32768*
%FSLAX25Y25*%
%MOIN*%
G70*
G04*
G04 #@! TF.SameCoordinates,B0270450-B435-420B-BE19-FF0628D395ED*
G04*
G04*
G04 #@! TF.FilePolarity,Positive*
G04*
G01*
G75*
%ADD12C,0.00787*%
%ADD16C,0.00004*%
%ADD17C,0.00394*%
%ADD76C,0.00197*%
D12*
X161535Y109409D02*
X200669D01*
Y75315D02*
Y109409D01*
X161535Y75315D02*
X200669D01*
X161535D02*
Y109409D01*
X203792Y260653D02*
Y270347D01*
X187208D02*
X203792D01*
X187208Y260653D02*
Y270347D01*
Y260653D02*
X203792D01*
X204292Y286823D02*
Y296516D01*
X187708D02*
X204292D01*
X187708Y286823D02*
Y296516D01*
Y286823D02*
X204292D01*
X296614Y126834D02*
Y159166D01*
X273386Y126834D02*
X296614D01*
X273386D02*
Y159166D01*
X296614D01*
X245150Y222150D02*
Y240850D01*
X288850D01*
Y222150D02*
Y240850D01*
X245150Y222150D02*
X288850D01*
X178833Y238650D02*
X189167D01*
Y232350D02*
Y238650D01*
X178833Y232350D02*
X189167D01*
X178833D02*
Y238650D01*
X142833Y252350D02*
X153167D01*
X142833D02*
Y258650D01*
X153167D01*
Y252350D02*
Y258650D01*
X245925Y272150D02*
Y315850D01*
Y272150D02*
X264626D01*
Y315850D01*
X245925D02*
X264626D01*
X212650Y244650D02*
X256350D01*
Y263350D01*
X212650D02*
X256350D01*
X212650Y244650D02*
Y263350D01*
X273425Y278150D02*
Y321850D01*
Y278150D02*
X292126D01*
Y321850D01*
X273425D02*
X292126D01*
X272150Y330650D02*
Y374350D01*
Y330650D02*
X290850D01*
Y374350D01*
X272150D02*
X290850D01*
X272150Y384650D02*
Y428350D01*
Y384650D02*
X290850D01*
Y428350D01*
X272150D02*
X290850D01*
X231334Y192886D02*
Y216114D01*
Y192886D02*
X263666D01*
Y216114D01*
X231334D02*
X263666D01*
X209708Y220653D02*
Y230347D01*
Y220653D02*
X226292D01*
Y230347D01*
X209708D02*
X226292D01*
X267653Y181792D02*
X277347D01*
X267653Y165208D02*
Y181792D01*
Y165208D02*
X277347D01*
Y181792D01*
X155350Y396833D02*
X161650D01*
Y407167D01*
X155350D02*
X161650D01*
X155350Y396833D02*
Y407167D01*
X170205Y330941D02*
Y434287D01*
Y330941D02*
X245795D01*
Y434287D01*
X170205D02*
X245795D01*
D16*
X99410Y466535D02*
X341535D01*
X346457Y461614D01*
Y77756D02*
Y461614D01*
X341535Y72835D02*
X346457Y77756D01*
X98425Y72835D02*
X341535D01*
X94488Y76772D02*
X98425Y72835D01*
X94488Y76772D02*
Y461614D01*
X99410Y466535D01*
D17*
X194032Y278669D02*
X197968D01*
X196000Y276701D02*
Y280638D01*
X188500Y221512D02*
Y225055D01*
X186728Y223284D02*
X190272D01*
X158500Y230532D02*
Y234469D01*
X156532Y232500D02*
X160468D01*
X179228Y223331D02*
X182772D01*
X181000Y221559D02*
Y225102D01*
X225500Y279532D02*
Y283469D01*
X223532Y281500D02*
X227468D01*
X225500Y304031D02*
Y307968D01*
X223532Y306000D02*
X227468D01*
X250031Y176500D02*
X253969D01*
X252000Y174531D02*
Y178469D01*
X216000Y202532D02*
Y206469D01*
X214032Y204500D02*
X217969D01*
X237032Y137500D02*
X240968D01*
X239000Y135531D02*
Y139469D01*
X156851Y226000D02*
X159475D01*
X160000Y226525D01*
Y227574D01*
X159475Y228099D01*
X156851D01*
X160000Y229149D02*
Y230198D01*
Y229673D01*
X156851D01*
X157376Y229149D01*
D76*
X260063Y137500D02*
X260039Y138502D01*
X259968Y139502D01*
X259849Y140498D01*
X259682Y141486D01*
X259469Y142466D01*
X259210Y143434D01*
X258905Y144389D01*
X258554Y145328D01*
X258160Y146250D01*
X257721Y147152D01*
X257241Y148031D01*
X256719Y148888D01*
X256157Y149718D01*
X255557Y150520D01*
X254918Y151293D01*
X254244Y152035D01*
X253535Y152744D01*
X252793Y153418D01*
X252020Y154057D01*
X251218Y154657D01*
X250388Y155219D01*
X249532Y155741D01*
X248652Y156221D01*
X247750Y156660D01*
X246828Y157054D01*
X245889Y157404D01*
X244934Y157710D01*
X243966Y157969D01*
X242986Y158182D01*
X241998Y158349D01*
X241002Y158468D01*
X240002Y158539D01*
X239000Y158563D01*
X237998Y158539D01*
X236998Y158468D01*
X236002Y158349D01*
X235014Y158182D01*
X234034Y157969D01*
X233066Y157710D01*
X232111Y157404D01*
X231172Y157054D01*
X230250Y156660D01*
X229348Y156221D01*
X228468Y155741D01*
X227612Y155219D01*
X226782Y154657D01*
X225980Y154057D01*
X225207Y153418D01*
X224465Y152744D01*
X223756Y152035D01*
X223082Y151293D01*
X222443Y150520D01*
X221843Y149718D01*
X221281Y148888D01*
X220759Y148031D01*
X220279Y147152D01*
X219840Y146250D01*
X219446Y145328D01*
X219095Y144389D01*
X218790Y143434D01*
X218531Y142466D01*
X218318Y141486D01*
X218151Y140498D01*
X218032Y139502D01*
X217961Y138502D01*
X217937Y137500D01*
X217961Y136498D01*
X218032Y135498D01*
X218151Y134502D01*
X218318Y133514D01*
X218531Y132534D01*
X218790Y131566D01*
X219095Y130611D01*
X219446Y129672D01*
X219841Y128750D01*
X220279Y127848D01*
X220759Y126969D01*
X221281Y126112D01*
X221843Y125282D01*
X222443Y124480D01*
X223082Y123707D01*
X223756Y122965D01*
X224465Y122256D01*
X225207Y121582D01*
X225980Y120943D01*
X226782Y120343D01*
X227613Y119781D01*
X228469Y119259D01*
X229348Y118778D01*
X230250Y118340D01*
X231172Y117946D01*
X232111Y117595D01*
X233066Y117290D01*
X234034Y117031D01*
X235014Y116818D01*
X236002Y116651D01*
X236998Y116532D01*
X237998Y116461D01*
X239000Y116437D01*
X240002Y116461D01*
X241002Y116532D01*
X241998Y116651D01*
X242986Y116818D01*
X243966Y117031D01*
X244934Y117290D01*
X245889Y117596D01*
X246828Y117946D01*
X247750Y118341D01*
X248652Y118779D01*
X249532Y119259D01*
X250388Y119781D01*
X251218Y120343D01*
X252020Y120943D01*
X252793Y121582D01*
X253535Y122256D01*
X254244Y122965D01*
X254918Y123707D01*
X255557Y124480D01*
X256157Y125282D01*
X256719Y126112D01*
X257241Y126969D01*
X257721Y127848D01*
X258160Y128750D01*
X258554Y129672D01*
X258905Y130611D01*
X259210Y131566D01*
X259469Y132534D01*
X259682Y133514D01*
X259849Y134502D01*
X259968Y135498D01*
X260039Y136498D01*
X260063Y137500D01*
X321532Y396500D02*
X325468D01*
X323500Y394531D02*
Y398468D01*
X341020Y356343D02*
Y436657D01*
X305980Y356343D02*
X341020D01*
X305980D02*
Y436657D01*
X341020D01*
X190882Y273945D02*
Y283394D01*
X201118Y273945D02*
Y283394D01*
X190882D02*
X201118D01*
X190882Y273945D02*
X201118D01*
X305980Y190157D02*
X341020D01*
X305980Y109843D02*
Y190157D01*
Y109843D02*
X341020D01*
Y190157D01*
X323500Y148031D02*
Y151969D01*
X321532Y150000D02*
X325468D01*
X184563Y216787D02*
X192437D01*
X184563Y229780D02*
X192437D01*
X184563Y216787D02*
Y229780D01*
X192437Y216787D02*
Y229780D01*
X144917Y217146D02*
X172083D01*
X144917Y247854D02*
X172083D01*
X144917Y217146D02*
Y247854D01*
X172083Y217146D02*
Y247854D01*
X184937Y216835D02*
Y229827D01*
X177063Y216835D02*
Y229827D01*
X184937D01*
X177063Y216835D02*
X184937D01*
X305980Y354658D02*
X341020D01*
X305980Y274342D02*
Y354658D01*
Y274342D02*
X341020D01*
Y354658D01*
X323500Y312531D02*
Y316469D01*
X321532Y314500D02*
X325468D01*
X305980Y272657D02*
X341020D01*
X305980Y192342D02*
Y272657D01*
Y192342D02*
X341020D01*
Y272657D01*
X323500Y230532D02*
Y234469D01*
X321532Y232500D02*
X325468D01*
X101480Y356842D02*
X136520D01*
Y437157D01*
X101480D02*
X136520D01*
X101480Y356842D02*
Y437157D01*
X119000Y395031D02*
Y398969D01*
X117032Y397000D02*
X120968D01*
X101480Y274342D02*
X136520D01*
Y354658D01*
X101480D02*
X136520D01*
X101480Y274342D02*
Y354658D01*
X119000Y312531D02*
Y316469D01*
X117032Y314500D02*
X120968D01*
X101480Y192342D02*
X136520D01*
Y272657D01*
X101480D02*
X136520D01*
X101480Y192342D02*
Y272657D01*
X119000Y230532D02*
Y234469D01*
X117032Y232500D02*
X120968D01*
X101480Y108843D02*
X136520D01*
Y189157D01*
X101480D02*
X136520D01*
X101480Y108843D02*
Y189157D01*
X119000Y147031D02*
Y150969D01*
X117032Y149000D02*
X120968D01*
X235146Y271854D02*
Y291146D01*
X219850D02*
X235146D01*
X219850Y271854D02*
X235146D01*
X219850D02*
Y291146D01*
X235146Y296354D02*
Y315646D01*
X219850D02*
X235146D01*
X219850Y296354D02*
X235146D01*
X219850D02*
Y315646D01*
X242354Y166854D02*
X261646D01*
Y182150D01*
X242354Y166854D02*
Y182150D01*
X261646D01*
X225646Y194854D02*
Y214146D01*
X210350D02*
X225646D01*
X210350Y194854D02*
X225646D01*
X210350D02*
Y214146D01*
M02*
