G04*
G04 #@! TF.GenerationSoftware,Altium Limited,Altium Designer,22.7.1 (60)*
G04*
G04 Layer_Physical_Order=1*
G04 Layer_Color=255*
%FSLAX25Y25*%
%MOIN*%
G70*
G04*
G04 #@! TF.SameCoordinates,B0270450-B435-420B-BE19-FF0628D395ED*
G04*
G04*
G04 #@! TF.FilePolarity,Positive*
G04*
G01*
G75*
%ADD13C,0.01000*%
%ADD14C,0.00500*%
%ADD16C,0.00004*%
%ADD17C,0.00394*%
%ADD18R,0.01181X0.02756*%
%ADD19R,0.03937X0.02756*%
%ADD20R,0.01968X0.07874*%
%ADD21R,0.04953X0.05756*%
%ADD22R,0.01968X0.01575*%
%ADD23R,0.03937X0.03150*%
%ADD24R,0.02410X0.07597*%
G04:AMPARAMS|DCode=25|XSize=75.97mil|YSize=24.1mil|CornerRadius=12.05mil|HoleSize=0mil|Usage=FLASHONLY|Rotation=270.000|XOffset=0mil|YOffset=0mil|HoleType=Round|Shape=RoundedRectangle|*
%AMROUNDEDRECTD25*
21,1,0.07597,0.00000,0,0,270.0*
21,1,0.05187,0.02410,0,0,270.0*
1,1,0.02410,0.00000,-0.02594*
1,1,0.02410,0.00000,0.02594*
1,1,0.02410,0.00000,0.02594*
1,1,0.02410,0.00000,-0.02594*
%
%ADD25ROUNDEDRECTD25*%
G04:AMPARAMS|DCode=26|XSize=35.43mil|YSize=57.09mil|CornerRadius=1.95mil|HoleSize=0mil|Usage=FLASHONLY|Rotation=180.000|XOffset=0mil|YOffset=0mil|HoleType=Round|Shape=RoundedRectangle|*
%AMROUNDEDRECTD26*
21,1,0.03543,0.05319,0,0,180.0*
21,1,0.03154,0.05709,0,0,180.0*
1,1,0.00390,-0.01577,0.02659*
1,1,0.00390,0.01577,0.02659*
1,1,0.00390,0.01577,-0.02659*
1,1,0.00390,-0.01577,-0.02659*
%
%ADD26ROUNDEDRECTD26*%
G04:AMPARAMS|DCode=27|XSize=124.02mil|YSize=57.09mil|CornerRadius=2mil|HoleSize=0mil|Usage=FLASHONLY|Rotation=180.000|XOffset=0mil|YOffset=0mil|HoleType=Round|Shape=RoundedRectangle|*
%AMROUNDEDRECTD27*
21,1,0.12402,0.05309,0,0,180.0*
21,1,0.12002,0.05709,0,0,180.0*
1,1,0.00400,-0.06001,0.02655*
1,1,0.00400,0.06001,0.02655*
1,1,0.00400,0.06001,-0.02655*
1,1,0.00400,-0.06001,-0.02655*
%
%ADD27ROUNDEDRECTD27*%
%ADD28R,0.03248X0.05217*%
G04:AMPARAMS|DCode=29|XSize=75.97mil|YSize=24.1mil|CornerRadius=12.05mil|HoleSize=0mil|Usage=FLASHONLY|Rotation=0.000|XOffset=0mil|YOffset=0mil|HoleType=Round|Shape=RoundedRectangle|*
%AMROUNDEDRECTD29*
21,1,0.07597,0.00000,0,0,0.0*
21,1,0.05187,0.02410,0,0,0.0*
1,1,0.02410,0.02594,0.00000*
1,1,0.02410,-0.02594,0.00000*
1,1,0.02410,-0.02594,0.00000*
1,1,0.02410,0.02594,0.00000*
%
%ADD29ROUNDEDRECTD29*%
%ADD30R,0.07597X0.02410*%
%ADD31R,0.05756X0.04953*%
%ADD32R,0.05217X0.03248*%
%ADD33R,0.05236X0.05236*%
%ADD34R,0.03543X0.07874*%
%ADD35R,0.07874X0.03543*%
G04:AMPARAMS|DCode=41|XSize=43.31mil|YSize=82.68mil|CornerRadius=21.65mil|HoleSize=0mil|Usage=FLASHONLY|Rotation=0.000|XOffset=0mil|YOffset=0mil|HoleType=Round|Shape=RoundedRectangle|*
%AMROUNDEDRECTD41*
21,1,0.04331,0.03937,0,0,0.0*
21,1,0.00000,0.08268,0,0,0.0*
1,1,0.04331,0.00000,-0.01968*
1,1,0.04331,0.00000,-0.01968*
1,1,0.04331,0.00000,0.01968*
1,1,0.04331,0.00000,0.01968*
%
%ADD41ROUNDEDRECTD41*%
G04:AMPARAMS|DCode=42|XSize=43.31mil|YSize=102.36mil|CornerRadius=21.65mil|HoleSize=0mil|Usage=FLASHONLY|Rotation=0.000|XOffset=0mil|YOffset=0mil|HoleType=Round|Shape=RoundedRectangle|*
%AMROUNDEDRECTD42*
21,1,0.04331,0.05906,0,0,0.0*
21,1,0.00000,0.10236,0,0,0.0*
1,1,0.04331,0.00000,-0.02953*
1,1,0.04331,0.00000,-0.02953*
1,1,0.04331,0.00000,0.02953*
1,1,0.04331,0.00000,0.02953*
%
%ADD42ROUNDEDRECTD42*%
%ADD46R,0.07284X0.07284*%
%ADD47C,0.07284*%
%ADD49R,0.07284X0.07284*%
%ADD58C,0.07000*%
%ADD59C,0.01500*%
%ADD60C,0.00700*%
%ADD61C,0.10000*%
%ADD62C,0.01100*%
%ADD63C,0.00350*%
%ADD64C,0.09449*%
%ADD65R,0.09449X0.09449*%
%ADD66C,0.25000*%
%ADD67C,0.11000*%
%ADD68R,0.04134X0.04134*%
%ADD69C,0.04134*%
%ADD70R,0.04134X0.04134*%
%ADD71C,0.10000*%
%ADD72C,0.05512*%
%ADD73C,0.01772*%
%ADD74C,0.02000*%
%ADD75C,0.05000*%
G36*
X345654Y461282D02*
Y78088D01*
X341203Y73637D01*
X98758D01*
X95291Y77104D01*
Y461282D01*
X99742Y465733D01*
X150000D01*
Y431500D01*
X171751Y409749D01*
Y408894D01*
X171813Y408582D01*
X171990Y408317D01*
X172255Y408140D01*
X172567Y408078D01*
X243433D01*
X243745Y408140D01*
X244010Y408317D01*
X244187Y408582D01*
X244249Y408894D01*
Y409749D01*
X265500Y431000D01*
X266000D01*
Y465733D01*
X341203D01*
X345654Y461282D01*
D02*
G37*
%LPC*%
G36*
X328063Y464500D02*
X328000D01*
Y452000D01*
X340500D01*
Y452063D01*
X340168Y454161D01*
X339511Y456182D01*
X338546Y458076D01*
X337297Y459795D01*
X335795Y461297D01*
X334075Y462546D01*
X332182Y463511D01*
X330161Y464168D01*
X328063Y464500D01*
D02*
G37*
G36*
X326000D02*
X325938D01*
X323839Y464168D01*
X321818Y463511D01*
X319924Y462546D01*
X318205Y461297D01*
X316703Y459795D01*
X315454Y458076D01*
X314489Y456182D01*
X313832Y454161D01*
X313500Y452063D01*
Y452000D01*
X326000D01*
Y464500D01*
D02*
G37*
G36*
X119062D02*
X119000D01*
Y452000D01*
X131500D01*
Y452063D01*
X131168Y454161D01*
X130511Y456182D01*
X129546Y458076D01*
X128297Y459795D01*
X126795Y461297D01*
X125075Y462546D01*
X123182Y463511D01*
X121161Y464168D01*
X119062Y464500D01*
D02*
G37*
G36*
X117000D02*
X116937D01*
X114839Y464168D01*
X112818Y463511D01*
X110924Y462546D01*
X109205Y461297D01*
X107703Y459795D01*
X106454Y458076D01*
X105489Y456182D01*
X104832Y454161D01*
X104500Y452063D01*
Y452000D01*
X117000D01*
Y464500D01*
D02*
G37*
G36*
X340500Y450000D02*
X328000D01*
Y437500D01*
X328063D01*
X330161Y437832D01*
X332182Y438489D01*
X334075Y439454D01*
X335795Y440703D01*
X337297Y442205D01*
X338546Y443925D01*
X339511Y445818D01*
X340168Y447839D01*
X340500Y449937D01*
Y450000D01*
D02*
G37*
G36*
X326000D02*
X313500D01*
Y449937D01*
X313832Y447839D01*
X314489Y445818D01*
X315454Y443925D01*
X316703Y442205D01*
X318205Y440703D01*
X319924Y439454D01*
X321818Y438489D01*
X323839Y437832D01*
X325938Y437500D01*
X326000D01*
Y450000D01*
D02*
G37*
G36*
X131500D02*
X119000D01*
Y437500D01*
X119062D01*
X121161Y437832D01*
X123182Y438489D01*
X125075Y439454D01*
X126795Y440703D01*
X128297Y442205D01*
X129546Y443925D01*
X130511Y445818D01*
X131168Y447839D01*
X131500Y449937D01*
Y450000D01*
D02*
G37*
G36*
X117000D02*
X104500D01*
Y449937D01*
X104832Y447839D01*
X105489Y445818D01*
X106454Y443925D01*
X107703Y442205D01*
X109205Y440703D01*
X110924Y439454D01*
X112818Y438489D01*
X114839Y437832D01*
X116937Y437500D01*
X117000D01*
Y450000D01*
D02*
G37*
G36*
X121772Y432186D02*
Y427528D01*
X126430D01*
X126106Y428737D01*
X125352Y430042D01*
X124286Y431108D01*
X122981Y431862D01*
X121772Y432186D01*
D02*
G37*
G36*
X119772D02*
X118562Y431862D01*
X117257Y431108D01*
X116191Y430042D01*
X115437Y428737D01*
X115113Y427528D01*
X119772D01*
Y432186D01*
D02*
G37*
G36*
X126430Y425528D02*
X121772D01*
Y420869D01*
X122981Y421193D01*
X124286Y421947D01*
X125352Y423013D01*
X126106Y424318D01*
X126430Y425528D01*
D02*
G37*
G36*
X119772D02*
X115113D01*
X115437Y424318D01*
X116191Y423013D01*
X117257Y421947D01*
X118562Y421193D01*
X119772Y420869D01*
Y425528D01*
D02*
G37*
G36*
X327253Y431552D02*
X316204D01*
Y430365D01*
X309528D01*
X308405Y430217D01*
X307359Y429784D01*
X306461Y429094D01*
X288258Y410891D01*
X279497D01*
X279309Y410942D01*
X278140D01*
X277010Y410639D01*
X275997Y410054D01*
X275170Y409227D01*
X274585Y408214D01*
X274283Y407085D01*
Y405915D01*
X274585Y404786D01*
X275170Y403773D01*
X275997Y402946D01*
X277010Y402361D01*
X278140Y402058D01*
X279309D01*
X279902Y402217D01*
X290054D01*
X291177Y402365D01*
X292223Y402798D01*
X293121Y403487D01*
X311324Y421691D01*
X316204D01*
Y420503D01*
X327253D01*
Y431552D01*
D02*
G37*
G36*
X283166Y420942D02*
X274283D01*
Y412058D01*
X283166D01*
Y420942D01*
D02*
G37*
G36*
X162108Y407774D02*
X159500D01*
Y406150D01*
X162108D01*
Y407774D01*
D02*
G37*
G36*
X157500D02*
X154892D01*
Y406150D01*
X157500D01*
Y407774D01*
D02*
G37*
G36*
X246402Y406980D02*
X242465D01*
Y405209D01*
X246402D01*
Y406980D01*
D02*
G37*
G36*
X240465D02*
X236528D01*
Y405209D01*
X240465D01*
Y406980D01*
D02*
G37*
G36*
X179472D02*
X175535D01*
Y405209D01*
X179472D01*
Y406980D01*
D02*
G37*
G36*
X173535D02*
X169598D01*
Y405209D01*
X173535D01*
Y406980D01*
D02*
G37*
G36*
X162108Y404150D02*
X159500D01*
Y402526D01*
X162108D01*
Y404150D01*
D02*
G37*
G36*
X157500D02*
X154892D01*
Y402526D01*
X157500D01*
Y404150D01*
D02*
G37*
G36*
X322456Y411867D02*
X321001D01*
X319596Y411490D01*
X318464Y410837D01*
X312000D01*
X310877Y410689D01*
X309831Y410256D01*
X308933Y409567D01*
X294933Y395567D01*
X294244Y394669D01*
X293811Y393622D01*
X293663Y392500D01*
Y367297D01*
X283258Y356891D01*
X279497D01*
X279309Y356942D01*
X278140D01*
X277010Y356639D01*
X275997Y356054D01*
X275170Y355227D01*
X274585Y354214D01*
X274283Y353085D01*
Y351915D01*
X274585Y350786D01*
X275170Y349773D01*
X275997Y348946D01*
X277010Y348361D01*
X278140Y348058D01*
X279309D01*
X279902Y348217D01*
X285054D01*
X286177Y348365D01*
X287223Y348798D01*
X288121Y349487D01*
X301067Y362433D01*
X301756Y363331D01*
X302189Y364377D01*
X302337Y365500D01*
Y390704D01*
X313796Y402163D01*
X318095D01*
X318336Y401922D01*
X319596Y401195D01*
X321001Y400818D01*
X322456D01*
X323861Y401195D01*
X325120Y401922D01*
X326149Y402950D01*
X326876Y404210D01*
X327253Y405615D01*
Y407070D01*
X326876Y408475D01*
X326149Y409735D01*
X325120Y410763D01*
X323861Y411490D01*
X322456Y411867D01*
D02*
G37*
G36*
X279724Y401038D02*
Y397500D01*
X283262D01*
X283050Y398292D01*
X282439Y399350D01*
X281575Y400214D01*
X280516Y400825D01*
X279724Y401038D01*
D02*
G37*
G36*
X277724D02*
X276933Y400825D01*
X275874Y400214D01*
X275010Y399350D01*
X274399Y398292D01*
X274187Y397500D01*
X277724D01*
Y401038D01*
D02*
G37*
G36*
X283262Y395500D02*
X279724D01*
Y391963D01*
X280516Y392175D01*
X281575Y392786D01*
X282439Y393650D01*
X283050Y394708D01*
X283262Y395500D01*
D02*
G37*
G36*
X277724D02*
X274187D01*
X274399Y394708D01*
X275010Y393650D01*
X275874Y392786D01*
X276933Y392175D01*
X277724Y391963D01*
Y395500D01*
D02*
G37*
G36*
X121772Y392816D02*
Y388158D01*
X126430D01*
X126106Y389367D01*
X125352Y390672D01*
X124286Y391738D01*
X122981Y392492D01*
X121772Y392816D01*
D02*
G37*
G36*
X119772D02*
X118562Y392492D01*
X117257Y391738D01*
X116191Y390672D01*
X115437Y389367D01*
X115113Y388158D01*
X119772D01*
Y392816D01*
D02*
G37*
G36*
X214906Y385524D02*
X212287D01*
Y382906D01*
X214906D01*
Y385524D01*
D02*
G37*
G36*
X195839D02*
X193220D01*
Y382906D01*
X195839D01*
Y385524D01*
D02*
G37*
G36*
X210287D02*
X205063D01*
Y381906D01*
X203063D01*
Y385524D01*
X197839D01*
Y381906D01*
X196839D01*
Y380906D01*
X193220D01*
Y378287D01*
Y375681D01*
X196839D01*
Y373681D01*
X193220D01*
Y371063D01*
Y368457D01*
X196839D01*
Y367457D01*
X197839D01*
Y363839D01*
X203063D01*
Y367457D01*
X205063D01*
Y363839D01*
X210287D01*
Y367457D01*
X211287D01*
Y368457D01*
X214906D01*
Y371063D01*
Y373681D01*
X211287D01*
Y375681D01*
X214906D01*
Y378287D01*
Y380906D01*
X211287D01*
Y381906D01*
X210287D01*
Y385524D01*
D02*
G37*
G36*
X126430Y386157D02*
X121772D01*
Y381499D01*
X122981Y381823D01*
X124286Y382577D01*
X125352Y383643D01*
X126106Y384948D01*
X126430Y386157D01*
D02*
G37*
G36*
X119772D02*
X115113D01*
X115437Y384948D01*
X116191Y383643D01*
X117257Y382577D01*
X118562Y381823D01*
X119772Y381499D01*
Y386157D01*
D02*
G37*
G36*
X121499Y412367D02*
X120044D01*
X118639Y411990D01*
X117380Y411263D01*
X116351Y410235D01*
X115624Y408975D01*
X115247Y407570D01*
Y406115D01*
X115624Y404710D01*
X116351Y403450D01*
X117380Y402422D01*
X118639Y401695D01*
X120044Y401318D01*
X121499D01*
X122904Y401695D01*
X123856Y402244D01*
X140929Y385171D01*
Y361438D01*
X140468Y361246D01*
X133485Y368229D01*
X133137Y368461D01*
X132728Y368543D01*
X126296D01*
Y372997D01*
X115247D01*
Y361948D01*
X126296D01*
Y366402D01*
X132284D01*
X139629Y359057D01*
Y331961D01*
X139711Y331552D01*
X139943Y331205D01*
X145454Y325694D01*
X145262Y325232D01*
X126253D01*
X125920Y326475D01*
X125192Y327735D01*
X124164Y328763D01*
X122904Y329490D01*
X121499Y329867D01*
X120044D01*
X118639Y329490D01*
X117380Y328763D01*
X116351Y327735D01*
X115624Y326475D01*
X115247Y325070D01*
Y323615D01*
X115624Y322210D01*
X116351Y320951D01*
X117380Y319922D01*
X118639Y319195D01*
X120044Y318818D01*
X121499D01*
X122904Y319195D01*
X124164Y319922D01*
X125192Y320951D01*
X125920Y322210D01*
X126156Y323091D01*
X146218D01*
X149088Y320221D01*
X148996Y319606D01*
X136343Y306953D01*
X136111Y306606D01*
X136029Y306196D01*
Y286043D01*
X136029Y286043D01*
X126296D01*
Y290497D01*
X115247D01*
Y279448D01*
X126296D01*
Y283902D01*
X136472D01*
X136829Y283973D01*
X136930Y283951D01*
X137329Y283681D01*
Y280099D01*
X123856Y266626D01*
X122904Y267176D01*
X121499Y267552D01*
X120044D01*
X118639Y267176D01*
X117380Y266448D01*
X116351Y265420D01*
X115624Y264160D01*
X115247Y262755D01*
Y261300D01*
X115624Y259895D01*
X116351Y258635D01*
X117380Y257607D01*
X118639Y256880D01*
X120044Y256503D01*
X121499D01*
X122904Y256880D01*
X124164Y257607D01*
X125192Y258635D01*
X125920Y259895D01*
X126296Y261300D01*
Y262755D01*
X125920Y264160D01*
X125370Y265112D01*
X138168Y277909D01*
X138629Y277718D01*
Y242029D01*
X123856Y227256D01*
X122904Y227805D01*
X121499Y228182D01*
X120044D01*
X118639Y227805D01*
X117380Y227078D01*
X116351Y226049D01*
X115624Y224790D01*
X115247Y223385D01*
Y221930D01*
X115624Y220525D01*
X116351Y219265D01*
X117380Y218237D01*
X118639Y217510D01*
X120044Y217133D01*
X121499D01*
X122904Y217510D01*
X124164Y218237D01*
X125192Y219265D01*
X125920Y220525D01*
X126296Y221930D01*
Y223385D01*
X125920Y224790D01*
X125370Y225742D01*
X139468Y239839D01*
X139929Y239648D01*
Y223644D01*
X124782Y208497D01*
X115247D01*
Y197448D01*
X126296D01*
Y206983D01*
X141757Y222444D01*
X141989Y222791D01*
X142071Y223201D01*
X142071Y223201D01*
Y251456D01*
X142226Y251892D01*
X142571Y251892D01*
X143850D01*
Y255500D01*
Y259108D01*
X142226D01*
X142071Y259544D01*
Y266518D01*
X142154Y266578D01*
X142833Y266456D01*
X142883Y266383D01*
X149569Y259696D01*
Y258908D01*
X148726D01*
Y252092D01*
X153574D01*
Y253484D01*
X154074Y253691D01*
X156920Y250845D01*
Y248280D01*
X152499D01*
X152109Y248203D01*
X151778Y247982D01*
X151557Y247651D01*
X151480Y247261D01*
Y241952D01*
X151557Y241562D01*
X151778Y241231D01*
X152109Y241010D01*
X152499Y240932D01*
X156920D01*
Y224067D01*
X156535Y223990D01*
X156206Y223770D01*
X155986Y223441D01*
X155909Y223053D01*
Y217734D01*
X155986Y217346D01*
X156206Y217017D01*
X156535Y216797D01*
X156923Y216720D01*
X160077D01*
X160465Y216797D01*
X160794Y217017D01*
X161014Y217346D01*
X161091Y217734D01*
Y223053D01*
X161014Y223441D01*
X160794Y223770D01*
X160465Y223990D01*
X160080Y224067D01*
Y240932D01*
X164501D01*
X164891Y241010D01*
X165222Y241231D01*
X165443Y241562D01*
X165520Y241952D01*
Y247261D01*
X165443Y247651D01*
X165222Y247982D01*
X164891Y248203D01*
X164501Y248280D01*
X160080D01*
Y251422D01*
X165358Y256700D01*
X165858D01*
X166520Y256974D01*
X167026Y257480D01*
X167300Y258142D01*
Y258858D01*
X167026Y259520D01*
X166520Y260026D01*
X165858Y260300D01*
X165142D01*
X164480Y260026D01*
X163974Y259520D01*
X163700Y258858D01*
Y258358D01*
X158788Y253447D01*
X155617Y256617D01*
X155105Y256960D01*
X154500Y257080D01*
X153574D01*
Y258908D01*
X152730D01*
Y260350D01*
X152610Y260955D01*
X152267Y261468D01*
X145580Y268155D01*
Y269660D01*
X146080Y269867D01*
X153705Y262243D01*
X154052Y262011D01*
X154462Y261929D01*
X169526D01*
X192429Y239026D01*
Y214782D01*
X185686Y208038D01*
X185186Y208245D01*
Y208335D01*
X184929Y208955D01*
X184455Y209429D01*
X183835Y209686D01*
X183165D01*
X182545Y209429D01*
X182071Y208955D01*
X181814Y208335D01*
Y208257D01*
X177974Y204417D01*
X177512Y204608D01*
Y208277D01*
X181617Y212383D01*
X181960Y212895D01*
X182080Y213500D01*
Y218003D01*
X183768D01*
Y222753D01*
X178232D01*
Y218003D01*
X178920D01*
Y214155D01*
X174814Y210049D01*
X174471Y209536D01*
X174351Y208931D01*
Y200500D01*
Y153586D01*
X172947Y152182D01*
X172604Y151669D01*
X172484Y151064D01*
Y142005D01*
X172604Y141400D01*
X172947Y140887D01*
X173820Y140014D01*
Y108674D01*
X170882D01*
Y108874D01*
X170291D01*
Y108674D01*
X169869D01*
Y106496D01*
Y104318D01*
X170291D01*
Y104118D01*
X170882D01*
Y104318D01*
X180524D01*
Y108674D01*
X180204D01*
Y147690D01*
X180594Y148080D01*
X181234Y148013D01*
X182000Y147247D01*
Y108674D01*
X181680D01*
Y104318D01*
X191323D01*
Y104118D01*
X191913D01*
Y104318D01*
X192336D01*
Y106496D01*
Y108674D01*
X191913D01*
Y108874D01*
X191323D01*
Y108674D01*
X184141D01*
Y147691D01*
X184141Y147691D01*
X184060Y148100D01*
X183828Y148448D01*
X182871Y149405D01*
Y200357D01*
X193072Y210559D01*
X193496Y210275D01*
X193314Y209835D01*
Y209165D01*
X193571Y208545D01*
X194045Y208071D01*
X194665Y207814D01*
X195335D01*
X195955Y208071D01*
X196429Y208545D01*
X196686Y209165D01*
Y209835D01*
X196429Y210455D01*
X196403Y210481D01*
Y211337D01*
X197437Y212371D01*
X197725Y212801D01*
X197826Y213308D01*
Y240500D01*
X197725Y241007D01*
X197437Y241437D01*
X171937Y266937D01*
X171507Y267225D01*
X171000Y267325D01*
X163049D01*
X160826Y269549D01*
Y270098D01*
X161179Y270452D01*
X161716D01*
X161847Y270452D01*
X165153D01*
X165284Y270452D01*
Y270452D01*
X165653D01*
Y270452D01*
X169090D01*
X169221Y270452D01*
Y270452D01*
X169590D01*
Y270452D01*
X170483D01*
X170671Y270171D01*
X171671Y269171D01*
X172051Y268917D01*
X172500Y268828D01*
X176127D01*
X176480Y268474D01*
X177142Y268200D01*
X177858D01*
X178520Y268474D01*
X179026Y268980D01*
X179300Y269642D01*
Y270358D01*
X179026Y271020D01*
X178520Y271526D01*
X177858Y271800D01*
X177142D01*
X176480Y271526D01*
X176127Y271172D01*
X173158D01*
Y279129D01*
X176285D01*
X177671Y277743D01*
X178018Y277511D01*
X178428Y277429D01*
X185187D01*
X185545Y277071D01*
X186165Y276814D01*
X186835D01*
X187455Y277071D01*
X187929Y277545D01*
X188186Y278165D01*
Y278835D01*
X187929Y279455D01*
X187711Y279673D01*
X187501Y280000D01*
X187711Y280327D01*
X187929Y280545D01*
X188186Y281165D01*
Y281835D01*
X187929Y282455D01*
X187455Y282929D01*
X186835Y283186D01*
X186165D01*
X185545Y282929D01*
X185187Y282571D01*
X166858D01*
X166858Y282571D01*
X166449Y282489D01*
X166101Y282257D01*
X163770Y279926D01*
X161847D01*
X161716Y279926D01*
X161347D01*
X161216Y279926D01*
X157779D01*
Y279926D01*
X157410D01*
Y279926D01*
X153842D01*
Y270452D01*
X154555D01*
Y268374D01*
X154637Y267964D01*
X154869Y267617D01*
X155200Y267286D01*
Y266642D01*
X155427Y266094D01*
X155003Y265811D01*
X149021Y271793D01*
Y298430D01*
X153380Y302790D01*
X153842Y302598D01*
Y294074D01*
X157279D01*
X157410Y294074D01*
X157779D01*
X157910Y294074D01*
X159833D01*
X162995Y290912D01*
X162995Y290912D01*
X163342Y290680D01*
X163752Y290599D01*
X188877D01*
Y287991D01*
X190013D01*
X190204Y287529D01*
X187838Y285162D01*
X187605Y284815D01*
X187524Y284405D01*
X187605Y283996D01*
X187838Y283648D01*
X189243Y282243D01*
X189590Y282011D01*
X190000Y281929D01*
X190476D01*
Y279730D01*
X190116Y279658D01*
X189769Y279426D01*
X189769Y279426D01*
X189179Y278836D01*
X188947Y278489D01*
X188865Y278080D01*
Y273064D01*
X188947Y272655D01*
X189179Y272307D01*
X190583Y270903D01*
Y269178D01*
X188377D01*
Y261822D01*
X194930D01*
Y269178D01*
X192724D01*
Y270547D01*
X193140Y270824D01*
X193165Y270814D01*
X193835D01*
X194455Y271071D01*
X194929Y271545D01*
X195186Y272165D01*
Y272835D01*
X194929Y273455D01*
X194455Y273929D01*
X194136Y274061D01*
X194044Y274523D01*
X194044Y274523D01*
Y277082D01*
Y279641D01*
Y282816D01*
X193309D01*
X193249Y283117D01*
X193017Y283464D01*
X192724Y283757D01*
X192377Y283989D01*
X191967Y284071D01*
X190481D01*
X190153Y284451D01*
X192911Y287208D01*
X193143Y287555D01*
X193224Y287965D01*
Y287991D01*
X195430D01*
Y295347D01*
X188877D01*
Y292740D01*
X164195D01*
X163323Y293612D01*
X163514Y294074D01*
X165153D01*
X165284Y294074D01*
X165653D01*
X165784Y294074D01*
X169221D01*
Y294074D01*
X169590D01*
Y294074D01*
X172910D01*
X173327Y293874D01*
X173575Y293874D01*
X174311D01*
Y298811D01*
Y303748D01*
X173327D01*
X172945Y303565D01*
X172707Y303639D01*
X172445Y303902D01*
Y304626D01*
X172363Y305036D01*
X172131Y305383D01*
X167457Y310057D01*
X167110Y310289D01*
X166700Y310371D01*
X156538D01*
X156538Y310371D01*
X156128Y310289D01*
X155781Y310057D01*
X153467Y307743D01*
X152977Y307841D01*
X152929Y307955D01*
X152455Y308429D01*
X151835Y308686D01*
X151165D01*
X150545Y308429D01*
X150071Y307955D01*
X149965Y307700D01*
X142883Y300618D01*
X142833Y300544D01*
X142154Y300422D01*
X142071Y300482D01*
Y304137D01*
X151944Y314010D01*
X189419D01*
X189626Y313510D01*
X189571Y313455D01*
X189314Y312835D01*
Y312165D01*
X189571Y311545D01*
X190045Y311071D01*
X190665Y310814D01*
X191335D01*
X191955Y311071D01*
X192059Y311175D01*
X192637D01*
X192955Y310675D01*
X192814Y310335D01*
Y309665D01*
X193071Y309045D01*
X193545Y308571D01*
X194165Y308314D01*
X194835D01*
X195455Y308571D01*
X195881Y308290D01*
X195955Y308174D01*
X195814Y307835D01*
Y307165D01*
X196071Y306545D01*
X196545Y306071D01*
X197165Y305814D01*
X197311D01*
X208206Y294919D01*
X208109Y294429D01*
X207999Y294384D01*
X207525Y293909D01*
X207269Y293290D01*
Y292619D01*
X207525Y291999D01*
X207509Y291837D01*
X207096Y291578D01*
X206835Y291686D01*
X206165D01*
X205545Y291429D01*
X205071Y290955D01*
X204814Y290335D01*
Y289665D01*
X205071Y289045D01*
X205174Y288941D01*
Y286407D01*
X204675Y286200D01*
X203149Y287726D01*
Y289693D01*
X203123Y289821D01*
Y295347D01*
X196570D01*
Y287991D01*
X200498D01*
Y287177D01*
X200599Y286670D01*
X200886Y286240D01*
X202675Y284451D01*
Y282427D01*
X201986Y281739D01*
X201524Y281930D01*
Y282816D01*
X201524Y282816D01*
X201524D01*
X201539Y283310D01*
X201686Y283665D01*
Y284335D01*
X201429Y284955D01*
X200955Y285429D01*
X200335Y285686D01*
X199665D01*
X199045Y285429D01*
X198571Y284955D01*
X198314Y284335D01*
Y283665D01*
X198459Y283316D01*
X198147Y282816D01*
X197956D01*
Y279641D01*
Y277082D01*
Y274523D01*
X201463D01*
X202929Y273057D01*
Y270999D01*
X201109Y269178D01*
X196070D01*
Y261822D01*
X197483D01*
X197696Y261339D01*
X197482Y261071D01*
X187943D01*
X186257Y262757D01*
X185910Y262989D01*
X185500Y263071D01*
X180944D01*
X178800Y265214D01*
Y265858D01*
X178526Y266520D01*
X178020Y267026D01*
X177358Y267300D01*
X176642D01*
X175980Y267026D01*
X175474Y266520D01*
X175200Y265858D01*
Y265142D01*
X175474Y264480D01*
X175980Y263974D01*
X176642Y263700D01*
X177286D01*
X179743Y261243D01*
X180090Y261011D01*
X180500Y260929D01*
X180500Y260929D01*
X185056D01*
X186743Y259243D01*
X187090Y259011D01*
X187500Y258929D01*
X187500Y258929D01*
X198000D01*
X198410Y259011D01*
X198757Y259243D01*
X200257Y260743D01*
X200489Y261090D01*
X200571Y261500D01*
Y261822D01*
X202623D01*
Y267664D01*
X204675Y269716D01*
X204996Y269641D01*
X205174Y269523D01*
Y231739D01*
X205275Y231232D01*
X205563Y230802D01*
X207251Y229113D01*
Y221338D01*
X207352Y220830D01*
X207640Y220401D01*
X208675Y219366D01*
Y193000D01*
X208775Y192493D01*
X209063Y192063D01*
X219563Y181563D01*
X219993Y181275D01*
X220500Y181175D01*
X245451D01*
X246592Y180033D01*
X246403Y179515D01*
X245816Y179358D01*
X245117Y178954D01*
X244546Y178383D01*
X244142Y177684D01*
X244093Y177500D01*
X247000D01*
Y176500D01*
X248000D01*
Y173593D01*
X248184Y173642D01*
X248883Y174046D01*
X249304Y174466D01*
X249506Y174604D01*
X249957Y174488D01*
X250240Y174206D01*
X250893Y173828D01*
X251623Y173633D01*
X252377D01*
X253107Y173828D01*
X253633Y174132D01*
X254133Y173933D01*
Y173633D01*
X259867D01*
Y175429D01*
X264500D01*
X264910Y175511D01*
X265257Y175743D01*
X265943Y176429D01*
X268822D01*
Y175584D01*
X265743Y172505D01*
X265511Y172158D01*
X265429Y171748D01*
Y163500D01*
X265511Y163090D01*
X265743Y162743D01*
X269243Y159243D01*
X269590Y159011D01*
X270000Y158929D01*
X270000Y158929D01*
X276057D01*
X276429Y158557D01*
Y157688D01*
X276055Y157438D01*
X275611Y156774D01*
X275456Y155992D01*
Y150805D01*
X275611Y150023D01*
X276055Y149360D01*
X276718Y148916D01*
X277500Y148761D01*
X278282Y148916D01*
X278945Y149360D01*
X279389Y150023D01*
X279544Y150805D01*
Y155992D01*
X279389Y156774D01*
X278945Y157438D01*
X278571Y157688D01*
Y159000D01*
X278489Y159410D01*
X278257Y159757D01*
X278257Y159757D01*
X277821Y160193D01*
X278013Y160654D01*
X279332D01*
X281429Y158556D01*
Y157688D01*
X281054Y157438D01*
X280611Y156774D01*
X280456Y155992D01*
Y150805D01*
X280611Y150023D01*
X281054Y149360D01*
X281718Y148916D01*
X282500Y148761D01*
X283282Y148916D01*
X283945Y149360D01*
X284389Y150023D01*
X284544Y150805D01*
Y152328D01*
X285456D01*
Y150805D01*
X285611Y150023D01*
X286054Y149360D01*
X286718Y148916D01*
X287500Y148761D01*
X288282Y148916D01*
X288946Y149360D01*
X289389Y150023D01*
X289544Y150805D01*
Y152328D01*
X290495D01*
Y148800D01*
X294505D01*
Y157997D01*
X290495D01*
Y154469D01*
X289544D01*
Y155992D01*
X289389Y156774D01*
X288946Y157438D01*
X288282Y157881D01*
X287500Y158036D01*
X286718Y157881D01*
X286054Y157438D01*
X285611Y156774D01*
X285456Y155992D01*
Y154469D01*
X284544D01*
Y155992D01*
X284389Y156774D01*
X283945Y157438D01*
X283571Y157688D01*
Y159000D01*
X283489Y159410D01*
X283257Y159757D01*
X280532Y162482D01*
X280185Y162714D01*
X279775Y162796D01*
X274218D01*
X273571Y163444D01*
Y166377D01*
X276178D01*
Y168328D01*
X280654D01*
X281161Y168429D01*
X281591Y168716D01*
X283189Y170314D01*
X283335D01*
X283955Y170571D01*
X284429Y171045D01*
X284686Y171665D01*
Y172335D01*
X284429Y172955D01*
X283955Y173429D01*
X283335Y173686D01*
X282665D01*
X282045Y173429D01*
X281571Y172955D01*
X281314Y172335D01*
Y172189D01*
X280104Y170979D01*
X276178D01*
Y172930D01*
X269849D01*
X269658Y173392D01*
X270336Y174070D01*
X276178D01*
Y180623D01*
X268822D01*
Y178571D01*
X265500D01*
X265090Y178489D01*
X264743Y178257D01*
X264743Y178257D01*
X264057Y177571D01*
X259867D01*
Y179367D01*
X254133D01*
Y179067D01*
X253633Y178868D01*
X253107Y179172D01*
X252377Y179367D01*
X251623D01*
X251137Y179237D01*
X246937Y183437D01*
X246507Y183725D01*
X246000Y183826D01*
X221049D01*
X211326Y193549D01*
Y203215D01*
X211825Y203445D01*
X212078Y203275D01*
X212586Y203174D01*
X213455D01*
X213706Y202740D01*
X213988Y202457D01*
X214104Y202006D01*
X213966Y201803D01*
X213546Y201383D01*
X213142Y200684D01*
X213093Y200500D01*
X216000D01*
X218907D01*
X218858Y200684D01*
X218454Y201383D01*
X218034Y201803D01*
X217896Y202006D01*
X218012Y202457D01*
X218294Y202740D01*
X218671Y203393D01*
X218867Y204123D01*
Y204877D01*
X218671Y205607D01*
X218368Y206133D01*
X218567Y206633D01*
X218867D01*
Y208429D01*
X221557D01*
X228429Y201556D01*
Y200500D01*
X228511Y200090D01*
X228743Y199743D01*
X232021Y196465D01*
X232021Y196465D01*
X232368Y196233D01*
X232646Y196178D01*
X233062Y195554D01*
X233726Y195111D01*
X234508Y194956D01*
X239695D01*
X240477Y195111D01*
X241140Y195554D01*
X241584Y196218D01*
X241739Y197000D01*
X241584Y197782D01*
X241140Y198445D01*
X240477Y198889D01*
X239695Y199044D01*
X234508D01*
X233726Y198889D01*
X233066Y198448D01*
X230571Y200943D01*
Y202000D01*
X230489Y202410D01*
X230257Y202757D01*
X222757Y210257D01*
X222410Y210489D01*
X222000Y210571D01*
X218867D01*
Y212367D01*
X217071D01*
Y215000D01*
X217071Y215000D01*
X216989Y215410D01*
X216757Y215757D01*
X215071Y217443D01*
Y221822D01*
X217430D01*
Y229178D01*
X211702D01*
Y233156D01*
X212164Y233347D01*
X213449Y232063D01*
X213879Y231775D01*
X214386Y231675D01*
X231451D01*
X235338Y227787D01*
X235768Y227500D01*
X236276Y227399D01*
X252558D01*
Y224283D01*
X261442D01*
Y233166D01*
X252558D01*
Y230050D01*
X236825D01*
X232937Y233937D01*
X232507Y234225D01*
X232000Y234326D01*
X214935D01*
X213502Y235758D01*
Y249051D01*
X213964Y249243D01*
X217862Y245345D01*
X218292Y245058D01*
X218799Y244957D01*
X228680D01*
X229187Y245058D01*
X229618Y245345D01*
X230379Y246107D01*
X230666Y246537D01*
X230767Y247044D01*
Y247969D01*
X231267Y248176D01*
X231773Y247670D01*
X231941Y247573D01*
X232318Y247196D01*
X232369Y246812D01*
X232802Y245766D01*
X233491Y244868D01*
X239084Y239276D01*
X239982Y238586D01*
X241028Y238153D01*
X242151Y238005D01*
X318253D01*
X318336Y237922D01*
X319596Y237195D01*
X321001Y236818D01*
X322456D01*
X323861Y237195D01*
X325120Y237922D01*
X326149Y238950D01*
X326876Y240210D01*
X327253Y241615D01*
Y243070D01*
X326876Y244475D01*
X326149Y245735D01*
X325120Y246763D01*
X323861Y247491D01*
X322456Y247867D01*
X321001D01*
X319596Y247491D01*
X318336Y246763D01*
X318253Y246680D01*
X246912D01*
X246778Y247180D01*
X247350Y247510D01*
X248214Y248374D01*
X248825Y249433D01*
X249038Y250224D01*
X244500D01*
Y251224D01*
X243500D01*
Y255762D01*
X242708Y255550D01*
X241650Y254939D01*
X240786Y254075D01*
X240175Y253016D01*
X240015Y252421D01*
X239469Y252313D01*
X238361Y253420D01*
X238054Y253952D01*
X237227Y254779D01*
X236214Y255363D01*
X235085Y255666D01*
X233915D01*
X232786Y255363D01*
X231773Y254779D01*
X231267Y254273D01*
X230767Y254480D01*
Y258815D01*
X230666Y259322D01*
X230379Y259752D01*
X223459Y266673D01*
Y273560D01*
X223958Y273849D01*
X224316Y273642D01*
X224500Y273593D01*
Y276500D01*
X225500D01*
Y277500D01*
X228407D01*
X228358Y277684D01*
X227954Y278383D01*
X227534Y278803D01*
X227396Y279006D01*
X227512Y279457D01*
X227794Y279740D01*
X228171Y280393D01*
X228367Y281123D01*
Y281877D01*
X228171Y282607D01*
X227868Y283133D01*
X228067Y283633D01*
X228367D01*
Y285174D01*
X238151D01*
X240374Y282951D01*
Y272254D01*
X240475Y271747D01*
X240763Y271317D01*
X248617Y263463D01*
X249047Y263175D01*
X249554Y263074D01*
X290234D01*
X290741Y263175D01*
X291171Y263463D01*
X311355Y283647D01*
X316364D01*
X316580Y282840D01*
X317308Y281580D01*
X318336Y280552D01*
X319596Y279824D01*
X321001Y279448D01*
X322456D01*
X323861Y279824D01*
X325120Y280552D01*
X326149Y281580D01*
X326876Y282840D01*
X327253Y284245D01*
Y285700D01*
X326876Y287105D01*
X326149Y288365D01*
X325120Y289393D01*
X323861Y290120D01*
X322456Y290497D01*
X321001D01*
X319596Y290120D01*
X318336Y289393D01*
X317308Y288365D01*
X316580Y287105D01*
X316364Y286298D01*
X310806D01*
X310299Y286197D01*
X309869Y285910D01*
X306087Y282128D01*
X305626Y282319D01*
Y294451D01*
X314507Y303332D01*
X316364D01*
X316580Y302525D01*
X317308Y301265D01*
X318336Y300237D01*
X319596Y299510D01*
X321001Y299133D01*
X322456D01*
X323861Y299510D01*
X325120Y300237D01*
X326149Y301265D01*
X326876Y302525D01*
X327253Y303930D01*
Y305385D01*
X326876Y306790D01*
X326149Y308050D01*
X325120Y309078D01*
X323861Y309805D01*
X322456Y310182D01*
X321001D01*
X319596Y309805D01*
X318336Y309078D01*
X317308Y308050D01*
X316580Y306790D01*
X316364Y305983D01*
X313958D01*
X313450Y305882D01*
X313020Y305595D01*
X304299Y296873D01*
X303837Y297065D01*
Y310703D01*
X312670Y319537D01*
X319003D01*
X319596Y319195D01*
X321001Y318818D01*
X322456D01*
X323861Y319195D01*
X325120Y319922D01*
X326149Y320951D01*
X326876Y322210D01*
X327253Y323615D01*
Y325070D01*
X326876Y326475D01*
X326149Y327735D01*
X325120Y328763D01*
X323861Y329490D01*
X322456Y329867D01*
X321001D01*
X319596Y329490D01*
X318336Y328763D01*
X317784Y328211D01*
X310874D01*
X309751Y328063D01*
X308705Y327630D01*
X307807Y326941D01*
X296537Y315671D01*
X296037Y315818D01*
Y332154D01*
X310567Y346683D01*
X311256Y347581D01*
X311689Y348627D01*
X311837Y349750D01*
Y380603D01*
X313397Y382163D01*
X318464D01*
X319596Y381509D01*
X321001Y381133D01*
X322456D01*
X323861Y381509D01*
X325120Y382237D01*
X326149Y383265D01*
X326876Y384525D01*
X327253Y385930D01*
Y387385D01*
X326876Y388790D01*
X326149Y390050D01*
X325120Y391078D01*
X323861Y391805D01*
X322456Y392182D01*
X321001D01*
X319596Y391805D01*
X318336Y391078D01*
X318095Y390837D01*
X311600D01*
X310478Y390689D01*
X309432Y390256D01*
X308534Y389567D01*
X304433Y385466D01*
X303744Y384568D01*
X303311Y383522D01*
X303163Y382400D01*
Y351547D01*
X288633Y337017D01*
X287944Y336119D01*
X287511Y335072D01*
X287363Y333950D01*
Y310297D01*
X284942Y307875D01*
X284442Y307970D01*
Y314442D01*
X281071D01*
Y316000D01*
X280989Y316410D01*
X280757Y316757D01*
X268571Y328943D01*
Y351186D01*
X268929Y351545D01*
X269186Y352165D01*
Y352835D01*
X268929Y353455D01*
X268455Y353929D01*
X267835Y354186D01*
X267165D01*
X266545Y353929D01*
X266071Y353455D01*
X265814Y352835D01*
Y352165D01*
X266071Y351545D01*
X266429Y351186D01*
Y328500D01*
X266511Y328090D01*
X266743Y327743D01*
X278929Y315557D01*
Y314442D01*
X275558D01*
Y305558D01*
X282136D01*
X282327Y305096D01*
X281622Y304391D01*
X280773D01*
X280585Y304442D01*
X279415D01*
X278286Y304139D01*
X277273Y303554D01*
X276446Y302727D01*
X275861Y301714D01*
X275558Y300585D01*
Y299415D01*
X275861Y298286D01*
X276446Y297273D01*
X277273Y296446D01*
X278286Y295861D01*
X279415Y295558D01*
X280585D01*
X281178Y295717D01*
X283419D01*
X284541Y295865D01*
X285587Y296298D01*
X286486Y296987D01*
X291008Y301510D01*
X291551Y302218D01*
X294663Y305329D01*
X295163Y305182D01*
Y284797D01*
X285703Y275337D01*
X278296D01*
X274837Y278797D01*
Y283000D01*
X274689Y284122D01*
X274256Y285169D01*
X273567Y286067D01*
X262621Y297013D01*
X261723Y297702D01*
X260677Y298135D01*
X259554Y298283D01*
X253678D01*
X253085Y298442D01*
X251915D01*
X250786Y298139D01*
X249773Y297554D01*
X248946Y296727D01*
X248361Y295714D01*
X248058Y294585D01*
Y293415D01*
X248361Y292286D01*
X248946Y291273D01*
X249773Y290446D01*
X250786Y289861D01*
X251915Y289558D01*
X253085D01*
X253273Y289609D01*
X257758D01*
X266163Y281204D01*
Y277000D01*
X266311Y275877D01*
X266744Y274831D01*
X267433Y273933D01*
X273341Y268025D01*
X273211Y267526D01*
X250849D01*
X244826Y273549D01*
Y303000D01*
X244725Y303507D01*
X244437Y303937D01*
X236437Y311937D01*
X236007Y312225D01*
X235500Y312326D01*
X228367D01*
Y313867D01*
X222633D01*
Y308133D01*
X222781D01*
X223003Y307662D01*
X222787Y307326D01*
X210765D01*
X204653Y313437D01*
X204544Y313510D01*
X204696Y314010D01*
X207518D01*
X209285Y312243D01*
X209633Y312011D01*
X210042Y311929D01*
X211672D01*
X212031Y311571D01*
X212650Y311314D01*
X213321D01*
X213941Y311571D01*
X214415Y312045D01*
X214672Y312665D01*
Y313335D01*
X214415Y313955D01*
X213941Y314429D01*
X213321Y314686D01*
X212650D01*
X212031Y314429D01*
X211672Y314071D01*
X210486D01*
X209708Y314848D01*
X209899Y315310D01*
X247554D01*
X247964Y315392D01*
X248311Y315624D01*
X260857Y328170D01*
X261089Y328517D01*
X261171Y328927D01*
X261171Y328927D01*
Y338557D01*
X263554Y340940D01*
X263910Y341011D01*
X264257Y341243D01*
X264489Y341590D01*
X264571Y342000D01*
Y342687D01*
X264929Y343045D01*
X265186Y343665D01*
Y344335D01*
X264929Y344955D01*
X264455Y345429D01*
X263835Y345686D01*
X263165D01*
X262545Y345429D01*
X262071Y344955D01*
X261814Y344335D01*
Y343665D01*
X262071Y343045D01*
X261997Y342411D01*
X260332Y340746D01*
X259871Y340938D01*
Y354557D01*
X260757Y355443D01*
X260757Y355443D01*
X260989Y355790D01*
X261071Y356200D01*
X261071Y356200D01*
Y358187D01*
X261429Y358545D01*
X261686Y359165D01*
Y359835D01*
X261429Y360455D01*
X260955Y360929D01*
X260335Y361186D01*
X259665D01*
X259045Y360929D01*
X258571Y361162D01*
Y393500D01*
X258489Y393910D01*
X258257Y394257D01*
X258257Y394257D01*
X252548Y399966D01*
X252201Y400198D01*
X251791Y400279D01*
X246202D01*
Y401437D01*
X246402D01*
Y403209D01*
X236528D01*
Y401437D01*
X236728D01*
Y396637D01*
Y391637D01*
Y390279D01*
X231209D01*
X230799Y390198D01*
X230452Y389966D01*
X222743Y382257D01*
X222511Y381910D01*
X222429Y381500D01*
Y369443D01*
X215557Y362571D01*
X192500D01*
X192090Y362489D01*
X191743Y362257D01*
X187379Y357893D01*
X187147Y357545D01*
X187065Y357136D01*
Y356938D01*
X187045Y356929D01*
X186571Y356455D01*
X186314Y355835D01*
Y355165D01*
X186571Y354545D01*
X187045Y354071D01*
X187665Y353814D01*
X188335D01*
X188955Y354071D01*
X189429Y354545D01*
X189686Y355165D01*
Y355835D01*
X189429Y356455D01*
X189550Y357036D01*
X190314Y357800D01*
X190814Y357593D01*
Y357165D01*
X191071Y356545D01*
X191545Y356071D01*
X192165Y355814D01*
X192835D01*
X193455Y356071D01*
X193929Y356545D01*
X194186Y357165D01*
Y357372D01*
X195943Y359129D01*
X216539D01*
X216948Y359211D01*
X217296Y359443D01*
X225557Y367705D01*
X225557Y367705D01*
X225789Y368052D01*
X225871Y368461D01*
Y380518D01*
X228363Y383010D01*
X236728D01*
Y381637D01*
Y376637D01*
Y371637D01*
Y366637D01*
Y365325D01*
X230059D01*
X229955Y365429D01*
X229335Y365686D01*
X228665D01*
X228045Y365429D01*
X227571Y364955D01*
X227314Y364335D01*
Y363665D01*
X227571Y363045D01*
X228045Y362571D01*
X228665Y362314D01*
X229335D01*
X229955Y362571D01*
X230059Y362674D01*
X236728D01*
Y356637D01*
Y351637D01*
Y346637D01*
Y341637D01*
Y340297D01*
X236228Y340286D01*
X235571Y340943D01*
Y342500D01*
X235571Y342500D01*
X235489Y342910D01*
X235257Y343257D01*
X235257Y343257D01*
X225257Y353257D01*
X224910Y353489D01*
X224500Y353571D01*
X193314D01*
X192955Y353929D01*
X192335Y354186D01*
X191665D01*
X191045Y353929D01*
X190571Y353455D01*
X190314Y352835D01*
Y352165D01*
X190571Y351545D01*
X191045Y351071D01*
X191665Y350814D01*
X192335D01*
X192955Y351071D01*
X193314Y351429D01*
X224057D01*
X233429Y342057D01*
Y340500D01*
X233482Y340237D01*
X233450Y340210D01*
X233417Y340185D01*
X233017Y340009D01*
X232611Y340009D01*
X232611Y340009D01*
X232610Y340009D01*
X226571D01*
Y342057D01*
X227328Y342814D01*
X227835D01*
X228455Y343071D01*
X228929Y343545D01*
X229186Y344165D01*
Y344835D01*
X228929Y345455D01*
X228455Y345929D01*
X227835Y346186D01*
X227165D01*
X226545Y345929D01*
X226071Y345455D01*
X225814Y344835D01*
Y344328D01*
X224743Y343257D01*
X224511Y342910D01*
X224429Y342500D01*
Y340009D01*
X204895D01*
X204846Y340509D01*
X205253Y340590D01*
X205683Y340877D01*
X207980Y343175D01*
X217441D01*
X217545Y343071D01*
X218165Y342814D01*
X218835D01*
X219455Y343071D01*
X219929Y343545D01*
X220186Y344165D01*
Y344835D01*
X219929Y345455D01*
X219455Y345929D01*
X218835Y346186D01*
X218165D01*
X217545Y345929D01*
X217441Y345826D01*
X207431D01*
X206924Y345725D01*
X206494Y345437D01*
X204197Y343140D01*
X198918D01*
X198641Y343555D01*
X198686Y343665D01*
Y344335D01*
X198429Y344955D01*
X197955Y345429D01*
X197335Y345686D01*
X196665D01*
X196045Y345429D01*
X195941Y345325D01*
X179272D01*
Y347674D01*
X186941D01*
X187045Y347571D01*
X187665Y347314D01*
X188335D01*
X188955Y347571D01*
X189429Y348045D01*
X189686Y348665D01*
Y349335D01*
X189429Y349955D01*
X188955Y350429D01*
X188335Y350686D01*
X187665D01*
X187045Y350429D01*
X186941Y350325D01*
X179272D01*
Y351637D01*
Y356637D01*
Y361637D01*
Y366637D01*
Y372674D01*
X186941D01*
X187045Y372571D01*
X187665Y372314D01*
X188335D01*
X188955Y372571D01*
X189429Y373045D01*
X189686Y373665D01*
Y374335D01*
X189429Y374955D01*
X188955Y375429D01*
X188335Y375686D01*
X187665D01*
X187045Y375429D01*
X186941Y375325D01*
X179272D01*
Y377675D01*
X187441D01*
X187545Y377571D01*
X188165Y377314D01*
X188835D01*
X189455Y377571D01*
X189929Y378045D01*
X190186Y378665D01*
Y379335D01*
X189929Y379955D01*
X189455Y380429D01*
X188835Y380686D01*
X188165D01*
X187545Y380429D01*
X187441Y380326D01*
X179272D01*
Y381637D01*
Y386637D01*
Y391637D01*
Y392929D01*
X182186D01*
X182545Y392571D01*
X183165Y392314D01*
X183835D01*
X184455Y392571D01*
X184929Y393045D01*
X185186Y393665D01*
Y394335D01*
X184929Y394955D01*
X184455Y395429D01*
X183835Y395686D01*
X183165D01*
X182545Y395429D01*
X182186Y395071D01*
X179272D01*
Y396637D01*
Y401437D01*
X179472D01*
Y403209D01*
X169598D01*
Y401437D01*
X169798D01*
Y400610D01*
X161908D01*
Y401274D01*
X155092D01*
Y396426D01*
X156920D01*
Y338655D01*
X150800Y332535D01*
X150545Y332429D01*
X150071Y331955D01*
X149814Y331335D01*
Y330665D01*
X150071Y330045D01*
X150545Y329571D01*
X151165Y329314D01*
X151835D01*
X152455Y329571D01*
X152929Y330045D01*
X153035Y330300D01*
X159617Y336882D01*
X159960Y337395D01*
X160080Y338000D01*
Y396426D01*
X161908D01*
Y397449D01*
X169798D01*
Y391637D01*
Y386637D01*
Y381637D01*
Y376637D01*
Y371637D01*
Y366637D01*
Y361637D01*
Y356637D01*
Y351637D01*
Y346637D01*
Y341637D01*
Y336637D01*
X179272D01*
Y337883D01*
X181509D01*
X182016Y337984D01*
X182228Y338126D01*
X182728Y337863D01*
Y336272D01*
X185500D01*
Y335272D01*
X186500D01*
Y330335D01*
X188272D01*
Y330535D01*
X189174D01*
Y327559D01*
X189071Y327455D01*
X188814Y326835D01*
Y326165D01*
X189071Y325545D01*
X189545Y325071D01*
X190165Y324814D01*
X190835D01*
X191455Y325071D01*
X191929Y325545D01*
X192186Y326165D01*
Y326835D01*
X191929Y327455D01*
X191825Y327559D01*
Y330535D01*
X229429D01*
Y328313D01*
X229071Y327955D01*
X228814Y327335D01*
Y326665D01*
X229071Y326045D01*
X229545Y325571D01*
X230165Y325314D01*
X230835D01*
X231455Y325571D01*
X231929Y326045D01*
X232186Y326665D01*
Y327335D01*
X231929Y327955D01*
X231571Y328313D01*
Y330535D01*
X233072D01*
Y339531D01*
X233072Y339548D01*
X233072Y339548D01*
X233072Y339848D01*
X233171Y339945D01*
X233561Y339998D01*
X233699Y339808D01*
X233572Y339999D01*
X233572D01*
X233743Y339743D01*
X235034Y338452D01*
X235382Y338220D01*
X235791Y338138D01*
X236728D01*
Y336637D01*
X246202D01*
Y341637D01*
Y342929D01*
X247687D01*
X248045Y342571D01*
X248665Y342314D01*
X249335D01*
X249955Y342571D01*
X250429Y343045D01*
X250686Y343665D01*
Y344335D01*
X250429Y344955D01*
X249955Y345429D01*
X249335Y345686D01*
X248665D01*
X248045Y345429D01*
X247687Y345071D01*
X246202D01*
Y347929D01*
X247687D01*
X248045Y347571D01*
X248665Y347314D01*
X249335D01*
X249955Y347571D01*
X250429Y348045D01*
X250686Y348665D01*
Y349335D01*
X250429Y349955D01*
X249955Y350429D01*
X249335Y350686D01*
X248665D01*
X248045Y350429D01*
X247687Y350071D01*
X246202D01*
Y352929D01*
X247687D01*
X248045Y352571D01*
X248665Y352314D01*
X249335D01*
X249955Y352571D01*
X250429Y353045D01*
X250686Y353665D01*
Y354335D01*
X250429Y354955D01*
X249955Y355429D01*
X249335Y355686D01*
X248665D01*
X248045Y355429D01*
X247687Y355071D01*
X246202D01*
Y358429D01*
X247687D01*
X248045Y358071D01*
X248665Y357814D01*
X249335D01*
X249955Y358071D01*
X250429Y358545D01*
X250686Y359165D01*
Y359835D01*
X250429Y360455D01*
X249955Y360929D01*
X249335Y361186D01*
X248665D01*
X248045Y360929D01*
X247687Y360571D01*
X246202D01*
Y366637D01*
Y368138D01*
X250829D01*
X252410Y366557D01*
Y331943D01*
X244537Y324071D01*
X151944D01*
X143071Y332943D01*
Y385614D01*
X142989Y386024D01*
X142757Y386371D01*
X125370Y403758D01*
X125920Y404710D01*
X126296Y406115D01*
Y407570D01*
X125920Y408975D01*
X125192Y410235D01*
X124164Y411263D01*
X122904Y411990D01*
X121499Y412367D01*
D02*
G37*
G36*
X214906Y366457D02*
X212287D01*
Y363839D01*
X214906D01*
Y366457D01*
D02*
G37*
G36*
X195839D02*
X193220D01*
Y363839D01*
X195839D01*
Y366457D01*
D02*
G37*
G36*
X283166Y366942D02*
X274283D01*
Y363937D01*
X274000Y363571D01*
X273590Y363489D01*
X273243Y363257D01*
X270672Y360686D01*
X270165D01*
X269545Y360429D01*
X269071Y359955D01*
X268814Y359335D01*
Y358665D01*
X269071Y358045D01*
X269545Y357571D01*
X270165Y357314D01*
X270835D01*
X271455Y357571D01*
X271929Y358045D01*
X272186Y358665D01*
Y359172D01*
X273821Y360807D01*
X274283Y360615D01*
Y358058D01*
X283166D01*
Y366942D01*
D02*
G37*
G36*
X121772Y349686D02*
Y345028D01*
X126430D01*
X126106Y346237D01*
X125352Y347542D01*
X124286Y348608D01*
X122981Y349362D01*
X121772Y349686D01*
D02*
G37*
G36*
X119772D02*
X118562Y349362D01*
X117257Y348608D01*
X116191Y347542D01*
X115437Y346237D01*
X115113Y345028D01*
X119772D01*
Y349686D01*
D02*
G37*
G36*
X327028Y372800D02*
X321728D01*
X320591Y372689D01*
X319498Y372357D01*
X318491Y371818D01*
X317607Y371094D01*
X316882Y370210D01*
X316344Y369203D01*
X316012Y368109D01*
X315900Y366972D01*
X316012Y365835D01*
X316344Y364742D01*
X316882Y363735D01*
X317607Y362851D01*
X318491Y362127D01*
X319498Y361588D01*
X320591Y361256D01*
X321728Y361144D01*
X324613D01*
X329672Y356086D01*
Y344979D01*
X329210Y344788D01*
X327253Y346745D01*
Y349552D01*
X323497D01*
X322865Y349744D01*
X321728Y349856D01*
X320591Y349744D01*
X319959Y349552D01*
X316204D01*
Y345796D01*
X316012Y345165D01*
X315900Y344028D01*
X316012Y342891D01*
X316204Y342259D01*
Y338503D01*
X319011D01*
X329672Y327842D01*
Y262979D01*
X329210Y262788D01*
X327253Y264745D01*
Y267552D01*
X323497D01*
X322865Y267744D01*
X321728Y267856D01*
X320591Y267744D01*
X319959Y267552D01*
X316204D01*
Y263796D01*
X316012Y263165D01*
X315900Y262028D01*
X316012Y260891D01*
X316204Y260259D01*
Y256503D01*
X319011D01*
X329672Y245842D01*
Y223609D01*
X329210Y223418D01*
X325849Y226779D01*
X324966Y227503D01*
X323959Y228042D01*
X322865Y228374D01*
X321728Y228485D01*
X320591Y228374D01*
X319498Y228042D01*
X318491Y227503D01*
X317607Y226779D01*
X316882Y225895D01*
X316344Y224888D01*
X316012Y223795D01*
X315900Y222657D01*
X316012Y221520D01*
X316344Y220427D01*
X316882Y219420D01*
X317607Y218536D01*
X329672Y206472D01*
Y118414D01*
X325086Y113828D01*
X282015D01*
X264065Y131779D01*
X263182Y132503D01*
X262174Y133042D01*
X261081Y133374D01*
X259944Y133485D01*
X241414D01*
X210279Y164621D01*
X209395Y165346D01*
X208388Y165884D01*
X207295Y166216D01*
X206157Y166328D01*
X202328D01*
Y182607D01*
X202558Y183162D01*
X202800Y184379D01*
Y185620D01*
X202558Y186838D01*
X202083Y187984D01*
X201394Y189016D01*
X200516Y189893D01*
X199484Y190583D01*
X198338Y191058D01*
X197120Y191300D01*
X195879D01*
X194662Y191058D01*
X193516Y190583D01*
X192484Y189893D01*
X191606Y189016D01*
X190917Y187984D01*
X190442Y186838D01*
X190200Y185620D01*
Y184379D01*
X190442Y183162D01*
X190672Y182607D01*
Y161000D01*
X190784Y159863D01*
X191116Y158770D01*
X191654Y157762D01*
X192379Y156879D01*
X192879Y156379D01*
X193100Y156197D01*
X193303Y155995D01*
X193541Y155836D01*
X193762Y155654D01*
X194015Y155519D01*
X194253Y155360D01*
X194517Y155251D01*
X194770Y155116D01*
X195044Y155033D01*
X195308Y154923D01*
X195589Y154867D01*
X195863Y154784D01*
X196148Y154756D01*
X196429Y154700D01*
X196715D01*
X197000Y154672D01*
X203743D01*
X234879Y123536D01*
X235762Y122812D01*
X236770Y122273D01*
X237863Y121941D01*
X239000Y121829D01*
X257530D01*
X275480Y103879D01*
X276363Y103154D01*
X277371Y102616D01*
X278464Y102284D01*
X279601Y102172D01*
X323290D01*
X323369Y101672D01*
X321589Y101094D01*
X319696Y100129D01*
X317977Y98880D01*
X316474Y97377D01*
X315225Y95658D01*
X314261Y93765D01*
X313604Y91744D01*
X313272Y89645D01*
Y89583D01*
X340272D01*
Y89645D01*
X339939Y91744D01*
X339283Y93765D01*
X338318Y95658D01*
X337069Y97377D01*
X335566Y98880D01*
X333847Y100129D01*
X331954Y101094D01*
X329933Y101750D01*
X329057Y101889D01*
X329022Y102401D01*
X329730Y102616D01*
X330738Y103154D01*
X331621Y103879D01*
X339621Y111879D01*
X340346Y112762D01*
X340884Y113770D01*
X341216Y114863D01*
X341328Y116000D01*
Y208886D01*
Y248256D01*
Y330256D01*
Y358500D01*
X341216Y359637D01*
X340884Y360730D01*
X340346Y361738D01*
X339621Y362621D01*
X331149Y371094D01*
X330265Y371818D01*
X329258Y372357D01*
X328165Y372689D01*
X327028Y372800D01*
D02*
G37*
G36*
X279724Y347038D02*
Y343500D01*
X283262D01*
X283050Y344292D01*
X282439Y345350D01*
X281575Y346214D01*
X280516Y346825D01*
X279724Y347038D01*
D02*
G37*
G36*
X277724D02*
X276933Y346825D01*
X275874Y346214D01*
X275010Y345350D01*
X274399Y344292D01*
X274187Y343500D01*
X277724D01*
Y347038D01*
D02*
G37*
G36*
X126430Y343028D02*
X121772D01*
Y338369D01*
X122981Y338693D01*
X124286Y339447D01*
X125352Y340513D01*
X126106Y341818D01*
X126430Y343028D01*
D02*
G37*
G36*
X119772D02*
X115113D01*
X115437Y341818D01*
X116191Y340513D01*
X117257Y339447D01*
X118562Y338693D01*
X119772Y338369D01*
Y343028D01*
D02*
G37*
G36*
X283262Y341500D02*
X279724D01*
Y337963D01*
X280516Y338175D01*
X281575Y338786D01*
X282439Y339650D01*
X283050Y340708D01*
X283262Y341500D01*
D02*
G37*
G36*
X277724D02*
X274187D01*
X274399Y340708D01*
X275010Y339650D01*
X275874Y338786D01*
X276933Y338175D01*
X277724Y337963D01*
Y341500D01*
D02*
G37*
G36*
X184500Y334272D02*
X182728D01*
Y330335D01*
X184500D01*
Y334272D01*
D02*
G37*
G36*
X121772Y310316D02*
Y305658D01*
X126430D01*
X126106Y306867D01*
X125352Y308172D01*
X124286Y309238D01*
X122981Y309992D01*
X121772Y310316D01*
D02*
G37*
G36*
X119772D02*
X118562Y309992D01*
X117257Y309238D01*
X116191Y308172D01*
X115437Y306867D01*
X115113Y305658D01*
X119772D01*
Y310316D01*
D02*
G37*
G36*
X176311Y303748D02*
Y299811D01*
X177295D01*
Y303748D01*
X176311D01*
D02*
G37*
G36*
X242335Y313686D02*
X241665D01*
X241045Y313429D01*
X240571Y312955D01*
X240314Y312335D01*
Y311665D01*
X240571Y311045D01*
X241045Y310571D01*
X241062Y310564D01*
X241063Y310563D01*
X245421Y306205D01*
X245851Y305917D01*
X246358Y305816D01*
X248058D01*
Y299558D01*
X256942D01*
Y308442D01*
X249486D01*
X249358Y308467D01*
X246907D01*
X243686Y311689D01*
Y312335D01*
X243429Y312955D01*
X242955Y313429D01*
X242335Y313686D01*
D02*
G37*
G36*
X126430Y303658D02*
X121772D01*
Y298999D01*
X122981Y299323D01*
X124286Y300077D01*
X125352Y301143D01*
X126106Y302448D01*
X126430Y303658D01*
D02*
G37*
G36*
X119772D02*
X115113D01*
X115437Y302448D01*
X116191Y301143D01*
X117257Y300077D01*
X118562Y299323D01*
X119772Y298999D01*
Y303658D01*
D02*
G37*
G36*
X177295Y297811D02*
X176311D01*
Y293874D01*
X177295D01*
Y297811D01*
D02*
G37*
G36*
X281000Y294537D02*
Y291000D01*
X284538D01*
X284325Y291792D01*
X283714Y292850D01*
X282850Y293714D01*
X281792Y294325D01*
X281000Y294537D01*
D02*
G37*
G36*
X279000D02*
X278208Y294325D01*
X277150Y293714D01*
X276286Y292850D01*
X275675Y291792D01*
X275463Y291000D01*
X279000D01*
Y294537D01*
D02*
G37*
G36*
X284538Y289000D02*
X281000D01*
Y285462D01*
X281792Y285675D01*
X282850Y286286D01*
X283714Y287150D01*
X284325Y288208D01*
X284538Y289000D01*
D02*
G37*
G36*
X279000D02*
X275463D01*
X275675Y288208D01*
X276286Y287150D01*
X277150Y286286D01*
X278208Y285675D01*
X279000Y285462D01*
Y289000D01*
D02*
G37*
G36*
X253500Y288538D02*
Y285000D01*
X257037D01*
X256825Y285792D01*
X256214Y286850D01*
X255350Y287714D01*
X254292Y288325D01*
X253500Y288538D01*
D02*
G37*
G36*
X251500D02*
X250708Y288325D01*
X249650Y287714D01*
X248786Y286850D01*
X248175Y285792D01*
X247962Y285000D01*
X251500D01*
Y288538D01*
D02*
G37*
G36*
X257037Y283000D02*
X253500D01*
Y279463D01*
X254292Y279675D01*
X255350Y280286D01*
X256214Y281150D01*
X256825Y282208D01*
X257037Y283000D01*
D02*
G37*
G36*
X251500D02*
X247962D01*
X248175Y282208D01*
X248786Y281150D01*
X249650Y280286D01*
X250708Y279675D01*
X251500Y279463D01*
Y283000D01*
D02*
G37*
G36*
X228407Y275500D02*
X226500D01*
Y273593D01*
X226684Y273642D01*
X227383Y274046D01*
X227954Y274617D01*
X228358Y275316D01*
X228407Y275500D01*
D02*
G37*
G36*
X145850Y259108D02*
Y256500D01*
X147474D01*
Y259108D01*
X145850D01*
D02*
G37*
G36*
X245500Y255762D02*
Y252224D01*
X249038D01*
X248825Y253016D01*
X248214Y254075D01*
X247350Y254939D01*
X246292Y255550D01*
X245500Y255762D01*
D02*
G37*
G36*
X147474Y254500D02*
X145850D01*
Y251892D01*
X147474D01*
Y254500D01*
D02*
G37*
G36*
X121772Y248001D02*
Y243342D01*
X126430D01*
X126106Y244552D01*
X125352Y245857D01*
X124286Y246923D01*
X122981Y247677D01*
X121772Y248001D01*
D02*
G37*
G36*
X119772D02*
X118562Y247677D01*
X117257Y246923D01*
X116191Y245857D01*
X115437Y244552D01*
X115113Y243342D01*
X119772D01*
Y248001D01*
D02*
G37*
G36*
X126430Y241342D02*
X121772D01*
Y236684D01*
X122981Y237008D01*
X124286Y237762D01*
X125352Y238828D01*
X126106Y240133D01*
X126430Y241342D01*
D02*
G37*
G36*
X119772D02*
X115113D01*
X115437Y240133D01*
X116191Y238828D01*
X117257Y237762D01*
X118562Y237008D01*
X119772Y236684D01*
Y241342D01*
D02*
G37*
G36*
X189774Y239108D02*
X188150D01*
Y236500D01*
X189774D01*
Y239108D01*
D02*
G37*
G36*
X186150D02*
X184526D01*
Y236500D01*
X186150D01*
Y239108D01*
D02*
G37*
G36*
X189774Y234500D02*
X188150D01*
Y231892D01*
X189774D01*
Y234500D01*
D02*
G37*
G36*
X278000Y233262D02*
Y229724D01*
X281538D01*
X281325Y230516D01*
X280714Y231575D01*
X279850Y232439D01*
X278792Y233050D01*
X278000Y233262D01*
D02*
G37*
G36*
X276000D02*
X275208Y233050D01*
X274150Y232439D01*
X273286Y231575D01*
X272675Y230516D01*
X272463Y229724D01*
X276000D01*
Y233262D01*
D02*
G37*
G36*
Y227724D02*
X272463D01*
X272675Y226933D01*
X273286Y225874D01*
X274150Y225010D01*
X275208Y224399D01*
X276000Y224187D01*
Y227724D01*
D02*
G37*
G36*
X281538D02*
X278000D01*
Y224187D01*
X278792Y224399D01*
X279850Y225010D01*
X280714Y225874D01*
X281325Y226933D01*
X281538Y227724D01*
D02*
G37*
G36*
X183274Y238908D02*
X178426D01*
Y236326D01*
X177500D01*
X176993Y236225D01*
X176563Y235937D01*
X173563Y232937D01*
X173275Y232507D01*
X173175Y232000D01*
Y224049D01*
X170845Y221719D01*
X170146D01*
Y223053D01*
X170069Y223441D01*
X169849Y223770D01*
X169520Y223990D01*
X169132Y224067D01*
X165978D01*
X165590Y223990D01*
X165261Y223770D01*
X165041Y223441D01*
X164964Y223053D01*
Y217734D01*
X165041Y217346D01*
X165261Y217017D01*
X165590Y216797D01*
X165978Y216720D01*
X169132D01*
X169520Y216797D01*
X169849Y217017D01*
X170069Y217346D01*
X170146Y217734D01*
Y219068D01*
X171394D01*
X171901Y219169D01*
X172331Y219456D01*
X175437Y222563D01*
X175725Y222993D01*
X175826Y223500D01*
Y231451D01*
X177926Y233552D01*
X178426Y233378D01*
Y232092D01*
X179674D01*
Y228658D01*
X178232D01*
Y223909D01*
X183768D01*
Y227992D01*
X184268Y228200D01*
X185731Y226736D01*
Y223861D01*
X191269D01*
Y228611D01*
X187606D01*
X184825Y231392D01*
X185032Y231892D01*
X186150D01*
Y234500D01*
X184526D01*
Y232314D01*
X184033Y232042D01*
X183526Y232142D01*
X183274D01*
Y238908D01*
D02*
G37*
G36*
X151022Y224271D02*
X150445D01*
Y221394D01*
X152240D01*
Y223053D01*
X152147Y223519D01*
X151883Y223915D01*
X151488Y224179D01*
X151022Y224271D01*
D02*
G37*
G36*
X148445D02*
X147868D01*
X147402Y224179D01*
X147007Y223915D01*
X146743Y223519D01*
X146650Y223053D01*
Y221394D01*
X148445D01*
Y224271D01*
D02*
G37*
G36*
X152240Y219394D02*
X150445D01*
Y216516D01*
X151022D01*
X151488Y216609D01*
X151883Y216873D01*
X152147Y217268D01*
X152240Y217734D01*
Y219394D01*
D02*
G37*
G36*
X148445D02*
X146650D01*
Y217734D01*
X146743Y217268D01*
X147007Y216873D01*
X147402Y216609D01*
X147868Y216516D01*
X148445D01*
Y219394D01*
D02*
G37*
G36*
X191269Y222706D02*
X185731D01*
Y217956D01*
X187174D01*
Y215258D01*
X186559Y214642D01*
X186045Y214429D01*
X185571Y213955D01*
X185314Y213335D01*
Y212665D01*
X185571Y212045D01*
X186045Y211571D01*
X186665Y211314D01*
X187335D01*
X187955Y211571D01*
X188429Y212045D01*
X188686Y212665D01*
Y213020D01*
X189437Y213772D01*
X189725Y214202D01*
X189825Y214709D01*
Y217956D01*
X191269D01*
Y222706D01*
D02*
G37*
G36*
X267585Y233166D02*
X266415D01*
X265286Y232863D01*
X264273Y232279D01*
X263446Y231452D01*
X262861Y230439D01*
X262558Y229309D01*
Y228140D01*
X262717Y227547D01*
Y220946D01*
X262865Y219823D01*
X263298Y218777D01*
X263987Y217879D01*
X281933Y199933D01*
X282831Y199244D01*
X283877Y198811D01*
X285000Y198663D01*
X318225D01*
X318336Y198552D01*
X319596Y197825D01*
X321001Y197448D01*
X322456D01*
X323861Y197825D01*
X325120Y198552D01*
X326149Y199580D01*
X326876Y200840D01*
X327253Y202245D01*
Y203700D01*
X326876Y205105D01*
X326149Y206364D01*
X325120Y207393D01*
X323861Y208120D01*
X322456Y208497D01*
X321001D01*
X319596Y208120D01*
X318336Y207393D01*
X318280Y207337D01*
X286796D01*
X271391Y222742D01*
Y227952D01*
X271442Y228140D01*
Y229309D01*
X271139Y230439D01*
X270554Y231452D01*
X269727Y232279D01*
X268714Y232863D01*
X267585Y233166D01*
D02*
G37*
G36*
X218907Y198500D02*
X217000D01*
Y196593D01*
X217184Y196642D01*
X217883Y197046D01*
X218454Y197617D01*
X218858Y198316D01*
X218907Y198500D01*
D02*
G37*
G36*
X215000D02*
X213093D01*
X213142Y198316D01*
X213546Y197617D01*
X214117Y197046D01*
X214816Y196642D01*
X215000Y196593D01*
Y198500D01*
D02*
G37*
G36*
X225123Y229178D02*
X218570D01*
Y221822D01*
X225123D01*
Y224429D01*
X229057D01*
X236031Y217455D01*
Y214005D01*
X232503D01*
Y209995D01*
X236031D01*
Y209044D01*
X234508D01*
X233726Y208889D01*
X233062Y208446D01*
X232619Y207782D01*
X232464Y207000D01*
X232619Y206218D01*
X233062Y205555D01*
X233726Y205111D01*
X234508Y204956D01*
X236031D01*
Y204044D01*
X234508D01*
X233726Y203889D01*
X233062Y203446D01*
X232619Y202782D01*
X232464Y202000D01*
X232619Y201218D01*
X233062Y200554D01*
X233726Y200111D01*
X234508Y199956D01*
X239695D01*
X240477Y200111D01*
X241140Y200554D01*
X241652Y200474D01*
X245814Y196311D01*
Y196165D01*
X246071Y195545D01*
X246545Y195071D01*
X247165Y194814D01*
X247835D01*
X248455Y195071D01*
X248929Y195545D01*
X249186Y196165D01*
Y196835D01*
X248929Y197455D01*
X248455Y197929D01*
X247835Y198186D01*
X247689D01*
X242937Y202937D01*
X242507Y203225D01*
X242000Y203326D01*
X241221D01*
X241140Y203446D01*
X240477Y203889D01*
X239695Y204044D01*
X238172D01*
Y204956D01*
X239695D01*
X240477Y205111D01*
X241140Y205555D01*
X241584Y206218D01*
X241739Y207000D01*
X241584Y207782D01*
X241140Y208446D01*
X240477Y208889D01*
X239695Y209044D01*
X238172D01*
Y209995D01*
X241700D01*
Y214005D01*
X238172D01*
Y217899D01*
X238090Y218308D01*
X237858Y218656D01*
X230257Y226257D01*
X229910Y226489D01*
X229500Y226571D01*
X225123D01*
Y229178D01*
D02*
G37*
G36*
X121772Y184186D02*
Y179528D01*
X126430D01*
X126106Y180737D01*
X125352Y182042D01*
X124286Y183108D01*
X122981Y183862D01*
X121772Y184186D01*
D02*
G37*
G36*
X119772D02*
X118562Y183862D01*
X117257Y183108D01*
X116191Y182042D01*
X115437Y180737D01*
X115113Y179528D01*
X119772D01*
Y184186D01*
D02*
G37*
G36*
X260492Y214044D02*
X255305D01*
X254523Y213889D01*
X253860Y213445D01*
X253416Y212782D01*
X253261Y212000D01*
X253416Y211218D01*
X253860Y210555D01*
X254523Y210111D01*
X255305Y209956D01*
X256828D01*
Y209044D01*
X255305D01*
X254523Y208889D01*
X253860Y208446D01*
X253416Y207782D01*
X253261Y207000D01*
X253416Y206218D01*
X253860Y205555D01*
X254523Y205111D01*
X255305Y204956D01*
X256828D01*
Y204044D01*
X255305D01*
X254523Y203889D01*
X253860Y203446D01*
X253416Y202782D01*
X253261Y202000D01*
X253416Y201218D01*
X253860Y200554D01*
X254523Y200111D01*
X255305Y199956D01*
X256828D01*
Y199044D01*
X255305D01*
X254523Y198889D01*
X253860Y198445D01*
X253416Y197782D01*
X253261Y197000D01*
X253416Y196218D01*
X253860Y195554D01*
X254523Y195111D01*
X255305Y194956D01*
X260492D01*
X261274Y195111D01*
X261938Y195554D01*
X262018Y195675D01*
X276451D01*
X293535Y178590D01*
X293965Y178303D01*
X294472Y178202D01*
X316204D01*
Y174003D01*
X327253D01*
Y185052D01*
X316204D01*
Y180853D01*
X295022D01*
X277937Y197937D01*
X277507Y198225D01*
X277000Y198326D01*
X262018D01*
X261938Y198445D01*
X261274Y198889D01*
X260492Y199044D01*
X258969D01*
Y199956D01*
X260492D01*
X261274Y200111D01*
X261938Y200554D01*
X262381Y201218D01*
X262536Y202000D01*
X262381Y202782D01*
X261938Y203446D01*
X261274Y203889D01*
X260492Y204044D01*
X258969D01*
Y204956D01*
X260492D01*
X261274Y205111D01*
X261938Y205555D01*
X262381Y206218D01*
X262536Y207000D01*
X262381Y207782D01*
X261938Y208446D01*
X261274Y208889D01*
X260492Y209044D01*
X258969D01*
Y209956D01*
X260492D01*
X261274Y210111D01*
X261938Y210555D01*
X262381Y211218D01*
X262536Y212000D01*
X262381Y212782D01*
X261938Y213445D01*
X261274Y213889D01*
X260492Y214044D01*
D02*
G37*
G36*
X246000Y175500D02*
X244093D01*
X244142Y175316D01*
X244546Y174617D01*
X245117Y174046D01*
X245816Y173642D01*
X246000Y173593D01*
Y175500D01*
D02*
G37*
G36*
X126430Y177528D02*
X121772D01*
Y172869D01*
X122981Y173193D01*
X124286Y173947D01*
X125352Y175013D01*
X126106Y176318D01*
X126430Y177528D01*
D02*
G37*
G36*
X119772D02*
X115113D01*
X115437Y176318D01*
X116191Y175013D01*
X117257Y173947D01*
X118562Y173193D01*
X119772Y172869D01*
Y177528D01*
D02*
G37*
G36*
X322728Y165501D02*
Y160843D01*
X327387D01*
X327063Y162052D01*
X326309Y163357D01*
X325243Y164423D01*
X323938Y165177D01*
X322728Y165501D01*
D02*
G37*
G36*
X320728Y165501D02*
X319519Y165177D01*
X318214Y164423D01*
X317148Y163357D01*
X316394Y162052D01*
X316070Y160843D01*
X320728D01*
Y165501D01*
D02*
G37*
G36*
X121772Y164501D02*
Y159843D01*
X126430D01*
X126106Y161052D01*
X125352Y162357D01*
X124286Y163423D01*
X122981Y164177D01*
X121772Y164501D01*
D02*
G37*
G36*
X119772D02*
X118562Y164177D01*
X117257Y163423D01*
X116191Y162357D01*
X115437Y161052D01*
X115113Y159843D01*
X119772D01*
Y164501D01*
D02*
G37*
G36*
X327387Y158843D02*
X322728D01*
Y154184D01*
X323938Y154508D01*
X325243Y155262D01*
X326309Y156328D01*
X327063Y157633D01*
X327387Y158843D01*
D02*
G37*
G36*
X320728D02*
X316070D01*
X316394Y157633D01*
X317148Y156328D01*
X318214Y155262D01*
X319519Y154508D01*
X320728Y154184D01*
Y158843D01*
D02*
G37*
G36*
X126430Y157843D02*
X121772D01*
Y153184D01*
X122981Y153508D01*
X124286Y154262D01*
X125352Y155328D01*
X126106Y156633D01*
X126430Y157843D01*
D02*
G37*
G36*
X119772D02*
X115113D01*
X115437Y156633D01*
X116191Y155328D01*
X117257Y154262D01*
X118562Y153508D01*
X119772Y153184D01*
Y157843D01*
D02*
G37*
G36*
X240000Y150963D02*
Y148343D01*
X242620D01*
X242500Y148792D01*
X242005Y149649D01*
X241306Y150348D01*
X240450Y150842D01*
X240000Y150963D01*
D02*
G37*
G36*
X238000D02*
X237550Y150842D01*
X236694Y150348D01*
X235995Y149649D01*
X235500Y148792D01*
X235380Y148343D01*
X238000D01*
Y150963D01*
D02*
G37*
G36*
X242620Y146343D02*
X240000D01*
Y143722D01*
X240450Y143843D01*
X241306Y144337D01*
X242005Y145036D01*
X242500Y145893D01*
X242620Y146343D01*
D02*
G37*
G36*
X238000D02*
X235380D01*
X235500Y145893D01*
X235995Y145036D01*
X236694Y144337D01*
X237550Y143843D01*
X238000Y143722D01*
Y146343D01*
D02*
G37*
G36*
X322456Y145682D02*
X321001D01*
X319596Y145305D01*
X318336Y144578D01*
X317308Y143550D01*
X316580Y142290D01*
X316296Y141228D01*
X305658D01*
X305248Y141147D01*
X304901Y140914D01*
X304901Y140914D01*
X297658Y133672D01*
X294544D01*
Y135195D01*
X294389Y135977D01*
X293946Y136640D01*
X293282Y137084D01*
X292500Y137239D01*
X291718Y137084D01*
X291055Y136640D01*
X290611Y135977D01*
X290456Y135195D01*
Y133672D01*
X289544D01*
Y135195D01*
X289389Y135977D01*
X288946Y136640D01*
X288282Y137084D01*
X287500Y137239D01*
X286718Y137084D01*
X286054Y136640D01*
X285611Y135977D01*
X285456Y135195D01*
Y133672D01*
X284544D01*
Y135195D01*
X284389Y135977D01*
X283945Y136640D01*
X283282Y137084D01*
X282500Y137239D01*
X281718Y137084D01*
X281054Y136640D01*
X280611Y135977D01*
X280456Y135195D01*
Y133672D01*
X279544D01*
Y135195D01*
X279389Y135977D01*
X278945Y136640D01*
X278282Y137084D01*
X277500Y137239D01*
X276718Y137084D01*
X276055Y136640D01*
X275611Y135977D01*
X275456Y135195D01*
Y130008D01*
X275611Y129226D01*
X276055Y128562D01*
X276718Y128119D01*
X277500Y127964D01*
X278282Y128119D01*
X278945Y128562D01*
X279389Y129226D01*
X279544Y130008D01*
Y131531D01*
X280456D01*
Y130008D01*
X280611Y129226D01*
X281054Y128562D01*
X281718Y128119D01*
X282500Y127964D01*
X283282Y128119D01*
X283945Y128562D01*
X284389Y129226D01*
X284544Y130008D01*
Y131531D01*
X285456D01*
Y130008D01*
X285611Y129226D01*
X286054Y128562D01*
X286718Y128119D01*
X287500Y127964D01*
X288282Y128119D01*
X288946Y128562D01*
X289389Y129226D01*
X289544Y130008D01*
Y131531D01*
X290456D01*
Y130008D01*
X290611Y129226D01*
X291055Y128562D01*
X291718Y128119D01*
X292500Y127964D01*
X293282Y128119D01*
X293946Y128562D01*
X294389Y129226D01*
X294544Y130008D01*
Y131531D01*
X298101D01*
X298511Y131612D01*
X298858Y131844D01*
X306101Y139087D01*
X316296D01*
X316580Y138025D01*
X317308Y136765D01*
X318336Y135737D01*
X319596Y135010D01*
X321001Y134633D01*
X322456D01*
X323861Y135010D01*
X325120Y135737D01*
X326149Y136765D01*
X326876Y138025D01*
X327253Y139430D01*
Y140885D01*
X326876Y142290D01*
X326149Y143550D01*
X325120Y144578D01*
X323861Y145305D01*
X322456Y145682D01*
D02*
G37*
G36*
X322728Y126131D02*
Y121473D01*
X327387D01*
X327063Y122682D01*
X326309Y123987D01*
X325243Y125053D01*
X323938Y125807D01*
X322728Y126131D01*
D02*
G37*
G36*
X320728Y126131D02*
X319519Y125807D01*
X318214Y125053D01*
X317148Y123987D01*
X316394Y122682D01*
X316070Y121473D01*
X320728D01*
Y126131D01*
D02*
G37*
G36*
X327387Y119473D02*
X322728D01*
Y114814D01*
X323938Y115138D01*
X325243Y115892D01*
X326309Y116958D01*
X327063Y118263D01*
X327387Y119473D01*
D02*
G37*
G36*
X320728D02*
X316070D01*
X316394Y118263D01*
X317148Y116958D01*
X318214Y115892D01*
X319519Y115138D01*
X320728Y114814D01*
Y119473D01*
D02*
G37*
G36*
X170335Y213186D02*
X169665D01*
X169045Y212929D01*
X168571Y212455D01*
X168314Y211835D01*
Y211689D01*
X158063Y201437D01*
X157775Y201007D01*
X157675Y200500D01*
Y177935D01*
X123627Y143888D01*
X122904Y144305D01*
X121499Y144682D01*
X120044D01*
X118639Y144305D01*
X117380Y143578D01*
X116351Y142550D01*
X115624Y141290D01*
X115247Y139885D01*
Y138430D01*
X115624Y137025D01*
X116351Y135765D01*
X117380Y134737D01*
X118639Y134010D01*
X120044Y133633D01*
X121499D01*
X122904Y134010D01*
X124164Y134737D01*
X125192Y135765D01*
X125920Y137025D01*
X126296Y138430D01*
Y139885D01*
X125920Y141290D01*
X125502Y142013D01*
X159937Y176449D01*
X160172Y176800D01*
X160519Y176772D01*
X160672Y176717D01*
Y166217D01*
X160662Y166216D01*
X159569Y165884D01*
X158561Y165346D01*
X157678Y164621D01*
X118054Y124997D01*
X115247D01*
Y121241D01*
X115056Y120609D01*
X114944Y119472D01*
X115056Y118335D01*
X115247Y117704D01*
Y113948D01*
X119003D01*
X119635Y113756D01*
X120772Y113644D01*
X121909Y113756D01*
X122540Y113948D01*
X126296D01*
Y116755D01*
X164213Y154672D01*
X167000D01*
X167285Y154700D01*
X167571D01*
X167852Y154756D01*
X168137Y154784D01*
X168411Y154867D01*
X168692Y154923D01*
X168956Y155032D01*
X169230Y155116D01*
X169483Y155251D01*
X169747Y155360D01*
X169985Y155519D01*
X170238Y155654D01*
X170459Y155836D01*
X170697Y155995D01*
X170900Y156197D01*
X171121Y156379D01*
X171303Y156600D01*
X171505Y156803D01*
X171664Y157041D01*
X171846Y157262D01*
X171981Y157515D01*
X172140Y157753D01*
X172249Y158017D01*
X172384Y158270D01*
X172468Y158544D01*
X172577Y158808D01*
X172633Y159089D01*
X172716Y159363D01*
X172744Y159648D01*
X172800Y159929D01*
Y160215D01*
X172828Y160500D01*
X172800Y160785D01*
Y161071D01*
X172744Y161352D01*
X172716Y161637D01*
X172633Y161911D01*
X172577Y162192D01*
X172468Y162456D01*
X172384Y162730D01*
X172328Y162836D01*
Y182607D01*
X172558Y183162D01*
X172800Y184379D01*
Y185620D01*
X172558Y186838D01*
X172083Y187984D01*
X171394Y189016D01*
X170516Y189893D01*
X169484Y190583D01*
X168338Y191058D01*
X167121Y191300D01*
X165879D01*
X164662Y191058D01*
X163516Y190583D01*
X162484Y189893D01*
X161607Y189016D01*
X160917Y187984D01*
X160826Y187763D01*
X160326Y187863D01*
Y199951D01*
X170189Y209814D01*
X170335D01*
X170955Y210071D01*
X171429Y210545D01*
X171686Y211165D01*
Y211835D01*
X171429Y212455D01*
X170955Y212929D01*
X170335Y213186D01*
D02*
G37*
G36*
X194504Y108874D02*
X193913D01*
Y107496D01*
X194504D01*
Y108874D01*
D02*
G37*
G36*
X168291D02*
X167701D01*
Y107496D01*
X168291D01*
Y108874D01*
D02*
G37*
G36*
X194504Y105496D02*
X193913D01*
Y104118D01*
X194504D01*
Y105496D01*
D02*
G37*
G36*
X168291D02*
X167701D01*
Y104118D01*
X168291D01*
Y105496D01*
D02*
G37*
G36*
X198110Y109841D02*
X197336Y109739D01*
X196615Y109441D01*
X195995Y108965D01*
X195520Y108346D01*
X195221Y107624D01*
X195119Y106850D01*
Y103556D01*
X167085D01*
Y106850D01*
X166983Y107624D01*
X166685Y108346D01*
X166209Y108965D01*
X165590Y109441D01*
X164869Y109739D01*
X164094Y109841D01*
X163320Y109739D01*
X162599Y109441D01*
X161980Y108965D01*
X161504Y108346D01*
X161205Y107624D01*
X161103Y106850D01*
Y102913D01*
X161205Y102139D01*
X161504Y101418D01*
X161980Y100798D01*
X162599Y100323D01*
X163320Y100024D01*
X164094Y99922D01*
X164869Y100024D01*
X165590Y100323D01*
X165681Y100393D01*
X166129Y100172D01*
Y99200D01*
X166388D01*
X166507Y99055D01*
Y89249D01*
X166007Y89002D01*
X165590Y89323D01*
X164869Y89621D01*
X164094Y89723D01*
X163320Y89621D01*
X162599Y89323D01*
X161980Y88847D01*
X161504Y88228D01*
X161205Y87506D01*
X161103Y86732D01*
Y80827D01*
X161205Y80053D01*
X161504Y79331D01*
X161980Y78712D01*
X162599Y78237D01*
X163320Y77938D01*
X164094Y77836D01*
X164869Y77938D01*
X165590Y78237D01*
X166007Y78557D01*
X166507Y78310D01*
Y76811D01*
X166569Y76499D01*
X166746Y76234D01*
X167011Y76057D01*
X167323Y75995D01*
X194882D01*
X195194Y76057D01*
X195459Y76234D01*
X195635Y76499D01*
X195698Y76811D01*
Y78310D01*
X196198Y78557D01*
X196615Y78237D01*
X197336Y77938D01*
X198110Y77836D01*
X198884Y77938D01*
X199606Y78237D01*
X200225Y78712D01*
X200700Y79331D01*
X200999Y80053D01*
X201101Y80827D01*
Y86732D01*
X200999Y87506D01*
X200700Y88228D01*
X200225Y88847D01*
X199606Y89323D01*
X198884Y89621D01*
X198110Y89723D01*
X197336Y89621D01*
X196615Y89323D01*
X196198Y89002D01*
X195698Y89249D01*
Y99055D01*
X195817Y99200D01*
X196076D01*
Y100172D01*
X196524Y100393D01*
X196615Y100323D01*
X197336Y100024D01*
X198110Y99922D01*
X198884Y100024D01*
X199606Y100323D01*
X200225Y100798D01*
X200700Y101418D01*
X200999Y102139D01*
X201101Y102913D01*
Y106850D01*
X200999Y107624D01*
X200700Y108346D01*
X200225Y108965D01*
X199606Y109441D01*
X198884Y109739D01*
X198110Y109841D01*
D02*
G37*
G36*
X119173Y102083D02*
X119110D01*
Y89583D01*
X131610D01*
Y89645D01*
X131278Y91744D01*
X130621Y93765D01*
X129657Y95658D01*
X128408Y97377D01*
X126905Y98880D01*
X125186Y100129D01*
X123292Y101094D01*
X121272Y101750D01*
X119173Y102083D01*
D02*
G37*
G36*
X117110D02*
X117048D01*
X114949Y101750D01*
X112928Y101094D01*
X111035Y100129D01*
X109316Y98880D01*
X107813Y97377D01*
X106564Y95658D01*
X105599Y93765D01*
X104943Y91744D01*
X104610Y89645D01*
Y89583D01*
X117110D01*
Y102083D01*
D02*
G37*
G36*
X340272Y87583D02*
X327772D01*
Y75083D01*
X327834D01*
X329933Y75415D01*
X331954Y76072D01*
X333847Y77036D01*
X335566Y78285D01*
X337069Y79788D01*
X338318Y81507D01*
X339283Y83400D01*
X339939Y85421D01*
X340272Y87520D01*
Y87583D01*
D02*
G37*
G36*
X325772D02*
X313272D01*
Y87520D01*
X313604Y85421D01*
X314261Y83400D01*
X315225Y81507D01*
X316474Y79788D01*
X317977Y78285D01*
X319696Y77036D01*
X321589Y76072D01*
X323610Y75415D01*
X325709Y75083D01*
X325772D01*
Y87583D01*
D02*
G37*
G36*
X131610D02*
X119110D01*
Y75083D01*
X119173D01*
X121272Y75415D01*
X123292Y76072D01*
X125186Y77036D01*
X126905Y78285D01*
X128408Y79788D01*
X129657Y81507D01*
X130621Y83400D01*
X131278Y85421D01*
X131610Y87520D01*
Y87583D01*
D02*
G37*
G36*
X117110D02*
X104610D01*
Y87520D01*
X104943Y85421D01*
X105599Y83400D01*
X106564Y81507D01*
X107813Y79788D01*
X109316Y78285D01*
X111035Y77036D01*
X112928Y76072D01*
X114949Y75415D01*
X117048Y75083D01*
X117110D01*
Y87583D01*
D02*
G37*
%LPD*%
G36*
X255010Y392637D02*
Y378938D01*
X254548Y378747D01*
X253329Y379966D01*
X252982Y380198D01*
X252572Y380279D01*
X246202D01*
Y381637D01*
Y386637D01*
Y391637D01*
Y393138D01*
X254509D01*
X255010Y392637D01*
D02*
G37*
G36*
X253710Y376557D02*
Y368938D01*
X253248Y368746D01*
X252029Y369966D01*
X251682Y370198D01*
X251272Y370279D01*
X246202D01*
Y371637D01*
Y376637D01*
Y378138D01*
X252129D01*
X253710Y376557D01*
D02*
G37*
G36*
X165019Y304048D02*
X164812Y303548D01*
X161716D01*
Y303548D01*
X161347D01*
Y303548D01*
X157910D01*
X157779Y303548D01*
X157410D01*
X157279Y303548D01*
X154791D01*
X154600Y304010D01*
X157520Y306929D01*
X162138D01*
X165019Y304048D01*
D02*
G37*
G36*
X242175Y302451D02*
Y285553D01*
X241713Y285362D01*
X239637Y287437D01*
X239207Y287725D01*
X238700Y287825D01*
X228367D01*
Y289367D01*
X222633D01*
Y283633D01*
X222933D01*
X223132Y283133D01*
X222829Y282607D01*
X222633Y281877D01*
Y281123D01*
X222763Y280638D01*
X221196Y279070D01*
X220908Y278640D01*
X220808Y278133D01*
Y266124D01*
X220908Y265616D01*
X221196Y265187D01*
X228116Y258266D01*
Y255666D01*
X220058D01*
Y252550D01*
X216952D01*
X216926Y252576D01*
Y297900D01*
X216825Y298407D01*
X216537Y298837D01*
X211162Y304213D01*
X211353Y304675D01*
X222955D01*
X223206Y304240D01*
X223488Y303957D01*
X223604Y303506D01*
X223466Y303304D01*
X223046Y302883D01*
X222642Y302184D01*
X222593Y302000D01*
X225500D01*
X228407D01*
X228358Y302184D01*
X227954Y302883D01*
X227534Y303304D01*
X227396Y303506D01*
X227512Y303957D01*
X227794Y304240D01*
X228171Y304893D01*
X228367Y305623D01*
Y306377D01*
X228171Y307107D01*
X227868Y307633D01*
X228067Y308133D01*
X228367D01*
Y309675D01*
X234951D01*
X242175Y302451D01*
D02*
G37*
G36*
X214256Y297370D02*
X214206Y296879D01*
X213774Y296701D01*
X213501Y296975D01*
X212881Y297231D01*
X212210D01*
X211591Y296975D01*
X211116Y296501D01*
X211071Y296391D01*
X210581Y296294D01*
X199186Y307689D01*
Y307835D01*
X199045Y308174D01*
X199363Y308675D01*
X202951D01*
X214256Y297370D01*
D02*
G37*
G36*
X179449Y201436D02*
X179429Y201339D01*
Y149943D01*
X178377Y148891D01*
X178145Y148544D01*
X178063Y148134D01*
Y108674D01*
X176573D01*
Y140142D01*
X176657Y140267D01*
X176777Y140872D01*
X176657Y141477D01*
X176314Y141990D01*
X175645Y142659D01*
Y150410D01*
X177049Y151814D01*
X177392Y152327D01*
X177512Y152931D01*
Y200206D01*
X178988Y201682D01*
X179449Y201436D01*
D02*
G37*
%LPC*%
G36*
X228407Y300000D02*
X226500D01*
Y298093D01*
X226684Y298142D01*
X227383Y298546D01*
X227954Y299117D01*
X228358Y299816D01*
X228407Y300000D01*
D02*
G37*
G36*
X224500D02*
X222593D01*
X222642Y299816D01*
X223046Y299117D01*
X223617Y298546D01*
X224316Y298142D01*
X224500Y298093D01*
Y300000D01*
D02*
G37*
%LPD*%
D13*
X174744Y349000D02*
X188000D01*
X171000Y266000D02*
X196500Y240500D01*
Y213308D02*
Y240500D01*
X162500Y266000D02*
X171000D01*
X159500Y269000D02*
X162500Y266000D01*
X159500Y269000D02*
Y275126D01*
X159563Y275189D01*
X199740Y278669D02*
X200027Y278957D01*
X201079D01*
X199846Y291669D02*
X201823Y289693D01*
Y287177D02*
Y289693D01*
X201079Y278957D02*
X204000Y281878D01*
X201823Y287177D02*
X204000Y285000D01*
Y281878D02*
Y285000D01*
X206500Y231739D02*
X208577Y229662D01*
X206500Y231739D02*
Y290000D01*
X208954Y251036D02*
Y292954D01*
Y251036D02*
X210377Y249614D01*
X211500Y251036D02*
Y293500D01*
Y251036D02*
X212177Y250359D01*
X197500Y307500D02*
X211500Y293500D01*
X213800Y251282D02*
Y294082D01*
X212546Y295337D02*
Y295546D01*
Y295337D02*
X213800Y294082D01*
X212177Y235209D02*
Y250359D01*
X213800Y251282D02*
X218799Y246283D01*
X215600Y252027D02*
Y297900D01*
X203500Y310000D02*
X215600Y297900D01*
Y252027D02*
X216403Y251224D01*
X194500Y310000D02*
X203500D01*
X222133Y266124D02*
Y278133D01*
X229442Y247044D02*
Y258815D01*
X228680Y246283D02*
X229442Y247044D01*
X222133Y278133D02*
X225500Y281500D01*
X222133Y266124D02*
X229442Y258815D01*
X210377Y222083D02*
Y249614D01*
X212177Y235209D02*
X214386Y233000D01*
X218799Y246283D02*
X228680D01*
X191000Y312500D02*
X203716D01*
X210216Y306000D02*
X225500D01*
X203716Y312500D02*
X210216Y306000D01*
X208577Y221338D02*
X210000Y219915D01*
X211800Y205286D02*
Y220660D01*
X210377Y222083D02*
X211800Y220660D01*
X210000Y193000D02*
X220500Y182500D01*
X208577Y221338D02*
Y229662D01*
X210000Y193000D02*
Y219915D01*
X211800Y205286D02*
X212586Y204500D01*
X216000D01*
X214386Y233000D02*
X232000D01*
X216403Y251224D02*
X224500D01*
X196839Y374681D02*
X204063D01*
X242000Y202000D02*
X247500Y196500D01*
X237101Y202000D02*
X242000D01*
X280654Y169654D02*
X283000Y172000D01*
X272500Y169654D02*
X280654D01*
X187000Y213209D02*
X188500Y214709D01*
X187000Y213000D02*
Y213209D01*
X188500Y214709D02*
Y220331D01*
X159000Y200500D02*
X170000Y211500D01*
X159000Y177386D02*
Y200500D01*
X120772Y139157D02*
X159000Y177386D01*
X229000Y364000D02*
X241256D01*
X174535Y339209D02*
X181509D01*
X184500Y342200D01*
X193500D01*
X193886Y341814D02*
X204746D01*
X193500Y342200D02*
X193886Y341814D01*
X207431Y344500D02*
X218500D01*
X204746Y341814D02*
X207431Y344500D01*
X242000Y311500D02*
Y312000D01*
X235500Y311000D02*
X243500Y303000D01*
Y273000D02*
Y303000D01*
X225500Y311000D02*
X235500D01*
X249358Y307142D02*
X252500Y304000D01*
X246358Y307142D02*
X249358D01*
X242000Y311500D02*
X246358Y307142D01*
X174535Y349209D02*
X174744Y349000D01*
X241256Y364000D02*
X241465Y364209D01*
X190500Y326500D02*
Y335272D01*
X174535Y344209D02*
X174744Y344000D01*
X197000D01*
X174744Y379000D02*
X188500D01*
X174535Y379209D02*
X174744Y379000D01*
Y374000D02*
X188000D01*
X174535Y374209D02*
X174744Y374000D01*
X220500Y182500D02*
X246000D01*
X252000Y176500D01*
X232000Y233000D02*
X236276Y228724D01*
X257000D01*
X195078Y211886D02*
X196500Y213308D01*
X195078Y209578D02*
Y211886D01*
X195000Y209500D02*
X195078Y209578D01*
X175932Y200500D02*
X183431Y208000D01*
X183500D01*
X171394Y220394D02*
X174500Y223500D01*
X167555Y220394D02*
X171394D01*
X174500Y223500D02*
Y232000D01*
X177500Y235000D01*
X180350D01*
X180850Y235500D01*
X181000Y230817D02*
Y235350D01*
Y226283D02*
Y230817D01*
X183526D02*
X188106Y226236D01*
X181000Y230817D02*
X183526D01*
X188106Y226236D02*
X188500D01*
X180850Y235500D02*
X181000Y235350D01*
X310806Y284972D02*
X321728D01*
X290234Y264400D02*
X310806Y284972D01*
X241700Y272254D02*
X249554Y264400D01*
X290234D01*
X241700Y272254D02*
Y283500D01*
X289488Y266200D02*
X304300Y281012D01*
Y295000D01*
X243500Y273000D02*
X250300Y266200D01*
X289488D01*
X238700Y286500D02*
X241700Y283500D01*
X225500Y286500D02*
X238700D01*
X304300Y295000D02*
X313958Y304658D01*
X321728D01*
X294472Y179528D02*
X321728D01*
X277000Y197000D02*
X294472Y179528D01*
X257899Y197000D02*
X277000D01*
D14*
X181800Y148961D02*
X183071Y147691D01*
Y107283D02*
Y147691D01*
X179134Y148134D02*
X180500Y149500D01*
X179134Y107283D02*
Y148134D01*
X177000Y265500D02*
X180500Y262000D01*
X169969Y263000D02*
X193500Y239470D01*
X170508Y264300D02*
X194800Y240008D01*
X180500Y262000D02*
X185500D01*
X193500Y214338D02*
Y239470D01*
X194800Y213800D02*
Y240008D01*
X185500Y262000D02*
X187500Y260000D01*
X198000D01*
X146650Y270812D02*
X154462Y263000D01*
X155000Y264300D02*
X170508D01*
X147950Y271350D02*
X155000Y264300D01*
X154462Y263000D02*
X169969D01*
X155626Y268374D02*
X157000Y267000D01*
X155626Y268374D02*
Y275189D01*
X167437Y278142D02*
X168646Y279351D01*
Y279846D01*
X169000Y280200D01*
X167437Y275189D02*
Y278142D01*
X169000Y280200D02*
X176728D01*
X178428Y278500D02*
X186500D01*
X176728Y280200D02*
X178428Y278500D01*
X166858Y281500D02*
X186500D01*
X163500Y275189D02*
Y278142D01*
X166858Y281500D01*
X159563Y295858D02*
X163752Y291669D01*
X159563Y295858D02*
Y298811D01*
X163752Y291669D02*
X192154D01*
X157076Y308000D02*
X162581D01*
X146650Y299412D02*
X156538Y309300D01*
X162581Y308000D02*
X167500Y303081D01*
X147950Y298874D02*
X157076Y308000D01*
X146650Y270812D02*
Y299412D01*
X156538Y309300D02*
X166700D01*
X171374Y304626D01*
X147950Y271350D02*
Y298874D01*
X167437Y298811D02*
X167500Y298874D01*
Y303081D01*
X171374Y298811D02*
Y304626D01*
X189936Y278080D02*
X190526Y278669D01*
X189936Y273064D02*
Y278080D01*
X190526Y278669D02*
X192260D01*
X189936Y273064D02*
X191654Y271346D01*
X200000Y281488D02*
Y284000D01*
X199740Y281228D02*
X200000Y281488D01*
X199500Y261500D02*
Y265346D01*
X199346Y265500D02*
Y265902D01*
Y265500D02*
X199500Y265346D01*
X199346Y265902D02*
X204000Y270555D01*
X198000Y260000D02*
X199500Y261500D01*
X192260Y273740D02*
Y276110D01*
X191967Y283000D02*
X192260Y282707D01*
Y273740D02*
X193500Y272500D01*
X190000Y283000D02*
X191967D01*
X188594Y284405D02*
X192154Y287965D01*
Y291669D01*
X192260Y281228D02*
Y282707D01*
X188594Y284405D02*
X190000Y283000D01*
X191654Y265500D02*
Y271346D01*
X199740Y276110D02*
X201390D01*
X204000Y270555D02*
Y273500D01*
X201390Y276110D02*
X204000Y273500D01*
X210042Y313000D02*
X212986D01*
X237101Y202000D02*
Y207000D01*
X225500Y335272D02*
Y342500D01*
X227500Y344500D01*
X224500Y352500D02*
X234500Y342500D01*
Y340500D02*
Y342500D01*
X192000Y352500D02*
X224500D01*
X260000Y356200D02*
Y359500D01*
X140700Y331961D02*
X150961Y321700D01*
X120953Y324162D02*
X146661D01*
X150423Y320400D01*
X151500Y323000D02*
X244981D01*
X140700Y331961D02*
Y359500D01*
X142000Y332500D02*
Y385614D01*
X150423Y320400D02*
X246058D01*
X150961Y321700D02*
X245519D01*
X142000Y332500D02*
X151500Y323000D01*
X231209Y389209D02*
X241465D01*
X223500Y381500D02*
X231209Y389209D01*
X227919Y384081D02*
X241337D01*
X241465Y384209D01*
X195500Y360200D02*
X216539D01*
X192800Y357500D02*
X195500Y360200D01*
X192500Y357500D02*
X192800D01*
X192500Y361500D02*
X216000D01*
X188136Y357136D02*
X192500Y361500D01*
X188136Y355636D02*
Y357136D01*
X188000Y355500D02*
X188136Y355636D01*
X224800Y368461D02*
Y380961D01*
X216539Y360200D02*
X224800Y368461D01*
Y380961D02*
X227919Y384081D01*
X223500Y369000D02*
Y381500D01*
X216000Y361500D02*
X223500Y369000D01*
X234500Y340500D02*
X235791Y339209D01*
X241465D01*
X174535Y394209D02*
X174744Y394000D01*
X183500D01*
X180500Y201339D02*
X193500Y214338D01*
X181800Y200800D02*
X194800Y213800D01*
X181800Y148961D02*
Y200800D01*
X180500Y149500D02*
Y201339D01*
X120772Y202972D02*
X141000Y223201D01*
X120772Y222657D02*
X139700Y241586D01*
X120772Y262028D02*
X138400Y279656D01*
X120772Y284972D02*
X136472D01*
X137100Y285600D01*
Y306196D01*
X230500Y327000D02*
Y335272D01*
X151500Y315081D02*
X207962D01*
X210042Y313000D01*
X263100Y342000D02*
X263500D01*
Y344000D01*
X260100Y339000D02*
X263100Y342000D01*
X260100Y328927D02*
Y339000D01*
X247554Y316381D02*
X260100Y328927D01*
X241673Y344000D02*
X249000D01*
X241465Y344209D02*
X241673Y344000D01*
X150961Y316381D02*
X247554D01*
X251791Y399209D02*
X257500Y393500D01*
Y331500D02*
Y393500D01*
X241465Y399209D02*
X251791D01*
X257381Y331381D02*
X257500Y331500D01*
X246477Y318981D02*
X257381Y329885D01*
Y331381D01*
X149885Y318981D02*
X246477D01*
X258800Y355000D02*
X260000Y356200D01*
X247015Y317681D02*
X258800Y329465D01*
Y355000D01*
X241756Y359500D02*
X249000D01*
X241465Y359209D02*
X241756Y359500D01*
X150423Y317681D02*
X247015D01*
X137100Y306196D02*
X149885Y318981D01*
X138400Y279656D02*
Y305658D01*
X150423Y317681D01*
X139700Y241586D02*
Y305119D01*
X150961Y316381D01*
X141000Y223201D02*
Y304581D01*
X151500Y315081D01*
X120772Y324342D02*
X120953Y324162D01*
X132728Y367472D02*
X140700Y359500D01*
X120772Y367472D02*
X132728D01*
X120772Y406843D02*
X142000Y385614D01*
X241465Y369209D02*
X251272D01*
X253481Y367000D01*
X244981Y323000D02*
X253481Y331500D01*
Y367000D01*
X241465Y379209D02*
X252572D01*
X254781Y377000D01*
X245519Y321700D02*
X254781Y330961D01*
Y377000D01*
X246058Y320400D02*
X256081Y330423D01*
X241465Y394209D02*
X254953D01*
X256081Y393081D01*
Y330423D02*
Y393081D01*
X274000Y362500D02*
X278724D01*
X270500Y359000D02*
X274000Y362500D01*
X241673Y349000D02*
X249000D01*
X241465Y349209D02*
X241673Y349000D01*
X280000Y310000D02*
Y316000D01*
X267500Y328500D02*
X280000Y316000D01*
X267500Y328500D02*
Y352500D01*
X241673Y354000D02*
X249000D01*
X241465Y354209D02*
X241673Y354000D01*
X305658Y140157D02*
X321728D01*
X298101Y132601D02*
X305658Y140157D01*
X292500Y132601D02*
X298101D01*
X287500D02*
X292500D01*
X282500D02*
X287500D01*
X277500D02*
X282500D01*
X287500Y153399D02*
X292500D01*
X282500D02*
X287500D01*
X276500Y160000D02*
X277500Y159000D01*
X266500Y163500D02*
X270000Y160000D01*
X276500D01*
X277500Y153399D02*
Y159000D01*
X272500Y163000D02*
X273775Y161725D01*
X279775D01*
X282500Y159000D01*
X272500Y163000D02*
Y169654D01*
X282500Y153399D02*
Y159000D01*
X257899Y197000D02*
Y202000D01*
Y207000D01*
Y212000D01*
X232778Y197222D02*
X236879D01*
X229500Y200500D02*
X232778Y197222D01*
X229500Y200500D02*
Y202000D01*
X222000Y209500D02*
X229500Y202000D01*
X216000Y209500D02*
X222000D01*
X237101Y207000D02*
Y212000D01*
Y217899D01*
X229500Y225500D02*
X237101Y217899D01*
X221846Y225500D02*
X229500D01*
X214000Y217000D02*
Y225346D01*
X216000Y209500D02*
Y215000D01*
X214000Y217000D02*
X216000Y215000D01*
X265500Y177500D02*
X272346D01*
X264500Y176500D02*
X265500Y177500D01*
X257000Y176500D02*
X264500D01*
X266500Y163500D02*
Y171748D01*
X272098Y177346D02*
X272500D01*
X266500Y171748D02*
X272098Y177346D01*
D16*
X99410Y466535D02*
X341535D01*
X346457Y461614D01*
Y77756D02*
Y461614D01*
X341535Y72835D02*
X346457Y77756D01*
X98425Y72835D02*
X341535D01*
X94488Y76772D02*
X98425Y72835D01*
X94488Y76772D02*
Y461614D01*
X99410Y466535D01*
D17*
X156851Y226000D02*
X159475D01*
X160000Y226525D01*
Y227574D01*
X159475Y228099D01*
X156851D01*
X160000Y229149D02*
Y230198D01*
Y229673D01*
X156851D01*
X157376Y229149D01*
D18*
X169291Y106496D02*
D03*
X171260D02*
D03*
X173228D02*
D03*
X175197D02*
D03*
X177165D02*
D03*
X179134D02*
D03*
X183071D02*
D03*
X185039D02*
D03*
X187008D02*
D03*
X188976D02*
D03*
X190945D02*
D03*
X192913D02*
D03*
X189961Y101378D02*
D03*
X187992D02*
D03*
X186024D02*
D03*
X184055D02*
D03*
X182087D02*
D03*
X180118D02*
D03*
X178150D02*
D03*
X176181D02*
D03*
X174213D02*
D03*
X172244D02*
D03*
D19*
X168898D02*
D03*
X193307D02*
D03*
D20*
X171374Y275189D02*
D03*
X167437D02*
D03*
X163500D02*
D03*
X159563D02*
D03*
X155626D02*
D03*
Y298811D02*
D03*
X159563D02*
D03*
X163500D02*
D03*
X167437D02*
D03*
X171374D02*
D03*
X175311D02*
D03*
D21*
X191654Y265500D02*
D03*
X199346D02*
D03*
X192154Y291669D02*
D03*
X199846D02*
D03*
X221846Y225500D02*
D03*
X214154D02*
D03*
D22*
X192260Y281228D02*
D03*
Y278669D02*
D03*
Y276110D02*
D03*
X199740D02*
D03*
Y278669D02*
D03*
Y281228D02*
D03*
D23*
X188500Y220331D02*
D03*
Y226236D02*
D03*
X181000Y226283D02*
D03*
Y220378D02*
D03*
D24*
X292500Y153399D02*
D03*
D25*
X287500D02*
D03*
X282500D02*
D03*
X277500D02*
D03*
Y132601D02*
D03*
X282500D02*
D03*
X287500D02*
D03*
X292500D02*
D03*
D26*
X149445Y220394D02*
D03*
X158500D02*
D03*
X167555D02*
D03*
D27*
X158500Y244606D02*
D03*
D28*
X180850Y235500D02*
D03*
X187150D02*
D03*
X151150Y255500D02*
D03*
X144850D02*
D03*
D29*
X257899Y212000D02*
D03*
Y207000D02*
D03*
Y202000D02*
D03*
Y197000D02*
D03*
X237101D02*
D03*
Y202000D02*
D03*
Y207000D02*
D03*
D30*
Y212000D02*
D03*
D31*
X272500Y169654D02*
D03*
Y177346D02*
D03*
D32*
X158500Y405150D02*
D03*
Y398850D02*
D03*
D33*
X211287Y367457D02*
D03*
X204063D02*
D03*
X196839D02*
D03*
X211287Y374681D02*
D03*
X204063D02*
D03*
X196839D02*
D03*
X211287Y381906D02*
D03*
X204063D02*
D03*
X196839D02*
D03*
D34*
X230500Y335272D02*
D03*
X225500D02*
D03*
X220500D02*
D03*
X215500D02*
D03*
X210500D02*
D03*
X205500D02*
D03*
X200500D02*
D03*
X195500D02*
D03*
X190500D02*
D03*
X185500D02*
D03*
D35*
X241465Y404209D02*
D03*
Y399209D02*
D03*
Y394209D02*
D03*
Y389209D02*
D03*
Y384209D02*
D03*
Y379209D02*
D03*
Y374209D02*
D03*
Y369209D02*
D03*
Y364209D02*
D03*
Y359209D02*
D03*
Y354209D02*
D03*
Y349209D02*
D03*
Y344209D02*
D03*
Y339209D02*
D03*
X174535D02*
D03*
Y344209D02*
D03*
Y349209D02*
D03*
Y354209D02*
D03*
Y359209D02*
D03*
Y364209D02*
D03*
Y369209D02*
D03*
Y374209D02*
D03*
Y379209D02*
D03*
Y384209D02*
D03*
Y389209D02*
D03*
Y394209D02*
D03*
Y399209D02*
D03*
Y404209D02*
D03*
D41*
X164094Y104882D02*
D03*
X198110D02*
D03*
D42*
X164094Y83780D02*
D03*
X198110D02*
D03*
D46*
X257000Y228724D02*
D03*
X224500Y251224D02*
D03*
D47*
X267000Y228724D02*
D03*
X277000D02*
D03*
X252500Y284000D02*
D03*
Y294000D02*
D03*
X244500Y251224D02*
D03*
X234500D02*
D03*
X280000Y290000D02*
D03*
Y300000D02*
D03*
X278724Y342500D02*
D03*
Y352500D02*
D03*
Y396500D02*
D03*
Y406500D02*
D03*
D49*
X252500Y304000D02*
D03*
X280000Y310000D02*
D03*
X278724Y362500D02*
D03*
Y416500D02*
D03*
D58*
X312000Y406500D02*
X322500D01*
X307500Y382400D02*
X311600Y386500D01*
X291700Y333950D02*
X307500Y349750D01*
X311600Y386500D02*
X321571D01*
X307500Y349750D02*
Y382400D01*
X285000Y203000D02*
X321701D01*
X321728Y202972D01*
X242151Y242342D02*
X321728D01*
X267054Y220946D02*
X285000Y203000D01*
X236558Y247935D02*
Y249089D01*
X234500Y251148D02*
Y251224D01*
X236558Y247935D02*
X242151Y242342D01*
X267054Y220946D02*
Y228670D01*
X234500Y251148D02*
X236558Y249089D01*
X267000Y228724D02*
X267054Y228670D01*
X321571Y386500D02*
X321728Y386658D01*
X291700Y308500D02*
Y333950D01*
X285054Y352554D02*
X298000Y365500D01*
X278779Y352554D02*
X285054D01*
X298000Y365500D02*
Y392500D01*
X299500Y283000D02*
Y312500D01*
X310874Y323874D01*
X287942Y304577D02*
Y304742D01*
X280000Y300000D02*
X280054Y300054D01*
X283419D01*
X287942Y304577D01*
Y304742D02*
X291700Y308500D01*
X298000Y392500D02*
X312000Y406500D01*
X321260Y323874D02*
X321728Y324342D01*
X310874Y323874D02*
X321260D01*
X278724Y352500D02*
X278779Y352554D01*
X290054Y406554D02*
X309528Y426028D01*
X321728D01*
X278724Y406500D02*
X278779Y406554D01*
X290054D01*
X287500Y271000D02*
X299500Y283000D01*
X276500Y271000D02*
X287500D01*
X270500Y277000D02*
X276500Y271000D01*
X270500Y277000D02*
Y283000D01*
X259554Y293946D02*
X270500Y283000D01*
X252500Y294000D02*
X252554Y293946D01*
X259554D01*
D59*
X158500Y220394D02*
Y244606D01*
X174064Y142005D02*
X175197Y140872D01*
X158500Y338000D02*
Y398850D01*
X151500Y331000D02*
X158500Y338000D01*
X144000Y267500D02*
Y299500D01*
X151500Y307000D01*
X151150Y255500D02*
Y260350D01*
X144000Y267500D02*
X151150Y260350D01*
X158500Y398850D02*
X158679Y399029D01*
X174356D01*
X174535Y399209D01*
X175932Y200500D02*
Y208931D01*
Y152931D02*
Y200500D01*
Y208931D02*
X180500Y213500D01*
X174064Y151064D02*
X175932Y152931D01*
X174064Y142005D02*
Y151064D01*
X180500Y213500D02*
Y219878D01*
X181000Y220378D01*
X154500Y255500D02*
X158500Y251500D01*
X151150Y255500D02*
X154500D01*
X158500Y244606D02*
Y251500D01*
D60*
X171500Y271000D02*
Y275063D01*
X171374Y275189D02*
X171500Y275063D01*
Y271000D02*
X172500Y270000D01*
X177500D01*
X158500Y251500D02*
X165500Y258500D01*
D61*
X259944Y127657D02*
X279601Y108000D01*
X239000Y127657D02*
X259944D01*
X335500Y330256D02*
Y358500D01*
Y248256D02*
Y330256D01*
X321728Y344028D02*
X335500Y330256D01*
Y208886D02*
Y248256D01*
Y116000D02*
Y208886D01*
X321728Y222657D02*
X335500Y208886D01*
X321728Y262028D02*
X335500Y248256D01*
X327028Y366972D02*
X335500Y358500D01*
X321728Y366972D02*
X327028D01*
X327500Y108000D02*
X335500Y116000D01*
X279601Y108000D02*
X327500D01*
X197000Y160500D02*
X206157D01*
X239000Y127657D01*
X161799Y160500D02*
X167000D01*
X120772Y119472D02*
X161799Y160500D01*
X166500Y161000D02*
X167000Y160500D01*
X196500Y161000D02*
X197000Y160500D01*
X196500Y161000D02*
Y185000D01*
X166500Y161000D02*
Y185000D01*
D62*
X175197Y107283D02*
Y140872D01*
D63*
X236879Y197222D02*
X237101Y197000D01*
X214000Y225346D02*
X214154Y225500D01*
X272346Y177500D02*
X272500Y177346D01*
D64*
X321728Y406343D02*
D03*
Y386658D02*
D03*
Y366972D02*
D03*
Y120472D02*
D03*
Y140157D02*
D03*
Y159843D02*
D03*
Y284972D02*
D03*
Y304658D02*
D03*
Y324342D02*
D03*
Y202972D02*
D03*
Y222657D02*
D03*
Y242342D02*
D03*
X120772Y426528D02*
D03*
Y406843D02*
D03*
Y387158D02*
D03*
Y344028D02*
D03*
Y324342D02*
D03*
Y304658D02*
D03*
Y262028D02*
D03*
Y242342D02*
D03*
Y222657D02*
D03*
Y178528D02*
D03*
Y158843D02*
D03*
Y139157D02*
D03*
D65*
X321728Y426028D02*
D03*
Y179528D02*
D03*
Y344028D02*
D03*
Y262028D02*
D03*
X120772Y367472D02*
D03*
Y284972D02*
D03*
Y202972D02*
D03*
Y119472D02*
D03*
D66*
X326772Y88583D02*
D03*
X118110D02*
D03*
X327000Y451000D02*
D03*
X118000D02*
D03*
D67*
X196500Y185000D02*
D03*
X166500D02*
D03*
D68*
X225500Y286500D02*
D03*
Y311000D02*
D03*
X216000Y209500D02*
D03*
D69*
X225500Y281500D02*
D03*
Y276500D02*
D03*
Y306000D02*
D03*
Y301000D02*
D03*
X252000Y176500D02*
D03*
X247000D02*
D03*
X216000Y204500D02*
D03*
Y199500D02*
D03*
D70*
X257000Y176500D02*
D03*
D71*
X167000Y160500D02*
D03*
X197000D02*
D03*
D72*
X239000Y147343D02*
D03*
Y127657D02*
D03*
D73*
X188000Y349000D02*
D03*
X186500Y278500D02*
D03*
Y281500D02*
D03*
X193500Y272500D02*
D03*
X200000Y284000D02*
D03*
X206500Y290000D02*
D03*
X208954Y292954D02*
D03*
X212986Y313000D02*
D03*
X212546Y295546D02*
D03*
X197500Y307500D02*
D03*
X194500Y310000D02*
D03*
X191000Y312500D02*
D03*
X247500Y196500D02*
D03*
X283000Y172000D02*
D03*
X227500Y344500D02*
D03*
X260000Y359500D02*
D03*
X187000Y213000D02*
D03*
X170000Y211500D02*
D03*
X151500Y331000D02*
D03*
Y307000D02*
D03*
X192500Y357500D02*
D03*
X188000Y355500D02*
D03*
X192000Y352500D02*
D03*
X183500Y394000D02*
D03*
X229000Y364000D02*
D03*
X218500Y344500D02*
D03*
X242000Y312000D02*
D03*
X190500Y326500D02*
D03*
X197000Y344000D02*
D03*
X188500Y379000D02*
D03*
X188000Y374000D02*
D03*
X195000Y209500D02*
D03*
X183500Y208000D02*
D03*
X230500Y327000D02*
D03*
X263500Y344000D02*
D03*
X249000D02*
D03*
Y359500D02*
D03*
X270500Y359000D02*
D03*
X249000Y349000D02*
D03*
X267500Y352500D02*
D03*
X249000Y354000D02*
D03*
D74*
X177500Y270000D02*
D03*
X177000Y265500D02*
D03*
X165500Y258500D02*
D03*
X157000Y267000D02*
D03*
D75*
X176500Y311000D02*
D03*
M02*
